<svg width="108" height="182" viewBox="0 0 108 182" fill="none" xmlns="http://www.w3.org/2000/svg">
<path d="M41.3121 144.386C41.3121 144.386 31.1169 147.395 23.5522 148.017C20.7536 148.242 18.3094 148.146 16.8857 147.449C11.6185 144.867 6.54988 134.75 4.0996 124.487C1.64932 114.219 1.70126 89.542 1.70126 89.542H39.644L39.8181 95.2833L41.3091 144.386H41.3121Z" fill="#FF5A63"/>
<path d="M41.312 144.386C41.312 144.386 31.1168 147.394 23.5521 148.017C21.8564 144.575 20.5029 140.927 19.2381 137.283C17.903 133.452 16.6442 129.583 15.5168 125.678C13.5646 118.906 12.0033 111.99 11.1632 104.961C10.769 101.635 10.1885 97.9258 10.4788 94.5704C10.6804 92.1846 12.6205 90.4988 14.6461 89.5419C14.7805 89.4809 14.9089 89.4199 15.0402 89.3653C17.1086 88.4791 19.3786 88.2672 21.612 88.2736C24.0562 88.2736 26.5003 88.5241 28.9048 89.0121C29.635 89.1598 30.3621 89.33 31.0832 89.5419C32.1097 89.8341 33.1149 90.2002 34.0834 90.6754C36.3015 91.7672 38.1988 93.3662 39.8211 95.2832L41.312 144.386Z" fill="#7B3F40"/>
<path d="M32.1963 58.7132C32.0985 58.7934 31.9916 58.8705 31.8938 58.9508C30.1126 60.4086 29.0311 62.7783 29.0677 65.1512C29.0922 66.6026 29.4741 68.1888 28.7317 69.4154C28.2734 70.1732 27.4668 70.6099 26.8344 71.22C25.1968 72.7934 24.8302 75.3012 23.9655 77.4493C23.3514 78.9617 22.4501 80.336 21.6436 81.7456C19.0497 86.2796 17.296 91.3754 16.5566 96.6029C16.5322 96.7795 16.5108 96.9625 16.4864 97.1327C13.5472 96.8084 9.39825 95.9864 5.59451 93.9346C3.63306 92.8846 1.75716 91.5006 0.189831 89.6929C0.189831 89.6929 -4.22801 57.6921 32.1993 58.7067L32.1963 58.7132Z" fill="#7B3F40"/>
<path d="M52.6625 105.195L26.7207 98.8793C29.5376 95.7614 31.6793 91.8729 34.2335 88.4564C38.5719 82.6541 44.2729 78.0592 48.3027 72.0161C48.703 71.4188 49.0971 70.7349 49.0116 70.0092C48.9535 69.4858 48.6388 69.0266 48.3272 68.606C45.663 64.9872 42.4062 61.8372 38.746 59.3423C69.4785 64.9262 52.6625 105.192 52.6625 105.192V105.195Z" fill="#9C4C4F"/>
<path d="M97.9224 161.073C97.4031 148.99 94.2317 138.16 92.6247 133.356C92.0595 131.674 91.6898 130.729 91.6898 130.729L73.7985 132.203C73.7985 132.203 71.8553 134.371 69.4264 137.396C59.4206 138.5 46.2343 138.23 30.9338 133.796C30.9338 133.796 30.6038 138.757 30.8849 145.934C31.2485 155.319 32.6508 168.494 37.1756 179.318H46.7445C46.7445 179.318 56.0751 164.32 66.3162 155.814C66.3743 155.766 66.4262 155.717 66.4843 155.676C78.2102 156.578 84.6017 177.51 84.6017 177.51H96.6606C97.8491 172.065 98.1455 166.449 97.9194 161.073H97.9224Z" fill="#047780"/>
<path d="M43.4415 179.27C43.4415 179.27 50.4349 175.304 55.3569 179.27C55.3569 179.27 58.3174 181.379 56.9425 181.864C56.0718 182.169 36.332 181.864 36.332 181.864L37.1906 179.27H43.4446H43.4415Z" fill="#996633"/>
<path d="M90.7981 177.433C90.7981 177.433 97.7915 173.468 102.713 177.433C102.713 177.433 105.674 179.543 104.296 180.028C103.425 180.333 83.6855 180.028 83.6855 180.028L84.5441 177.433H90.7981Z" fill="#996633"/>
<path d="M34.0145 58.7901C33.7059 59.8754 32.5052 60.524 31.4297 60.9126C28.1209 62.107 24.6197 62.7621 21.4483 64.3226C15.6068 67.2029 11.4089 72.9699 8.90058 79.2185C7.72127 82.1597 6.86886 85.2359 6.19366 88.3473C5.94313 89.4936 5.85758 91.8634 5.58873 93.9377C3.62728 92.8877 1.75138 91.5037 0.18405 89.6959C0.18405 89.6959 -4.33767 56.947 33.4767 58.758C33.657 58.7644 33.8373 58.7772 34.0114 58.7869L34.0145 58.7901Z" fill="#FF5A63"/>
<path d="M91.6897 132.9C66.9517 147.105 39.7389 146.399 30.8848 145.933C30.6068 138.757 30.9368 133.796 30.9368 133.796C66.0748 143.981 90.043 132.203 90.043 132.203C90.6174 132.421 91.1642 132.656 91.6928 132.9H91.6897Z" fill="#00494E"/>
<path d="M48.3025 72.0195C44.2727 78.0594 38.5716 82.6543 34.2332 88.4598C31.6791 91.8763 29.5374 95.7648 26.7205 98.8827L20.4084 97.3446C20.4084 97.3446 18.8349 97.3992 16.4824 97.1359C16.5069 96.9657 16.5283 96.7827 16.5527 96.6061C17.289 91.3754 19.0427 86.2827 21.6396 81.7488C22.4462 80.3392 23.3475 78.9649 23.9616 77.4525C24.8262 75.3043 25.1928 72.7965 26.8304 71.2231C27.4629 70.6131 28.2694 70.1732 28.7277 69.4186C29.4701 68.192 29.0882 66.6057 29.0638 65.1544C29.0302 62.7814 30.1087 60.4117 31.8899 58.9539C31.9876 58.8737 32.0946 58.7966 32.1923 58.7163C32.617 58.7292 33.0386 58.7484 33.4755 58.7645C33.6558 58.7709 33.8361 58.7837 34.0102 58.7934C35.6997 58.8897 37.2793 59.0792 38.7427 59.3489C42.3998 61.8438 45.6567 64.9938 48.3239 68.6126C48.6386 69.0332 48.9502 69.4924 49.0083 70.0158C49.0969 70.7415 48.6997 71.4254 48.2994 72.0227L48.3025 72.0195Z" fill="#60302F"/>
<path d="M103.388 108.005C100.079 108.962 97.473 109.383 95.6949 109.566C93.9198 109.742 92.9727 109.681 92.9727 109.681V109.694C94.7508 123.832 93.0308 132.203 93.0308 132.203C58.6657 150.577 30.7013 135.748 30.2369 135.228C30.2308 135.228 31.8531 125.033 32.1617 119.314V119.289C32.3694 115.474 32.6963 112.552 32.6963 112.552C28.3702 112.52 31.1474 112.841 28.7398 112.372C28.1991 112.269 6.52231 53.3958 83.0646 72.1031C83.4068 72.1866 83.7429 72.2604 84.082 72.3407C105.426 77.4301 103.394 108.002 103.394 108.002L103.388 108.005Z" fill="#6CA9E0"/>
<path d="M95.6947 109.565C93.9196 109.742 92.9725 109.681 92.9725 109.681C92.056 105.256 91.231 100.729 90.5039 96.3169C91.4846 95.9155 93.6386 101.981 94.0571 103.041C94.8759 105.109 95.597 107.36 95.6947 109.562V109.565Z" fill="#003021"/>
<path d="M87.6582 73.5159C87.6582 73.5159 95.4307 113.339 93.7778 121.617C93.7778 121.617 85.99 74.8966 80.7656 71.1558C80.7656 71.1558 85.3087 71.2585 87.6582 73.5159Z" fill="#FF5A63"/>
<path d="M78.5856 9.7518C78.5856 10.9045 78.3931 12.0155 78.0387 13.0399C76.7555 16.8064 73.3306 19.5004 69.3069 19.5004C67.4493 19.5004 65.7201 18.9256 64.2688 17.9398C61.7208 16.1995 60.0312 13.1811 60.0312 9.7518C60.0312 4.36374 64.1833 0 69.3099 0C74.4366 0 78.5886 4.36374 78.5886 9.7518H78.5856Z" fill="#996633"/>
<path d="M83.0616 72.106C82.7378 72.5331 82.3895 72.9409 82.0167 73.3198C80.205 75.1982 77.9686 76.5725 75.723 77.828C69.9853 81.039 63.9024 83.6849 57.5047 84.8569C51.6479 85.9294 45.5039 85.711 39.9067 83.6496C39.3843 83.4537 38.8618 83.2482 38.3516 83.0202C34.6762 81.3954 31.3949 78.9872 28.2969 76.3766C30.1667 74.7583 32.3848 73.4418 34.8748 72.3918C47.7586 66.9428 67.8008 68.5964 83.0647 72.106H83.0616Z" fill="#4283B2"/>
<path d="M78.0421 13.04C76.7589 16.8065 73.334 19.5005 69.3103 19.5005C67.4527 19.5005 65.7234 18.9257 64.2722 17.94C63.7895 16.5849 63.5176 15.0597 63.5176 13.4478C63.5176 7.86386 66.7744 3.34277 70.7859 3.34277C74.7974 3.34277 77.8924 7.6455 78.0421 13.04Z" fill="#E9A854"/>
<path d="M96.6661 44.6519C96.6661 64.6982 80.7332 80.9458 61.0759 80.9458C49.2033 80.9458 38.6873 75.0216 32.2255 65.912C19.5005 48.0107 25.3054 22.2263 45.259 12.1342C68.4267 0.32413 96.6661 17.3777 96.6661 44.6519Z" fill="#996633"/>
<path d="M67.8909 37.1705C67.8909 38.6219 66.7727 39.7971 65.3918 39.7971C64.0108 39.7971 62.8926 38.6219 62.8926 37.1705C62.8926 35.7192 64.0108 34.5439 65.3918 34.5439C66.7727 34.5439 67.8909 35.7192 67.8909 37.1705Z" fill="#201600"/>
<path d="M90.0404 34.5439C91.3582 34.5439 92.4265 33.4211 92.4265 32.0361C92.4265 30.6511 91.3582 29.5283 90.0404 29.5283C88.7226 29.5283 87.6543 30.6511 87.6543 32.0361C87.6543 33.4211 88.7226 34.5439 90.0404 34.5439Z" fill="#201600"/>
<path d="M47.2946 15.5638C47.2946 16.7166 47.1021 17.8276 46.7477 18.8519C45.4645 22.6184 42.0396 25.3124 38.0159 25.3124C36.1583 25.3124 34.429 24.7376 32.9778 23.7518C30.4298 22.0115 28.7402 18.9932 28.7402 15.5638C28.7402 10.1758 32.8923 5.81201 38.0189 5.81201C43.1456 5.81201 47.2976 10.1758 47.2976 15.5638H47.2946Z" fill="#996633"/>
<path d="M46.7472 18.852C45.464 22.6185 42.0391 25.3125 38.0153 25.3125C36.1578 25.3125 34.4285 24.7378 32.9773 23.752C32.4946 22.3969 32.2227 20.8717 32.2227 19.2598C32.2227 13.6759 35.4795 9.15479 39.491 9.15479C43.5025 9.15479 46.5974 13.4575 46.7472 18.852Z" fill="#E9A854"/>
<path d="M107.923 102.231C108.289 104.945 107.348 107.912 105.252 109.543C104.15 110.4 102.808 110.85 101.476 111.187C100.025 111.553 98.5127 111.8 97.0462 111.508C95.5797 111.216 94.1621 110.297 93.5541 108.865C93.3219 108.316 93.2149 107.716 93.1691 107.115C92.94 104.132 94.214 101.13 96.2701 99.0622C97.8191 97.5049 101.602 94.9104 103.914 95.4177C106.059 95.8898 107.654 100.244 107.92 102.228L107.923 102.231Z" fill="#7F583A"/>
<path d="M30.1553 131.879C30.1308 131.818 31.6646 125.733 31.4721 123.813C31.1696 120.701 37.0081 115.631 37.8208 112.622C38.5999 109.713 38.0255 106.653 37.2006 103.712C37.1762 84.1184 25.4564 76.9611 26.5104 76.0877C31.7073 71.7914 34.8725 72.3886 34.8725 72.3886C32.3825 73.4386 30.1645 74.7551 28.2947 76.3735C31.3957 78.984 34.674 81.3955 38.3494 83.017C38.8596 83.2418 39.382 83.4505 39.9045 83.6464C42.4189 90.0298 44.9914 98.0348 45.2572 104.624C45.5811 112.581 33.8857 126.198 30.1522 131.872L30.1553 131.879Z" fill="#FF5A63"/>
<path d="M39.9069 83.6497C39.3844 83.4538 38.862 83.2483 38.3518 83.0204C34.6764 81.3956 30.1546 78.2649 27.0566 75.6511C31.9389 71.9296 33.4818 72.2057 34.6855 72.0869C34.6855 72.0869 37.3649 77.186 39.9099 83.6465L39.9069 83.6497Z" fill="#9C4C4F"/>
<path d="M11.2958 90.8039C8.81496 90.0204 6.19359 91.5007 5.44506 94.108L3.98467 99.2071C3.23919 101.814 4.64765 104.573 7.12849 105.356C9.60932 106.14 12.2338 104.659 12.9792 102.052L14.4396 96.953C15.1851 94.3489 13.7766 91.5874 11.2958 90.8039ZM12.7715 96.4232L11.3111 101.522C10.8406 103.163 9.19076 104.094 7.62954 103.6C6.06833 103.105 5.18231 101.371 5.65282 99.7305L7.11321 94.6314C7.52566 93.1897 8.85163 92.297 10.2265 92.4383C10.2204 92.4544 10.2081 92.464 10.2051 92.4833L9.481 94.9557C9.38629 95.2768 9.55738 95.6204 9.86596 95.72C10.1715 95.8195 10.4984 95.6397 10.5931 95.3154L11.3172 92.8429C11.3233 92.8236 11.3172 92.8044 11.3233 92.7851C12.5484 93.4626 13.19 94.9782 12.7745 96.4232H12.7715Z" fill="#60302F"/>
<path d="M10.8798 90.3254C8.39895 89.5419 5.77757 91.0222 5.02904 93.6295L3.56865 98.7286C2.82318 101.336 4.23163 104.094 6.71247 104.878C9.1933 105.661 11.8177 104.181 12.5632 101.574L14.0236 96.4745C14.7691 93.8671 13.3606 91.1089 10.8798 90.3254ZM12.3555 95.9446L10.8951 101.044C10.4246 102.685 8.77474 103.616 7.21352 103.121C5.65231 102.627 4.7663 100.893 5.2368 99.252L6.69719 94.1529C7.10965 92.7112 8.43561 91.8185 9.81046 91.9598C9.80435 91.9759 9.79213 91.9855 9.78907 92.0048L9.06498 94.4772C8.97027 94.7983 9.14137 95.1419 9.44994 95.2414C9.75546 95.341 10.0824 95.1612 10.1771 94.8369L10.9012 92.3644C10.9073 92.3451 10.9012 92.3259 10.9073 92.3066C12.1324 92.9841 12.774 94.4997 12.3585 95.9446H12.3555Z" fill="#9DC7E5"/>
<path d="M82.2592 69.3031C76.8331 69.3031 72.4152 62.4284 72.4152 53.977C72.4152 53.4986 72.4152 53.0266 72.4122 52.5578C72.3786 45.044 72.3511 38.5546 81.5778 37.5496C84.0953 37.2766 86.2126 37.9381 87.8838 39.5211C91.5531 42.9986 92.1 50.0693 92.1 53.9738C92.1 62.4252 87.6852 69.2999 82.2592 69.2999V69.3031ZM82.6502 38.3587C82.3294 38.3587 82.0025 38.378 81.6664 38.4133C73.1821 39.3381 73.2066 44.8803 73.2402 52.5546C73.2402 53.0234 73.2432 53.4986 73.2432 53.977C73.2432 61.9499 77.2883 68.4362 82.2622 68.4362C87.2361 68.4362 91.2812 61.9499 91.2812 53.977C91.2812 50.217 90.7679 43.4193 87.3369 40.1665C86.069 38.9656 84.4956 38.3587 82.6533 38.3587H82.6502Z" fill="white"/>
<path d="M84.336 40.8342C84.834 40.7603 85.3993 40.7057 85.7812 41.0461C86.2333 41.4475 86.1997 42.1828 86.0775 42.7896C85.8362 43.9873 85.3962 45.1401 84.7821 46.1805C84.6355 46.4277 84.4766 46.6717 84.2536 46.8387C83.9969 47.0314 83.6792 47.1052 83.3675 47.1406C82.2035 47.2658 81.0334 46.8773 80.016 46.2704C79.1636 45.7598 78.0117 45.0085 77.4099 44.18C76.6705 43.1621 77.3976 42.7415 78.3142 42.3176C80.2115 41.441 82.2952 41.1328 84.333 40.8309L84.336 40.8342Z" fill="#201600"/>
<path d="M84.6625 59.779C84.6472 59.779 84.6289 59.779 84.6136 59.779C84.3875 59.7501 84.2256 59.535 84.2531 59.2974C85.1391 51.3694 83.1288 46.8965 83.1074 46.8516C83.0097 46.6364 83.0921 46.3763 83.2968 46.2736C83.5015 46.1708 83.749 46.2575 83.8468 46.4727C83.9354 46.6621 85.9854 51.196 85.0689 59.4001C85.0444 59.6217 84.8672 59.7822 84.6595 59.7822L84.6625 59.779Z" fill="#201600"/>
<path d="M64.4655 51.8286C66.9155 51.8286 68.9016 49.7412 68.9016 47.1663C68.9016 44.5913 66.9155 42.5039 64.4655 42.5039C62.0154 42.5039 60.0293 44.5913 60.0293 47.1663C60.0293 49.7412 62.0154 51.8286 64.4655 51.8286Z" fill="#FAA7A7"/>
<path d="M95.6828 39.4085C96.0891 41.9484 95.4414 44.1768 94.2346 44.3919C93.0278 44.6071 91.7171 42.7222 91.3107 40.1823C90.9044 37.6424 91.5521 35.414 92.7589 35.1989C93.9657 34.9837 95.2764 36.8686 95.6828 39.4085Z" fill="#FAA7A7"/>
<path d="M77.3489 48.2998C77.3489 48.4861 77.2053 48.6402 77.025 48.6402C76.8448 48.6402 76.7012 48.4893 76.7012 48.2998C76.7012 48.1104 76.8448 47.9595 77.025 47.9595C77.2053 47.9595 77.3489 48.1104 77.3489 48.2998Z" fill="#201600"/>
<path d="M81.0064 51.267C81.0064 51.6587 80.7039 51.9734 80.3343 51.9734C79.9646 51.9734 79.6621 51.6555 79.6621 51.267C79.6621 50.8784 79.9646 50.5605 80.3343 50.5605C80.7039 50.5605 81.0064 50.8784 81.0064 51.267Z" fill="#201600"/>
<path d="M78.4635 54.1567C78.4635 54.5742 78.1397 54.9145 77.7425 54.9145C77.3453 54.9145 77.0215 54.5742 77.0215 54.1567C77.0215 53.7393 77.3453 53.3989 77.7425 53.3989C78.1397 53.3989 78.4635 53.7393 78.4635 54.1567Z" fill="#201600"/>
<path d="M88.0615 47.3365C88.2842 47.3365 88.4648 47.1467 88.4648 46.9126C88.4648 46.6785 88.2842 46.4888 88.0615 46.4888C87.8388 46.4888 87.6582 46.6785 87.6582 46.9126C87.6582 47.1467 87.8388 47.3365 88.0615 47.3365Z" fill="#201600"/>
<path d="M89.8232 52.2556C90.1505 52.2556 90.4159 51.9767 90.4159 51.6327C90.4159 51.2887 90.1505 51.0098 89.8232 51.0098C89.4958 51.0098 89.2305 51.2887 89.2305 51.6327C89.2305 51.9767 89.4958 52.2556 89.8232 52.2556Z" fill="#201600"/>
<path d="M87.7881 51.6329C88.0108 51.6329 88.1914 51.4431 88.1914 51.209C88.1914 50.9749 88.0108 50.7852 87.7881 50.7852C87.5653 50.7852 87.3848 50.9749 87.3848 51.209C87.3848 51.4431 87.5653 51.6329 87.7881 51.6329Z" fill="#201600"/>
<path d="M99.7474 101.744L99.0325 96.9851L97.3491 85.7659C96.9244 82.9402 94.3794 80.9944 91.6908 81.4407L65.8987 85.7177C63.2101 86.1641 61.3586 88.8388 61.7833 91.6645L64.1816 107.642C64.6063 110.468 67.1513 112.414 69.8399 111.968L95.632 107.691C98.3206 107.244 100.172 104.569 99.7474 101.744Z" fill="#201600"/>
<path d="M68.2062 85.3052L93.9998 81.0261C96.6977 80.5785 99.2315 82.5182 99.6569 85.3506L102.057 101.33C102.483 104.165 100.637 106.828 97.9421 107.275L72.1486 111.554C69.4506 112.002 66.9168 110.062 66.4914 107.23L64.0915 91.2507C63.6657 88.4152 65.5113 85.7523 68.2062 85.3052Z" fill="#201600"/>
<path d="M68.2062 85.3052L93.9998 81.0261C96.6977 80.5785 99.2315 82.5182 99.6569 85.3506L101.342 96.569C101.768 99.4045 99.9221 102.067 97.2271 102.515L71.4336 106.794C68.7356 107.241 66.2018 105.301 65.7764 102.469L64.0915 91.2507C63.6657 88.4152 65.5113 85.7523 68.2062 85.3052Z" fill="#312A20"/>
<path d="M83.6872 105.09C88.259 104.331 91.3284 99.4763 90.5428 94.2457C89.7572 89.0151 85.4142 85.3898 80.8424 86.1482C76.2706 86.9066 73.2013 91.7617 73.9869 96.9923C74.7724 102.223 79.1154 105.848 83.6872 105.09Z" fill="#201600"/>
<path d="M80.8904 105.555C85.4622 104.796 88.5315 99.9411 87.7459 94.7105C86.9603 89.48 82.6173 85.8546 78.0455 86.613C73.4737 87.3715 70.4044 92.2265 71.19 97.4571C71.9756 102.688 76.3186 106.313 80.8904 105.555Z" fill="#201600"/>
<path d="M83.4483 103.552C80.6497 104.03 77.9581 102.469 76.5435 100.119C73.14 94.7117 76.6993 87.1594 82.5164 87.6347C85.6053 87.8466 88.1289 90.3223 88.9568 93.4112C90.24 97.9066 87.7592 102.839 83.4483 103.552Z" fill="#C9C8C8"/>
<path d="M95.2293 82.8837L90.3283 83.6968C89.475 83.8384 88.8924 84.6802 89.0271 85.577L89.1981 86.7157C89.3328 87.6126 90.1338 88.2248 90.9871 88.0833L95.8881 87.2702C96.7415 87.1287 97.3241 86.2868 97.1894 85.39L97.0184 84.2513C96.8837 83.3545 96.0827 82.7422 95.2293 82.8837Z" fill="#EFEFEF"/>
<path d="M68.321 87.7083C68.4615 88.145 68.2935 88.6171 67.9483 88.7648C67.603 88.9125 67.2058 88.6716 67.0653 88.235C66.9248 87.7983 67.0928 87.3262 67.438 87.1785C67.7833 87.034 68.1805 87.2716 68.321 87.7083Z" fill="#D24A43"/>
<path d="M81.6181 90.6014L75.5932 97.9802C75.2816 96.927 75.1747 95.8385 75.2419 94.7981C77.9702 92.9647 81.4012 90.733 81.6151 90.5981L81.6181 90.6014Z" fill="white"/>
<path d="M77.334 101.195C80.6703 99.6725 87.5751 96.5161 87.8531 96.3877L79.9248 103.108C78.996 102.713 78.0917 102.065 77.334 101.191V101.195Z" fill="white"/>
<path d="M88.9559 93.4111C86.0931 95.2253 80.0132 99.101 77.1352 100.957C77.1138 100.934 76.1789 99.862 75.6504 98.1794C77.4346 97.1102 84.3516 92.9583 87.7643 90.8198C87.9293 91.051 88.5801 92.0079 88.9559 93.4111Z" fill="white"/>
<path d="M53.5448 96.4774C48.5129 97.4439 43.154 96.7793 38.4123 98.7958C36.8511 99.4604 35.406 100.398 34.0617 101.464C31.8864 103.185 29.8944 105.343 29.0114 108.053C28.1285 110.76 28.5837 114.093 30.6551 115.952C31.7489 116.935 33.1757 117.426 34.5994 117.644C38.8095 118.29 43.0593 116.71 46.7836 114.549C50.5079 112.388 53.9023 109.626 57.6877 107.587C59.0564 106.849 60.5076 106.181 61.577 105.019C63.7553 102.646 63.7401 98.7733 62.521 95.7357C61.6931 93.6742 60.5901 94.1591 58.977 94.8206C57.2172 95.543 55.4024 96.1242 53.5418 96.4806L53.5448 96.4774Z" fill="#996633"/>
<path d="M62.4339 91.4972C63.2649 91.0413 64.3006 90.7266 65.1194 91.2146C66.2468 91.889 66.201 93.761 65.3272 94.7692C66.314 95.0422 67.1084 95.9701 67.2611 97.0298C67.4139 98.0894 66.9159 99.2229 66.0482 99.788C67.2428 100.138 67.9272 101.612 67.7133 102.899C67.4994 104.184 66.5737 105.237 65.4921 105.879C64.4106 106.521 63.1793 106.814 61.9695 107.099C61.1629 107.289 60.3563 107.478 59.5498 107.668C58.4896 107.918 57.3622 108.165 56.3357 107.793C55.5627 107.514 54.9303 106.91 54.4384 106.226C53.3293 104.682 52.8588 102.649 53.1705 100.742C53.5096 98.6545 54.7347 96.8756 56.4304 95.7871C58.4865 94.4674 60.3044 92.666 62.4339 91.4972Z" fill="#996633"/>
<path d="M97.663 88.6012C97.5438 89.1695 97.7913 89.77 98.1701 90.1939C98.549 90.6177 99.047 90.9035 99.5327 91.1796C98.6162 91.642 98.0968 92.8333 98.3595 93.864C98.6223 94.8948 99.6366 95.6557 100.651 95.5755C99.2394 96.3654 98.9798 98.6516 100.04 99.9103C101.1 101.169 103.092 101.278 104.409 100.325C105.542 99.4993 106.16 98.0961 106.557 96.709C107.259 94.2558 107.345 91.3209 105.71 89.42C104.485 87.9975 98.4054 85.0627 97.666 88.598L97.663 88.6012Z" fill="#996633"/>
<path d="M15.4564 119.456C16.0124 119.43 16.596 119.427 17.097 119.687C17.6653 119.979 18.0411 120.557 18.3863 121.116C21.6921 126.488 24.4081 132.255 26.4704 138.275C26.7057 138.959 26.9318 139.698 26.7607 140.401C26.6049 141.04 26.1466 141.541 25.6791 141.981C22.4834 144.999 18.2672 146.473 14.1793 147.87C13.1986 148.204 12.1812 148.544 11.1546 148.435C8.89376 148.197 7.37532 145.953 6.24489 143.885C4.68367 141.03 3.263 138.089 1.99203 135.077C0.620236 131.834 -1.6284 126.189 1.84232 123.685C5.65523 120.933 10.9041 119.658 15.4564 119.456Z" fill="#FF5A63"/>
<path d="M7.91684 119.558C6.10815 120.046 5.01133 121.992 5.47572 123.893L6.38312 127.615C6.84751 129.516 8.69897 130.668 10.5077 130.18C12.3163 129.692 13.4132 127.746 12.9488 125.845L12.0414 122.124C11.577 120.223 9.72553 119.07 7.91684 119.558ZM10.8254 122.451L11.7328 126.173C12.0261 127.371 11.3356 128.594 10.196 128.899C9.05644 129.207 7.8924 128.482 7.60215 127.287L6.69475 123.566C6.43811 122.512 6.93917 121.443 7.8374 120.99C7.8374 121.003 7.8374 121.013 7.8374 121.026L8.26819 122.837C8.32318 123.071 8.55232 123.216 8.77535 123.158C9.00144 123.1 9.13587 122.859 9.08088 122.625L8.65009 120.814C8.65009 120.814 8.63787 120.788 8.63176 120.775C9.62776 120.714 10.5627 121.398 10.8193 122.455L10.8254 122.451Z" fill="#7B3F40"/>
<path d="M7.2645 118.945C5.45581 119.433 4.35899 121.379 4.82338 123.28L5.73078 127.001C6.19517 128.902 8.04663 130.055 9.85532 129.567C11.664 129.079 12.7608 127.133 12.2964 125.232L11.389 121.511C10.9246 119.61 9.07318 118.457 7.2645 118.945ZM10.1731 121.838L11.0805 125.56C11.3738 126.757 10.6833 127.981 9.54369 128.286C8.40409 128.594 7.24006 127.868 6.94981 126.674L6.04241 122.952C5.78577 121.899 6.28683 120.83 7.18506 120.377C7.18506 120.39 7.18506 120.4 7.18506 120.412L7.61585 122.223C7.67084 122.458 7.89998 122.602 8.12301 122.545C8.3491 122.487 8.48353 122.246 8.42854 122.012L7.99775 120.201C7.99775 120.201 7.98553 120.175 7.97942 120.162C8.97542 120.101 9.91031 120.785 10.167 121.841L10.1731 121.838Z" fill="#9DC7E5"/>
</svg>
