<svg width="576" height="312" viewBox="0 0 576 312" fill="none" xmlns="http://www.w3.org/2000/svg">
<g style="mix-blend-mode:multiply" opacity="0.27">
<path d="M357.684 265.538C400.426 265.538 435.075 260.656 435.075 254.633C435.075 248.611 400.426 243.729 357.684 243.729C314.942 243.729 280.293 248.611 280.293 254.633C280.293 260.656 314.942 265.538 357.684 265.538Z" fill="#B9B8A7"/>
</g>
<path d="M428.08 148.247C430.718 159.579 431.775 171.446 429.411 182.838C427.059 194.23 421.024 205.123 411.545 211.858C401.733 218.831 389.023 220.826 377.049 219.496C366.916 218.367 356.724 214.792 349.525 207.581C340.343 198.387 337.29 184.691 336.815 171.707C335.687 141.464 346.734 110.923 366.952 88.4007C371.988 82.7939 379.935 75.6903 387.36 80.5607C394.19 85.0509 400.343 93.3899 405.237 99.8282C416.118 114.13 424.006 130.725 428.069 148.235L428.08 148.247Z" fill="#06B0BD"/>
<path d="M312.273 71.3545C290.737 107.347 278.751 154.542 279.167 201.725C281.851 206.12 286.757 208.686 290.737 207.296C301.214 191.307 312.796 178.264 325.839 166.682C335.508 135.524 328.44 96.5258 312.273 71.3545Z" fill="#7D441B"/>
<path d="M291.427 133.22C294.171 117.278 299.659 100.244 309.055 86.9159C310.101 85.431 312.322 86.6902 311.502 88.3533C304.862 101.883 298.828 114.986 295.727 129.858C294.23 137.033 293.209 144.422 293.28 151.763C293.316 155.528 293.66 159.282 294.599 162.941C295.062 164.758 295.656 166.492 296.428 168.203C296.618 168.619 297.533 171.351 298.055 172.171C298.483 172.373 298.709 172.705 298.911 173.252C299.113 173.786 298.792 174.641 298.245 174.879C298.103 174.938 297.949 175.01 297.806 175.069C297.034 175.414 296.416 175.318 295.763 174.808C293.779 173.275 292.876 169.45 292.045 167.086C290.786 163.523 290.12 159.757 289.823 155.992C289.229 148.401 290.132 140.715 291.415 133.244L291.427 133.22Z" fill="#06B0BD"/>
<path d="M377.012 17.3177C381.336 16.403 385.921 16.795 390.019 18.4581C392.24 19.3608 394.462 20.7982 395.258 23.0552C396.137 25.5735 394.878 28.5076 392.716 30.0756C390.566 31.6436 387.715 32.0118 385.077 31.6436C382.44 31.2754 379.946 30.2419 377.487 29.2203" fill="#945A31"/>
<path d="M379.078 21.9626C381.977 21.5231 385.053 21.7132 387.797 22.4972C389.282 22.9248 390.779 23.6019 391.301 24.6591C391.895 25.847 391.04 27.225 389.603 27.9615C388.165 28.6979 386.253 28.8761 384.483 28.6979C382.713 28.5198 381.038 28.0327 379.387 27.5576" fill="#E57373"/>
<path d="M319.187 18.2679C314.863 17.3532 310.278 17.7452 306.18 19.4082C303.958 20.311 301.737 21.7484 300.941 24.0054C300.062 26.5237 301.321 29.4578 303.483 31.0258C305.633 32.5938 308.484 32.962 311.121 32.5938C313.758 32.2255 316.253 31.1921 318.712 30.1705" fill="#945A31"/>
<path d="M317.121 22.9123C314.223 22.4728 311.146 22.6629 308.402 23.4469C306.917 23.8745 305.421 24.5516 304.898 25.6088C304.304 26.7967 305.159 28.1747 306.597 28.9112C308.046 29.6476 309.946 29.8258 311.716 29.6476C313.486 29.4695 315.161 28.9824 316.812 28.5073" fill="#E57373"/>
<path d="M350.964 197.116C352.639 206.607 346.521 215.825 340.499 224.39C335.331 231.755 329.986 239.548 329.475 247.637C329.309 250.286 326.85 252.626 323.251 253.386C319.521 254.17 315.518 254.657 312.049 254.634C309.471 254.634 306.537 254.265 305.112 252.745C303.686 251.224 305.658 248.528 308.081 249.169C307.63 238.395 305.908 225.958 299.873 216.063L350.964 197.116Z" fill="#7D441B"/>
<path d="M310.633 38.6162C312.45 25.2406 316.204 9.98812 328.867 3.60916C341.684 -2.85294 361.724 -0.417775 372.415 9.1566C386.658 21.9145 386.586 42.9282 388.273 60.4377C390.958 88.3293 393.963 116.197 396.743 144.065C398.43 161.099 398.727 178.347 397.372 195.417C396.339 208.496 390.114 223.131 378.699 230.389C366.214 238.324 351.259 237.053 337.277 235.069C323.581 233.121 306.63 230.947 296.248 220.897C287.647 212.57 286.816 200.478 288.348 189.24C291.532 165.922 296.652 142.83 300.18 119.523C303.945 94.6132 307.176 69.6201 309.932 44.5794C310.146 42.6669 310.372 40.6594 310.657 38.6162H310.633Z" fill="#945A31"/>
<path d="M393.667 200.941C395.342 210.433 389.225 219.651 383.202 228.215C378.035 235.58 372.689 243.373 372.178 251.462C372.012 254.111 369.553 256.451 365.954 257.212C362.224 257.996 358.221 258.483 354.752 258.459C352.174 258.459 349.24 258.091 347.815 256.57C346.389 255.05 348.361 252.353 350.784 252.995C350.333 242.22 348.611 229.783 342.576 219.888L393.667 200.929V200.941Z" fill="#945A31"/>
<path d="M336.947 36.609C334.642 39.0085 333.276 42.5484 332.397 45.7913C331.47 49.2006 330.781 52.6692 330.247 56.1616C329.748 59.452 329.19 62.7187 329.807 66.0329C330.912 71.9724 335.022 75.6073 340.997 76.4982C347.84 77.5198 356.024 73.1602 356.167 65.5696C356.262 60.438 355.846 55.2944 354.955 50.234C354.337 46.7416 353.886 43.0473 352.354 39.8044C350.797 36.5258 347.875 34.0312 344.133 33.7937C341.057 33.5917 338.728 34.7559 336.947 36.609Z" fill="#FFB74D"/>
<path d="M336.994 36.4309C341.473 34.459 346.925 34.8867 351.047 37.5119C350.097 40.7548 348.137 43.4988 345.167 45.1144C344.229 45.6252 343.148 46.029 342.102 45.8033C341.104 45.5776 340.32 44.8174 339.691 44.0096C337.98 41.8358 337.149 39.1868 336.982 36.4309H336.994Z" fill="#0B0000"/>
<path d="M341.2 51.4694C341.354 48.7729 341.508 45.9576 342.281 43.3562C342.435 42.8216 343.243 42.9167 343.255 43.4868C343.302 46.3497 342.874 49.2125 342.827 52.0871C342.779 54.5936 343.171 57.1713 342.613 59.6302C342.494 60.1767 341.746 60.1054 341.58 59.6302C340.701 57.0644 341.045 54.1422 341.2 51.4694Z" fill="#0B0000"/>
<path d="M337.93 62.065C339.652 61.6492 340.733 60.5682 341.208 58.8696C341.434 58.0618 342.634 58.0499 342.859 58.8696C343.525 61.3522 345.71 61.6849 347.563 62.9678C347.73 63.0866 347.718 63.3479 347.504 63.4073C345.402 63.9894 343.323 62.8134 342.099 61.1028C341.28 62.4214 339.985 63.3717 338.393 63.7518C337.3 64.0131 336.825 62.3263 337.93 62.065Z" fill="#0B0000"/>
<path d="M351.939 30.087C352.308 29.5881 353.151 29.4456 353.484 30.087C354.042 31.168 353.258 32.9142 354.422 33.7101C355.657 34.5535 356.465 32.2608 356.881 31.4887C357.273 30.7641 358.342 31.1324 358.366 31.8926C358.437 34.1377 356.56 36.7273 354.054 35.9314C353.044 35.6107 352.284 34.7435 351.904 33.7695C351.512 32.7479 351.274 31.0017 351.939 30.0751V30.087Z" fill="#0B0000"/>
<path d="M329.947 29.2086C330.315 28.7097 331.159 28.5671 331.491 29.2086C332.05 30.2896 331.266 32.0358 332.43 32.8316C333.665 33.675 334.473 31.3824 334.889 30.6103C335.281 29.8857 336.35 30.2539 336.374 31.0142C336.445 33.2593 334.568 35.8489 332.062 35.053C331.052 34.7323 330.292 33.8651 329.911 32.891C329.519 31.8695 329.282 30.1233 329.947 29.1967V29.2086Z" fill="#0B0000"/>
<path d="M352.531 149.292C353.564 137.175 359.076 124.405 365.384 114.118C371.691 103.831 380.244 94.9933 391.303 89.8973C393.465 88.8994 395.378 92.0592 393.192 93.1402C382.834 98.2362 374.78 106.302 368.781 116.102C362.747 125.973 357.187 138.422 356.403 150.099C355.56 162.738 361.713 174.902 370.005 184.061C378.545 193.493 389.367 199.409 399.155 207.249C400.806 208.579 398.704 211.014 396.97 210.088C385.352 203.851 373.414 194.526 365.051 184.322C357.068 174.582 351.426 162.109 352.531 149.28V149.292Z" fill="#06B0BD"/>
<path d="M369.855 187.089L381.844 217.744L439.968 195.012L427.979 164.357L369.855 187.089Z" fill="#0D47A1"/>
<path d="M371.079 187.331L383.068 217.987L439.235 196.02L427.246 165.365L371.079 187.331Z" fill="#FFEBEE"/>
<path d="M371.486 191.246L383.475 221.901L441.599 199.169L429.61 168.514L371.486 191.246Z" fill="#42A5F5"/>
<path d="M371.998 192.569L383.473 221.907L441.597 199.175L430.123 169.837L371.998 192.569Z" fill="#0B5FFF"/>
<path d="M386.171 80.335C407.708 116.328 419.694 163.523 419.278 210.706C417.14 214.21 413.576 216.562 410.202 216.657C408.789 216.693 407.47 215.909 406.686 214.733C396.47 199.456 385.233 186.877 372.606 175.663C362.936 144.505 370.004 105.506 386.171 80.335Z" fill="#945A31"/>
<path d="M364.137 148.959C368.781 160.161 374.507 170.698 381.682 180.498C388.88 190.333 396.162 199.979 404.109 209.185C405.024 210.242 404.739 210.753 403.717 209.767C386.706 193.398 369.494 172.385 363.258 149.209C363.103 148.627 363.923 148.437 364.137 148.971V148.959Z" fill="#7D441B"/>
<g style="mix-blend-mode:multiply" opacity="0.27">
<path d="M503.974 308.669C543.308 308.669 575.195 303.552 575.195 297.24C575.195 290.929 543.308 285.812 503.974 285.812C464.64 285.812 432.754 290.929 432.754 297.24C432.754 303.552 464.64 308.669 503.974 308.669Z" fill="#B9B8A7"/>
</g>
<path d="M519.698 252.088C520.146 251.242 521.603 251.652 521.528 252.623C520.794 262.172 516.797 273.363 523.371 281.854C530.242 290.73 544.185 285.016 551.505 279.214C551.717 279.053 551.991 279.326 551.791 279.513C544.633 286.335 532.956 294.166 523.433 286.709C513.81 279.177 514.469 261.935 519.698 252.088Z" fill="#FB9F00"/>
<path d="M546.587 283.783C549.711 283.709 552.998 283.173 555.425 281.194C557.853 279.227 559.036 275.455 557.305 272.853C556.869 274.31 555.762 275.194 554.255 275.43C555.251 273.09 556.098 270.326 555.774 267.811C552.861 268.845 549.886 271.733 548.292 274.372C546.699 277.024 546.138 280.721 546.587 283.783Z" fill="#5D4037"/>
<path d="M553.037 201.496C555.44 206.326 554.407 212.973 549.925 215.961C555.614 218.613 559.959 224.003 561.328 230.128C562.698 236.253 561.067 242.988 557.046 247.806C550.822 255.263 540.402 257.342 530.829 258.935C523.646 260.118 516.375 261.3 509.118 260.64C501.872 259.981 494.527 257.304 489.672 251.876C483.722 245.229 482.39 235.531 483.498 226.68C484.68 217.119 488.589 207.645 495.685 201.134C503.964 193.541 514.234 193.678 524.691 192.246C534.464 190.914 547.946 191.287 553.025 201.483L553.037 201.496Z" fill="#424242"/>
<path d="M474.633 201.844C466.467 203.798 457.777 203.562 449.735 201.147C447.693 200.537 445.527 199.777 443.498 200.412C441.531 201.022 440.125 202.877 439.651 204.869C438.693 208.828 441.046 212.998 444.345 215.388C447.644 217.791 451.714 218.787 455.673 219.746C461.039 221.04 466.404 222.323 471.782 223.617L474.633 201.844Z" fill="#FBB234"/>
<path d="M469.556 235.73C461.538 226.057 459.31 210.994 468.323 201.135C469.058 200.338 468.336 199.056 467.265 199.317C460.343 201.01 458.8 210.571 458.215 216.521C457.331 225.46 460.567 232.344 466.269 239.004C468.224 241.295 471.448 237.996 469.556 235.718V235.73Z" fill="#424242"/>
<path d="M475.229 292.037C473.499 291.427 472.092 293.991 473.101 295.448C474.121 296.904 476.213 297.241 478.055 297.253C480.545 297.265 483.408 296.817 486.072 296.058C488.649 295.336 490.405 293.107 490.529 290.568C490.753 285.775 492.322 281.082 494.351 276.525C486.62 276.389 479.014 273.712 472.217 268.62C474.246 276.239 474.98 284.543 475.217 292.037H475.229Z" fill="#FBB234"/>
<path d="M505.915 242.315L469.365 260.416C470.548 262.993 471.469 265.769 472.241 268.62C479.038 273.712 486.657 276.388 494.375 276.525C495.62 273.749 497.039 271.023 498.434 268.371C502.741 260.192 507.11 251.378 505.915 242.315Z" fill="#FB9F00"/>
<path d="M464.747 177.457C468.071 195.52 467.934 214.218 464.349 232.244C462.867 239.714 460.825 247.669 463.689 254.727C466.154 260.815 471.98 265.06 478.204 267.176C484.429 269.28 491.114 269.541 497.687 269.728C508.044 270.015 519.809 269.579 526.656 261.811C531.062 256.806 532.37 249.822 532.818 243.175C534.386 220.094 527.527 196.528 513.821 177.892L464.747 177.469V177.457Z" fill="#FBB234"/>
<path d="M464.748 177.457C466.976 189.557 467.611 201.931 466.74 214.206C473.549 222.895 487.604 221.376 496.704 219.87C506.863 217.841 519.25 215.239 529.271 209.637C526.059 198.246 520.843 187.416 513.834 177.88L464.76 177.457H464.748Z" fill="#FB9F00"/>
<path d="M466.565 92.4551C465.383 93.5257 464.648 94.9822 464.499 96.4512C464.275 98.6173 462.382 100.211 460.104 100.572C456.506 101.132 453.133 102.825 451.029 105.365C448.688 108.178 448.029 111.875 449.037 115.187C449.709 117.403 448.863 119.731 446.784 120.963C442.414 123.565 438.953 127.25 437.049 131.47C436.215 133.325 435.679 135.429 436.576 137.271C436.576 137.284 436.588 137.309 436.601 137.321C437.709 139.5 437.335 142.014 435.405 143.608C432.368 146.11 429.94 149.135 428.359 152.459C427.189 154.911 426.492 157.688 427.451 160.202C427.861 161.273 428.658 162.269 429.679 163.016C431.721 164.522 432.542 167.111 431.335 169.278C430.675 170.473 430.115 171.705 429.729 172.975C428.783 176.087 428.957 179.598 431.098 182.262C432.181 183.619 433.837 184.664 435.654 185.187C437.895 185.847 439.352 187.727 439.352 189.943C439.352 192.819 440.92 195.719 443.746 197.362C446.734 199.093 450.767 199.205 454.066 197.997C456.295 197.176 458.859 197.86 460.254 199.69C461.959 201.944 464.648 203.699 467.735 204.371C470.997 205.081 474.557 204.545 477.433 203.101C479.574 202.018 482.139 202.466 483.795 204.135C485.911 206.263 488.986 207.732 492.272 208.006C495.746 208.293 499.281 207.222 501.895 205.292C503.638 203.998 506.078 203.811 507.946 204.956C510.286 206.388 513.311 207.048 516.162 206.587C519.461 206.052 522.312 204.047 523.718 201.495C524.602 199.89 526.47 198.931 528.399 198.931C532.159 198.943 535.906 198.52 538.943 196.752C541.645 195.184 543.276 192.184 542.964 189.557C542.728 187.54 543.886 185.673 545.741 184.664C547.857 183.507 549.525 181.751 550.272 179.722C551.019 177.668 550.795 175.402 549.786 173.423C548.778 171.456 549.114 169.141 550.745 167.572C552.488 165.904 553.534 163.713 553.509 161.485C553.484 159.069 552.189 156.704 550.123 155.024C548.517 153.704 547.82 151.687 548.517 149.795C549.338 147.591 549.363 145.176 548.504 142.985C547.72 140.969 546.189 139.164 544.222 137.832C542.342 136.562 541.495 134.371 542.23 132.304C542.778 130.748 542.84 129.067 542.33 127.499C541.819 125.918 540.749 124.486 539.317 123.378C537.574 122.021 537.051 119.83 537.773 117.814C538.458 115.896 538.321 113.768 537.25 111.987C536.18 110.207 534.213 108.863 531.972 108.203C529.806 107.568 528.275 105.8 528.25 103.672C528.225 101.891 527.565 100.124 526.295 98.7044C524.777 96.9989 522.424 95.8661 519.934 95.4926C517.979 95.2063 516.411 93.8991 515.739 92.1314C515.091 90.401 513.672 88.8698 511.767 88.0232C509.863 87.1767 507.584 87.0522 505.53 87.5626C503.588 88.0481 501.447 87.7992 499.953 86.5294C496.007 83.1681 489.496 86.0687 485.139 88.3469C479.288 91.4093 471.694 87.7991 466.553 92.4675L466.565 92.4551Z" fill="#BB6922"/>
<path d="M468.321 121.748C467.648 122.955 467.051 124.138 466.491 125.234C462.706 132.827 459.557 140.894 456.419 148.775C453.457 156.194 450.407 164.585 453.295 172.502C458.137 185.81 479.151 187.926 491.052 188.524C496.829 188.81 502.779 188.761 508.207 186.769C517.78 183.258 522.088 173.984 521.229 164.211C520.332 154.065 516.349 145.152 512.602 135.865C508.63 126.043 503.19 106 490.405 104.469C480.384 103.261 472.952 113.332 468.321 121.748Z" fill="#FBB234"/>
<path d="M475.03 142.151C475.541 141.417 476.088 140.682 476.835 140.197C477.582 139.711 478.603 139.537 479.375 139.985C480.296 140.52 480.582 141.703 480.744 142.761C481.479 147.554 481.628 152.446 481.155 157.264C480.981 159.057 480.67 160.974 479.45 162.294C478.304 163.526 476.549 164.024 474.868 164.049C470.2 164.099 465.631 160.339 467.175 155.571C468.669 150.953 472.254 146.11 475.03 142.164V142.151Z" fill="#FFCB73"/>
<path d="M478.217 153.629C479.014 153.741 479.848 153.878 480.52 154.326C481.84 155.185 482.226 156.978 482.039 158.534C481.678 161.51 479.499 164.199 476.649 165.157C473.798 166.116 470.437 165.306 468.345 163.165C466.515 161.285 464.859 156.816 466.913 154.526C469.104 152.061 475.379 153.256 478.205 153.629H478.217Z" fill="#050503"/>
<path d="M478.689 171.282C478.577 173.473 474.643 173.498 473.747 172.241C473.149 171.407 473.174 170.174 473.112 169.216C472.975 167.336 473.05 165.456 472.988 163.589C472.975 163.141 472.278 163.004 472.179 163.477C471.581 166.191 470.772 171.855 473.436 173.822C475.465 175.316 479.698 174.071 479.635 171.282C479.623 170.672 478.714 170.672 478.677 171.282H478.689Z" fill="#050503"/>
<path d="M471.817 172.178C471.817 173.1 470.896 173.772 469.999 173.461C469.103 173.149 468.667 172.141 468.63 171.257C468.593 170.435 467.335 170.423 467.348 171.257C467.348 172.9 468.344 174.681 470.111 174.905C471.643 175.104 473.373 173.822 473.186 172.178C473.087 171.332 471.842 171.282 471.829 172.178H471.817Z" fill="#050503"/>
<path d="M516.038 164.933C507.735 160.451 497.24 160.513 488.09 161.36C487.63 161.397 487.617 162.069 488.09 162.082C497.664 162.418 506.552 162.443 515.665 165.817C516.175 166.003 516.511 165.194 516.038 164.933Z" fill="#320000"/>
<path d="M511.755 177.706C505.431 171.805 497.178 168.294 488.837 166.302C488.327 166.178 488.102 166.962 488.613 167.099C497.078 169.29 504.199 173.349 511.394 178.166C511.668 178.353 511.98 177.93 511.743 177.718L511.755 177.706Z" fill="#320000"/>
<path d="M499.454 181.39C496.453 177.755 492.071 174.942 487.976 172.689C487.54 172.452 487.154 173.112 487.59 173.348C491.822 175.739 495.233 178.838 498.918 181.926C499.292 182.237 499.752 181.764 499.454 181.39Z" fill="#320000"/>
<path d="M460.08 157.663C457.291 156.455 454.129 157.289 451.266 157.986C447.556 158.87 443.909 160.19 440.697 162.281C440.224 162.592 440.523 163.501 441.108 163.252C447.021 160.849 453.308 157.899 459.868 158.409C460.254 158.434 460.441 157.812 460.067 157.65L460.08 157.663Z" fill="#320000"/>
<path d="M459.146 163.949C454.54 164.086 449.56 166.514 446.485 169.912C446.162 170.261 446.585 170.896 447.021 170.609C448.826 169.414 450.606 168.169 452.548 167.198C454.702 166.115 456.98 165.493 459.258 164.709C459.644 164.572 459.606 163.949 459.158 163.962L459.146 163.949Z" fill="#320000"/>
<path d="M459.058 168.879C454.303 170.199 450.319 174.282 449.074 179.05C448.975 179.423 449.535 179.685 449.722 179.324C451.962 174.967 455.012 171.83 459.282 169.427C459.569 169.265 459.382 168.792 459.058 168.892V168.879Z" fill="#320000"/>
<path d="M476.663 125.955C478.231 127.175 480.373 127.798 482.24 127.113C484.107 126.441 485.414 124.225 484.705 122.37C485.95 124.312 487.244 126.304 489.087 127.698C490.929 129.092 493.469 129.802 495.598 128.881C497.714 127.959 498.946 125.071 497.639 123.167C498.635 124.822 499.668 126.528 501.237 127.648C502.818 128.756 505.096 129.117 506.64 127.972C508.507 126.59 508.52 123.826 508.109 121.548C507.125 116.158 504.661 110.954 500.677 107.195C496.706 103.423 491.166 101.194 485.713 101.692C473.426 102.825 465.397 117.228 476.65 125.955H476.663Z" fill="#BB6922"/>
<path d="M533.702 128.134C532.968 131.483 529.843 134.159 526.407 134.396L525.275 131.943L521.49 123.603L520.195 120.752C522.61 118.312 526.706 117.727 529.719 119.37C532.744 121.013 534.449 124.76 533.715 128.134H533.702Z" fill="#FBB234"/>
<path d="M529.481 128.171C529.057 130.15 527.265 131.744 525.273 131.943L521.488 123.602C522.97 122.233 525.335 121.934 527.09 122.88C528.92 123.876 529.954 126.154 529.493 128.171H529.481Z" fill="#E69100"/>
<path d="M450.529 124.213C451.251 127.474 454.289 130.089 457.638 130.313L458.733 127.922L462.431 119.793L463.688 117.017C461.323 114.639 457.351 114.067 454.414 115.66C451.463 117.266 449.807 120.914 450.517 124.2L450.529 124.213Z" fill="#FBB234"/>
<path d="M454.637 124.249C455.047 126.179 456.803 127.723 458.745 127.922L462.442 119.793C460.998 118.461 458.695 118.174 456.989 119.096C455.209 120.067 454.201 122.282 454.649 124.249H454.637Z" fill="#E69100"/>
<path d="M530.007 245.901C531.202 254.964 526.833 263.765 522.525 271.957C518.828 278.99 515.006 286.435 514.633 294.153C514.508 296.693 512.753 298.921 510.176 299.643C507.512 300.402 504.649 300.851 502.159 300.838C500.316 300.838 498.213 300.49 497.204 299.033C496.183 297.576 497.603 295.012 499.333 295.622C499.009 285.327 497.777 273.463 493.457 264.002L530.007 245.901Z" fill="#FBB234"/>
<path d="M463.092 142.985C462.905 143.595 462.806 144.23 462.694 144.852C462.569 145.525 462.407 146.209 462.432 146.894C462.507 148.475 464.449 148.936 465.308 147.678C465.694 147.118 465.906 146.446 466.155 145.811C466.391 145.213 466.64 144.628 466.802 144.018C467.437 141.616 463.814 140.62 463.08 142.998L463.092 142.985Z" fill="#320000"/>
<path d="M488.24 144.479C488.054 145.089 487.954 145.724 487.842 146.347C487.718 147.019 487.556 147.704 487.581 148.388C487.655 149.969 489.597 150.43 490.456 149.173C490.842 148.612 491.054 147.94 491.303 147.305C491.539 146.708 491.788 146.123 491.95 145.513C492.585 143.098 488.963 142.114 488.228 144.492L488.24 144.479Z" fill="#320000"/>
<path d="M529.72 196.503C506.639 205.38 490.331 233.128 505.158 255.972C506.938 258.711 511.357 256.171 509.565 253.395C503.291 243.66 503.54 231.684 508.805 221.526C513.822 211.853 522.238 205.828 531.375 200.45C533.405 199.255 532.06 195.62 529.72 196.516V196.503Z" fill="#424242"/>
<path d="M544.509 223.617H493.531C490.684 223.617 488.377 225.925 488.377 228.771V256.209C488.377 259.055 490.684 261.362 493.531 261.362H544.509C547.356 261.362 549.663 259.055 549.663 256.209V228.771C549.663 225.925 547.356 223.617 544.509 223.617Z" fill="#0B5FFF"/>
<path d="M515.09 217.393C511.754 217.53 509.351 220.704 510.235 223.916C511.854 229.891 512.327 236.178 511.58 242.328C511.318 244.444 510.945 246.698 511.903 248.602C512.837 250.432 514.891 251.503 516.945 251.652C521.016 251.926 524.726 248.901 526.531 245.253C528.336 241.606 528.635 237.411 528.909 233.352L530.004 216.82L515.103 217.405L515.09 217.393Z" fill="#FBB234"/>
<g style="mix-blend-mode:multiply" opacity="0.27">
<path d="M205.325 296.968C247.608 296.968 281.884 291.468 281.884 284.683C281.884 277.898 247.608 272.398 205.325 272.398C163.042 272.398 128.766 277.898 128.766 284.683C128.766 291.468 163.042 296.968 205.325 296.968Z" fill="#B9B8A7"/>
</g>
<path d="M262.948 141.921C266.682 160.643 274.109 178.629 284.654 194.54C287.25 198.461 287.01 203.586 284.039 207.24C282.058 209.689 279.877 211.95 277.307 213.784C272.517 217.196 266.026 218.829 260.66 216.433C256.726 214.667 253.969 211.054 251.48 207.534C244.387 197.497 237.95 186.885 233.842 175.296C229.734 163.707 228.048 151.075 230.564 139.044C241.416 136.97 252.35 138.83 262.948 141.935V141.921Z" fill="#90A4AE"/>
<path d="M272.022 163.989C270.483 149.175 262.788 136.288 250.329 128.178C246.248 125.515 242.46 132.046 246.515 134.695C267.231 148.198 271.339 180.034 255.615 198.943C253.701 201.245 256.19 205.38 259.068 203.426C271.045 195.29 273.4 177.398 272.008 164.002L272.022 163.989Z" fill="#01579B"/>
<path d="M198.808 220.355C196.908 231.168 203.866 241.673 210.718 251.429C216.606 259.819 222.695 268.692 223.271 277.899C223.458 280.923 226.268 283.573 230.363 284.442C234.605 285.339 239.169 285.888 243.13 285.861C246.074 285.861 249.406 285.446 251.025 283.706C252.645 281.967 250.396 278.902 247.64 279.638C248.148 267.367 250.115 253.208 256.994 241.927L198.795 220.342L198.808 220.355Z" fill="#90A4AE"/>
<path d="M149.494 132.394C148.557 141.574 147.594 150.741 146.684 159.921C144.757 179.325 144.435 198.957 145.961 218.415C147.139 233.309 154.218 249.97 167.225 258.24C181.45 267.273 198.473 265.828 214.411 263.566C230.014 261.358 249.311 258.882 261.141 247.427C270.937 237.953 271.887 224.169 270.134 211.376C267.043 188.787 262.372 166.371 258.572 143.849C226.267 157.539 180.474 148.667 149.494 132.394Z" fill="#B0BEC5"/>
<path d="M254.196 114.997H151.274C150.672 120.792 150.096 126.599 149.494 132.394C180.474 148.667 226.268 157.526 258.572 143.849C257.903 139.901 257.261 135.94 256.659 131.979C255.802 126.318 254.986 120.658 254.183 114.997H254.196Z" fill="#90A4AE"/>
<path d="M150.177 224.717C148.277 235.53 155.236 246.035 162.087 255.791C167.975 264.181 174.064 273.054 174.64 282.261C174.827 285.285 177.637 287.935 181.732 288.804C185.974 289.701 190.538 290.25 194.499 290.223C197.443 290.223 200.775 289.808 202.394 288.068C204.014 286.329 201.765 283.264 199.009 284C199.517 271.729 201.484 257.57 208.363 246.289L150.164 224.704L150.177 224.717Z" fill="#B0BEC5"/>
<path d="M184.3 173.865C181.316 154.956 166.662 126.358 144.716 125.181C141.236 124.993 139.711 130.306 142.909 131.872C150.269 135.458 156.639 138.135 162.166 144.545C168.295 151.624 172.684 160.697 175.187 169.65C178.265 180.636 177.596 192.399 168.201 200.04C161.202 205.728 152.076 208.163 143.565 210.679C139.068 212.004 140.942 218.749 145.492 217.692C168.215 212.419 188.462 200.295 184.3 173.865Z" fill="#01579B"/>
<path d="M183.103 233.364L189.359 191.948L110.827 180.085L104.571 221.501L183.103 233.364Z" fill="#0843B2"/>
<path d="M181.925 232.352L188.182 190.936L112.283 179.471L106.026 220.887L181.925 232.352Z" fill="#FFEBEE"/>
<path d="M183.957 227.757L190.213 186.341L111.681 174.478L105.424 215.894L183.957 227.757Z" fill="#0843B2"/>
<path d="M184.232 225.987L190.221 186.343L111.688 174.48L105.7 214.124L184.232 225.987Z" fill="#0B5FFF"/>
<path d="M172.366 171.47C162.69 190.741 157.311 212.152 156.762 233.697C151.155 235.45 145.401 237.23 139.526 236.976C133.651 236.722 127.522 234.019 124.765 228.826C122.745 225.012 122.785 220.476 122.999 216.167C123.574 203.895 125.02 191.557 128.901 179.901C132.781 168.245 139.232 157.232 148.599 149.283C158.435 154.314 165.902 162.504 172.366 171.47Z" fill="#B0BEC5"/>
<path d="M146.64 74.4628C135.185 65.9517 119.233 62.9541 106.226 68.8288C93.2181 74.6902 84.6937 90.2135 88.6414 103.917C92.9773 118.958 109.156 127.148 117.6 140.33C121.856 146.981 124.225 155.023 130.113 160.296C136.509 166.024 146.292 167.188 154.268 164.016C162.243 160.845 168.332 153.779 171.276 145.723C174.22 137.667 174.22 128.727 172.32 120.364L146.626 74.4628H146.64Z" fill="#B0BEC5"/>
<path d="M149.223 86.8281C138.865 79.468 124.426 76.8852 112.676 81.957C100.913 87.0289 93.2053 100.438 96.7783 112.294C100.699 125.302 115.339 132.368 122.967 143.769C126.821 149.51 128.962 156.482 134.275 161.032C140.056 165.984 148.915 166.987 156.115 164.257C163.314 161.527 168.841 155.412 171.504 148.44C174.167 141.468 174.167 133.746 172.454 126.52L149.223 86.8415V86.8281Z" fill="#EF9A9A"/>
<path d="M155.993 110.394C153.237 103.301 142.518 101.976 135.746 102.137C128.011 102.324 118.684 104.706 115.164 112.214C114.91 112.762 115.593 113.431 116.074 112.91C125.616 102.471 143.053 104.773 153.357 112.428C154.575 113.338 156.555 111.812 155.993 110.394Z" fill="#E57373"/>
<path d="M157.24 113.967C154.256 109.537 148.06 115.158 145.571 117.607C141.289 121.822 138.465 127.228 137.381 133.117C137.261 133.786 138.238 134.334 138.559 133.612C140.379 129.557 142.667 125.81 145.652 122.518C146.923 121.099 148.261 119.748 149.746 118.557C151.995 116.75 153.948 116.563 156.518 115.706C157.2 115.479 157.682 114.636 157.227 113.967H157.24Z" fill="#E57373"/>
<path d="M159.93 120.189C156.611 120.725 154.122 124.418 152.556 127.135C150.67 130.4 150.054 133.799 149.813 137.519C149.786 138.041 150.629 138.162 150.736 137.64C151.339 134.348 152.891 131.176 154.805 128.446C156.571 125.917 159.515 124.217 161.001 121.568C161.429 120.805 160.72 120.069 159.943 120.189H159.93Z" fill="#E57373"/>
<path d="M218.215 47.9123C222.872 34.4231 234.354 22.9412 248.405 20.4521C262.456 17.963 278.247 25.9522 282.73 39.4949C287.642 54.3625 278.89 70.2471 279.371 85.9043C279.612 93.7997 282.195 101.776 280.308 109.443C278.261 117.781 270.847 124.271 262.47 126.144C254.106 128.031 245.086 125.623 238.101 120.644C231.115 115.653 226.07 108.279 222.925 100.29L218.228 47.8989L218.215 47.9123Z" fill="#B0BEC5"/>
<path d="M223.058 59.5952C227.461 47.685 237.913 37.3941 250.478 34.9452C263.044 32.4963 276.988 39.2141 280.722 51.0172C284.817 63.9711 276.734 78.0626 276.855 91.7793C276.922 98.6979 279.076 105.657 277.256 112.415C275.275 119.761 268.544 125.596 261.037 127.403C253.543 129.209 245.54 127.269 239.411 123.027C233.282 118.784 228.92 112.401 226.257 105.456L223.045 59.5952H223.058Z" fill="#EF9A9A"/>
<path d="M230.765 82.8665C229.052 75.4528 237.135 68.3067 242.809 64.6266C249.299 60.4112 258.345 57.1326 265.492 61.3346C266.013 61.6424 265.813 62.5791 265.144 62.4186C251.373 59.1801 238.286 70.9296 234.097 83.0538C233.602 84.4857 231.113 84.3519 230.765 82.8665Z" fill="#E57373"/>
<path d="M231.756 86.5199C231.716 81.1804 240.013 82.3179 243.439 82.9335C249.354 84.004 254.733 86.8678 258.962 91.1233C259.444 91.6051 258.935 92.6088 258.266 92.2073C254.479 89.8922 250.478 88.099 246.155 87.0552C244.308 86.6136 242.448 86.2389 240.535 86.0917C237.658 85.8776 235.945 86.8143 233.335 87.5637C232.639 87.7644 231.769 87.3362 231.769 86.5199H231.756Z" fill="#E57373"/>
<path d="M233.041 93.1713C236.092 91.7394 240.214 93.3855 243.051 94.7371C246.45 96.3697 248.886 98.8186 251.174 101.763C251.495 102.178 250.853 102.766 250.492 102.378C248.136 100.01 245.072 98.2699 241.954 97.0789C239.063 95.9816 235.678 96.2358 232.961 94.8976C232.172 94.5095 232.345 93.5059 233.055 93.1713H233.041Z" fill="#E57373"/>
<path d="M232.342 128.232C214.289 142.484 187.231 144.464 167.679 132.34C148.128 120.216 137.85 94.549 144.341 72.4818C150.831 50.4146 173.929 34.2623 196.839 36.457C219.749 38.6516 239.568 59.4877 239.93 82.4916C240.13 95.0307 255.774 102.859 266.333 109.631C271.458 112.909 277.079 115.613 283.101 116.456C289.122 117.299 295.599 116.108 300.364 112.32C305.128 108.533 307.75 101.896 305.971 96.0745C304.191 90.2533 297.54 86.1182 291.719 87.9114C290.113 87.4296 289.47 85.5695 289.738 83.9101C290.006 82.2508 291.625 80.9393 293.298 81.0062C290.595 78.3699 293.365 71.4112 296.871 70.0194C300.377 68.6277 304.806 71.7725 304.646 75.5329C317.881 83.2009 327.315 96.7838 328.158 112.053C328.988 127.322 312.903 139.727 297.767 141.908C267.631 146.271 242.512 133.531 232.355 128.218L232.342 128.232Z" fill="#B0BEC5"/>
<path d="M203.743 101.709C203.515 100.919 203.154 100.17 202.833 99.4071C202.405 98.3901 202.097 97.3731 201.227 96.6237C199.635 95.2587 196.409 95.4862 195.995 98.002C195.647 100.157 196.516 102.405 197.386 104.372C198.082 105.924 200.29 106.419 201.722 105.79C203.274 105.108 204.211 103.395 203.729 101.695L203.743 101.709Z" fill="#212121"/>
<path d="M234.378 90.307C234.15 89.5175 233.789 88.7681 233.468 88.0053C233.039 86.9883 232.732 85.9712 231.862 85.2218C230.269 83.8568 227.044 84.0843 226.629 86.6002C226.281 88.7547 227.151 91.0029 228.021 92.9701C228.717 94.5224 230.925 95.0176 232.357 94.3886C233.909 93.7061 234.846 91.9932 234.364 90.2936L234.378 90.307Z" fill="#212121"/>
<path d="M191.177 69.3505C189.29 67.9855 186.199 69.0427 184.339 69.9928C182.224 71.0768 180.418 72.7094 179.481 74.904C178.932 76.2021 180.163 77.9953 181.622 77.0452C183.161 76.0415 184.727 74.9308 186.453 74.2617C188.126 73.606 190.227 73.4856 191.552 72.241C192.488 71.3578 192.1 70.033 191.177 69.3639V69.3505Z" fill="#212121"/>
<path d="M223.12 61.1605C222.999 60.4512 222.29 59.849 221.634 59.6751C218.637 58.8721 215.692 59.6617 213.484 61.8162C211.999 63.2615 213.939 65.9245 215.746 64.7469C216.977 63.9306 218.436 63.5827 219.921 63.7031C220.938 63.7968 221.741 64.051 222.584 63.2481C223.213 62.6459 223.28 61.9902 223.133 61.1738L223.12 61.1605Z" fill="#212121"/>
<path d="M248.669 105.724C242.594 105.081 237.361 112.227 237.067 117.66C236.973 119.293 239.596 120.123 240.279 118.53C241.282 116.242 242.313 114.194 244.066 112.374C245.725 110.648 247.84 109.564 249.619 108.025C250.596 107.182 249.713 105.831 248.669 105.724Z" fill="#90A4AE"/>
<path d="M259.051 115.011C257.633 116.59 257.164 118.691 256.856 120.751C256.575 122.638 256.254 124.646 257.017 126.439C257.378 127.282 258.476 126.867 258.743 126.211C259.426 124.525 259.279 122.545 259.707 120.751C260.108 119.079 260.764 117.473 260.858 115.747C260.911 114.85 259.653 114.328 259.064 114.997L259.051 115.011Z" fill="#90A4AE"/>
<path d="M275.875 122.236C275.568 121.42 274.658 121.139 273.975 121.741C272.235 123.307 272.878 126.706 273.373 128.687C273.681 129.904 275.541 129.637 275.541 128.392C275.541 127.322 275.675 126.291 275.795 125.234C275.916 124.271 276.21 123.16 275.862 122.236H275.875Z" fill="#90A4AE"/>
<path d="M289.015 121.956C288.614 121.14 287.396 121.233 286.968 121.956C286.406 122.906 286.553 123.95 286.861 124.98C287.182 126.091 287.637 126.667 288.413 127.483C288.975 128.072 289.791 127.443 289.671 126.747C289.417 125.208 289.725 123.388 289.029 121.956H289.015Z" fill="#90A4AE"/>
<path d="M301.916 119.012C300.872 118.825 299.935 120.056 300.818 120.913C302.036 122.09 303.214 123.281 304.993 123.415C305.422 123.442 305.85 123 305.837 122.572C305.716 120.471 303.829 119.347 301.929 119.012H301.916Z" fill="#90A4AE"/>
<path d="M314.308 111.813C312.93 110.274 310.454 110.434 308.862 111.492C307.992 112.067 308.286 113.499 309.411 113.499C310.642 113.499 311.538 114.248 312.636 114.69C313.171 114.904 313.934 114.65 314.322 114.248C314.415 114.141 314.509 114.021 314.589 113.9C315.044 113.258 314.804 112.348 314.322 111.813H314.308Z" fill="#90A4AE"/>
<path d="M316.301 99.4742C315.713 98.0825 313.464 97.962 312.193 98.1092C310.694 98.2832 309.503 99.0192 308.66 100.21C308.218 100.839 308.955 101.441 309.543 101.361C310.935 101.16 312.38 101.093 313.759 101.415C314.548 101.602 315.311 101.803 315.98 101.174C316.462 100.719 316.569 100.09 316.301 99.4608V99.4742Z" fill="#90A4AE"/>
<path d="M311.175 86.3327C310.921 85.2086 309.77 84.6465 308.7 84.7268C307.495 84.8205 306.518 85.436 306.01 86.5334C305.474 87.6709 306.773 88.7147 307.749 87.8716C308.178 87.4969 308.726 87.4835 309.262 87.4702C309.369 87.4702 309.864 87.3765 309.998 87.3363C310.131 87.3363 310.533 87.3363 310.613 87.3363C311.055 87.2694 311.269 86.7208 311.175 86.3461V86.3327Z" fill="#90A4AE"/>
<path d="M168.75 243.078C161.43 251.857 155.127 260.207 143.645 263.86C132.283 267.474 119.209 264.409 110.698 256.032C110.471 255.804 110.016 256.112 110.23 256.393C126.583 278.795 160.721 267.072 170.249 243.948C170.583 243.118 169.299 242.409 168.75 243.078Z" fill="#B0BEC5"/>
<path d="M112.947 255.457C112.612 253.208 112.92 250.532 111.595 248.592C110.324 246.718 107.38 246.41 106.176 248.592C104.449 251.71 106.069 255.376 108.303 257.799C109.789 259.404 111.983 261.586 114.366 261.211C114.486 261.198 114.58 261.05 114.566 260.943C114.486 259.03 113.228 257.357 112.947 255.457Z" fill="#90A4AE"/>
<g style="mix-blend-mode:multiply" opacity="0.27">
<path d="M56.81 311.484C88.1853 311.484 113.62 307.374 113.62 302.304C113.62 297.234 88.1853 293.124 56.81 293.124C25.4347 293.124 0 297.234 0 302.304C0 307.374 25.4347 311.484 56.81 311.484Z" fill="#B9B8A7"/>
</g>
<path d="M54.4495 184.424C62.3295 201.964 72.4595 218.494 84.4995 233.484C85.2995 234.474 86.6495 234.814 87.8395 234.354C90.8495 233.204 93.5495 231.294 95.3395 228.674C95.9995 227.714 96.0095 226.454 95.3695 225.484C90.0295 217.434 85.3595 208.774 81.6495 199.764C77.3095 189.234 66.5395 182.844 55.2495 184.314L54.4395 184.414L54.4495 184.424Z" fill="#C4784E"/>
<path d="M108.647 212.922L88.5156 191.454L59.4837 218.679L79.6149 240.146L108.647 212.922Z" fill="#0843B2"/>
<path d="M107.758 212.954L87.627 191.486L59.5724 217.794L79.7037 239.262L107.758 212.954Z" fill="#FFEBEE"/>
<path d="M105.911 210.02L85.7793 188.552L56.7473 215.777L76.8786 237.245L105.911 210.02Z" fill="#0B5FFF"/>
<path d="M9.64969 213.544C8.06969 207.834 9.94968 202.774 12.4697 197.694C12.7697 197.084 12.5797 196.514 12.0597 196.114C11.9997 196.064 11.9297 196.014 11.8697 195.964C11.6797 195.814 11.3597 195.854 11.1597 195.964C7.95968 197.764 6.65968 205.374 6.55968 208.554C6.38968 213.674 8.66968 219.834 12.0597 223.624C12.3397 223.944 12.9897 223.704 12.9397 223.254C12.5797 219.684 10.6097 216.984 9.65968 213.544H9.64969Z" fill="#047780"/>
<path d="M46.879 175.474C38.409 176.384 31.729 179.384 24.309 183.334C19.309 185.994 6.51904 194.064 10.129 201.724C11.199 203.994 14.379 205.224 16.409 203.754C16.379 203.784 16.359 203.824 16.329 203.854L51.949 182.924C50.399 180.354 48.699 177.864 46.869 175.474H46.879Z" fill="#6AC6CD"/>
<path d="M61.7994 210.244C60.5494 200.504 57.0194 191.284 51.9594 182.924L16.3394 203.854C10.5594 210.254 7.86935 218.984 7.67935 227.604C7.56935 232.524 8.22936 237.634 10.8494 241.804C13.8594 246.604 19.1294 249.584 24.5594 251.194C34.8994 254.264 46.4994 252.834 55.7894 247.334C60.7294 235.494 63.4494 222.964 61.8094 210.244H61.7994Z" fill="#06B0BD"/>
<path d="M77.2989 191.324C75.8989 190.544 74.2889 192.494 75.5489 193.694C84.6689 202.404 88.0389 215.954 83.3189 227.894C82.5489 229.854 85.4289 230.844 86.4489 229.264C93.4289 218.424 88.4289 197.484 77.2989 191.324Z" fill="#047780"/>
<path d="M67.1506 294.564C67.4306 297.374 67.6906 300.194 67.9006 303.014C72.0006 304.454 77.5306 305.674 81.5906 304.124C81.9806 301.594 82.2806 299.044 82.5206 296.484C77.4706 297.214 72.0606 296.434 67.1406 294.564H67.1506Z" fill="#212121"/>
<path d="M65.2402 279.244C66.0002 284.334 66.6402 289.434 67.1602 294.564C72.0802 296.434 77.4902 297.214 82.5402 296.484C83.3302 288.334 83.4002 280.064 82.8902 271.854C78.0802 276.404 72.2002 279.624 65.2502 279.244H65.2402Z" fill="#DB8E65"/>
<path d="M59.3301 249.274C61.7801 259.144 63.7401 269.154 65.2401 279.244C72.1901 279.624 78.0801 276.404 82.8801 271.854C82.6101 267.594 82.2001 263.364 81.6301 259.184L59.3301 249.284V249.274Z" fill="#C4784E"/>
<path d="M77.2197 149.594C68.8097 146.584 61.2597 145.704 55.0097 138.374C48.6697 130.934 46.9197 120.924 48.9397 111.544C49.6397 108.294 44.7097 106.894 43.9297 110.164C42.1197 117.724 42.5697 125.574 45.4297 132.614C44.5597 132.694 43.6797 132.754 42.7797 132.584C40.3397 132.104 38.3397 130.704 36.7897 128.794C35.2497 126.904 34.2497 124.664 33.7097 122.294C33.2297 120.184 33.5497 118.674 32.0197 117.074C31.4797 116.514 30.5097 116.524 29.9697 117.074C25.9197 121.184 31.2897 130.454 34.6497 133.624C37.4297 136.254 43.7497 139.084 47.7897 137.354C48.4197 138.394 49.0897 139.404 49.8397 140.384C55.6897 148.044 67.1997 155.604 77.2097 153.494C79.3097 153.054 78.9397 150.214 77.2097 149.594H77.2197Z" fill="#BF360C"/>
<path d="M75.3789 147.504C82.9289 143.574 89.9289 141.844 94.9289 133.864C100.009 125.764 100.469 115.624 97.4489 106.544C96.3989 103.394 100.869 101.454 101.999 104.604C104.599 111.904 105.109 119.744 103.259 127.064C104.089 127.044 104.919 127.014 105.749 126.734C107.979 125.984 109.699 124.364 110.929 122.304C112.149 120.254 112.829 117.914 113.049 115.504C113.249 113.354 112.769 111.884 114.019 110.134C114.459 109.514 115.369 109.424 115.949 109.904C120.249 113.534 116.299 123.344 113.519 126.864C111.209 129.784 105.609 133.304 101.609 132.044C101.139 133.144 100.629 134.224 100.039 135.284C95.4489 143.554 85.5189 152.344 75.8589 151.384C73.8289 151.184 73.8389 148.314 75.3989 147.504H75.3789Z" fill="#BF360C"/>
<path d="M79.0706 145.634C87.5306 144.324 96.4806 145.354 103.961 149.154C110.731 152.594 114.751 160.024 113.341 167.484C111.541 177.034 102.151 182.334 93.0406 183.114C86.8906 183.644 80.7706 182.464 74.7506 180.934C73.1106 180.514 71.8206 182.314 72.7006 183.764C81.1306 197.734 84.8006 214.344 87.9206 230.444C89.0806 236.474 90.0906 242.604 89.5606 248.724C89.0306 254.834 86.8006 261.004 82.3306 265.214C76.9706 270.264 69.2806 271.834 61.9806 272.774C53.0706 273.914 42.7506 273.934 36.6606 267.334C29.5706 259.644 29.5506 244.934 29.0906 235.124C27.8606 208.894 34.2106 187.124 49.1106 165.694C53.8606 158.864 59.6706 152.774 67.2806 149.214C70.9406 147.494 74.9506 146.294 79.0906 145.654L79.0706 145.634Z" fill="#DB8E65"/>
<path d="M78.9288 154.594C78.3988 154.114 77.5388 154.444 77.5188 155.184C77.4988 156.114 78.7088 158.284 77.4288 158.824C75.7588 159.524 74.8388 156.934 74.1688 155.974C73.5988 155.144 72.3288 155.644 72.5388 156.664C73.0588 159.124 75.4888 161.964 78.2488 160.804C80.5088 159.844 80.6388 156.154 78.9188 154.604L78.9288 154.594Z" fill="#212121"/>
<path d="M92.2999 151.244C91.7699 150.764 90.9099 151.094 90.8899 151.834C90.8699 152.764 92.0799 154.934 90.7999 155.474C89.1299 156.174 88.2099 153.584 87.5399 152.624C86.9699 151.794 85.6999 152.294 85.9099 153.314C86.4299 155.774 88.8599 158.614 91.6199 157.454C93.8799 156.494 94.0099 152.804 92.2899 151.254L92.2999 151.244Z" fill="#212121"/>
<path d="M117.23 154.264C117.8 155.384 118.01 156.734 117.69 158.334C117.14 161.144 114.22 164.254 111.43 164.974C105.56 166.474 96.5498 159.334 100.82 153.194C102.8 150.344 107.52 150.014 110.62 150.394C113.44 150.744 116.07 152.024 117.22 154.274L117.23 154.264Z" fill="#212121"/>
<path d="M98.5495 173.764C95.8695 174.664 93.1895 174.934 90.5295 173.824C88.3395 172.904 86.7595 171.234 84.8895 169.844C84.2595 169.374 83.4795 170.274 83.8495 170.884C86.6695 175.554 94.5395 178.704 98.8095 174.214C98.9895 174.024 98.8095 173.674 98.5495 173.764Z" fill="#212121"/>
<path d="M70.2992 151.934C63.2292 147.744 54.8292 145.814 46.6392 146.494C45.6392 146.574 44.4292 146.854 44.1192 147.814C43.8292 148.694 44.4893 149.584 45.1093 150.274C46.2693 151.584 47.4292 152.894 48.5892 154.204C49.4692 155.194 50.4493 156.244 51.7492 156.484C53.8193 156.864 55.5693 155.094 57.3593 154.004C60.0393 152.374 63.5392 152.194 66.3692 153.534L70.2992 151.924V151.934Z" fill="#DB8E65"/>
<path d="M60.3991 149.434C55.9791 148.274 51.3191 148.014 46.7891 148.684C48.1391 150.944 49.7891 152.674 52.1391 153.854C54.9991 152.774 57.8791 151.164 60.3991 149.434Z" fill="#E65100"/>
<path d="M40.7893 297.164C41.0693 299.974 41.3293 302.794 41.5393 305.614C45.6393 307.054 51.1693 308.274 55.2293 306.724C55.6193 304.194 55.9193 301.644 56.1593 299.084C51.1093 299.814 45.6993 299.034 40.7793 297.164H40.7893Z" fill="#212121"/>
<path d="M55.259 261.784L32.959 251.884C36.639 266.744 39.249 281.894 40.779 297.174C45.699 299.044 51.109 299.824 56.159 299.094C57.359 286.724 56.929 274.034 55.259 261.794V261.784Z" fill="#DB8E65"/>
<path d="M37.1292 192.194C25.4992 207.474 15.8192 224.244 8.40919 241.954C7.90919 243.144 8.22919 244.534 9.20919 245.374C11.6592 247.474 14.6292 248.924 17.7792 249.254C18.9592 249.374 20.0792 248.724 20.6392 247.674C28.1292 233.564 37.9392 220.304 49.6892 209.524L37.1292 192.184V192.194Z" fill="#DB8E65"/>
<path d="M45.5695 212.884C42.2695 215.174 39.4695 217.944 36.9295 221.054C34.4795 224.054 31.6095 227.314 29.9995 230.834C29.8695 231.104 30.1795 231.354 30.4195 231.154C33.2595 228.774 35.2095 225.324 37.5995 222.504C40.2195 219.414 43.0695 216.624 46.4595 214.384C47.3995 213.764 46.4995 212.234 45.5795 212.874L45.5695 212.884Z" fill="#C4784E"/>
<path d="M36.1899 189.154C33.8099 187.464 31.4499 191.454 33.8899 193.084C43.7099 199.644 49.8099 209.344 44.0499 220.954C40.1799 228.734 34.0899 234.964 26.8999 239.734C24.9999 240.994 26.7799 244.084 28.6999 242.814C38.0199 236.624 47.4299 226.974 50.1599 215.754C52.9599 204.284 44.8499 195.324 36.1899 189.164V189.154Z" fill="#047780"/>
<path d="M40.7396 252.664C40.5796 251.904 39.3596 251.904 39.2096 252.664C37.6396 260.194 38.2096 269.724 31.2396 274.794C23.9496 280.094 14.4796 272.564 10.1296 266.444C10.0096 266.274 9.72956 266.424 9.83956 266.614C13.8296 273.474 21.0796 282.134 30.1096 278.524C39.2196 274.874 42.5796 261.424 40.7496 252.664H40.7396Z" fill="#DB8E65"/>
<path d="M12.8893 271.084C10.4893 270.324 8.0793 269.174 6.6493 267.104C5.2193 265.034 5.1493 261.874 7.0693 260.244C7.0693 261.464 7.7393 262.394 8.8493 262.914C8.6093 260.894 8.5693 258.564 9.3893 256.694C11.4093 258.144 13.0493 261.034 13.6893 263.434C14.3193 265.834 13.9293 268.814 12.8893 271.074V271.084Z" fill="#5D4037"/>
</svg>
