<svg width="160" height="140" viewBox="0 0 160 140" fill="none" xmlns="http://www.w3.org/2000/svg">
<path d="M155.045 119.416L150.74 122.936L147.747 125.386C147.747 125.386 130.307 116.766 120.71 118.203C111.11 119.638 98.7048 133.098 98.7048 133.098L97.4922 133.006L88.5723 132.311C88.5723 132.311 89.0547 120.441 89.0547 111.358C89.0547 109.073 89.0248 106.971 88.9498 105.271L140.6 104.363C140.6 104.363 141.37 105.283 142.562 106.676C145.91 110.568 152.592 118.131 155.042 119.416H155.045Z" fill="#6CA9E0"/>
<path d="M146.456 86.8808C146.369 88.3108 146.191 89.8033 145.384 90.9858C144.721 91.9558 143.704 92.6183 142.686 93.2033C141.274 94.0133 139.474 94.7233 138.094 93.8583C137.471 93.4683 137.061 92.8158 136.721 92.1633C134.931 88.7208 134.534 84.7483 134.171 80.8833C133.801 76.9758 133.434 73.0683 133.064 69.1608C132.856 66.9683 132.679 64.6233 133.741 62.6933C134.799 60.7758 137.804 59.6233 139.726 60.9608C141.664 62.3058 142.756 66.1433 143.559 68.2333C145.829 74.1508 146.841 80.5533 146.459 86.8808H146.456Z" fill="#D3976A"/>
<path d="M59.2462 93.1302C58.3312 95.1452 57.6237 97.7927 59.1962 99.3502C60.8087 100.945 63.5162 100.128 65.5512 99.1227C71.5362 96.1702 77.1287 92.4202 82.1337 88.0077C82.6837 87.5227 83.2462 87.0027 83.5062 86.3152C83.7312 85.7227 83.7037 85.0652 83.6112 84.4377C83.1687 81.4052 81.2062 78.6327 78.4912 77.2102C76.4362 76.1327 73.9837 75.8452 71.7287 76.3677C69.5512 76.8727 68.7137 78.1527 67.3762 79.8377C64.1387 83.9177 61.3987 88.3852 59.2462 93.1277V93.1302Z" fill="#C0C0C1"/>
<path d="M150.736 122.936L147.743 125.386C147.743 125.386 130.303 116.766 120.706 118.203C111.106 119.638 98.7008 133.098 98.7008 133.098L97.4883 133.006C97.5008 132.558 97.6308 132.091 97.9208 131.626C99.8308 128.533 102.973 125.993 105.863 123.868C107.588 122.601 109.381 121.433 111.198 120.306C114.978 117.951 119.036 115.683 123.481 115.428C126.346 115.263 129.186 115.951 131.973 116.631C135.873 117.586 139.776 118.536 143.588 119.793C146.058 120.608 148.531 121.576 150.736 122.936Z" fill="#4283B2"/>
<path d="M142.562 106.675C127.91 114.363 97.7972 112.098 89.0522 111.36C89.0522 109.075 89.0223 106.973 88.9473 105.273L140.597 104.365C140.597 104.365 141.367 105.285 142.56 106.678L142.562 106.675Z" fill="#4283B2"/>
<path d="M92.4023 132.611C92.4023 132.611 97.3998 130.876 100.232 133.878C100.232 133.878 101.965 135.513 101.01 135.668C100.407 135.766 87.4648 133.473 87.4648 133.473L88.2923 131.943L92.4023 132.608V132.611Z" fill="#C0C0C1"/>
<path d="M150.917 122.781C150.917 122.781 153.037 117.933 157.164 117.896C157.164 117.896 159.542 117.736 159.007 118.541C158.669 119.051 148.197 126.993 148.197 126.993L147.637 125.346L150.917 122.781Z" fill="#C0C0C1"/>
<path d="M142.935 105.676C127.757 114.631 94.3971 108.416 88.2671 107.171C87.6321 107.043 87.2895 106.966 87.2895 106.966C88.902 103.816 88.5846 87.7284 88.5846 87.7284L83.6845 90.1484C83.3745 90.0334 83.0695 89.9084 82.7695 89.7809C71.727 85.1509 66.5195 75.0234 66.5195 75.0234L84.5746 63.3434L92.412 58.2684C92.412 58.2684 130.807 43.2559 139.085 58.7659C139.312 59.1884 139.517 59.6309 139.695 60.0984C146.467 77.7709 142.937 105.673 142.937 105.673L142.935 105.676Z" fill="#FCCFA9"/>
<path d="M138.309 76.9935C137.774 79.001 136.747 81.2436 134.719 81.6936C134.499 80.8186 134.807 79.9061 135.102 79.0536C136.709 74.3961 137.999 69.3261 136.622 64.5961C136.382 63.7736 136.062 62.9561 136.057 62.1011C136.052 61.2461 136.459 60.3135 137.259 60.011C140.627 58.741 138.842 74.996 138.309 76.9935Z" fill="#201600"/>
<path d="M137.851 2.10061C138.768 1.31061 139.771 0.53311 141.058 0.53811C141.528 0.53811 141.998 0.685615 142.366 0.980615C144.196 2.45311 141.893 5.40061 143.428 6.76311C144.886 8.05561 147.793 5.91811 148.933 7.49561C150.183 9.22311 146.616 11.8081 148.033 13.4031C148.228 13.6231 148.496 13.7681 148.773 13.8631C150.353 14.4006 152.141 13.3606 153.713 14.1581C154.101 14.3531 154.423 14.6781 154.571 15.0856C154.933 16.1056 154.143 16.9006 153.373 17.4556C150.498 19.5281 146.763 20.6156 144.761 23.5406C144.331 24.1681 143.841 24.9556 143.081 24.9206C142.798 24.9081 142.536 24.7756 142.291 24.6356C139.888 23.2881 138.023 21.2456 136.083 19.3306C134.566 17.8331 131.456 16.2881 130.398 14.5306C128.218 10.9056 135.411 4.20811 137.853 2.10061H137.851Z" fill="#C0C0C1"/>
<path d="M87.2508 4.58355C86.1483 4.40105 84.6233 4.57105 84.4708 5.67855C84.2408 7.33605 87.5933 8.21105 86.7433 9.73105C86.5958 9.99605 86.3433 10.1911 86.0633 10.3061C83.4633 11.3761 80.4033 12.0835 78.1583 13.6635C76.5583 14.7885 77.2833 17.311 79.2358 17.4435C79.3183 17.4485 79.4008 17.4561 79.4808 17.4611C80.8208 17.5536 82.5108 18.4111 82.1808 19.7111C82.0783 20.1136 81.7858 20.4386 81.5008 20.7411C81.4833 20.7586 81.4658 20.7786 81.4483 20.7961C79.7608 22.5886 81.2108 25.5186 83.6608 25.2761L92.3183 24.4161C94.4408 24.2061 96.6583 23.9611 98.4358 22.7836C100.111 21.6711 101.176 19.8711 102.186 18.1336C103.136 16.4986 104.856 14.7211 103.873 12.8761C103.061 11.3536 100.341 9.91355 98.9383 9.03105C95.4058 6.81355 91.3808 5.21855 87.2508 4.58355Z" fill="#C0C0C1"/>
<path d="M97.7222 67.1602H97.5723C98.9198 70.8902 101.025 74.3327 103.687 77.2727C104.307 77.9577 104.97 78.6302 105.355 79.4702C105.74 80.3102 105.79 81.3752 105.217 82.0977C104.87 82.5377 104.34 82.7977 103.95 83.2027C102.947 84.2426 103.102 85.9001 103.33 87.3251C104.097 92.1126 104.945 96.8877 105.872 101.645C106.03 102.458 106.205 103.303 106.715 103.955C107.602 105.095 109.21 105.318 110.65 105.433C114.612 105.753 119.005 105.805 122.055 103.258C123.287 102.228 124.22 100.825 125.615 100.033C126.715 99.4076 128.002 99.2227 129.255 99.0502C130.627 98.8602 132.002 98.6676 133.375 98.4776C133.97 98.3951 134.577 98.3126 135.162 98.4476C136.537 98.7626 137.382 100.153 138.63 100.813C139.83 101.448 141.392 101.313 142.465 100.483C143.982 99.3076 144.295 97.1702 144.375 95.2527C144.485 92.6502 144.387 90.0376 144.085 87.4501C143.952 86.3251 143.68 85.0501 142.695 84.4926C142.06 84.1326 141.285 84.1701 140.557 84.2276C134.19 84.7126 127.865 85.7427 121.67 87.3002C121.24 87.4077 120.785 87.5201 120.357 87.4001C119.912 87.2751 119.572 86.9227 119.26 86.5802C116.107 83.1377 113.197 79.4127 109.487 76.5827C107.847 75.3327 106.065 74.2702 104.46 72.9752C102.562 71.4452 100.937 69.6127 99.3198 67.7877C98.8373 67.2427 98.2047 67.7052 97.7222 67.1627V67.1602Z" fill="#EFB68B"/>
<path d="M139.098 59.2134C139.086 60.3334 138.673 61.4159 138.136 62.4009C136.203 65.9634 132.708 68.5034 128.906 69.9109C125.098 71.3134 120.991 71.6734 116.936 71.6809C109.708 71.6959 102.481 70.6259 95.5659 68.5159C92.8534 67.6884 87.7534 65.9384 84.5684 63.3434L92.4058 58.2684C92.4058 58.2684 130.801 43.2559 139.078 58.7659C139.093 58.9134 139.098 59.0634 139.098 59.2109V59.2134Z" fill="#EFB68B"/>
<path d="M92.4082 58.2684C92.4082 58.2684 101.288 74.9809 112.211 83.0184H117.258C117.258 83.0184 95.9983 64.2009 95.6508 58.2684C95.3033 52.3384 92.4082 58.2684 92.4082 58.2684Z" fill="#201600"/>
<path d="M151.117 38.273C151.117 55.703 136.987 69.833 119.557 69.833C102.127 69.833 84.5645 56.888 84.5645 39.458C84.5645 22.028 100.257 9.08301 117.687 9.08301C135.117 9.08301 151.117 20.843 151.117 38.273Z" fill="#C0C0C1"/>
<path d="M141.887 90.0559C141.887 90.0559 133.562 99.2959 120.965 94.6259L118.082 81.4284C118.082 81.4284 128.259 83.2534 137.167 77.7109L141.887 90.0584V90.0559Z" fill="#201600"/>
<path d="M150.21 74.6358L149.343 71.5933C149.12 70.8158 148.483 70.2308 147.688 70.0708C145.575 69.6508 141.335 69.2758 138.135 72.0033C137.51 72.5358 137.228 73.3683 137.403 74.1708L138.13 77.4983L150.208 74.6358H150.21Z" fill="#201600"/>
<path d="M155.939 96.8783C153.864 98.5383 149.374 101.053 142.072 99.9308C140.594 99.7033 139.417 98.5708 139.099 97.1108L135.002 78.3483C135.002 78.3483 141.642 72.8358 150.169 73.9558C151.659 74.1508 152.874 75.2458 153.194 76.7133L156.964 93.9808C157.202 95.0633 156.804 96.1833 155.939 96.8758V96.8783Z" fill="#312A20"/>
<path d="M107.56 83.9478L107.08 80.8204C106.957 80.0204 107.292 79.2229 107.95 78.7479C109.695 77.4854 113.392 75.3779 117.437 76.5229C118.227 76.7454 118.832 77.3879 119.007 78.1879L119.735 81.5154L107.562 83.9478H107.56Z" fill="#201600"/>
<path d="M111.622 106.555C114.129 107.18 119.054 107.59 125.004 103.868C126.554 102.898 127.309 101.043 126.919 99.2579L122.929 80.9854C122.929 80.9854 114.597 78.7429 107.312 83.3154C106.039 84.1129 105.392 85.6154 105.712 87.0829L109.482 104.35C109.719 105.433 110.544 106.285 111.619 106.555H111.622Z" fill="#312A20"/>
<path d="M130.37 59.2281C123.985 59.2281 119.17 52.6681 119.17 43.9681C119.17 35.2681 123.67 29.6406 130.37 29.6406C137.07 29.6406 141.57 35.3981 141.57 43.9681C141.57 52.5381 136.755 59.2281 130.37 59.2281ZM130.37 30.4156C124.132 30.4156 119.942 35.8631 119.942 43.9681C119.942 52.0731 124.425 58.4531 130.37 58.4531C136.315 58.4531 140.797 52.2256 140.797 43.9681C140.797 35.7106 136.607 30.4156 130.37 30.4156Z" fill="white"/>
<path d="M114.547 26.1731C115.402 26.1731 116.095 25.4803 116.095 24.6256C116.095 23.771 115.402 23.0781 114.547 23.0781C113.693 23.0781 113 23.771 113 24.6256C113 25.4803 113.693 26.1731 114.547 26.1731Z" fill="#201600"/>
<path d="M115.126 33.9043C115.494 31.6378 113.954 29.5023 111.688 29.1344C109.422 28.7665 107.286 30.3056 106.918 32.572C106.55 34.8385 108.089 36.974 110.356 37.3419C112.622 37.7098 114.758 36.1708 115.126 33.9043Z" fill="#FAA7A7"/>
<path d="M144.872 36.8004C147.168 36.8004 149.03 34.939 149.03 32.6429C149.03 30.3467 147.168 28.4854 144.872 28.4854C142.576 28.4854 140.715 30.3467 140.715 32.6429C140.715 34.939 142.576 36.8004 144.872 36.8004Z" fill="#FAA7A7"/>
<path d="M142.473 25.4153C143.328 25.4153 144.021 24.7225 144.021 23.8678C144.021 23.0132 143.328 22.3203 142.473 22.3203C141.619 22.3203 140.926 23.0132 140.926 23.8678C140.926 24.7225 141.619 25.4153 142.473 25.4153Z" fill="#201600"/>
<path d="M128.421 33.4757C128.169 33.9057 128.034 34.3982 127.974 34.8932C127.746 36.7857 128.576 38.6257 129.389 40.3482C129.649 40.9032 129.924 41.4757 130.381 41.8807C131.054 42.4757 132.041 42.6182 132.921 42.4282C133.346 42.3357 133.761 42.1682 134.101 41.8982C134.589 41.5107 134.891 40.9332 135.096 40.3432C135.446 39.3232 135.531 38.2332 135.586 37.1557C135.649 35.9382 135.669 34.6732 135.186 33.5557C134.031 30.8732 129.821 31.0832 128.419 33.4757H128.421Z" fill="#201600"/>
<path d="M131.134 53.8253C130.594 53.8253 129.986 53.6828 129.314 53.3978C129.116 53.3153 129.026 53.0878 129.109 52.8903C129.194 52.6928 129.419 52.6028 129.616 52.6853C130.616 53.1078 131.406 53.1653 131.969 52.8503C132.606 52.4928 132.781 51.7378 132.809 51.5953V40.0828C132.809 39.8703 132.981 39.6953 133.196 39.6953C133.411 39.6953 133.584 39.8678 133.584 40.0828L133.579 51.6828C133.571 51.7328 133.389 52.9353 132.354 53.5203C131.996 53.7228 131.589 53.8228 131.131 53.8228L131.134 53.8253Z" fill="#201600"/>
<path d="M124.925 27.4054C124.767 27.4054 124.62 27.3079 124.562 27.1529C124.205 26.1754 123.6 25.3004 122.812 24.6179C122.65 24.4779 122.632 24.2329 122.772 24.0729C122.912 23.9104 123.157 23.8929 123.317 24.0329C124.205 24.8004 124.885 25.7854 125.287 26.8854C125.36 27.0854 125.257 27.3079 125.057 27.3804C125.012 27.3954 124.97 27.4029 124.925 27.4029V27.4054Z" fill="white"/>
<path d="M135.277 27.213C135.244 27.213 135.212 27.208 135.177 27.2005C134.969 27.1455 134.847 26.9355 134.902 26.728C135.102 25.9705 135.204 25.1905 135.204 24.408C135.204 24.1955 135.377 24.0205 135.592 24.0205C135.804 24.0205 135.979 24.193 135.979 24.408C135.979 25.258 135.869 26.103 135.652 26.9255C135.607 27.098 135.449 27.213 135.279 27.213H135.277Z" fill="white"/>
<path d="M131.256 25.0978C131.051 25.0978 130.879 24.9353 130.871 24.7278C130.844 24.1053 130.751 23.4878 130.596 22.8853C130.544 22.6778 130.666 22.4678 130.874 22.4153C131.079 22.3603 131.291 22.4853 131.344 22.6928C131.514 23.3453 131.614 24.0203 131.644 24.6953C131.654 24.9078 131.489 25.0878 131.274 25.0978C131.269 25.0978 131.261 25.0978 131.256 25.0978Z" fill="white"/>
<path d="M125.43 16.1081C125.293 16.1081 125.16 16.0356 125.09 15.9081C124.795 15.3681 124.373 14.8956 123.868 14.5406C123.693 14.4181 123.65 14.1757 123.775 14.0032C123.898 13.8282 124.14 13.7882 124.313 13.9107C124.913 14.3332 125.415 14.8956 125.768 15.5381C125.87 15.7256 125.802 15.9606 125.615 16.0631C125.555 16.0956 125.493 16.1106 125.43 16.1106V16.1081Z" fill="white"/>
<path d="M120.747 16.8483C120.664 16.8483 120.582 16.8208 120.512 16.7683C119.967 16.3458 119.364 16.0058 118.722 15.7533C118.524 15.6758 118.424 15.4508 118.504 15.2533C118.582 15.0533 118.807 14.9558 119.004 15.0358C119.714 15.3133 120.379 15.6908 120.984 16.1583C121.152 16.2883 121.184 16.5308 121.054 16.7008C120.977 16.7983 120.864 16.8508 120.747 16.8508V16.8483Z" fill="white"/>
<path d="M125.686 20.7706C125.558 20.7706 125.436 20.7081 125.361 20.5931C125.083 20.1681 124.743 19.7906 124.346 19.4706C124.178 19.3381 124.153 19.0931 124.286 18.9281C124.418 18.7631 124.663 18.7356 124.828 18.8681C125.291 19.2381 125.688 19.6781 126.008 20.1731C126.126 20.3531 126.073 20.5906 125.893 20.7081C125.828 20.7506 125.756 20.7706 125.683 20.7706H125.686Z" fill="white"/>
<path d="M132.609 19.0936C132.427 19.0936 132.204 18.9861 132.109 18.6711C131.887 17.9286 131.544 17.2361 131.094 16.6061C130.969 16.4336 131.009 16.1911 131.182 16.0661C131.354 15.9411 131.597 15.9811 131.722 16.1536C132.187 16.7986 132.544 17.5086 132.792 18.2636C132.947 18.3436 133.034 18.5186 133.032 18.6761C133.029 18.8886 132.874 19.0611 132.664 19.0886C132.644 19.0886 132.627 19.0911 132.607 19.0911L132.609 19.0936Z" fill="white"/>
<path d="M119.037 12.1057C118.957 12.1057 118.877 12.0807 118.81 12.0307C118.435 11.7582 118 11.5532 117.55 11.4407C117.342 11.3882 117.217 11.1782 117.27 10.9707C117.322 10.7632 117.532 10.6382 117.74 10.6907C118.285 10.8282 118.812 11.0757 119.267 11.4057C119.44 11.5307 119.477 11.7732 119.352 11.9457C119.277 12.0507 119.16 12.1032 119.04 12.1032L119.037 12.1057Z" fill="white"/>
<path d="M127.581 13.1204C127.446 13.1204 127.316 13.0504 127.243 12.9254C126.908 12.3379 126.733 11.6704 126.738 10.9954C126.738 10.7829 126.913 10.6104 127.126 10.6104C127.338 10.6104 127.511 10.7853 127.511 10.9978C127.508 11.5378 127.648 12.0704 127.916 12.5404C128.021 12.7254 127.956 12.9628 127.771 13.0678C127.711 13.1028 127.646 13.1179 127.581 13.1179V13.1204Z" fill="white"/>
<path d="M123.173 11.6979C123.101 11.6979 123.028 11.6779 122.963 11.6354C122.626 11.4154 122.328 11.1454 122.076 10.8304C121.943 10.6629 121.971 10.4204 122.138 10.2879C122.306 10.1554 122.548 10.1829 122.681 10.3504C122.878 10.6004 123.116 10.8154 123.383 10.9879C123.563 11.1054 123.613 11.3429 123.496 11.5229C123.421 11.6379 123.298 11.6979 123.171 11.6979H123.173Z" fill="white"/>
<path d="M136.66 8.54536C136.6 8.54536 136.54 8.53286 136.485 8.50286C136.295 8.40536 136.22 8.17286 136.315 7.98286C136.632 7.36036 137.037 6.79036 137.522 6.29036C137.67 6.13536 137.915 6.13286 138.07 6.28036C138.222 6.42786 138.227 6.67286 138.08 6.82786C137.65 7.27286 137.287 7.78036 137.007 8.33286C136.94 8.46786 136.802 8.54536 136.662 8.54536H136.66Z" fill="white"/>
<path d="M143.32 11.4432C143.195 11.4432 143.072 11.3832 142.997 11.2707C142.88 11.0932 142.93 10.8532 143.107 10.7357L144.367 9.90317C144.545 9.78567 144.785 9.83317 144.902 10.0132C145.02 10.1907 144.97 10.4307 144.792 10.5482L143.532 11.3807C143.467 11.4232 143.392 11.4457 143.32 11.4457V11.4432Z" fill="white"/>
<path d="M138.197 13.1882C138.092 13.1882 137.987 13.1457 137.912 13.0607C137.767 12.9032 137.779 12.6582 137.937 12.5157L139.047 11.5057C139.204 11.3607 139.449 11.3732 139.592 11.5307C139.737 11.6882 139.724 11.9332 139.567 12.0757L138.457 13.0857C138.382 13.1532 138.289 13.1857 138.197 13.1857V13.1882Z" fill="white"/>
<path d="M145.677 18.4659C145.527 18.4659 145.384 18.3784 145.322 18.2309C145.239 18.0334 145.329 17.8084 145.527 17.7234L147.442 16.9134C147.639 16.8309 147.864 16.9209 147.949 17.1184C148.032 17.3159 147.942 17.5409 147.744 17.6259L145.829 18.4359C145.779 18.4559 145.729 18.4659 145.679 18.4659H145.677Z" fill="white"/>
<path d="M92.0208 8.97074C91.9433 8.97074 91.8658 8.94824 91.7983 8.90074C91.4208 8.63324 90.9808 8.43574 90.5283 8.32824C90.3208 8.27824 90.1933 8.07074 90.2433 7.86324C90.2933 7.65574 90.5033 7.52824 90.7083 7.57824C91.2633 7.71074 91.7783 7.94324 92.2433 8.27324C92.4183 8.39574 92.4583 8.63823 92.3358 8.81073C92.2608 8.91823 92.1408 8.97324 92.0208 8.97324V8.97074Z" fill="white"/>
<path d="M88.1948 12.9031C88.1948 12.9031 88.1773 12.9031 88.1673 12.9031L86.3548 12.7806C86.1423 12.7656 85.9823 12.5806 85.9948 12.3681C86.0098 12.1556 86.1873 12.0006 86.4073 12.0081L88.2198 12.1306C88.4323 12.1456 88.5923 12.3306 88.5798 12.5431C88.5648 12.7481 88.3948 12.9031 88.1948 12.9031Z" fill="white"/>
<path d="M95.2637 12.576C95.1912 12.576 95.1187 12.556 95.0537 12.5135C94.6837 12.271 94.2762 12.096 93.8462 11.9885C93.6387 11.936 93.5137 11.7285 93.5637 11.521C93.6137 11.3135 93.8237 11.1885 94.0312 11.2385C94.5462 11.366 95.0312 11.576 95.4737 11.866C95.6537 11.9835 95.7038 12.221 95.5863 12.401C95.5113 12.5135 95.3887 12.576 95.2612 12.576H95.2637Z" fill="white"/>
<path d="M86.6817 17.543C86.4842 17.543 86.3167 17.393 86.2967 17.193C86.2767 16.9805 86.4317 16.7905 86.6442 16.7705L87.9517 16.643C88.1692 16.6255 88.3542 16.778 88.3742 16.9905C88.3942 17.203 88.2392 17.393 88.0267 17.413L86.7192 17.5405C86.7067 17.5405 86.6942 17.5405 86.6817 17.5405V17.543Z" fill="white"/>
<path d="M84.0663 22.0927C83.9063 22.0927 83.7564 21.9927 83.7014 21.8352C83.6314 21.6327 83.7363 21.4127 83.9388 21.3427L85.8638 20.6652C86.0638 20.5952 86.2864 20.7002 86.3564 20.9027C86.4264 21.1027 86.3213 21.3252 86.1188 21.3952L84.1938 22.0727C84.1513 22.0877 84.1088 22.0952 84.0663 22.0952V22.0927Z" fill="white"/>
<path d="M92.5298 15.7203H91.5223C91.3098 15.7203 91.1348 15.5478 91.1348 15.3328C91.1348 15.1178 91.3073 14.9453 91.5223 14.9453H92.5298C92.7423 14.9453 92.9172 15.1178 92.9172 15.3328C92.9172 15.5478 92.7448 15.7203 92.5298 15.7203Z" fill="white"/>
<path d="M112.586 13.1234C112.551 13.1234 112.514 13.1184 112.479 13.1084C111.899 12.9409 111.299 12.8684 110.694 12.8909C110.481 12.9034 110.301 12.7334 110.291 12.5209C110.284 12.3084 110.449 12.1284 110.661 12.1184C111.351 12.0909 112.031 12.1734 112.694 12.3634C112.899 12.4234 113.016 12.6359 112.959 12.8434C112.909 13.0134 112.756 13.1234 112.586 13.1234Z" fill="white"/>
<path d="M113.702 10.9859C113.635 10.9859 113.567 10.9684 113.505 10.9309C113.202 10.7509 112.875 10.6259 112.53 10.5634C112.32 10.5259 112.18 10.3234 112.22 10.1134C112.257 9.90341 112.46 9.76091 112.67 9.80341C113.107 9.88341 113.522 10.0384 113.905 10.2684C114.087 10.3784 114.147 10.6159 114.037 10.7984C113.965 10.9184 113.837 10.9859 113.705 10.9859H113.702Z" fill="white"/>
<path d="M90.4876 86.9886C90.3251 93.7636 89.5801 100.524 88.2651 107.171C87.6301 107.044 87.2876 106.966 87.2876 106.966C88.9001 103.816 88.5826 87.7285 88.5826 87.7285L83.6826 90.1486C83.3726 90.0336 83.0676 89.9086 82.7676 89.7811C84.5451 88.4661 86.4976 87.3335 88.4001 86.2135C89.0176 85.851 89.9426 85.5486 90.3401 86.1486C90.4976 86.3886 90.4976 86.6986 90.4901 86.9861L90.4876 86.9886Z" fill="#EFB68B"/>
<path d="M48.9692 118.886L16.1692 135.188C13.8842 136.326 11.0867 135.386 9.9492 133.101L5.9442 125.051L1.6967 116.501L1.18168 115.466L1.0117 115.126C-0.125799 112.841 0.819198 110.043 3.1017 108.906L27.6142 96.718L28.8667 96.0955L35.8967 92.6005C38.1817 91.463 40.9792 92.403 42.1167 94.688L47.2292 104.978L51.0517 112.666C52.1892 114.951 51.2492 117.748 48.9642 118.886H48.9692Z" fill="#FFB536"/>
<path d="M48.9684 118.886L16.1684 135.189C13.8834 136.326 11.0859 135.386 9.94836 133.101L5.94336 125.051L47.2309 104.979L51.0533 112.666C52.1908 114.951 51.2509 117.749 48.9659 118.886H48.9684Z" fill="#E89823"/>
<path d="M15.3189 137.685C16.5627 136.441 16.5627 134.424 15.3189 133.18C14.0751 131.937 12.0585 131.937 10.8146 133.18C9.57081 134.424 9.57081 136.441 10.8146 137.685C12.0585 138.929 14.0751 138.929 15.3189 137.685Z" fill="#201600"/>
<path d="M14.4513 136.817C15.2158 136.052 15.2158 134.813 14.4513 134.048C13.6869 133.284 12.4475 133.284 11.683 134.048C10.9186 134.813 10.9185 136.052 11.683 136.817C12.4474 137.581 13.6869 137.581 14.4513 136.817Z" fill="#48443E"/>
<path d="M31.2966 101.998C31.2766 102.203 31.1541 102.381 30.9716 102.466L1.69666 116.501L1.18164 115.466L1.18665 115.461L29.6967 101.793C28.8392 100.903 27.4891 99.1157 27.6166 96.7182L28.8691 96.0957C28.2441 99.3457 31.0341 101.456 31.0641 101.481C31.2291 101.601 31.3141 101.798 31.2966 101.998Z" fill="#E89823"/>
<path d="M56.8373 94.2632C55.1648 94.5707 53.6573 95.6782 52.8673 97.1857C52.5573 97.7757 52.3524 98.4382 52.4074 99.1032C52.4649 99.7657 52.8149 100.426 53.4024 100.741C53.9899 101.056 54.8073 100.943 55.2073 100.411C55.3423 100.231 55.4249 100.016 55.5324 99.8182C55.9624 99.0232 56.8249 98.4832 57.7274 98.4457C57.8124 98.4432 57.9024 98.4457 57.9674 98.4982C58.0149 98.5382 58.0399 98.6007 58.0599 98.6607C58.2174 99.1607 58.0748 99.7432 57.7048 100.116C57.5998 100.218 57.4774 100.311 57.4099 100.441C57.2849 100.683 57.3998 100.998 57.6098 101.173C57.8198 101.348 58.1024 101.411 58.3749 101.436C59.6449 101.558 60.9623 100.986 61.7373 99.9707C62.5123 98.9557 62.7223 97.5357 62.2698 96.3407C61.9123 95.3907 61.1499 94.6182 60.2249 94.2082C59.2574 93.7807 57.8498 94.0757 56.8348 94.2632H56.8373Z" fill="#C0C0C1"/>
<path d="M56.2954 99.5383L55.5938 98.1143L36.5095 107.517L37.2111 108.941L56.2954 99.5383Z" fill="#C3D5FC"/>
<path d="M56.7191 101.105C57.8885 101.105 58.8365 100.157 58.8365 98.9876C58.8365 97.8182 57.8885 96.8701 56.7191 96.8701C55.5496 96.8701 54.6016 97.8182 54.6016 98.9876C54.6016 100.157 55.5496 101.105 56.7191 101.105Z" fill="#201600"/>
</svg>
