<svg width="108" height="182" viewBox="0 0 108 182" fill="none" xmlns="http://www.w3.org/2000/svg">
<path d="M86.2519 180.148H75.1601C75.1601 180.148 67.7788 156.347 57.7007 157.589C47.6199 158.832 40.7802 180.148 40.7802 180.148H30.2112C28.5333 169.404 29.5416 158.822 30.5847 152.348C30.6247 152.09 30.6674 151.842 30.7074 151.599C31.2729 148.284 31.8171 146.21 31.9318 145.999L83.9818 144.293C84.6113 146.778 85.1342 149.14 85.561 151.375C85.6357 151.774 85.713 152.167 85.7797 152.556C89.0369 170.536 86.2519 180.148 86.2519 180.148Z" fill="#FF5A63"/>
<path d="M36.1884 180.148C36.1884 180.148 31.8536 177.458 28.8018 180.148C28.8018 180.148 26.9665 181.581 27.8201 181.909C28.359 182.114 40.6006 181.909 40.6006 181.909L40.0671 180.148H36.191H36.1884Z" fill="#FFC629"/>
<path d="M79.6681 180.148C79.6681 180.148 84.0029 177.458 87.0546 180.148C87.0546 180.148 88.8899 181.581 88.0363 181.909C87.4974 182.114 75.2559 181.909 75.2559 181.909L75.7894 180.148H79.6654H79.6681Z" fill="#FFC629"/>
<path d="M85.781 152.556C59.3399 156.402 38.1486 153.642 30.5859 152.351C30.626 152.093 30.6686 151.845 30.7086 151.602C31.2742 148.287 31.8184 146.213 31.9331 146.002L83.9831 144.296C84.6126 146.781 85.1354 149.142 85.5623 151.378C85.637 151.777 85.7143 152.17 85.781 152.559V152.556Z" fill="#B73B47"/>
<path d="M102.281 113.426C101.323 114.186 100.115 114.364 98.9625 114.554C94.8224 115.251 90.6423 116.484 87.2091 119.229C86.0967 120.118 85.0377 121.219 84.4908 122.636C84.4401 122.759 84.3975 122.885 84.3575 123.013C83.9653 124.28 84.0107 125.663 84.1067 127.004C84.5629 133.702 85.9527 140.306 88.2068 146.505C88.2495 146.633 88.2975 146.756 88.3428 146.885C67.581 151.845 45.8508 151.351 25.2784 145.456C25.5451 144.327 25.8146 143.186 26.0626 142.042C27.1537 137.076 27.93 131.991 27.0283 127.034C26.9029 126.347 26.7375 125.663 26.5268 124.995C24.8889 119.704 20.7808 115.192 15.9712 115.474C12.4793 115.68 7.38152 119.259 4.48986 115.37C1.80093 111.76 4.64458 106.153 6.55991 103.053C8.75533 99.5008 11.1668 96.0564 14.2025 93.4525C17.9745 90.2197 22.5227 88.4408 27.0043 86.7968C38.2829 82.6531 49.8575 79.0124 61.6936 78.721C75.5064 78.3806 90.1381 83.3064 99.0185 95.4737C101.318 98.6267 103.217 102.283 103.922 106.319C104.364 108.868 104.14 111.953 102.281 113.432V113.426Z" fill="#5B7BBB"/>
<path d="M46.0176 103.712C45.0786 103.366 44.4837 102.326 43.6675 101.688C40.4824 99.1973 35.0832 103.341 32.6743 99.8844C32.2262 99.2433 31.9941 98.4336 31.5806 97.765C29.1905 93.8881 22.7829 96.7037 20.4007 92.8177C19.4457 91.2565 19.5258 89.0819 18.5548 87.5361C17.6718 86.1252 16.1273 85.5455 14.7801 84.7573C13.433 83.969 12.0725 82.5857 12.1953 80.8559C12.2726 79.764 12.9342 78.8469 13.1929 77.7949C13.8065 75.3074 12.1125 72.8967 10.432 71.1791C8.75405 69.4615 6.80406 67.566 6.70802 64.9835C6.57731 61.4225 10.0825 58.7572 10.0692 55.1932C10.0505 50.6906 4.49392 47.6112 5.43558 43.2406C6.06246 40.336 9.19954 39.2104 10.584 36.6769C11.8858 34.2938 11.387 31.2266 11.0455 28.4386C10.7041 25.6506 10.7414 22.3534 12.6594 20.6021C14.9029 18.5532 18.272 19.8844 20.9823 18.8293C26.1521 16.8142 27.3338 7.03615 32.7837 6.62209C35.606 6.40739 38.1082 9.06659 40.9358 8.99298C44.8225 8.89177 47.1166 3.99662 50.4858 1.76068C53.06 0.0522878 56.4159 0.0154861 59.0168 1.66867C60.5346 2.63482 61.8177 4.13158 63.4743 4.72047C67.4997 6.14975 71.1943 1.80362 75.2384 0.441817C78.1594 -0.542732 81.4672 0.144304 83.9027 2.24222C86.3382 4.34014 87.8427 7.7968 87.8427 11.2964C87.8427 12.1399 87.76 12.9925 87.9121 13.8176C88.3202 16.0413 90.2782 17.4307 92.1802 18.0533C94.0822 18.6759 96.1229 18.8201 97.8862 19.8445C100.797 21.5345 102.421 25.7119 101.578 29.3342C100.834 32.5302 98.4197 35.3151 98.8118 38.5939C99.4067 43.5902 106.073 45.8047 105.844 50.8409C105.689 54.2393 102.234 57.2696 103.483 60.3552C103.856 61.2784 104.593 61.9286 105.193 62.677C108.13 66.3514 107.188 73.0991 103.4 75.5344C102.058 76.3963 100.41 76.8287 99.5001 78.255C98.0943 80.4602 99.2307 83.7942 98.0623 86.1774C96.0856 90.2168 90.2862 87.7354 86.9651 90.3609C85.3138 91.6675 84.5856 94.0077 83.3798 95.848C81.2538 99.0961 77.4071 100.719 73.9579 99.82C69.7565 98.7281 69.5457 100.301 66.3153 102.795C64.1946 104.433 61.4576 105.93 58.862 105.381C56.2691 104.832 54.4392 101.369 52.1184 101.252C49.9203 101.142 48.3944 104.592 46.0203 103.718L46.0176 103.712Z" fill="#CE902C"/>
<path d="M39.9605 35.3091C39.6911 35.3091 34.1105 27.2364 28.4392 29.9293C22.7679 32.6223 29.9704 39.7595 34.1985 42.2438C38.4293 44.7282 39.9579 35.3121 39.9579 35.3121L39.9605 35.3091Z" fill="#FFC629"/>
<path d="M40.4121 38.4128C38.6115 36.6523 32.3133 30.0304 30.422 32.3062C28.5307 34.582 36.0026 41.3082 36.0026 41.3082L40.4121 38.4098V38.4128Z" fill="#DBAE40"/>
<path d="M72.6406 35.3091C72.9101 35.3091 78.4906 27.2364 84.1619 29.9293C89.8332 32.6192 82.6308 39.7595 78.4026 42.2438C74.1718 44.7282 72.6433 35.3121 72.6433 35.3121L72.6406 35.3091Z" fill="#FFC629"/>
<path d="M72.1895 38.4128C73.9901 36.6523 80.2883 30.0304 82.1796 32.3062C84.0682 34.582 76.599 41.3082 76.599 41.3082L72.1895 38.4098V38.4128Z" fill="#DBAE40"/>
<path d="M88.2032 146.505C84.5593 146.293 80.9554 143.625 79.7337 139.616C73.985 143.272 67.1133 143.481 60.543 143.603C57.1045 143.665 53.6713 143.726 50.2328 143.79C47.6959 143.836 45.0924 143.87 42.7022 142.889C40.1493 141.837 38.0446 139.711 35.5931 138.38C34.6834 137.886 33.6697 137.5 32.6801 137.693C31.9145 137.843 31.2316 138.325 30.5753 138.797C29.1268 139.837 27.6117 141.281 26.0645 142.039C27.1555 137.076 27.9318 131.994 27.0301 127.035C26.9047 126.348 26.7394 125.664 26.5286 124.995C33.8405 120.882 42.4514 120.756 50.6676 120.744C57.9395 120.735 65.214 120.729 72.4885 120.719C76.5566 120.716 80.822 120.768 84.4953 122.639C84.4446 122.762 84.4019 122.888 84.3619 123.017C83.9698 124.283 84.0151 125.667 84.1112 127.007C84.5673 133.706 85.9571 140.309 88.2113 146.508L88.2032 146.505Z" fill="#3E6096"/>
<path d="M85.145 63.8209C86.0866 80.8558 70.0678 93.4463 55.2226 93.4463C40.3775 93.4463 25.2656 79.6105 25.2656 62.5389C25.2656 45.4672 39.0357 29.2881 53.8835 29.2881C68.7313 29.2881 83.5871 35.634 85.1476 63.8209H85.145Z" fill="#FFC629"/>
<path d="M32.0517 76.5096C30.5926 74.0007 29.4802 71.228 28.7679 68.3235C27.5435 63.3302 27.5862 57.702 29.883 53.2332C32.1771 48.7644 37.0668 45.8966 41.375 47.4394C44.9415 48.7184 46.9609 53.0062 47.281 57.2879C48.6041 75.0773 66.0048 72.0439 64.9804 51.3714C64.8204 48.1295 68.1069 45.7218 70.8865 45.1574C73.6661 44.5931 76.6378 45.8966 78.5131 48.3227C80.1964 50.5004 80.9913 53.3835 81.6929 56.1838C82.6372 59.941 83.5042 63.8884 82.8506 67.7254C82.149 71.8568 79.7669 75.3411 77.206 78.3499C73.5781 82.6163 69.3926 86.3275 64.663 88.7782C59.9307 91.2288 54.6275 92.3821 49.4871 91.5417C46.0219 90.9742 43.0555 88.0543 40.2199 85.7816C37.0668 83.2543 34.1991 80.1963 32.0517 76.5096Z" fill="#FFDE8A"/>
<path d="M32.8812 70.2741C35.0203 70.2741 36.7545 68.2802 36.7545 65.8207C36.7545 63.3611 35.0203 61.3672 32.8812 61.3672C30.742 61.3672 29.0078 63.3611 29.0078 65.8207C29.0078 68.2802 30.742 70.2741 32.8812 70.2741Z" fill="#FAA7A7"/>
<path d="M78.9225 67.7806C79.8643 65.5722 79.0707 62.9041 77.15 61.8212C75.2293 60.7384 72.9087 61.6508 71.967 63.8592C71.0252 66.0676 71.8188 68.7357 73.7395 69.8186C75.6602 70.9014 77.9807 69.9889 78.9225 67.7806Z" fill="#FAA7A7"/>
<path d="M0 85.0117L12.9592 98.2587L31.6803 86.668L42.2413 98.2587L72.9612 97.1545L81.7616 86.1159L91.4396 94.3941L108 82.2544L92.1599 136.892L85.7816 145.447L81.7616 131.924L75.258 140.478L44.3993 139.374L34.0971 129.163L27.5935 139.098L17.2806 133.028L0 85.0117Z" fill="#BAAF98"/>
<path d="M81.7613 86.1162V131.924L75.2577 140.478L72.9609 97.1548L81.7613 86.1162Z" fill="#8E8179"/>
<path d="M91.4392 94.3941L108 82.2544L92.1595 136.892L85.7812 145.447L91.4392 94.3941Z" fill="#8E8179"/>
<path d="M42.2407 98.2587L44.3987 139.374L34.0965 129.163L31.6797 86.668L42.2407 98.2587Z" fill="#8E8179"/>
<path d="M12.9591 98.2587L0 85.0117L17.2806 133.028L27.5935 139.098L12.9591 98.2587Z" fill="#8E8179"/>
<path d="M6.00171 119.6C6.00171 119.6 1.33877 112.876 5.74029 108.116C5.74029 108.116 12.3666 103.73 14.9408 108.04C14.9408 108.04 15.3596 110.049 13.7164 110.822C13.7164 110.822 15.8611 110.714 16.2319 112.68C16.6027 114.646 14.586 115.278 14.586 115.278C14.586 115.278 16.6107 115.484 16.4587 117.18C16.3066 118.876 10.4459 124.483 6.00171 119.6Z" fill="#FFC629"/>
<path d="M105.361 109.104C105.361 109.104 106.73 117.557 100.901 119.382C100.901 119.382 93.2583 119.674 92.7461 114.478C92.7461 114.478 93.1969 112.478 94.9655 112.684C94.9655 112.684 93.0289 111.619 93.5064 109.684C93.9838 107.749 96.0192 108.282 96.0192 108.282C96.0192 108.282 94.3173 107.009 95.1416 105.592C95.9685 104.178 103.432 102.393 105.361 109.104Z" fill="#FFC629"/>
<path d="M35.3981 57.4198C36.5252 57.4198 37.4388 56.3693 37.4388 55.0734C37.4388 53.7775 36.5252 52.7271 35.3981 52.7271C34.2711 52.7271 33.3574 53.7775 33.3574 55.0734C33.3574 56.3693 34.2711 57.4198 35.3981 57.4198Z" fill="#201600"/>
<path d="M71.8806 57.4198C73.0076 57.4198 73.9212 56.3693 73.9212 55.0734C73.9212 53.7775 73.0076 52.7271 71.8806 52.7271C70.7535 52.7271 69.8398 53.7775 69.8398 55.0734C69.8398 56.3693 70.7535 57.4198 71.8806 57.4198Z" fill="#201600"/>
<path d="M52.9912 63.2688C54.4691 62.5296 56.6805 61.9928 58.6358 63.8086C59.3668 64.4864 59.5828 65.6826 59.132 66.6273C58.5638 67.8204 57.4648 69.2251 55.4881 69.0411C53.7755 68.8847 52.7218 67.6854 52.1003 66.5444C51.4654 65.3759 51.8949 63.8178 52.9912 63.2688Z" fill="#201600"/>
<path d="M55.5847 80.5276C55.3847 80.5276 55.2246 80.3436 55.2246 80.1136V67.4893C55.2246 67.2592 55.3847 67.0752 55.5847 67.0752C55.7848 67.0752 55.9449 67.2592 55.9449 67.4893V80.1136C55.9449 80.3436 55.7848 80.5276 55.5847 80.5276Z" fill="#201600"/>
<path d="M56.11 80.6383C52.0819 80.6383 48.7768 77.4761 48.7287 77.427C48.5767 77.2798 48.558 77.0191 48.6887 76.8443C48.8168 76.6695 49.0435 76.648 49.1956 76.7952C49.4783 77.0713 56.214 83.4969 61.936 76.8198C62.0747 76.6572 62.3041 76.6541 62.4455 76.8167C62.5869 76.9762 62.5895 77.2399 62.4482 77.4025C60.3701 79.8286 58.148 80.6383 56.11 80.6383Z" fill="#201600"/>
<path d="M69.4772 25.6074C69.3918 25.6074 69.3064 25.5737 69.2397 25.5031C68.6662 24.9235 68.3354 24.0401 68.3301 23.0801C68.3274 22.1201 68.6502 21.2368 69.2184 20.6479C69.6879 20.1633 70.2588 19.8964 70.8109 19.6357C71.011 19.5406 71.2138 19.4486 71.4085 19.3443C71.7739 19.1481 72.6356 18.596 72.7023 17.7341C72.7396 17.2587 72.5315 16.771 72.3101 16.2527C72.0434 15.63 71.7419 14.9246 71.886 14.1517C72.1367 12.7899 73.4732 12.3237 74.4549 12.0906C74.6496 12.0446 74.839 12.1887 74.879 12.4126C74.919 12.6365 74.7937 12.8543 74.5989 12.9003C73.3532 13.1947 72.7156 13.6456 72.5902 14.3235C72.4995 14.8173 72.7209 15.3387 72.9584 15.8877C73.2118 16.4827 73.4759 17.0992 73.4225 17.8077C73.3265 19.0499 72.3128 19.7738 71.7179 20.0958C71.5125 20.2062 71.2991 20.3074 71.0884 20.4056C70.5709 20.6479 70.0827 20.8749 69.7066 21.2644C69.2904 21.6938 69.0557 22.3532 69.0583 23.077C69.061 23.8009 69.3038 24.4573 69.7226 24.8805C69.872 25.0308 69.8853 25.2915 69.7546 25.4633C69.6826 25.5553 69.5838 25.6044 69.4851 25.6044L69.4772 25.6074Z" fill="#EFBC73"/>
<path d="M87.2454 49.3717C87.048 49.3687 86.888 49.1816 86.8907 48.9515C86.904 47.9179 87.5175 46.915 88.4219 46.4518C89.1688 46.0684 90.0918 46.0378 91.0201 46.3629C91.1134 46.3966 91.2068 46.4303 91.3002 46.4672C91.6016 46.5837 91.8844 46.6911 92.1565 46.6788C92.5886 46.6512 93.0314 46.2647 93.2902 45.6942C93.549 45.1176 93.6263 44.4306 93.701 43.765C93.7277 43.538 93.9064 43.3755 94.1038 43.4092C94.3012 43.4399 94.4399 43.6454 94.4132 43.8724C94.3332 44.5747 94.2425 45.3691 93.9278 46.0746C93.5516 46.915 92.8847 47.464 92.1938 47.5069C91.791 47.5314 91.4229 47.3904 91.0681 47.2554C90.98 47.2217 90.8947 47.1879 90.8067 47.1573C90.0437 46.8904 89.2968 46.9088 88.7099 47.2094C88.067 47.5376 87.6136 48.2614 87.6056 48.9638C87.6029 49.1908 87.4428 49.3717 87.2454 49.3717Z" fill="#EFBC73"/>
<path d="M89.487 34.2538C89.3482 34.2538 89.2042 34.2231 89.0655 34.1556C88.8814 34.0667 88.796 33.8274 88.8707 33.6158C88.9481 33.4042 89.1588 33.306 89.3402 33.3919C89.6257 33.5299 90.0151 33.2048 90.1672 32.8245C90.3032 32.4871 90.3433 32.0945 90.3886 31.6774C90.4073 31.4903 90.4286 31.3032 90.4553 31.1161C90.5913 30.2082 90.9621 29.5641 91.4983 29.3065C91.9572 29.0857 92.4266 29.1899 92.8374 29.2789C93.0828 29.3341 93.3176 29.3862 93.5284 29.3709C94.0592 29.3341 94.5421 28.8127 94.6007 28.2054C94.6221 27.9784 94.7981 27.8128 94.9982 27.8404C95.1956 27.8649 95.337 28.0704 95.3156 28.3005C95.2143 29.3065 94.4487 30.1407 93.5683 30.199C93.2642 30.2174 92.9788 30.1561 92.7014 30.0947C92.3413 30.015 92.0318 29.9475 91.7757 30.0702C91.3543 30.2726 91.2076 30.9689 91.1649 31.2603C91.1382 31.432 91.1222 31.6038 91.1035 31.7786C91.0555 32.2417 91.0048 32.7202 90.8207 33.1772C90.5833 33.7661 90.0498 34.2599 89.4843 34.2599L89.487 34.2538Z" fill="#EFBC73"/>
<path d="M101.808 67.9493C101.618 67.9493 101.458 67.7775 101.448 67.5567C101.437 67.2991 101.304 67.0384 101.096 66.8574C100.885 66.6764 100.631 66.6028 100.413 66.6642C100.234 66.7133 100.053 66.8329 99.8632 66.9617C99.6338 67.115 99.375 67.2899 99.0709 67.3604C98.3133 67.5383 97.5024 67.0322 96.8462 65.9771C96.7661 65.8483 96.6861 65.7134 96.6061 65.5784C96.2673 65.0049 95.9498 64.462 95.4777 64.2166C94.9708 63.9498 94.3119 64.1154 93.9465 64.6C93.8158 64.7718 93.589 64.7902 93.4396 64.6429C93.2903 64.4926 93.2742 64.2319 93.405 64.0602C93.9812 63.2965 94.9788 63.048 95.7791 63.4682C96.4353 63.8117 96.8275 64.4773 97.2036 65.1183C97.2783 65.2472 97.3557 65.376 97.433 65.4987C97.6625 65.8667 98.2627 66.7041 98.9269 66.5507C99.1136 66.5078 99.3004 66.382 99.5004 66.247C99.7272 66.0937 99.9619 65.9373 100.245 65.8606C100.677 65.744 101.141 65.8667 101.525 66.1949C101.909 66.5262 102.141 67.0046 102.165 67.5138C102.176 67.7407 102.024 67.937 101.824 67.9493C101.819 67.9493 101.811 67.9493 101.805 67.9493H101.808Z" fill="#EFBC73"/>
<path d="M90.5148 84.1808C90.4241 84.1808 90.3334 84.1409 90.2614 84.0612C90.12 83.9017 90.1174 83.6379 90.2561 83.4754C90.3148 83.4079 90.3388 83.3097 90.3281 83.1871C90.3121 82.9816 90.2001 82.7668 90.0533 82.6534C89.7439 82.4111 89.3171 82.3896 88.8316 82.3835C88.3381 82.3804 87.7219 82.3743 87.2123 81.997C86.5828 81.5308 86.348 80.6843 86.212 79.9972L86.1613 79.7365C86.0546 79.1752 85.9533 78.6446 85.6865 78.249C85.5318 78.0251 85.2677 77.8594 85.0276 77.838C84.8755 77.8257 84.7502 77.8686 84.6595 77.9668C84.5154 78.1232 84.286 78.114 84.15 77.9484C84.0139 77.7828 84.0219 77.519 84.166 77.3626C84.4034 77.1049 84.7315 76.9822 85.0809 77.0129C85.5238 77.0528 85.9719 77.3288 86.252 77.7398C86.6228 78.2827 86.7455 78.9329 86.8656 79.5617L86.9136 79.8163C87.0203 80.3499 87.1937 81.0002 87.6018 81.3038C87.9353 81.5523 88.4128 81.5553 88.8369 81.5584C89.3037 81.5615 89.944 81.5676 90.4588 81.9725C90.7816 82.227 91.0057 82.6626 91.043 83.1104C91.075 83.4784 90.9763 83.8158 90.7682 84.0612C90.6989 84.144 90.6055 84.1839 90.5122 84.1839L90.5148 84.1808Z" fill="#EFBC73"/>
<path d="M40.467 28.4141C40.435 28.4141 40.403 28.4079 40.371 28.3987C40.1789 28.3374 40.0669 28.1104 40.1202 27.8896C40.2883 27.1903 40.4644 26.4664 40.4163 25.761C40.3683 25.0555 40.0616 24.4483 39.6321 24.2121C39.2399 23.9943 38.7358 24.0373 38.2023 24.0833C37.4767 24.1446 36.655 24.2121 36.0815 23.5189C35.476 22.7828 35.6227 21.7921 35.7507 20.918C35.8174 20.4733 35.8841 20.0162 35.8548 19.6175C35.7828 18.679 35.0305 17.8662 34.2115 17.8447C34.0115 17.8386 33.8567 17.6484 33.8594 17.4215C33.8647 17.1976 34.0248 17.0166 34.2195 17.0166C34.2222 17.0166 34.2249 17.0166 34.2275 17.0166C35.4173 17.0473 36.4683 18.1821 36.5724 19.547C36.6097 20.0531 36.535 20.5653 36.4603 21.0591C36.3456 21.8412 36.2442 22.516 36.6044 22.9515C36.9432 23.3625 37.5033 23.3165 38.1516 23.2613C38.7544 23.2122 39.3786 23.1601 39.9442 23.4698C40.6111 23.8379 41.0672 24.6936 41.1366 25.6996C41.1953 26.5492 40.9925 27.3804 40.8165 28.1135C40.7711 28.2975 40.6271 28.4171 40.4697 28.4171L40.467 28.4141Z" fill="#EFBC73"/>
<path d="M51.1865 15.6243C51.0717 15.6243 50.957 15.5599 50.8877 15.4402C50.7756 15.2501 50.821 14.9924 50.9864 14.8667C51.3438 14.5906 51.5679 14.0784 51.5812 13.5018C51.5973 12.9252 51.3999 12.3976 51.0557 12.0971C50.933 11.9897 50.789 11.8977 50.6369 11.7996C50.3168 11.5941 49.954 11.3579 49.7326 10.9285C49.3005 10.0942 49.6659 9.20169 49.9887 8.41344C50.2581 7.75708 50.5142 7.13445 50.2848 6.67131C50.1861 6.47195 50.2475 6.22045 50.4209 6.10696C50.5942 5.99348 50.813 6.06403 50.9117 6.26339C51.3225 7.10072 50.9597 7.98405 50.6396 8.76617C50.3115 9.56362 50.1301 10.0758 50.3515 10.5022C50.4742 10.7414 50.7143 10.8948 50.9917 11.0726C51.1598 11.18 51.3332 11.2935 51.4932 11.4346C52.0214 11.8977 52.3228 12.6768 52.3015 13.5202C52.2802 14.3637 51.9387 15.1213 51.3892 15.5476C51.3278 15.5967 51.2585 15.6181 51.1891 15.6181L51.1865 15.6243Z" fill="#EFBC73"/>
<path d="M58.615 27.184C58.567 27.184 58.5163 27.1717 58.4683 27.1472C57.708 26.7607 57.1452 25.9081 56.9611 24.8652C56.7771 23.8255 57.0038 22.7857 57.5693 22.0864C57.7294 21.8901 57.9081 21.7153 58.0815 21.5497C58.4096 21.2338 58.7164 20.9393 58.8044 20.5529C58.9111 20.0775 58.6764 19.5162 58.0868 18.8322C57.9481 18.6696 57.9481 18.4089 58.0895 18.2464C58.2309 18.0838 58.4603 18.0869 58.599 18.2494C59.3806 19.1573 59.6767 19.9793 59.5007 20.7584C59.3566 21.3994 58.9245 21.8165 58.543 22.1815C58.3803 22.3379 58.2256 22.4882 58.0949 22.6477C57.6867 23.1507 57.5266 23.9175 57.6654 24.6966C57.8041 25.4756 58.2122 26.1074 58.7591 26.3865C58.9405 26.4786 59.0232 26.7239 58.9431 26.9325C58.8845 27.0858 58.7511 27.1779 58.615 27.1779V27.184Z" fill="#EFBC73"/>
<path d="M22.8887 36.9099C22.4299 36.9099 21.9524 36.7412 21.5362 36.41C20.8533 35.8732 20.4612 35.0144 20.5092 34.171C20.5199 34.0023 20.5412 33.8244 20.5652 33.6465C20.6346 33.1005 20.6666 32.7325 20.4825 32.573C20.3385 32.4503 20.0691 32.484 19.8076 32.5301C18.7433 32.7171 17.7029 32.8644 16.6839 32.6067C15.4675 32.3031 14.5018 31.4075 14.1657 30.2726C14.1017 30.0549 14.203 29.8218 14.3898 29.7482C14.5792 29.6746 14.7819 29.7911 14.8459 30.0058C15.15 31.0364 16.073 31.6069 16.8359 31.797C17.7349 32.0209 18.7033 31.8829 19.6983 31.7111C20.005 31.659 20.5172 31.567 20.912 31.9074C21.4562 32.3736 21.3575 33.1435 21.2775 33.763C21.2561 33.9195 21.2375 34.0759 21.2295 34.2231C21.1975 34.7752 21.4695 35.3518 21.9444 35.7229C22.4165 36.0971 22.9821 36.183 23.4195 35.9468C23.5983 35.8487 23.8144 35.9407 23.8971 36.1462C23.9798 36.3548 23.9024 36.6001 23.7237 36.6952C23.4649 36.8332 23.1821 36.9007 22.8914 36.9007L22.8887 36.9099Z" fill="#EFBC73"/>
<path d="M12.2474 65.1582C12.2474 65.1582 12.234 65.1582 12.226 65.1582C12.0286 65.146 11.8766 64.9497 11.8872 64.7196C11.9566 63.3578 12.8423 62.1402 13.9973 61.8212C14.6696 61.6341 15.3364 61.7507 15.982 61.8611C16.1421 61.8887 16.3021 61.9163 16.4595 61.9377C17.3558 62.0666 18.004 61.9163 18.3908 61.493C18.6896 61.1679 18.8363 60.6802 18.991 60.1619C19.1057 59.7785 19.2258 59.3828 19.4152 59.0148C20.0367 57.8217 21.3759 57.2205 22.5363 57.6223C22.7257 57.6867 22.835 57.9198 22.7763 58.1376C22.7203 58.3553 22.5203 58.4811 22.3282 58.4136C21.4906 58.1253 20.4822 58.5731 20.0314 59.438C19.8793 59.7294 19.778 60.0699 19.6686 60.4287C19.4925 61.0145 19.3111 61.6218 18.8843 62.088C18.3348 62.6892 17.4892 62.9131 16.3688 62.7536C16.2034 62.7291 16.038 62.7015 15.8726 62.6739C15.2697 62.5696 14.6989 62.4714 14.1627 62.6187C13.3251 62.8518 12.6555 63.7719 12.6048 64.7595C12.5942 64.9803 12.4341 65.149 12.2447 65.149L12.2474 65.1582Z" fill="#EFBC73"/>
<path d="M22.1374 50.2215C22.0894 50.2215 22.044 50.2215 21.996 50.2123C21.2838 50.1265 20.897 49.464 20.5555 48.8812C20.3608 48.5469 20.1741 48.231 19.9473 48.0255C19.3604 47.4979 18.4455 47.685 17.5438 47.9703C17.3544 48.0285 17.1543 47.8997 17.101 47.6789C17.0476 47.4581 17.1623 47.2311 17.3544 47.1698C18.4374 46.8293 19.5552 46.6177 20.3928 47.3722C20.7102 47.6605 20.937 48.0439 21.1557 48.4181C21.4465 48.915 21.6972 49.3413 22.0734 49.3873C22.4575 49.4333 22.839 49.0438 23.2098 48.6665L23.2871 48.5868C23.9967 47.8691 24.717 47.6666 25.2665 48.0347C25.4372 48.1482 25.4959 48.4027 25.3972 48.6021C25.2958 48.8015 25.0771 48.8659 24.9037 48.7524C24.5222 48.4978 23.9354 49.0376 23.762 49.2125L23.6873 49.2891C23.2764 49.7063 22.7723 50.2215 22.1401 50.2215H22.1374Z" fill="#EFBC73"/>
<path d="M22.0875 80.2637C21.6474 80.2637 21.1352 80.1257 20.5723 79.8527C19.788 79.4693 18.9958 79.178 18.5156 79.6227C18.4543 79.681 18.4089 79.7392 18.3849 79.7975C18.2995 80.003 18.0861 80.092 17.9047 79.9938C17.726 79.8957 17.6486 79.6503 17.734 79.4417C17.8034 79.27 17.9154 79.1135 18.0621 78.9755C18.9451 78.1566 20.1855 78.7639 20.8524 79.089C21.3966 79.3558 22.3783 79.7116 22.8158 79.1105C23.0318 78.813 23.0478 78.3805 23.0692 77.8775C23.0852 77.4696 23.1012 77.0463 23.2292 76.6384C23.4133 76.0618 23.8348 75.6017 24.3843 75.3809C24.9365 75.16 25.5127 75.2152 25.9689 75.5342C26.1396 75.6538 26.1929 75.9084 26.0889 76.1016C25.9849 76.2979 25.7635 76.3593 25.5954 76.2396C25.3286 76.0526 24.9632 76.0219 24.6217 76.1599C24.2803 76.2979 24.0108 76.5832 23.9041 76.9205C23.8134 77.2089 23.8001 77.5493 23.7868 77.9112C23.7654 78.4817 23.7388 79.1289 23.3653 79.6411C23.0639 80.0521 22.6264 80.2607 22.0848 80.2607L22.0875 80.2637Z" fill="#EFBC73"/>
<path d="M82.9802 21.476C82.8655 21.476 82.7534 21.4147 82.6841 21.2981C82.3907 20.8135 82.2813 20.1755 82.3827 19.5499C82.484 18.9242 82.7828 18.3751 83.2069 18.0408C83.6337 17.7034 84.1166 17.59 84.5834 17.4795C84.8742 17.4121 85.1463 17.3446 85.397 17.2311C85.7251 17.0808 86.0266 16.6821 86.0853 16.3232C86.1226 16.0993 86.0479 15.9859 85.9892 15.9245C85.8452 15.7681 85.8372 15.5043 85.9732 15.3387C86.1093 15.1731 86.3387 15.1639 86.4827 15.3203C86.7548 15.6178 86.8642 16.0257 86.7895 16.4766C86.6828 17.1176 86.2186 17.7433 85.6611 17.9979C85.3543 18.139 85.0342 18.2157 84.7275 18.2893C84.3113 18.3874 83.9192 18.4794 83.6124 18.7217C83.3456 18.9334 83.1536 19.2892 83.0896 19.7001C83.0229 20.1111 83.0896 20.5221 83.2763 20.8289C83.3883 21.0159 83.3483 21.2736 83.1856 21.4055C83.1242 21.4545 83.0522 21.4791 82.9802 21.4791V21.476Z" fill="#EFBC73"/>
<path d="M90.4023 58.5243C89.9275 58.5243 89.4607 58.3372 89.0045 58.1532C88.4656 57.9354 87.9561 57.7299 87.5 57.8679C87.2972 57.9293 87.1078 58.0642 86.9691 58.2452C86.8384 58.4169 86.609 58.4323 86.4596 58.282C86.3102 58.1317 86.2969 57.8679 86.4276 57.6992C86.6597 57.3956 86.9771 57.1717 87.3159 57.0674C87.9882 56.865 88.6257 57.1226 89.2419 57.371C89.8101 57.6011 90.349 57.8188 90.8105 57.6103C91.2079 57.4324 91.48 56.9692 91.7655 56.4785C91.8428 56.3466 91.9175 56.2178 91.9976 56.092C92.459 55.359 93.2886 54.6474 94.1129 55.0523C94.297 55.1412 94.3797 55.3866 94.3023 55.5952C94.225 55.8068 94.0116 55.9019 93.8302 55.8129C93.4274 55.6136 92.8992 56.0675 92.5817 56.5736C92.507 56.6901 92.435 56.8128 92.363 56.9355C92.0429 57.4845 91.6801 58.1041 91.0719 58.3771C90.8451 58.4783 90.6211 58.5212 90.397 58.5212L90.4023 58.5243Z" fill="#EFBC73"/>
<path d="M52.1648 60.3C52.0901 60.3 52.0208 60.2479 51.9941 60.162L50.759 56.1716C50.7243 56.0643 50.775 55.9447 50.8684 55.9079C50.9617 55.8711 51.0658 55.9263 51.0978 56.0336L52.3329 60.024C52.3675 60.1313 52.3169 60.2509 52.2235 60.2877C52.2022 60.2969 52.1835 60.3 52.1621 60.3H52.1648Z" fill="#FFF8A1"/>
<path d="M54.9494 55.9843C54.8561 55.9843 54.7787 55.9015 54.7707 55.7941C54.6854 54.6378 54.6667 53.4631 54.7174 52.3099C54.7227 52.1964 54.7974 52.1074 54.9068 52.1136C55.0055 52.1197 55.0828 52.2148 55.0775 52.3313C55.0295 53.4692 55.0481 54.6225 55.1308 55.7604C55.1388 55.8739 55.0668 55.9751 54.9654 55.9843C54.9601 55.9843 54.9548 55.9843 54.9494 55.9843Z" fill="#FFF8A1"/>
<path d="M58.5646 58.7907C58.5486 58.7907 58.5353 58.7907 58.5193 58.7846C58.4232 58.757 58.3645 58.6435 58.3912 58.5331C58.5753 57.7233 58.9407 56.978 59.4476 56.3769C59.5169 56.294 59.6316 56.2941 59.701 56.3707C59.773 56.4505 59.7757 56.5824 59.7063 56.6621C59.2422 57.2142 58.9087 57.8951 58.7407 58.6373C58.7193 58.7293 58.6473 58.7907 58.5673 58.7907H58.5646Z" fill="#FFF8A1"/>
<path d="M61.0816 53.9266C61.0816 53.9266 61.0602 53.9266 61.0496 53.9266C60.9509 53.9082 60.8868 53.8008 60.9028 53.6873L61.2603 51.3072C61.2763 51.1938 61.3697 51.1202 61.4684 51.1386C61.5671 51.157 61.6311 51.2643 61.6151 51.3778L61.2576 53.7579C61.2416 53.8591 61.1669 53.9296 61.0816 53.9296V53.9266Z" fill="#FFF8A1"/>
<path d="M59.1912 48.6357C59.1912 48.6357 59.1859 48.6357 59.1832 48.6357C59.0845 48.6296 59.0072 48.5345 59.0098 48.421L59.0979 46.1544C59.1032 46.044 59.1806 45.9551 59.2766 45.9551C59.2766 45.9551 59.2819 45.9551 59.2846 45.9551C59.3833 45.9612 59.4606 46.0563 59.4553 46.1698L59.3699 48.4364C59.3646 48.5468 59.2873 48.6357 59.1912 48.6357Z" fill="#FFF8A1"/>
<path d="M51.0638 48.8319C51.0077 48.8319 50.9517 48.8012 50.917 48.746C50.5169 48.1081 50.1701 47.4241 49.8847 46.7064C49.8447 46.6021 49.8847 46.4794 49.9727 46.4334C50.0608 46.3874 50.1701 46.4334 50.2101 46.5346C50.4849 47.2247 50.821 47.8872 51.2078 48.5037C51.2665 48.5957 51.2478 48.7246 51.1678 48.792C51.1358 48.8196 51.0984 48.8319 51.0611 48.8319H51.0638Z" fill="#FFF8A1"/>
<path d="M53.3067 45.7129C53.2454 45.7129 53.1867 45.6761 53.152 45.6148C52.7225 44.805 52.7039 43.7438 53.104 42.9157C53.152 42.8145 53.2614 42.7807 53.3494 42.836C53.4375 42.8912 53.4668 43.0169 53.4188 43.1181C53.0853 43.8082 53.1013 44.7284 53.4588 45.4031C53.5095 45.5013 53.4828 45.627 53.3974 45.6884C53.3681 45.7098 53.3361 45.7191 53.3041 45.7191L53.3067 45.7129Z" fill="#FFF8A1"/>
<path d="M59.5947 43.3511C59.5734 43.3511 59.5547 43.3481 59.5333 43.3389C59.44 43.299 59.392 43.1824 59.424 43.0751C59.4907 42.8573 59.616 42.4371 59.7361 42.0231C59.9228 41.3882 60.0375 40.9956 60.0749 40.8974C60.1149 40.7931 60.2189 40.7441 60.3096 40.787C60.4003 40.83 60.443 40.9526 60.4056 41.0569C60.371 41.1489 60.2162 41.6826 60.0775 42.155C59.9548 42.569 59.8321 42.9923 59.7628 43.2131C59.7361 43.299 59.6667 43.3511 59.592 43.3511H59.5947Z" fill="#FFF8A1"/>
<path d="M46.5281 42.9184C46.5041 42.9184 46.4801 42.9122 46.4587 42.903C45.7652 42.5626 45.2023 41.8663 44.9569 41.0444C44.9249 40.937 44.9755 40.8174 45.0689 40.7806C45.1623 40.7438 45.2663 40.802 45.2983 40.9094C45.5117 41.621 45.9999 42.2252 46.6001 42.5227C46.6908 42.5687 46.7335 42.6883 46.6961 42.7957C46.6668 42.8754 46.6001 42.9214 46.5307 42.9214L46.5281 42.9184Z" fill="#FFF8A1"/>
<path d="M50.9454 39.6703C50.8974 39.6703 50.8494 39.6488 50.8147 39.6059C50.1638 38.8146 49.9584 37.6 50.2998 36.5817C50.3345 36.4744 50.4412 36.4222 50.5319 36.4621C50.6253 36.505 50.6706 36.6246 50.6333 36.7289C50.3452 37.5847 50.5266 38.649 51.0735 39.3176C51.1428 39.4004 51.1375 39.5323 51.0654 39.609C51.0308 39.6458 50.9854 39.6642 50.9427 39.6642L50.9454 39.6703Z" fill="#FFF8A1"/>
<path d="M55.5495 38.3793C55.5495 38.3793 55.5361 38.3793 55.5281 38.3793C55.4294 38.367 55.3574 38.2627 55.3707 38.1493C55.4694 37.1616 55.6268 36.171 55.8376 35.2048C55.8616 35.0944 55.9576 35.0269 56.0563 35.0545C56.1523 35.0821 56.211 35.1956 56.187 35.306C55.9789 36.2538 55.8269 37.226 55.7282 38.1953C55.7175 38.2995 55.6402 38.3793 55.5495 38.3793Z" fill="#FFF8A1"/>
<path d="M61.6648 37.631C61.6408 37.631 61.6168 37.6248 61.5928 37.6126C61.5021 37.5666 61.4594 37.4439 61.4994 37.3396L62.2757 35.3C62.3157 35.1957 62.4224 35.1466 62.5131 35.1926C62.6038 35.2386 62.6465 35.3613 62.6065 35.4656L61.8302 37.5052C61.8009 37.5819 61.7342 37.6279 61.6648 37.6279V37.631Z" fill="#FFF8A1"/>
<path d="M46.9526 35.1802C46.8992 35.1802 46.8432 35.1525 46.8085 35.0973C46.347 34.395 46.0189 33.573 45.8615 32.7142C45.8402 32.6007 45.9042 32.4933 46.0003 32.4688C46.0936 32.4473 46.1923 32.5148 46.2137 32.6283C46.3604 33.4288 46.6671 34.1956 47.0966 34.8489C47.158 34.9409 47.142 35.0697 47.0619 35.1403C47.0299 35.1679 46.9926 35.1832 46.9526 35.1832V35.1802Z" fill="#FFF8A1"/>
<path d="M52.6419 33.7353C52.5512 33.7353 52.4738 33.6556 52.4632 33.5513L52.2764 31.6067C52.2658 31.4932 52.3378 31.392 52.4365 31.3767C52.5379 31.3644 52.6259 31.4472 52.6366 31.5607L52.8233 33.5053C52.834 33.6188 52.7619 33.72 52.6632 33.7353C52.6552 33.7353 52.6499 33.7353 52.6419 33.7353Z" fill="#FFF8A1"/>
<path d="M58.9245 33.3032C58.8979 33.3032 58.8712 33.2971 58.8445 33.2818C58.7565 33.2327 58.7191 33.1069 58.7618 33.0057L59.226 31.923C59.2687 31.8218 59.378 31.7789 59.466 31.8279C59.5541 31.877 59.5914 32.0028 59.5487 32.104L59.0846 33.1867C59.0526 33.2603 58.9886 33.3032 58.9245 33.3032Z" fill="#FFF8A1"/>
<path d="M65.3401 35.5972C65.3001 35.5972 65.2601 35.5819 65.2281 35.5512C65.1507 35.4807 65.1374 35.3488 65.1987 35.2598L66.4445 33.4686C66.5085 33.3797 66.6206 33.3643 66.6979 33.438C66.7753 33.5085 66.7886 33.6404 66.7272 33.7293L65.4815 35.5205C65.4468 35.5727 65.3935 35.5972 65.3401 35.5972Z" fill="#FFF8A1"/>
<path d="M63.2651 44.7589C63.2438 44.7589 63.2198 44.7527 63.1984 44.7435C63.1051 44.7006 63.0597 44.581 63.0971 44.4767C63.4118 43.5566 63.8947 42.6978 64.4949 41.9893C64.5642 41.9064 64.6789 41.9064 64.7483 41.9862C64.8203 42.0659 64.8203 42.1978 64.751 42.2776C64.1828 42.9462 63.7266 43.759 63.4305 44.627C63.4012 44.7098 63.3345 44.7589 63.2625 44.7589H63.2651Z" fill="#FFF8A1"/>
<path d="M48.6887 50.3653C48.6486 50.3653 48.6086 50.35 48.574 50.3193C48.1445 49.9175 47.6803 49.5617 47.1948 49.2611C47.1068 49.2059 47.0748 49.0832 47.1201 48.982C47.1681 48.8808 47.2775 48.844 47.3629 48.8961C47.8697 49.209 48.3552 49.577 48.8007 49.9972C48.8781 50.0709 48.8887 50.1997 48.8247 50.2886C48.79 50.3377 48.7367 50.3653 48.686 50.3653H48.6887Z" fill="#FFF8A1"/>
<path d="M55.7334 60.7323C55.6347 60.7323 55.5547 60.6402 55.5547 60.5267V59.122C55.5547 59.0085 55.6347 58.9165 55.7334 58.9165C55.8321 58.9165 55.9122 59.0085 55.9122 59.122V60.5267C55.9122 60.6402 55.8321 60.7323 55.7334 60.7323Z" fill="#FFF8A1"/>
<path d="M56.0215 47.4516C56.0215 47.4516 56.0162 47.4516 56.0108 47.4516C55.9121 47.4454 55.8348 47.3473 55.8401 47.2338C55.8881 46.2554 55.9681 45.2678 56.0855 44.2955C56.0989 44.182 56.1922 44.1023 56.2883 44.1176C56.387 44.1329 56.4563 44.2372 56.443 44.3507C56.3283 45.3107 56.2456 46.2861 56.2002 47.2553C56.1949 47.3657 56.1149 47.4516 56.0215 47.4516Z" fill="#FFF8A1"/>
</svg>
