<svg width="123" height="125" viewBox="0 0 123 125" fill="none" xmlns="http://www.w3.org/2000/svg">
<path d="M33.9417 95.8401C29.9792 96.3951 25.4367 96.3751 22.6067 93.5476C19.0517 89.9951 19.7792 83.5426 16.0392 80.1851C13.0642 77.5126 8.41665 77.8551 4.96415 75.8351C2.76915 74.5526 1.16915 72.2976 0.676646 69.8026C0.351646 68.1476 1.11917 65.8376 2.79417 66.0276C4.15417 66.1801 4.67165 67.8176 5.30915 69.0276C7.75415 73.6651 14.4992 73.6501 18.5392 76.9926C22.1367 79.9726 23.0217 85.1101 25.7892 88.8751C26.6842 90.0926 27.8441 91.2026 29.2991 91.6151C30.4416 91.9376 31.6567 91.8051 32.8367 91.6676C35.4767 91.3601 38.1192 91.0551 40.7592 90.7476C42.1592 90.5851 43.5966 90.4251 44.9617 90.7701C46.3267 91.1176 47.6292 92.0851 47.9517 93.4576C48.8417 97.2376 45.3016 95.6651 43.6141 95.2851C40.4791 94.5751 37.0567 95.4026 33.9417 95.8376V95.8401Z" fill="#735846"/>
<path d="M99.4935 122.628H87.776C87.776 122.628 79.9784 100.761 69.3309 101.901C58.6834 103.041 51.4559 122.628 51.4559 122.628H40.291C38.5185 112.756 39.5835 103.036 40.686 97.0855C40.7285 96.8505 40.7735 96.6205 40.816 96.398C41.4135 93.3505 41.9884 91.4456 42.1084 91.2531L97.0935 89.6855C97.7585 91.968 98.311 94.1381 98.7635 96.1931C98.8435 96.5581 98.9235 96.9205 98.996 97.278C102.438 113.798 99.4935 122.631 99.4935 122.631V122.628Z" fill="#6CA9E0"/>
<path d="M46.6073 122.63C46.6073 122.63 42.0273 120.158 38.8023 122.63C38.8023 122.63 36.8623 123.945 37.7648 124.248C38.3348 124.438 51.2648 124.248 51.2648 124.248L50.7023 122.63H46.6073Z" fill="#735846"/>
<path d="M13.9786 49.9102C13.7811 49.2877 13.5961 48.6277 13.7511 47.9927C13.9261 47.2827 14.4961 46.7477 15.0361 46.2552C15.7086 45.6452 16.3786 45.0377 17.0511 44.4277C17.4636 44.0527 17.9336 43.6552 18.4911 43.6602C18.9411 43.6627 19.3411 43.9302 19.7011 44.2002C24.2786 47.6077 27.3686 52.7777 32.1486 55.8952C33.2311 56.6002 34.4586 57.2702 34.9911 58.4477C35.3961 59.3502 35.3111 60.3927 35.1261 61.3652C34.7186 63.5127 33.8211 65.6352 32.2086 67.1077C24.0086 74.5977 15.7761 55.5577 13.9786 49.9102Z" fill="#735846"/>
<path d="M100.071 46.5228C103.749 44.2328 107.424 41.9428 111.101 39.6528C111.344 39.5003 111.614 39.3428 111.899 39.3728C112.214 39.4053 112.454 39.6554 112.666 39.8904C114.401 41.8079 116.256 44.0729 115.956 46.6404C115.769 48.2429 114.756 49.6178 113.741 50.8728C109.611 55.9878 104.834 60.5779 99.5614 64.5054C98.9014 64.9979 98.0664 65.5028 97.3064 65.1853C96.9064 65.0178 96.6289 64.6554 96.3939 64.2929C94.2264 60.9604 94.2814 56.8579 94.5039 53.0404C94.7139 49.4329 97.1389 48.3478 100.071 46.5228Z" fill="#735846"/>
<path d="M92.5384 122.628C92.5384 122.628 97.1184 120.156 100.343 122.628C100.343 122.628 102.283 123.943 101.381 124.246C100.811 124.436 87.8809 124.246 87.8809 124.246L88.4434 122.628H92.5384Z" fill="#735846"/>
<path d="M98.9936 97.2775C71.0611 100.81 48.6761 98.275 40.6836 97.0875C40.7261 96.8525 40.7711 96.6225 40.8136 96.4C41.4111 93.3525 41.9861 91.4475 42.1061 91.255L97.0911 89.6875C97.7561 91.97 98.3086 94.14 98.7611 96.195C98.8411 96.56 98.9211 96.9225 98.9936 97.28V97.2775Z" fill="#4283B2"/>
<path d="M99.0913 83.9125C99.5213 89.02 99.5714 93.355 99.5714 93.355C80.2064 98.12 34.1888 93.355 34.1888 93.355C34.3563 92.6125 34.4638 91.625 34.5263 90.4925V90.4875C34.8488 85.0225 34.1888 76.24 34.1888 76.24C27.1188 74.3075 22.1113 68.505 22.1113 68.505C22.4838 67.09 22.9513 65.785 23.4838 64.5925C26.9788 56.725 33.2238 53.4725 33.2238 53.4725C35.1888 53.93 37.1639 54.3025 39.1364 54.595C57.4439 57.3075 75.7438 53.2975 86.6588 50.015C92.9313 48.125 96.7639 46.4775 96.7639 46.4775C97.3014 53.1075 100.319 60.405 101.979 63.9875C102.626 65.39 103.066 66.2225 103.066 66.2225C99.8838 67.265 96.3239 69.8175 96.3239 69.8175C97.8489 72.875 98.6588 78.7775 99.0913 83.9075V83.9125Z" fill="#FFC44D"/>
<path d="M86.6617 50.0152C86.4142 50.5852 86.1067 51.1327 85.7667 51.6277C82.2367 56.8152 76.3117 59.9527 70.2342 61.5277C66.9417 62.3827 63.5342 62.8352 60.1342 62.7702C55.8367 62.6952 51.5542 61.7902 47.5917 60.1227C44.4842 58.8152 41.5267 56.9902 39.1367 54.5927C57.4442 57.3052 75.7442 53.2952 86.6592 50.0127L86.6617 50.0152Z" fill="#DD9D2A"/>
<path d="M41.3819 28.2257C47.573 28.2257 52.5919 23.2068 52.5919 17.0157C52.5919 10.8246 47.573 5.80566 41.3819 5.80566C35.1908 5.80566 30.1719 10.8246 30.1719 17.0157C30.1719 23.2068 35.1908 28.2257 41.3819 28.2257Z" fill="#735846"/>
<path d="M49.8984 25.9779C53.4922 22.3841 53.4922 16.5574 49.8984 12.9636C46.3046 9.36976 40.4779 9.36976 36.8841 12.9636C33.2903 16.5574 33.2903 22.3841 36.8841 25.9779C40.4779 29.5717 46.3046 29.5717 49.8984 25.9779Z" fill="#FAA7A7"/>
<path d="M97.9916 21.5511C101.152 16.2271 99.3972 9.34955 94.0732 6.18965C88.7492 3.02975 81.8716 4.78412 78.7117 10.1081C75.5518 15.4321 77.3062 22.3096 82.6302 25.4695C87.9542 28.6294 94.8317 26.8751 97.9916 21.5511Z" fill="#735846"/>
<path d="M92.9863 24.9056C96.5801 21.3118 96.5801 15.4851 92.9863 11.8913C89.3925 8.29748 83.5658 8.29748 79.972 11.8913C76.3782 15.4851 76.3782 21.3118 79.972 24.9056C83.5658 28.4994 89.3925 28.4994 92.9863 24.9056Z" fill="#FAA7A7"/>
<path d="M66.0457 60.4681C80.7917 60.4681 92.7457 49.3748 92.7457 35.6906C92.7457 22.0063 80.7917 10.9131 66.0457 10.9131C51.2997 10.9131 39.3457 22.0063 39.3457 35.6906C39.3457 49.3748 51.2997 60.4681 66.0457 60.4681Z" fill="#735846"/>
<path d="M49.8618 44.2854C46.9443 41.5829 44.1344 38.4278 43.5769 34.4903C43.1094 31.1878 44.1768 27.6979 46.4168 25.2254C47.2143 24.3429 48.1593 23.5829 49.2268 23.0629C52.0343 21.6979 55.3643 22.1079 58.4018 22.8229C61.4418 23.5379 64.5018 24.5354 67.6118 24.2479C71.6043 23.8779 75.2893 21.4079 79.2918 21.6304C82.6018 21.8154 85.7143 24.0253 86.9818 27.0878C88.1618 29.9453 88.4018 34.8703 87.0918 37.6728C85.7818 40.4753 69.8293 62.7729 49.8593 44.2804L49.8618 44.2854Z" fill="#EABA8B"/>
<path d="M114.625 25.8377L116.212 25.6377L114.848 29.8502L114.625 25.8377Z" fill="#595651"/>
<path d="M110.055 67.1151L111.64 66.9176L113.175 63.5576L110.532 65.7901L110.055 67.1151Z" fill="#595651"/>
<path d="M70.8915 34.0156C70.9415 34.7956 70.2391 37.9231 66.4091 37.6631C63.3641 37.4556 62.6016 34.6106 62.6016 34.6106C62.6016 34.6106 68.0465 37.8856 70.894 34.0156H70.8915Z" fill="#201600"/>
<path d="M67.002 44.1126C66.7345 44.1126 66.5195 43.8577 66.5195 43.5427V37.1052C66.5195 36.7902 66.737 36.5352 67.002 36.5352C67.267 36.5352 67.4845 36.7902 67.4845 37.1052V43.5427C67.4845 43.8577 67.267 44.1126 67.002 44.1126Z" fill="#201600"/>
<path d="M48.9084 39.7132C51.1672 39.7132 52.9984 37.882 52.9984 35.6232C52.9984 33.3644 51.1672 31.5332 48.9084 31.5332C46.6495 31.5332 44.8184 33.3644 44.8184 35.6232C44.8184 37.882 46.6495 39.7132 48.9084 39.7132Z" fill="#FAA7A7"/>
<path d="M86.2035 35.9648C86.7224 33.7664 85.3609 31.5636 83.1624 31.0447C80.964 30.5258 78.7611 31.8873 78.2422 34.0858C77.7234 36.2842 79.0849 38.487 81.2834 39.0059C83.4818 39.5248 85.6847 38.1633 86.2035 35.9648Z" fill="#FAA7A7"/>
<path d="M67.0066 44.1254C63.9816 44.1254 62.3191 41.9805 62.2966 41.948C62.1716 41.7805 62.2041 41.5405 62.3716 41.4155C62.5391 41.2905 62.7766 41.3229 62.9041 41.4904C63.0366 41.6654 66.2016 45.7005 72.0241 41.413C72.1941 41.288 72.4316 41.3254 72.5566 41.4929C72.6816 41.6629 72.6441 41.9004 72.4766 42.0254C70.3416 43.5979 68.5091 44.1254 67.0091 44.1254H67.0066Z" fill="#201600"/>
<path d="M51.9471 30.9556C52.7009 30.9556 53.312 30.3444 53.312 29.5906C53.312 28.8367 52.7009 28.2256 51.9471 28.2256C51.1932 28.2256 50.582 28.8367 50.582 29.5906C50.582 30.3444 51.1932 30.9556 51.9471 30.9556Z" fill="#201600"/>
<path d="M79.9236 30.9556C80.6775 30.9556 81.2886 30.3444 81.2886 29.5906C81.2886 28.8367 80.6775 28.2256 79.9236 28.2256C79.1697 28.2256 78.5586 28.8367 78.5586 29.5906C78.5586 30.3444 79.1697 30.9556 79.9236 30.9556Z" fill="#201600"/>
<path d="M11.8884 47.9802C10.6059 47.0927 9.13843 46.5177 7.68343 45.9577C6.75593 45.6002 5.81593 45.2377 4.99593 44.6752C4.17593 44.1127 3.47092 43.3227 3.20592 42.3627C3.11842 42.0427 3.08344 41.6952 3.19594 41.3827C3.40594 40.7952 4.07094 40.4976 4.69094 40.4226C5.31094 40.3476 5.94593 40.4277 6.55593 40.2927C6.67093 40.2677 6.79342 40.2277 6.86592 40.1327C6.93092 40.0502 6.94344 39.9377 6.94344 39.8352C6.95344 39.1027 6.51094 38.4402 6.41594 37.7152C6.29094 36.7402 6.86592 35.7352 7.73842 35.2877C8.61092 34.8377 9.72095 34.9377 10.5434 35.4752C11.0809 35.8277 11.6884 36.3777 12.2634 36.0902C12.5809 35.9327 12.7359 35.5627 12.7834 35.2127C12.8309 34.8627 12.8009 34.5002 12.8734 34.1552C13.0384 33.3677 13.7659 32.7577 14.5634 32.6377C15.3609 32.5177 16.1884 32.8502 16.7584 33.4202C17.3284 33.9902 17.6509 34.7752 17.7534 35.5752C17.8259 36.1302 17.8559 36.8002 18.3434 37.0752C18.7784 37.3202 19.3359 37.0927 19.8159 37.2252C20.0584 37.2927 20.2659 37.4477 20.4434 37.6252C21.2809 38.4677 21.4434 39.7927 21.2309 40.9602C21.0184 42.1277 20.4834 43.2127 20.1009 44.3377C19.7559 45.3577 19.5309 46.4177 19.4359 47.4902C19.3559 48.3727 19.3284 49.3977 18.5734 50.0002C17.9059 50.5327 16.7209 50.7277 15.8834 50.8152C14.0834 51.0027 13.2059 48.8952 11.8884 47.9827V47.9802Z" fill="#735846"/>
<path d="M105.547 35.2434C105.547 35.2434 109.757 67.7109 110.054 67.1159C110.352 66.5209 118.594 57.4035 118.594 57.3285C118.594 55.8985 114.627 25.8359 114.627 25.8359L105.549 35.2434H105.547Z" fill="#595651"/>
<path d="M107.135 35.0452C107.135 35.0452 111.345 67.5127 111.642 66.9177C111.94 66.3227 120.182 57.2052 120.182 57.1302C120.182 55.7002 116.215 25.6377 116.215 25.6377L107.137 35.0452H107.135Z" fill="#201600"/>
<path d="M108.994 35.7234L109.604 35.0784C110.169 34.4809 111.174 34.8059 111.282 35.6209L112.012 41.1359C112.049 41.4109 111.967 41.6884 111.784 41.9009L111.219 42.5584C110.672 43.1959 109.629 42.8909 109.512 42.0584L108.737 36.5284C108.694 36.2334 108.789 35.9384 108.994 35.7209V35.7234Z" fill="#595651"/>
<path d="M110.779 36.9535C110.831 37.671 110.619 38.271 110.304 38.2935C109.989 38.316 109.691 37.7535 109.639 37.036C109.586 36.3185 109.799 35.7185 110.114 35.696C110.429 35.6735 110.726 36.236 110.779 36.9535Z" fill="#201600"/>
<path d="M111.355 40.0951C111.408 40.8126 111.195 41.4126 110.88 41.4351C110.565 41.4576 110.267 40.8951 110.215 40.1776C110.162 39.4601 110.375 38.8601 110.69 38.8376C111.005 38.8151 111.303 39.3776 111.355 40.0951Z" fill="#201600"/>
<path d="M116.252 39.0376C116.14 39.4876 116.147 40.0601 116.54 40.3051C116.815 40.4751 117.265 40.4951 117.315 40.8151C117.335 40.9451 117.267 41.0726 117.207 41.1926C116.972 41.6651 116.837 42.1901 116.82 42.7201C116.815 42.8576 116.82 43.0026 116.895 43.1201C117.02 43.3176 117.29 43.3551 117.482 43.4851C117.785 43.6901 117.875 44.1051 117.82 44.4651C117.765 44.8251 117.6 45.1601 117.492 45.5076C117.27 46.2326 117.317 47.0551 117.712 47.7051C118.107 48.3526 118.867 48.7876 119.622 48.7026C120.695 48.5851 121.415 47.5551 121.852 46.5701C122.905 44.2001 123.147 41.4001 122.135 39.0151C121.792 38.2051 121.292 37.4326 120.562 36.9426C118.582 35.6126 116.76 37.0126 116.252 39.0376Z" fill="#735846"/>
<path d="M35.3033 89.1578C35.0458 89.6028 34.7858 90.0428 34.5283 90.4878C34.8508 85.0228 34.1908 76.2403 34.1908 76.2403C27.1208 74.3078 22.1133 68.5053 22.1133 68.5053C22.4858 67.0903 22.9533 65.7853 23.4858 64.5928C27.6508 67.3878 30.9883 71.6053 35.7883 73.0278C36.7583 73.3178 37.8333 73.5228 38.4858 74.2953C38.8508 74.7278 39.0258 75.2828 39.1483 75.8403C40.1533 80.4653 37.6883 85.0678 35.3083 89.1578H35.3033Z" fill="#DD9D2A"/>
<path d="M96.3241 69.8207C97.8491 72.8782 98.6591 78.7807 99.0916 83.9107C96.7191 80.5307 94.6066 76.9657 92.7941 73.2557C92.3716 72.3882 91.9541 71.4007 92.2816 70.4957C92.5441 69.7657 93.2241 69.2782 93.8741 68.8532C95.3466 67.8907 99.0916 65.0307 101.979 63.9932C102.627 65.3957 103.067 66.2282 103.067 66.2282C99.8841 67.2707 96.3241 69.8232 96.3241 69.8232V69.8207Z" fill="#DD9D2A"/>
</svg>
