<svg width="108" height="182" viewBox="0 0 108 182" fill="none" xmlns="http://www.w3.org/2000/svg">
<path d="M8.71554 101.886C8.34772 100.585 7.97678 99.2275 8.14199 97.8736C8.5254 94.7483 11.4711 92.9874 14.0926 91.872C15.1805 91.409 16.5864 91.0442 17.3594 92.0193C17.7272 92.4823 17.8332 93.1277 17.9267 93.7416C18.4473 97.172 18.9679 100.606 19.4884 104.036C20.0121 107.495 20.5389 110.964 20.6667 114.468C20.6885 115.079 20.6948 115.713 20.4641 116.268C20.3082 116.643 20.0526 116.955 19.7939 117.25C18.6437 118.569 17.2721 119.821 15.6886 120.396C13.2853 121.266 13.3975 118.495 12.7928 116.352C11.4337 111.529 10.0715 106.706 8.71243 101.883L8.71554 101.886Z" fill="#EFEFEF"/>
<path d="M9.2451 98.845C9.12353 98.845 8.99884 98.8275 8.88351 98.7609C8.46893 98.5364 8.4097 97.9471 8.49386 97.4701C8.71518 96.1898 9.50694 95.0638 10.5637 94.5307C10.6696 94.4781 10.7943 94.5307 10.8411 94.6499C10.8878 94.7692 10.8411 94.9095 10.7351 94.9621C9.80307 95.4356 9.10171 96.4283 8.90845 97.5613C8.85546 97.8735 8.88351 98.2347 9.06742 98.3329C9.15782 98.382 9.28874 98.3715 9.41343 98.3575C11.477 98.1225 13.4283 97.0913 14.909 95.4602C15.1428 95.2006 15.3703 94.9165 15.4638 94.5833C15.5386 94.3132 15.4981 93.9308 15.2768 93.7625C15.1521 93.6678 14.9744 93.6327 14.7126 93.6573C13.3691 93.78 12.3061 94.9025 11.3616 96.1687C12.0537 96.2213 12.78 95.7864 13.0917 95.0954C13.1447 94.9796 13.2693 94.934 13.3753 94.9901C13.4782 95.0498 13.5187 95.1936 13.4688 95.3094C13.0106 96.3266 11.8853 96.8738 10.9128 96.5581C10.8442 96.537 10.7912 96.4774 10.7694 96.4002C10.7476 96.3231 10.7632 96.2424 10.8068 96.1792C11.8136 94.7797 13.0636 93.3311 14.6783 93.1837C14.9059 93.1627 15.2363 93.1592 15.5106 93.3696C15.8597 93.6362 16.0062 94.1939 15.8628 94.7201C15.7444 95.155 15.4763 95.4953 15.202 95.7969C13.6528 97.5051 11.611 98.582 9.45395 98.8275C9.38849 98.8345 9.31679 98.8416 9.2451 98.8416V98.845Z" fill="#312A20"/>
<path d="M99.69 79.8024V142.017C99.69 145.143 97.4176 147.696 94.6434 147.696H25.3709C22.5935 147.696 20.3242 145.139 20.3242 142.017V79.8024C20.3242 79.136 20.4302 78.4976 20.6141 77.9048C21.3155 75.702 23.1889 74.1235 25.3709 74.1235H94.6434C94.9177 74.1235 95.1826 74.1481 95.4414 74.1937C96.8971 74.4603 98.1502 75.4284 98.9108 76.7824C99.4033 77.6593 99.69 78.694 99.69 79.8024Z" fill="#653243"/>
<path d="M99.6893 79.8022V90.6723C99.0253 90.5355 98.3614 90.29 97.7379 90.0445C84.7238 84.8426 71.0426 81.4893 57.2305 81.2508C53.5086 81.1842 49.7805 81.3455 46.0711 81.7559C39.6186 82.4715 33.2222 83.9236 27.0596 86.2001C24.9212 86.9963 22.4899 87.789 20.3203 88.8939V79.8057C20.3203 79.1392 20.4263 78.5008 20.6102 77.908C22.4743 76.4453 24.4817 75.1861 26.5827 74.1268C30.875 71.9485 35.5507 70.5911 40.2171 69.8966C49.9395 68.4585 59.7897 69.5984 69.5838 70.1982C76.719 70.6402 83.9196 70.798 90.8864 72.5799C92.4356 72.9763 93.9942 73.4639 95.4375 74.2005C96.3976 74.6845 97.3046 75.2738 98.1307 76.0174C98.405 76.2629 98.6606 76.519 98.91 76.7891C99.4025 77.666 99.6893 78.7008 99.6893 79.8092V79.8022Z" fill="#491E2F"/>
<path d="M106.999 77.5293C106.662 78.7991 106.039 79.8829 105.228 80.7142C103.667 82.3102 101.428 82.9732 99.262 82.219C86.4068 77.7398 50.6656 67.7956 20.2079 82.7311C18.4373 83.5975 16.514 83.352 15.0053 82.3102C13.8395 81.507 12.92 80.2337 12.4991 78.6272C11.1962 73.6393 10.6475 66.2768 14.4349 57.8269C14.4349 57.8269 54.8207 19.8357 104.178 57.8269C104.178 57.8269 109.832 66.8205 107.002 77.5293H106.999Z" fill="#653243"/>
<path d="M21.586 113.647C21.2431 112.279 14.1547 115.384 13.3131 118.067C12.4715 120.75 16.6796 140.505 18.5 141.263C20.3236 142.021 23.687 140.316 23.687 140.316C23.687 140.316 23.687 122.013 21.5829 113.651L21.586 113.647Z" fill="#491E2F"/>
<path d="M98.4994 113.647C98.8423 112.279 105.931 115.384 106.772 118.067C107.614 120.75 103.406 140.505 101.585 141.263C99.7618 142.021 96.3984 140.316 96.3984 140.316C96.3984 140.316 96.3984 122.013 98.5025 113.651L98.4994 113.647Z" fill="#491E2F"/>
<path d="M106.999 77.5293C106.662 78.7991 106.039 79.8829 105.228 80.7142C105.225 75.2458 104.627 69.8265 102.183 65.1824C99.742 60.5523 95.6679 57.2166 91.2415 55.1646C86.8214 53.1091 82.0366 52.2427 77.2829 51.6675C62.1149 49.8365 46.5447 50.8712 32.0187 56.1187C26.3237 58.1741 20.557 61.0785 16.9068 66.4206C14.0078 70.6613 12.6924 77.2031 14.9336 82.1594C14.9555 82.212 14.9804 82.2646 15.0053 82.3102C13.8395 81.507 12.92 80.2337 12.4991 78.6272C11.1962 73.6393 10.6475 66.2768 14.4349 57.8269C14.4349 57.8269 54.8207 19.8357 104.178 57.8269C104.178 57.8269 109.832 66.8205 107.002 77.5293H106.999Z" fill="#93516B"/>
<path d="M8.70621 126.208C6.90138 121.371 6.77046 115.991 6.04728 110.81C5.32098 105.629 3.74994 100.185 0 97.0703C4.62274 99.7291 8.22929 104.542 9.77851 110.119C10.8072 113.826 10.9942 117.909 12.8208 121.206C14.7597 124.703 18.2229 126.717 21.6299 128.232C25.037 129.747 28.6342 130.979 31.5019 133.543C31.8542 133.858 32.2064 134.213 32.3592 134.69C32.5213 135.202 32.4215 135.763 32.3218 136.293C31.8635 138.741 31.4053 141.189 30.9471 143.641C30.7569 144.662 26.0064 141.126 25.5077 140.874C23.2321 139.716 20.7727 139.253 18.5284 137.875C14.2734 135.261 10.6014 131.291 8.70309 126.208H8.70621Z" fill="#AFAFAF"/>
<path d="M91.9304 179.882H78.9692C78.9692 179.882 70.3441 152.663 58.5675 154.084C46.7878 155.504 38.7954 179.882 38.7954 179.882H26.4452C24.4097 167.107 25.7595 154.54 27.025 147.233C27.6859 143.441 28.3218 141.07 28.4558 140.828L89.2777 138.878C90.0133 141.719 90.6243 144.42 91.123 146.977C95.3312 168.405 91.9304 179.882 91.9304 179.882Z" fill="#6A9451"/>
<path d="M91.1234 146.977C67.5733 154.761 35.6506 149.026 27.0254 147.233C27.6862 143.441 28.3221 141.07 28.4562 140.828L89.278 138.878C90.0137 141.719 90.6247 144.42 91.1234 146.977Z" fill="#4D7235"/>
<path d="M93.4202 133.381L94.1216 137.426L95.0817 142.961C56.7158 153.848 24.4938 142.961 24.4938 142.961L25.965 133.497C7.45539 132.087 15.4478 100.592 25.965 88.5221C36.4823 76.4523 51.2046 70.2964 76.2354 78.5569C101.266 86.8139 107.631 121.055 104.209 124.9C99.5829 130.102 96.6964 132.431 94.9196 133.16C94.2899 133.416 93.7974 133.472 93.4171 133.381H93.4202Z" fill="#FF5A63"/>
<path d="M92.5392 36.2129C101.078 36.2129 108 28.1063 108 18.1064C108 8.10652 101.078 0 92.5392 0C84.0003 0 77.0781 8.10652 77.0781 18.1064C77.0781 28.1063 84.0003 36.2129 92.5392 36.2129Z" fill="#AFAFAF"/>
<path d="M91.2758 35.031C98.0329 35.031 103.511 28.6158 103.511 20.7023C103.511 12.7887 98.0329 6.37354 91.2758 6.37354C84.5187 6.37354 79.041 12.7887 79.041 20.7023C79.041 28.6158 84.5187 35.031 91.2758 35.031Z" fill="#E2E2E2"/>
<path d="M43.6179 120.698C43.6085 120.845 43.596 120.996 43.5898 121.143C43.1783 126.145 40.987 130.936 37.5924 134.202C34.1012 137.562 29.3818 139.264 24.8027 138.804C24.915 137.955 25.0303 137.11 25.1425 136.261C25.2734 135.261 25.4075 134.258 25.5415 133.259C30.2453 133.038 34.547 128.758 35.3294 123.532C35.772 120.575 35.2047 117.706 34.2695 114.879C33.3219 111.992 31.994 109.154 30.9809 106.316C28.3843 99.0801 24.7591 81.2333 34.7994 79.0656C35.4166 78.9323 36.1211 78.9463 36.5918 79.4128C37.1685 79.9811 37.1716 80.9737 37.1093 81.8366C36.7632 86.5122 35.6785 91.223 36.4141 95.8426C37.1997 100.799 39.9864 105.022 41.7538 109.645C42.4302 111.416 42.9602 113.276 43.2843 115.17C43.5992 116.994 43.727 118.849 43.6179 120.698Z" fill="#653243"/>
<path d="M28.4572 40.6923C36.9961 40.6923 43.9183 32.5858 43.9183 22.5859C43.9183 12.586 36.9961 4.47949 28.4572 4.47949C19.9183 4.47949 12.9961 12.586 12.9961 22.5859C12.9961 32.5858 19.9183 40.6923 28.4572 40.6923Z" fill="#AFAFAF"/>
<path d="M29.7172 39.5066C36.4744 39.5066 41.9521 33.0914 41.9521 25.1779C41.9521 17.2643 36.4744 10.8491 29.7172 10.8491C22.9601 10.8491 17.4824 17.2643 17.4824 25.1779C17.4824 33.0914 22.9601 39.5066 29.7172 39.5066Z" fill="#E2E2E2"/>
<path d="M45.8437 26.0373C55.6254 22.7226 69.718 22.6068 79.1817 24.2624C93.1933 26.7143 99.8702 41.8603 94.4059 54.365C87.5949 69.9424 68.8172 92.6403 68.8172 92.6403C66.339 96.3479 60.4975 96.3479 58.0193 92.6403C58.0193 92.6403 39.9523 70.1809 31.5111 52.9865C25.8441 41.4498 32.2031 30.6569 45.8437 26.0373Z" fill="#AFAFAF"/>
<path d="M94.396 137.117C85.7521 134.939 77.6194 126.945 74.5958 117.576C74.443 117.113 74.3059 116.647 74.1781 116.18C73.4362 113.577 72.9655 110.898 72.738 108.179C72.1644 101.504 73.0279 94.6327 74.8763 88.2208C76.0453 84.1624 77.7441 80.0375 80.8675 77.6172C81.3631 77.2278 81.9492 76.8841 82.5445 76.9788C83.0028 77.0559 83.3955 77.3821 83.7384 77.7259C88.598 82.6576 83.6324 87.7472 82.1175 93.2367C81.0358 97.1407 80.4841 101.241 80.4903 105.334C80.4934 107.709 80.6867 110.091 81.0795 112.427C81.0826 112.445 81.0826 112.466 81.0888 112.483C82.052 118.25 84.3026 123.953 88.33 127.675C89.7109 128.948 91.2881 129.99 92.4228 131.544C93.5543 133.09 95.3155 135.398 94.396 137.114V137.117Z" fill="#653243"/>
<path d="M48.2632 54.4771C48.2632 55.5435 47.4933 56.4099 46.5457 56.4099C45.5981 56.4099 44.8281 55.5435 44.8281 54.4771C44.8281 53.4108 45.5981 52.5444 46.5457 52.5444C47.4933 52.5444 48.2632 53.4108 48.2632 54.4771Z" fill="#201600"/>
<path d="M93.4219 133.382L94.1232 137.426C93.4718 138.173 92.4961 138.527 91.5516 138.657C87.4868 139.208 83.6839 136.395 79.6347 135.749C75.118 135.03 70.3799 137.033 66.0221 135.514C65.4922 135.328 64.9654 135.093 64.5415 134.697C64.0863 134.276 63.7684 133.704 63.4692 133.129C62.6992 131.649 62.0134 130.091 61.6363 128.429C61.1812 126.426 60.564 121.336 63.1792 120.954C64.3607 120.782 65.221 121.887 66.2154 122.322C67.5246 122.89 68.7278 122.581 70.0183 122.108C72.8705 121.07 75.7071 119.905 78.6622 119.347C81.6203 118.79 84.7562 118.874 87.4837 120.27C91.829 122.49 94.4661 127.797 94.9212 133.161C94.2916 133.417 93.799 133.473 93.4188 133.382H93.4219Z" fill="#C9475A"/>
<path d="M83.8453 54.4771C83.8453 55.5435 83.0753 56.4099 82.1277 56.4099C81.1801 56.4099 80.4102 55.5435 80.4102 54.4771C80.4102 53.4108 81.1801 52.5444 82.1277 52.5444C83.0753 52.5444 83.8453 53.4108 83.8453 54.4771Z" fill="#201600"/>
<path d="M45.0749 69.5041C47.5746 69.5041 49.601 67.2238 49.601 64.411C49.601 61.5981 47.5746 59.3179 45.0749 59.3179C42.5752 59.3179 40.5488 61.5981 40.5488 64.411C40.5488 67.2238 42.5752 69.5041 45.0749 69.5041Z" fill="#FAA7A7"/>
<path d="M83.5652 69.5041C86.0649 69.5041 88.0913 67.2238 88.0913 64.411C88.0913 61.5981 86.0649 59.3179 83.5652 59.3179C81.0655 59.3179 79.0391 61.5981 79.0391 64.411C79.0391 67.2238 81.0655 69.5041 83.5652 69.5041Z" fill="#FAA7A7"/>
<path d="M63.4067 98.1087C65.7876 98.1087 67.7177 96.4127 67.7177 94.3205C67.7177 92.2283 65.7876 90.5322 63.4067 90.5322C61.0258 90.5322 59.0957 92.2283 59.0957 94.3205C59.0957 96.4127 61.0258 98.1087 63.4067 98.1087Z" fill="#201600"/>
<path d="M36.7973 74.7933C36.3734 74.7933 36.0087 74.432 35.9619 73.948C35.9121 73.4288 36.2487 72.9623 36.71 72.9062L43.4836 72.096C43.9418 72.0363 44.3595 72.4186 44.4094 72.9378C44.4593 73.4569 44.1226 73.9235 43.6613 73.9796L36.8877 74.7898C36.8566 74.7933 36.8285 74.7968 36.7973 74.7968V74.7933Z" fill="#201600"/>
<path d="M38.987 79.4481C38.5724 79.5498 38.1485 79.2867 38.0082 78.8237C37.8617 78.3291 38.0986 77.7924 38.5381 77.6241L44.9968 75.1898C45.4332 75.0214 45.9133 75.2915 46.0629 75.7861C46.2094 76.2806 45.9725 76.8173 45.533 76.9857L39.0743 79.42C39.0462 79.4305 39.015 79.441 38.987 79.4481Z" fill="#201600"/>
<path d="M42.1378 84.2256C41.7731 84.4746 41.2962 84.3764 41.0344 83.987C40.7538 83.5696 40.8255 82.9769 41.1965 82.6612L46.6203 78.0241C46.985 77.7084 47.518 77.7891 47.7986 78.2065C48.0791 78.6239 48.0074 79.2167 47.6365 79.5324L42.2127 84.1695C42.1877 84.1905 42.1628 84.208 42.1378 84.2256Z" fill="#201600"/>
<path d="M90.9236 73.8778C91.3476 73.8778 91.7123 73.5165 91.759 73.0325C91.8089 72.5134 91.4722 72.0469 91.0109 71.9907L84.2373 71.1804C83.7791 71.1208 83.3614 71.5032 83.3115 72.0223C83.2617 72.5414 83.5983 73.0079 84.0597 73.064L90.8332 73.8743C90.8644 73.8778 90.8924 73.8814 90.9236 73.8814V73.8778Z" fill="#201600"/>
<path d="M88.7365 78.5325C89.1511 78.6342 89.575 78.3712 89.7153 77.9081C89.8618 77.4136 89.6249 76.8769 89.1853 76.7085L82.7266 74.2742C82.2902 74.1059 81.8102 74.3759 81.6605 74.8705C81.514 75.3651 81.7509 75.9018 82.1904 76.0702L88.6492 78.5044C88.6772 78.515 88.7084 78.5255 88.7365 78.5325Z" fill="#201600"/>
<path d="M85.5838 83.3062C85.9485 83.5552 86.4254 83.457 86.6873 83.0676C86.9678 82.6502 86.8961 82.0574 86.5252 81.7418L81.1013 77.1046C80.7366 76.7889 80.2036 76.8696 79.923 77.287C79.6425 77.7044 79.7142 78.2972 80.0851 78.6129L85.509 83.25C85.5339 83.2711 85.5589 83.2886 85.5838 83.3062Z" fill="#201600"/>
<path d="M43.6179 120.698C43.6086 120.845 43.5961 120.996 43.5899 121.143C41.7757 122.48 39.5625 123.171 38.0788 124.939C36.8631 126.387 36.2989 128.369 35.2858 130.004C34.0732 131.954 28.8956 135.76 25.1426 136.261C25.2735 135.262 25.4075 134.258 25.5416 133.259C30.2454 133.038 34.547 128.758 35.3294 123.532C35.7721 120.575 35.2047 117.706 34.2696 114.879C34.6686 114.781 35.0676 114.693 35.4697 114.612C37.4179 114.237 39.4254 114.002 41.3642 114.423C42.0282 114.57 42.6921 114.802 43.2875 115.166C43.6024 116.99 43.7302 118.846 43.6211 120.694L43.6179 120.698Z" fill="#491E2F"/>
<path d="M81.0891 112.49C81.0548 112.522 81.0206 112.557 80.9894 112.585C79.0162 114.37 76.6597 115.615 74.1784 116.184C73.4365 113.581 72.9658 110.901 72.7383 108.183C73.3056 107.902 73.8324 107.664 74.1971 107.46C75.8804 106.513 77.6073 105.552 79.4807 105.331C79.8173 105.289 80.1633 105.275 80.4906 105.345C80.4938 107.72 80.687 110.101 81.0798 112.437C81.0829 112.455 81.0829 112.476 81.0891 112.494V112.49Z" fill="#491E2F"/>
<path d="M89.9948 133.792C92.2018 134.472 94.6643 133.785 96.4473 132.171C98.2303 130.558 99.3432 128.095 99.633 125.542C99.8294 123.823 99.6237 121.932 98.6044 120.638C97.0302 118.639 94.2154 118.797 91.9337 119.54C89.9823 120.179 88.0746 121.15 86.5878 122.708C85.2661 124.093 83.561 126.896 84.3621 128.927C85.1944 131.031 88.0996 133.206 89.9948 133.792Z" fill="#C43745"/>
<path d="M84.8866 129.192C95.0231 125.177 102.334 119.024 101.215 115.448C100.096 111.872 90.9725 112.227 80.8361 116.242C70.6996 120.256 63.3892 126.41 64.5077 129.986C65.6262 133.562 74.7502 133.207 84.8866 129.192Z" fill="#003762"/>
<path d="M98.622 107.567L62.0293 122.059L64.5078 129.983L101.1 115.491L98.622 107.567Z" fill="#003762"/>
<path d="M82.4081 121.265C92.5446 117.251 99.855 111.097 98.7365 107.521C97.618 103.945 88.494 104.3 78.3576 108.315C68.2211 112.33 60.9107 118.483 62.0292 122.059C63.1477 125.635 72.2717 125.28 82.4081 121.265Z" fill="#5B7BBB"/>
<path d="M95.0461 108.986C95.1552 109.333 95.1646 109.712 95.0804 110.112C94.4819 112.988 89.1516 117.092 82.0975 119.888C75.5327 122.487 69.5042 123.153 67.0354 121.764C66.4743 121.456 66.1002 121.042 65.935 120.519C65.0498 117.685 70.8445 112.802 78.8837 109.621C86.9228 106.436 94.1577 106.155 95.0461 108.993V108.986Z" fill="#4D5B9D"/>
<path d="M95.0821 110.112C94.4836 112.988 89.1533 117.092 82.0992 119.887C75.5345 122.487 69.5059 123.153 67.0371 121.764C67.6356 118.888 72.9659 114.784 80.02 111.992C86.5848 109.393 92.6133 108.726 95.0821 110.115V110.112Z" fill="#EFEFEF"/>
<path d="M82.3677 112.251L82.2555 115.461L77.9102 118.842L78.3621 115.843L82.3677 112.251Z" fill="#4D59A1"/>
<path d="M82.2555 115.461L77.9102 118.842L78.3621 115.843L82.2555 115.461Z" fill="#D24A43"/>
<path d="M34.8343 120.68C34.8343 120.68 27.8737 115.24 31.3338 108.056C31.3338 108.056 37.3218 100.322 41.3336 103.991C41.3336 103.991 42.3529 106.036 40.7787 107.607C40.7787 107.607 43.0854 106.559 44.0393 108.583C44.9931 110.603 42.9732 112.174 42.9732 112.174C42.9732 112.174 45.2363 111.526 45.5449 113.472C45.8535 115.419 41.0437 124.174 34.8343 120.68Z" fill="#AFAFAF"/>
<path d="M97.5008 126.84C97.5008 126.84 94.2215 135.525 88.3488 133.055C88.3488 133.055 81.7529 127.902 84.0472 122.795C84.0472 122.795 85.4748 121.291 86.8588 122.732C86.8588 122.732 85.7834 120.386 87.2017 118.958C88.62 117.53 90.057 119.46 90.057 119.46C90.057 119.46 89.2902 117.088 90.7272 116.383C92.1673 115.678 99.3929 119.347 97.4977 126.84H97.5008Z" fill="#AFAFAF"/>
<path d="M21.9792 116.278C21.9076 116.278 21.8327 116.25 21.7735 116.19C21.6426 116.064 21.6301 115.84 21.7423 115.696C24.2423 112.472 27.3657 109.761 30.7727 107.863C30.9286 107.779 31.1125 107.849 31.1904 108.021C31.2684 108.196 31.2029 108.407 31.0502 108.491C27.7148 110.35 24.66 113.002 22.213 116.155C22.1507 116.236 22.0634 116.275 21.9792 116.275V116.278Z" fill="#473421"/>
<path d="M33.4337 179.882C33.4337 179.882 28.3683 176.806 24.8023 179.882C24.8023 179.882 22.6577 181.52 23.6552 181.896C24.2848 182.131 38.5895 181.896 38.5895 181.896L37.966 179.882H33.4368H33.4337Z" fill="#AFAFAF"/>
<path d="M84.2417 179.882C84.2417 179.882 89.3071 176.806 92.8731 179.882C92.8731 179.882 95.0177 181.52 94.0202 181.896C93.3906 182.131 79.0859 181.896 79.0859 181.896L79.7094 179.882H84.2386H84.2417Z" fill="#AFAFAF"/>
<path d="M52.44 32.5507C52.2374 32.5507 52.0566 32.3824 52.0254 32.1509L51.6981 29.7867C51.6638 29.5271 51.8197 29.2851 52.0503 29.2465C52.2779 29.2079 52.4961 29.3833 52.5304 29.6429L52.8577 32.007C52.892 32.2666 52.7361 32.5086 52.5054 32.5472C52.4836 32.5507 52.4618 32.5542 52.44 32.5542V32.5507Z" fill="white"/>
<path d="M58.957 31.2568C58.7762 31.2568 58.611 31.1235 58.5549 30.92C58.3461 30.1414 58.2432 29.3311 58.2525 28.5173C58.2525 28.2577 58.4427 28.0508 58.6734 28.0508H58.6796C58.9134 28.0508 59.0973 28.2683 59.0942 28.5313C59.0879 29.2504 59.1752 29.9625 59.3622 30.6464C59.4308 30.8955 59.303 31.162 59.0817 31.2357C59.0412 31.2497 59.0006 31.2568 58.9601 31.2568H58.957Z" fill="white"/>
<path d="M68.9201 31.4845C68.9201 31.4845 68.8921 31.4845 68.8765 31.4845C68.6458 31.4564 68.4775 31.2249 68.5024 30.9654C68.5835 30.0955 68.7238 29.2256 68.9295 28.3802C68.9887 28.1277 69.2225 27.9768 69.4438 28.047C69.6683 28.1136 69.8023 28.3732 69.74 28.6258C69.5498 29.422 69.4127 30.2428 69.3378 31.0636C69.316 31.3056 69.1321 31.488 68.9201 31.488V31.4845Z" fill="white"/>
<path d="M64.7809 33.9644C64.5658 33.9644 64.385 33.782 64.3632 33.5365C64.304 32.856 64.3351 32.172 64.4536 31.502C64.4972 31.246 64.7186 31.0776 64.9492 31.1302C65.1768 31.1793 65.3264 31.4284 65.2796 31.6879C65.1768 32.2667 65.1518 32.8595 65.2017 33.4453C65.2235 33.7048 65.0552 33.9363 64.8245 33.9609C64.8121 33.9609 64.7965 33.9609 64.784 33.9609L64.7809 33.9644Z" fill="white"/>
<path d="M58.2353 41.4288C58.0545 41.4288 57.8861 41.2955 57.8331 41.0921L57.2596 38.9419C57.1941 38.6928 57.3188 38.4262 57.5432 38.3526C57.7677 38.2789 58.0015 38.4192 58.0669 38.6718L58.6405 40.822C58.7059 41.071 58.5813 41.3376 58.3568 41.4112C58.3163 41.4253 58.2758 41.4323 58.2353 41.4323V41.4288Z" fill="white"/>
<path d="M54.213 42.4988C54.0291 42.4988 53.8608 42.3619 53.8078 42.1515C53.5896 41.2711 53.2685 40.4258 52.8539 39.6436C52.7355 39.4191 52.8009 39.1279 53.0004 38.9946C53.1999 38.8613 53.4587 38.935 53.5771 39.1595C54.0322 40.0154 54.3813 40.9379 54.6182 41.8989C54.6806 42.1515 54.5497 42.4111 54.3252 42.4812C54.2878 42.4917 54.2504 42.4988 54.213 42.4988Z" fill="white"/>
<path d="M65.0712 44.6137C65.0525 44.6137 65.037 44.6137 65.0183 44.6102C64.7876 44.5786 64.6255 44.3401 64.6535 44.0805C64.7315 43.393 64.7751 42.6951 64.7813 42.0076C64.7813 41.748 64.9715 41.541 65.2022 41.541H65.2084C65.4422 41.541 65.6261 41.7585 65.623 42.0216C65.6168 42.7476 65.57 43.4808 65.4889 44.2033C65.4609 44.4419 65.2801 44.6172 65.0712 44.6172V44.6137Z" fill="white"/>
<path d="M71.5034 42.8424C71.466 42.8424 71.4286 42.8354 71.3943 42.8249C71.1699 42.7547 71.039 42.4951 71.0982 42.2426C71.2728 41.5235 71.5907 40.843 72.024 40.2783C72.1767 40.0819 72.4417 40.0573 72.6163 40.2292C72.7908 40.4011 72.8126 40.6992 72.6599 40.8957C72.3077 41.3516 72.0489 41.9024 71.9087 42.4881C71.8588 42.6986 71.6874 42.8389 71.5034 42.8389V42.8424Z" fill="white"/>
<path d="M55.9443 52.1867C55.832 52.1867 55.7198 52.1376 55.6388 52.0394C55.0652 51.3554 54.6226 50.5206 54.3607 49.6261C54.2891 49.3771 54.4075 49.1105 54.6288 49.0299C54.8501 48.9492 55.087 49.0825 55.1587 49.3315C55.3832 50.0962 55.7603 50.8047 56.2497 51.3905C56.4087 51.5799 56.4025 51.8815 56.2341 52.0604C56.1531 52.1481 56.0502 52.1903 55.9443 52.1903V52.1867Z" fill="white"/>
<path d="M62.038 55.3855C61.8042 55.3855 61.6172 55.175 61.6172 54.9119V53.1371C61.6172 52.874 61.8042 52.6636 62.038 52.6636C62.2718 52.6636 62.4588 52.874 62.4588 53.1371V54.9119C62.4588 55.175 62.2718 55.3855 62.038 55.3855Z" fill="white"/>
<path d="M69.7058 55.9713C69.6341 55.9713 69.5592 55.9503 69.4907 55.9047C69.2912 55.7714 69.2257 55.4803 69.3442 55.2558L70.4009 53.2459C70.5193 53.0214 70.7781 52.9478 70.9776 53.081C71.1771 53.2143 71.2425 53.5055 71.1241 53.73L70.0673 55.7399C69.9894 55.8907 69.8491 55.9713 69.7058 55.9713Z" fill="white"/>
<path d="M59.198 64.7367C59.0858 64.7367 58.9736 64.6876 58.8894 64.5859C58.4218 64.0212 58.0447 63.3828 57.7641 62.6812C57.6675 62.4427 57.7641 62.1621 57.9761 62.0569C58.1881 61.9516 58.4374 62.0569 58.5309 62.2954C58.7741 62.9022 59.1014 63.4564 59.5035 63.944C59.6625 64.1369 59.6531 64.4351 59.4817 64.614C59.4006 64.6981 59.2978 64.7402 59.1949 64.7402L59.198 64.7367Z" fill="white"/>
<path d="M63.0907 66.0345C62.8569 66.0345 62.6699 65.8241 62.6699 65.561V63.6669C62.6699 63.4038 62.8569 63.1934 63.0907 63.1934C63.3245 63.1934 63.5115 63.4038 63.5115 63.6669V65.561C63.5115 65.8241 63.3245 66.0345 63.0907 66.0345Z" fill="white"/>
<path d="M67.2676 66.3751C67.2022 66.3751 67.1398 66.3575 67.0775 66.3224C66.8717 66.2032 66.7876 65.9191 66.8936 65.6876L67.6386 64.0355C67.7445 63.804 67.997 63.7093 68.2028 63.8285C68.4085 63.9478 68.4927 64.2319 68.3867 64.4634L67.6417 66.1155C67.5669 66.2804 67.4204 66.3751 67.2676 66.3751Z" fill="white"/>
<path d="M61.7351 74.4353C61.5543 74.4353 61.3859 74.302 61.3329 74.0951C61.1927 73.5549 60.9901 73.0393 60.7282 72.5623C60.6066 72.3413 60.669 72.0466 60.8654 71.9098C61.0618 71.773 61.3236 71.8432 61.4452 72.0642C61.7475 72.6149 61.9813 73.2077 62.1434 73.8285C62.2089 74.0811 62.0811 74.3406 61.8566 74.4143C61.8161 74.4283 61.7787 74.4318 61.7382 74.4318L61.7351 74.4353Z" fill="white"/>
<path d="M64.6534 78.5816H64.644C64.4103 78.5746 64.2263 78.3606 64.2326 78.0975C64.2482 77.2627 64.5162 76.4489 64.9838 75.807C65.1303 75.6036 65.3953 75.5755 65.5761 75.7404C65.7569 75.9052 65.7818 76.2034 65.6353 76.4068C65.2862 76.8874 65.0867 77.4977 65.0742 78.1185C65.068 78.3781 64.8809 78.5816 64.6534 78.5816Z" fill="white"/>
<path d="M49.2505 47.4231C49.157 47.4231 49.0635 47.388 48.9825 47.3144C48.4027 46.7777 47.985 46.0306 47.8073 45.2133C47.7512 44.9608 47.8915 44.7047 48.1159 44.6416C48.3403 44.5784 48.5679 44.7328 48.624 44.9888C48.758 45.6097 49.076 46.1779 49.5155 46.5848C49.6963 46.7496 49.7212 47.0478 49.5747 47.2512C49.4906 47.3635 49.3721 47.4231 49.2505 47.4231Z" fill="white"/>
<path d="M48.2717 37.7455C48.1407 37.7455 48.0098 37.6754 47.9288 37.5456C47.5672 36.9668 47.3116 36.2934 47.1931 35.5988C47.1495 35.3428 47.2991 35.0938 47.5267 35.0446C47.7542 34.9955 47.9755 35.1639 48.0192 35.4199C48.1158 35.9847 48.3215 36.5284 48.6145 36.9984C48.7486 37.2123 48.7018 37.507 48.5117 37.6578C48.4369 37.7174 48.3527 37.7455 48.2685 37.7455H48.2717Z" fill="white"/>
<path d="M42.4897 36.4409C42.3588 36.4409 42.231 36.3743 42.1499 36.248C41.8257 35.7499 41.5483 35.2097 41.3301 34.6415C41.2366 34.403 41.3363 34.1224 41.5483 34.0171C41.7603 33.9119 42.0096 34.0241 42.1032 34.2626C42.2964 34.7677 42.5427 35.2448 42.8294 35.6868C42.9666 35.8972 42.9261 36.1954 42.7391 36.3497C42.6642 36.4129 42.577 36.4409 42.4897 36.4409Z" fill="white"/>
<path d="M73.5998 35.0306C73.5748 35.0306 73.5499 35.0306 73.5218 35.0235C73.2943 34.9744 73.1415 34.7289 73.1852 34.4729C73.3161 33.6836 73.6559 32.9295 74.1422 32.3437C74.3011 32.1543 74.5661 32.1438 74.7375 32.3227C74.9059 32.5016 74.9152 32.7997 74.7562 32.9926C74.3791 33.4451 74.1141 34.0344 74.0143 34.6447C73.9769 34.8727 73.7993 35.0306 73.5998 35.0306Z" fill="white"/>
<path d="M80.4695 32.0879C80.3978 32.0879 80.3261 32.0668 80.2576 32.0247C80.0581 31.8949 79.9895 31.6038 80.1048 31.3758L80.9839 29.6746C81.0992 29.4466 81.3579 29.373 81.5574 29.5028C81.76 29.6325 81.8255 29.9237 81.7102 30.1481L80.8311 31.8493C80.7532 32.0002 80.6129 32.0844 80.4664 32.0844L80.4695 32.0879Z" fill="white"/>
</svg>
