<svg width="96" height="117" viewBox="0 0 96 117" fill="none" xmlns="http://www.w3.org/2000/svg">
<path d="M76.9786 53.8883V98.2308C76.9786 100.458 75.1562 102.278 72.9312 102.278H17.3737C15.1462 102.278 13.3262 100.456 13.3262 98.2308V53.8883C13.3262 53.4133 13.4112 52.9583 13.5587 52.5358C14.1212 50.9658 15.6237 49.8408 17.3737 49.8408H72.9312C73.1512 49.8408 73.3637 49.8583 73.5712 49.8908C74.7387 50.0808 75.7436 50.7708 76.3536 51.7358C76.7486 52.3608 76.9786 53.0983 76.9786 53.8883Z" fill="#3B4167"/>
<path d="M76.9772 53.8879V61.6354C76.4447 61.5379 75.9122 61.3629 75.4122 61.1854C64.9747 57.4779 54.0022 55.0879 42.9247 54.9179C39.9397 54.8704 36.9497 54.9854 33.9747 55.2779C28.7997 55.7879 23.6697 56.8229 18.7272 58.4454C17.0122 59.0129 15.0623 59.5779 13.3223 60.3654V53.8879C13.3223 53.4129 13.4072 52.9579 13.5547 52.5354C15.0497 51.4929 16.6597 50.5954 18.3447 49.8404C21.7872 48.2879 25.5373 47.3204 29.2798 46.8254C37.0773 45.8004 44.9773 46.6129 52.8323 47.0404C58.5548 47.3554 64.3297 47.4679 69.9172 48.7379C71.1597 49.0204 72.4098 49.3679 73.5673 49.8929C74.3373 50.2379 75.0647 50.6579 75.7272 51.1879C75.9472 51.3629 76.1522 51.5454 76.3522 51.7379C76.7472 52.3629 76.9772 53.1005 76.9772 53.8905V53.8879Z" fill="#491E2F"/>
<path d="M82.8378 52.2683C82.5678 53.1733 82.0678 53.9459 81.4178 54.5383C80.1653 55.6758 78.3703 56.1483 76.6328 55.6108C66.3228 52.4183 37.6578 45.3308 13.2303 55.9758C11.8103 56.5933 10.2678 56.4183 9.05778 55.6758C8.12278 55.1033 7.38527 54.1958 7.04777 53.0508C6.00277 49.4958 5.56276 44.2483 8.60026 38.2258C8.60026 38.2258 40.9903 11.1484 80.5753 38.2258C80.5753 38.2258 85.1103 44.6358 82.8403 52.2683H82.8378Z" fill="#3B4167"/>
<path d="M14.3345 78.0086C14.0595 77.0336 8.37452 79.246 7.69952 81.1585C7.02452 83.071 10.3995 97.1511 11.8595 97.6911C13.322 98.2311 16.0195 97.0161 16.0195 97.0161C16.0195 97.0161 16.0195 83.9711 14.332 78.0111L14.3345 78.0086Z" fill="#5B7BBB"/>
<path d="M76.0209 78.0086C76.2959 77.0336 81.9809 79.246 82.6559 81.1585C83.3309 83.071 79.9559 97.1511 78.4959 97.6911C77.0334 98.2311 74.3359 97.0161 74.3359 97.0161C74.3359 97.0161 74.3359 83.9711 76.0234 78.0111L76.0209 78.0086Z" fill="#5B7BBB"/>
<path d="M82.8378 52.2683C82.5678 53.1733 82.0678 53.9459 81.4178 54.5384C81.4153 50.6409 80.9353 46.7783 78.9753 43.4683C77.0178 40.1683 73.7503 37.7909 70.2003 36.3284C66.6553 34.8634 62.8178 34.2458 59.0053 33.8358C46.8403 32.5308 34.3528 33.2684 22.7028 37.0084C18.1353 38.4734 13.5103 40.5434 10.5828 44.3509C8.2578 47.3734 7.20278 52.0359 9.00028 55.5683C9.01778 55.6059 9.03778 55.6433 9.05778 55.6758C8.12278 55.1033 7.38527 54.1958 7.04777 53.0508C6.00277 49.4958 5.56276 44.2484 8.60026 38.2259C8.60026 38.2259 40.9903 11.1484 80.5753 38.2259C80.5753 38.2259 85.1103 44.6358 82.8403 52.2683H82.8378Z" fill="#5B7BBB"/>
<path d="M77.5858 56.918C77.8383 58.048 77.4508 59.3254 78.0208 60.3329C78.4058 61.0129 79.1383 61.4054 79.7283 61.9154C81.0158 63.0254 81.6583 64.8379 81.3558 66.5104C81.2683 66.9979 81.1058 67.4954 81.2308 67.9754C81.3208 68.3204 81.5508 68.6104 81.7683 68.8929C82.8533 70.2929 83.8408 72.1829 83.0258 73.7554C82.7233 74.3379 82.1883 74.8279 82.1208 75.4804C82.0158 76.5129 83.1158 77.2854 83.3108 78.3029C83.4783 79.1829 82.9383 80.0404 82.3133 80.6804C80.4008 82.6354 77.6058 83.4554 75.4883 85.1879C74.9558 85.6229 74.4608 86.1204 73.8358 86.4079C72.6183 86.9679 71.1958 86.6204 69.9033 86.2604C68.0308 85.7429 66.1083 85.2004 64.5658 84.0204C62.7883 82.6604 61.6933 80.5779 61.0108 78.4454C59.4158 73.4654 59.8708 67.8354 62.3758 63.2479C63.9858 60.2979 66.4433 57.8204 69.3608 56.1554C71.6833 54.8279 76.6508 52.7455 77.5808 56.9205L77.5858 56.918Z" fill="#FFC44D"/>
<path d="M70.8619 115.18H60.4669C60.4669 115.18 53.5493 95.7801 44.1043 96.7926C34.6568 97.8051 28.2469 115.18 28.2469 115.18H18.3419C16.7094 106.075 17.7919 97.1176 18.8069 91.9101C19.3369 89.2076 19.8469 87.5176 19.9544 87.3451L68.7343 85.9551C69.3243 87.9801 69.8144 89.9051 70.2144 91.7276C73.5894 107 70.8619 115.18 70.8619 115.18Z" fill="#00563E"/>
<path d="M70.2122 91.7276C51.3247 97.2751 25.7222 93.1876 18.8047 91.9101C19.3347 89.2076 19.8447 87.5176 19.9522 87.3451L68.7322 85.9551C69.3222 87.9801 69.8122 89.9051 70.2122 91.7276Z" fill="#013525"/>
<path d="M23.9453 115.18C23.9453 115.18 19.8828 112.988 17.0228 115.18C17.0228 115.18 15.3028 116.348 16.1028 116.615C16.6078 116.783 28.0803 116.615 28.0803 116.615L27.5803 115.18H23.9478H23.9453Z" fill="#201600"/>
<path d="M64.6917 115.178C64.6917 115.178 68.7541 112.985 71.6141 115.178C71.6141 115.178 73.3341 116.345 72.5341 116.613C72.0291 116.78 60.5566 116.613 60.5566 116.613L61.0566 115.178H64.6891H64.6917Z" fill="#201600"/>
<path d="M13.0058 87.3456C13.4308 87.9606 14.1958 88.2331 14.9158 88.4406C18.7408 89.5431 22.7484 89.8381 26.7184 90.1256C34.4959 90.6906 42.2859 91.2556 50.0834 91.1806C55.5759 91.1281 61.0583 90.7556 66.5383 90.3831C68.2208 90.2681 70.0883 90.0681 71.1983 88.7981C72.2383 87.6081 72.2683 85.8656 72.2034 84.2856C72.0108 79.5181 71.4783 74.7656 70.6108 70.0756C70.3108 68.4506 69.9458 66.7781 68.9808 65.4381C67.7783 63.7656 65.8109 62.8356 63.8959 62.0731C56.7259 59.2131 49.0358 57.6806 41.3183 57.4656C35.2758 57.2956 29.1658 57.9381 23.4508 59.9031C21.5508 60.5556 19.6658 61.3756 18.1633 62.7081C15.1833 65.3481 14.1659 69.5706 13.9584 73.5481C13.8234 76.1256 13.9608 78.7106 13.8583 81.2881C13.8108 82.4581 13.8909 84.0606 13.4634 85.1706C13.1759 85.9181 12.3633 86.4131 13.0083 87.3456H13.0058Z" fill="#FFC44D"/>
<path d="M8.14264 55.1008C8.00514 55.6933 8.03762 56.3382 7.75012 56.8757C7.17512 57.9482 5.60762 58.1107 4.93762 59.1257C4.38762 59.9582 4.61511 61.0883 4.23511 62.0108C3.77011 63.1408 2.51763 63.7157 1.76013 64.6732C1.01263 65.6157 0.795137 66.9532 1.20264 68.0857C1.37764 68.5732 1.66013 69.0208 1.81763 69.5158C2.24763 70.8758 1.68263 72.3232 1.25513 73.6832C0.715127 75.4082 0.457619 77.4782 1.62262 78.8607C2.35012 79.7232 3.53512 80.1782 4.05762 81.1782C4.37262 81.7782 4.39261 82.4857 4.55011 83.1457C4.78761 84.1507 5.4651 85.1483 6.4776 85.3558C7.1401 85.4933 7.86261 85.2783 8.48511 85.5458C8.93761 85.7408 9.24764 86.1558 9.64014 86.4533C10.5376 87.1308 11.7576 87.1257 12.8826 87.0932C14.6451 87.0407 16.4226 86.9857 18.1276 86.5357C19.8326 86.0857 21.4776 85.1982 22.5126 83.7732C23.9401 81.8057 23.9901 79.1607 23.6426 76.7532C23.2951 74.3457 22.6076 71.9557 22.7676 69.5307C22.8851 67.7432 23.4626 65.9933 23.3851 64.2033C23.3101 62.4683 22.6251 60.8157 21.8176 59.2782C20.7976 57.3332 19.5476 55.4807 17.8976 54.0307C16.5626 52.8582 14.1076 51.2107 12.2051 51.4707C10.5826 51.6907 8.50764 53.5208 8.14514 55.1033L8.14264 55.1008Z" fill="#FFC44D"/>
<path d="M74.825 32.0729C74.825 47.5579 60.3249 60.1104 42.4349 60.1104C24.5449 60.1104 10.0449 47.5579 10.0449 32.0729C10.0449 16.5879 24.5449 0.650391 42.4349 0.650391C60.3249 0.650391 74.825 16.5879 74.825 32.0729Z" fill="#201600"/>
<path d="M61.5533 48.6778C61.5533 48.6778 52.3033 57.2928 30.8608 53.6853C9.41581 50.0803 4.14831 12.0728 30.8608 14.1278C30.8608 14.1278 39.8508 14.8328 41.9058 23.2153C41.9058 23.2153 47.8133 10.0303 59.8858 13.7503C71.9583 17.4703 77.0958 31.3403 61.5558 48.6778H61.5533Z" fill="white"/>
<path d="M16.7005 71.5231C16.343 71.2081 15.8855 70.9731 15.6755 70.5456C15.348 69.8781 15.7556 68.9881 15.3431 68.3706C15.0681 67.9581 14.5305 67.8256 14.138 67.5231C13.5255 67.0481 13.328 66.1831 13.4505 65.4181C13.573 64.6531 13.963 63.9606 14.348 63.2881C14.383 64.3056 14.5006 65.4781 15.3431 66.0506C16.0306 66.5181 17.1155 66.5156 17.433 67.2831C17.588 67.6581 17.4856 68.1006 17.6431 68.4731C17.7356 68.6931 17.9105 68.8681 18.0955 69.0131C19.373 70.0181 21.443 70.0481 22.188 71.4931C22.6805 72.4456 22.343 73.6006 22.0005 74.6156C21.698 75.5106 21.3381 76.4781 20.5281 76.9656C19.1981 77.7656 17.5981 76.7706 17.3956 75.3306C17.1981 73.9281 18.023 72.6906 16.698 71.5256L16.7005 71.5231Z" fill="#B28324"/>
<path d="M22.9133 31.5709C23.9323 31.5709 24.7584 30.7448 24.7584 29.7259C24.7584 28.7069 23.9323 27.8809 22.9133 27.8809C21.8944 27.8809 21.0684 28.7069 21.0684 29.7259C21.0684 30.7448 21.8944 31.5709 22.9133 31.5709Z" fill="#201600"/>
<path d="M9.27836 52.7732C9.12086 54.1082 9.81833 55.3782 10.4958 56.5382C12.4433 59.8807 14.4058 63.2207 16.1208 66.6882C16.7358 67.9332 17.3309 69.2457 17.3434 70.6357C17.3509 71.5382 17.1108 72.4532 17.3008 73.3357C17.4183 73.8807 17.7733 74.4432 18.3233 74.5332C18.8883 74.6257 19.4258 74.1682 19.6183 73.6307C19.8133 73.0932 19.7458 72.5007 19.6658 71.9357C19.0108 67.2357 17.7058 62.6307 15.8133 58.2807C14.8933 56.1632 13.8809 53.9632 12.5859 52.0432C11.5284 50.4732 9.56835 50.2832 9.27585 52.7732H9.27836Z" fill="#48443E"/>
<path d="M61.4875 31.5709C62.5065 31.5709 63.3326 30.7448 63.3326 29.7259C63.3326 28.7069 62.5065 27.8809 61.4875 27.8809C60.4686 27.8809 59.6426 28.7069 59.6426 29.7259C59.6426 30.7448 60.4686 31.5709 61.4875 31.5709Z" fill="#201600"/>
<path d="M65.8605 71.9999C66.108 71.6874 66.4179 71.4174 66.7854 71.2674C67.2054 71.0974 67.6705 71.0949 68.1155 71.0124C68.5605 70.9299 69.028 70.7324 69.228 70.3274C69.6255 69.5174 68.7105 68.5899 68.8905 67.7074C69.0255 67.0524 69.738 66.5874 69.7355 65.9199C68.9805 66.1674 68.2655 66.5349 67.6205 66.9999C67.403 67.1574 67.1855 67.3349 67.063 67.5749C66.9155 67.8649 66.9205 68.2074 66.823 68.5174C66.618 69.1624 65.9854 69.5749 65.3479 69.8049C64.7129 70.0349 64.028 70.1374 63.4205 70.4349C62.018 71.1199 61.2555 72.8974 61.728 74.3874C61.838 74.7324 62.008 75.0649 62.258 75.3249C62.9305 76.0274 64.5355 76.0724 65.0655 75.1474C65.6055 74.2049 65.043 73.0299 65.8605 71.9999Z" fill="#B28324"/>
<path d="M41.7754 31.9805C41.7754 31.9805 38.4304 35.143 38.6554 37.5055C38.8804 39.868 41.7754 43.6905 41.7754 43.6905C41.7754 43.6905 44.0804 40.878 44.3054 37.5055C44.5304 34.133 41.7754 31.9805 41.7754 31.9805Z" fill="#E18C44"/>
<path d="M67.3272 71.1751C67.5272 71.1626 67.7472 71.1751 67.9022 71.0451C68.0997 70.8826 68.0922 70.5851 68.0772 70.3301C67.9672 68.6151 68.2597 66.8776 68.9247 65.2926C69.5997 63.6826 70.6397 62.2576 71.6697 60.8476C73.1147 58.8726 74.5597 56.8951 76.0047 54.9201C75.4072 54.0351 74.0897 53.8951 73.1147 54.3301C72.1397 54.7651 71.4297 55.6276 70.7797 56.4751C67.6947 60.4901 65.0272 64.8951 63.5497 69.7376C63.3122 70.5151 63.1147 71.3876 63.4847 72.1101C64.5497 74.1826 66.1947 71.2501 67.3247 71.1751H67.3272Z" fill="#48443E"/>
<path d="M76.1209 53.9552C76.1209 55.5402 75.251 56.9952 74.271 58.2477C69.8085 63.9627 62.736 67.0977 55.636 68.5777C46.951 70.3827 37.8884 70.0177 29.2359 68.0852C25.4809 67.2477 21.7359 66.0977 18.4859 64.0377C15.2359 61.9752 12.4985 58.9152 11.441 55.2177C10.8785 53.2452 10.8534 50.9702 12.0384 49.2977C12.4184 48.7577 12.9184 48.2877 13.1809 47.6827C13.3334 47.3327 13.4909 47.0377 13.6609 46.7952C15.4884 44.1577 18.2635 47.5702 20.2135 49.0927C23.1685 51.4027 26.5485 53.2527 30.2535 53.9877C33.1084 54.5502 36.046 54.4502 38.951 54.3152C42.626 54.1502 46.2959 53.9452 49.9709 53.7327C54.1009 53.4977 58.4084 53.2052 61.9759 51.1077C64.2509 49.7727 66.156 47.7277 68.691 46.9952C69.2535 46.8302 69.8609 46.7352 70.4309 46.8827C71.0359 47.0377 71.5335 47.4427 72.016 47.8377C73.821 49.3152 75.7635 51.0877 76.076 53.3302C76.106 53.5352 76.1209 53.7452 76.1209 53.9577V53.9552Z" fill="#6CA9E0"/>
<path d="M76.0761 53.3283C75.9636 53.4733 75.8335 53.6083 75.6735 53.7258C75.096 54.1583 74.331 54.2457 73.616 54.2057C71.916 54.1107 70.2635 53.3658 69.061 52.1608C68.446 51.5408 67.886 50.7682 67.041 50.5557C65.7735 50.2307 64.626 51.2957 63.661 52.1757C59.0735 56.3757 52.6886 58.2108 46.4686 58.2883C40.2511 58.3658 34.126 56.8283 28.1785 55.0058C26.131 54.3758 24.0735 53.7033 22.231 52.6058C20.1535 51.3708 18.4185 49.6432 16.626 48.0232C16.026 47.4807 15.381 46.9307 14.596 46.7457C14.2185 46.6582 13.921 46.6908 13.666 46.7933C15.4935 44.1558 18.2686 47.5682 20.2186 49.0907C23.1736 51.4007 26.5535 53.2507 30.2585 53.9857C33.1135 54.5482 36.0511 54.4482 38.9561 54.3132C42.6311 54.1482 46.301 53.9433 49.976 53.7308C54.106 53.4958 58.4135 53.2033 61.981 51.1058C64.256 49.7708 66.1611 47.7257 68.6961 46.9932C69.2586 46.8282 69.866 46.7333 70.436 46.8808C71.041 47.0358 71.5386 47.4407 72.0211 47.8357C73.8261 49.3132 75.7686 51.0858 76.0811 53.3283H76.0761Z" fill="#4283B2"/>
<path d="M88.9485 29.7454C87.966 31.6579 86.591 33.3654 84.8785 34.6779C83.601 35.6629 82.116 36.4854 81.271 37.8629C80.7135 38.7704 80.496 39.8354 80.196 40.8629C79.3435 43.8079 77.366 46.7979 74.5785 47.7479C74.0785 47.9154 73.5535 48.0204 73.0035 48.0479C71.351 48.1279 70.3035 47.1779 69.731 45.8479C69.276 44.7929 69.116 43.5004 69.1985 42.3029C69.2535 41.4704 69.4185 40.6804 69.6785 40.0529C71.6085 35.3779 76.3485 32.6279 80.636 29.9454C84.9235 27.2629 89.4085 23.7754 90.171 18.7754C91.191 22.4079 90.6735 26.3979 88.9485 29.7479V29.7454Z" fill="#6CA9E0"/>
<path d="M88.9485 29.7457C87.966 31.6582 86.591 33.3657 84.8785 34.6782C83.601 35.6632 82.116 36.4857 81.271 37.8632C80.7135 38.7707 80.496 39.8357 80.196 40.8632C79.3435 43.8082 77.366 46.7982 74.5785 47.7482C74.0985 47.1582 73.771 46.4232 73.1385 46.0107C72.571 45.6432 71.8535 45.6032 71.186 45.6957C70.711 45.7607 70.201 45.8782 69.731 45.8482C69.276 44.7932 69.116 43.5007 69.1985 42.3032C69.766 42.0457 70.4336 41.9107 70.9061 41.6082C71.2711 41.3757 71.5535 41.0357 71.811 40.6832C73.0085 39.0532 74.0085 36.9782 75.9585 36.4382C75.686 37.3357 75.416 38.2332 75.146 39.1307C75.0485 39.4507 74.951 39.7882 75.0185 40.1157C75.086 40.4432 75.3785 40.7507 75.711 40.7132C75.931 40.6857 76.1035 40.5232 76.2585 40.3682C77.781 38.8232 78.9135 36.9057 80.561 35.4932C82.2385 34.0557 84.351 33.2257 86.121 31.9057C87.0735 31.1982 87.9385 30.3407 88.956 29.7432L88.9485 29.7457Z" fill="#4283B2"/>
<path d="M67.4001 46.3631C67.4826 44.9681 68.4876 43.6156 69.8551 43.3356C70.4601 43.2131 71.1001 43.2881 71.6826 43.0831C72.1026 42.9331 72.4601 42.6481 72.8601 42.4506C74.4501 41.6656 76.4926 42.4806 77.5251 43.9231C78.5576 45.3656 78.7576 47.2531 78.6051 49.0206C78.5576 49.5631 78.4725 50.1256 78.1575 50.5681C77.855 50.9906 77.3801 51.2506 76.9151 51.4831C76.3451 51.7656 75.7551 52.0306 75.1276 52.1356C72.1751 52.6306 67.2051 49.6406 67.4001 46.3581V46.3631Z" fill="#3EB5F1"/>
<path d="M80.361 41.4928C82.5685 40.3578 85.056 39.8578 87.5335 39.6928C90.2935 39.5103 93.1985 39.7028 95.6735 38.4678C95.161 41.8053 94.5385 45.3703 92.1935 47.7978C91.291 48.7328 90.176 49.4403 89.0285 50.0503C86.6835 51.2903 84.0985 52.1603 81.446 52.2278C79.7785 52.2703 78.031 51.9628 76.7035 50.9503C72.5585 47.7878 77.1985 43.1228 80.3585 41.4953L80.361 41.4928Z" fill="#6CA9E0"/>
<path d="M53.3203 84.3809C53.3203 84.3809 43.0578 91.1834 32.1328 83.5984L32.6278 70.2334C32.6278 70.2334 41.9353 74.4959 51.8428 71.3809L53.3203 84.3834V84.3809Z" fill="#201600"/>
<path d="M65.1058 71.6532L65.0259 68.5207C65.0059 67.7207 64.5384 67.0007 63.8159 66.6532C61.8934 65.7282 57.9208 64.3232 54.1808 66.1482C53.4508 66.5032 52.9734 67.2332 52.9434 68.0457L52.8184 71.4132L65.1033 71.6507L65.1058 71.6532Z" fill="#201600"/>
<path d="M65.1093 94.3913C62.7093 95.4688 57.7843 96.7738 51.0618 93.8963C49.7018 93.3138 48.8518 91.9388 48.9068 90.4588L49.6093 71.4613C49.6093 71.4613 57.3343 67.8163 65.2343 70.9938C66.6143 71.5488 67.5093 72.8988 67.4543 74.3838L66.8068 91.8688C66.7668 92.9638 66.1093 93.9413 65.1093 94.3913Z" fill="#312A20"/>
<path d="M21.9185 70.0534L22.2285 66.9359C22.3085 66.1384 22.8285 65.4559 23.5735 65.1634C25.5585 64.3834 29.6236 63.2759 33.2186 65.3709C33.9211 65.7809 34.341 66.5434 34.311 67.3559L34.186 70.7234L21.916 70.0509L21.9185 70.0534Z" fill="#201600"/>
<path d="M20.2335 92.7306C22.4835 93.9506 27.1035 95.5581 33.726 93.4581C35.451 92.9106 36.6335 91.3206 36.701 89.5106L37.386 71.0081C37.386 71.0081 29.951 66.8006 21.8385 69.3881C20.421 69.8406 19.431 71.1181 19.376 72.6056L18.7285 90.0906C18.6885 91.1856 19.271 92.2081 20.2335 92.7306Z" fill="#312A20"/>
<path d="M13.2711 83.2851C13.2711 83.2851 10.826 76.9426 15.996 74.2601C15.996 74.2601 23.0636 72.3926 24.2611 76.3626C24.2611 76.3626 24.1186 78.0276 22.4461 78.2476C22.4461 78.2476 24.396 78.6676 24.221 80.2876C24.046 81.9076 22.0786 81.9276 22.0786 81.9276C22.0786 81.9276 23.8386 82.5626 23.2661 83.8501C22.6936 85.1376 15.9986 88.1376 13.2736 83.2826L13.2711 83.2851Z" fill="#201600"/>
<path d="M71.8101 79.2302C71.8101 79.2302 72.9126 85.9377 67.3051 87.5102C67.3051 87.5102 60.0051 87.9002 59.6426 83.7702C59.6426 83.7702 60.1201 82.1677 61.8026 82.2952C61.8026 82.2952 59.98 81.4877 60.48 79.9352C60.9825 78.3827 62.9125 78.7652 62.9125 78.7652C62.9125 78.7652 61.3176 77.7852 62.1401 76.6402C62.9626 75.4952 70.1301 73.9227 71.8076 79.2302H71.8101Z" fill="#201600"/>
<path d="M27.7018 85.9058C27.6368 86.7383 27.5718 87.5759 27.3793 88.3884C27.2493 88.9359 27.0618 89.5034 27.2068 90.0459C27.4093 90.8059 28.2943 91.2809 29.0618 91.1084C29.8293 90.9359 30.4068 90.1984 30.4818 89.4134C30.5068 89.1484 30.4818 88.8783 30.4118 88.6233C30.3418 88.3608 30.2268 88.1109 30.1393 87.8509C29.8918 87.1259 29.8618 86.3483 29.8668 85.5808C29.8818 82.9558 30.2993 80.3483 30.7893 77.7708C30.9318 77.0258 31.0793 76.2684 31.0068 75.5134C30.8443 73.8284 28.9043 72.3608 28.5743 74.7733C28.2593 77.0908 28.2043 79.4733 28.0218 81.8058C27.9143 83.1708 27.8093 84.5383 27.7018 85.9033V85.9058Z" fill="#595651"/>
<path d="M29.5671 82.8806C29.5496 83.2781 29.5496 83.7131 29.7996 84.0206C29.8546 84.0881 29.9246 84.1507 30.0096 84.1707C30.1421 84.2007 30.2796 84.1181 30.3546 84.0056C30.4296 83.8931 30.4596 83.7556 30.4846 83.6231C30.6121 82.9556 31.4246 80.0781 30.5296 79.7231C29.6746 79.3856 29.5896 82.3306 29.5671 82.8806Z" fill="white"/>
<path d="M29.8001 88.728C29.7926 88.8455 29.7901 88.963 29.8151 89.078C29.8401 89.193 29.9001 89.3029 29.9951 89.3704C30.0301 89.3954 30.0676 89.413 30.1076 89.4205C30.1976 89.4355 30.2901 89.393 30.3501 89.328C30.4126 89.2605 30.4451 89.1729 30.4626 89.0854C30.5151 88.8254 30.4551 88.2379 30.1976 88.0804C29.8951 87.8954 29.8101 88.5505 29.7976 88.7305L29.8001 88.728Z" fill="white"/>
<path d="M55.0429 73.7932C54.8729 74.4632 55.0104 75.1682 55.0904 75.8582C55.1804 76.6407 55.1929 77.4282 55.2004 78.2157C55.2254 80.7557 55.2004 83.3156 54.6754 85.7981C54.5179 86.5456 54.3154 87.2857 54.2554 88.0457C54.1979 88.8057 54.2954 89.6032 54.6979 90.2507C54.9804 90.7032 55.5754 91.0856 56.0279 90.8031C56.2054 90.6931 56.3179 90.5032 56.4104 90.3132C57.1829 88.7232 56.9654 86.8582 56.8254 85.0957C56.6104 82.3607 56.6304 79.6082 56.8854 76.8782C56.9954 75.7082 57.2329 74.3182 56.8129 73.1832C56.3779 72.0082 55.2479 72.9682 55.0379 73.7932H55.0429Z" fill="#595651"/>
<path d="M56.317 76.2775C56.287 76.7325 56.272 77.19 56.2695 77.645C56.2695 77.98 56.2745 78.3225 56.382 78.6425C56.447 78.8325 56.597 79.04 56.7945 79.0075C56.8895 78.9925 56.9695 78.92 57.0295 78.845C57.2345 78.585 57.2995 78.245 57.347 77.9176C57.447 77.2376 57.4995 76.55 57.507 75.8625C57.512 75.5075 57.517 74.3525 56.8445 74.535C56.3445 74.67 56.342 75.8775 56.317 76.28V76.2775Z" fill="white"/>
<path d="M56.2327 86.9799C56.2327 87.1799 56.2502 87.3874 56.3552 87.5574C56.4577 87.7274 56.6727 87.8449 56.8602 87.7774C58.3452 87.2424 56.2052 84.0749 56.2327 86.9799Z" fill="#EFEFEF"/>
<path d="M17.2631 53.1677C18.0281 53.4977 18.8705 53.6452 19.6055 54.0402C21.4855 55.0527 22.2906 57.4752 24.2031 58.4277C26.2406 59.4427 28.6856 58.4177 30.9481 58.6677C34.2381 59.0277 36.5981 61.9502 39.5856 63.3727C41.6681 64.3652 44.0981 64.6052 46.3331 64.0402C49.9531 63.1252 52.9781 60.2202 56.7056 59.9952C57.0506 59.9752 57.4231 59.9852 57.7081 60.1827C58.1531 60.4902 58.213 61.1627 57.9705 61.6452C57.7305 62.1302 57.2681 62.4627 56.8056 62.7427C55.1606 63.7402 53.3105 64.3302 51.478 64.9152C49.8455 65.4352 48.2156 65.9527 46.5831 66.4727C43.7481 67.3752 40.5956 68.2627 37.8881 67.0302C36.0781 66.2077 34.8005 64.5727 33.478 63.0877C32.1555 61.6027 30.573 60.1427 28.6005 59.8902C26.738 59.6527 24.9406 60.5402 23.1206 61.0052C21.3006 61.4702 18.993 61.3152 18.0455 59.6927C17.3705 58.5377 17.6155 56.9727 16.803 55.9102C16.2205 55.1477 15.2331 54.8352 14.4431 54.2927C13.4156 53.5902 12.7006 52.4502 12.5106 51.2177C12.4306 50.6977 12.4531 50.1302 12.7456 49.6927C13.7381 48.2152 14.2881 49.8952 14.6356 50.6177C15.1756 51.7402 16.1156 52.6727 17.2631 53.1702V53.1677Z" fill="#4283B2"/>
<path d="M25.4622 36.7939C25.9227 34.8428 24.7143 32.8877 22.7631 32.4272C20.8119 31.9666 18.8569 33.1751 18.3963 35.1262C17.9358 37.0774 19.1443 39.0325 21.0954 39.493C23.0466 39.9535 25.0017 38.7451 25.4622 36.7939Z" fill="#FAA7A7"/>
<path d="M66.9392 36.5821C67.2604 34.6032 65.9166 32.7386 63.9378 32.4174C61.9589 32.0961 60.0942 33.44 59.773 35.4188C59.4518 37.3977 60.7956 39.2624 62.7745 39.5836C64.7534 39.9048 66.618 38.561 66.9392 36.5821Z" fill="#FAA7A7"/>
</svg>
