<svg width="108" height="182" viewBox="0 0 108 182" fill="none" xmlns="http://www.w3.org/2000/svg">
<path d="M75.3306 88.0003C75.2676 87.4108 74.8025 86.6214 74.3025 86.9407C74.0577 87.0986 74.0262 87.4389 74.0157 87.7301C73.764 95.2249 70.7881 101.078 66.9102 107.243C70.8371 108.878 72.7673 103.123 73.7709 100.393C75.2221 96.453 75.7851 92.1793 75.3306 88.0003Z" fill="#D24A43"/>
<path d="M98.9098 78.2423V140.478C98.9098 143.604 96.3606 146.159 93.2485 146.159H15.5383C12.4227 146.159 9.87695 143.601 9.87695 140.478V78.2423C9.87695 77.5756 9.99586 76.937 10.2022 76.344C10.989 74.1405 13.0906 72.5615 15.5383 72.5615H93.2485C93.5562 72.5615 93.8534 72.5861 94.1436 72.6317C95.7766 72.8984 97.1824 73.8668 98.0356 75.2212C98.5881 76.0984 98.9098 77.1335 98.9098 78.2423Z" fill="#6A9451"/>
<path d="M98.9094 78.2422V89.116C98.1646 88.9791 97.4198 88.7335 96.7204 88.4879C82.1211 83.2843 66.7735 79.9299 51.2791 79.6913C47.1038 79.6247 42.9216 79.7861 38.7604 80.1966C31.5219 80.9124 24.3464 82.365 17.4332 84.6422C15.0344 85.4387 12.3068 86.2317 9.87305 87.337V78.2457C9.87305 77.579 9.99196 76.9404 10.1983 76.3474C12.2894 74.8843 14.5413 73.6246 16.8982 72.565C21.7133 70.386 26.9586 69.0281 32.1933 68.3333C43.0999 66.8947 54.15 68.0351 65.137 68.6351C73.1413 69.0737 81.2189 69.2351 89.0344 71.0176C90.7723 71.4141 92.5207 71.9018 94.1397 72.6386C95.2168 73.1228 96.2343 73.7123 97.161 74.4562C97.4687 74.7018 97.7555 74.9579 98.0352 75.2281C98.5877 76.1053 98.9094 77.1404 98.9094 78.2492V78.2422Z" fill="#49722F"/>
<path d="M107.107 75.9686C106.729 77.2388 106.03 78.323 105.121 79.1546C103.369 80.7511 100.858 81.4143 98.4276 80.6599C84.0066 76.1792 43.912 66.2317 9.7444 81.1722C7.7582 82.0389 5.60067 81.7932 3.90821 80.7511C2.60039 79.9476 1.56881 78.6739 1.09674 77.0669C-0.364939 72.0774 -0.980395 64.7124 3.26826 56.2597C3.26826 56.2597 48.5732 18.2559 103.942 56.2597C103.942 56.2597 110.285 65.2563 107.11 75.9686H107.107Z" fill="#6A9451"/>
<path d="M11.2907 112.099C10.906 110.73 2.95422 113.836 2.01007 116.52C1.06593 119.204 5.78666 138.966 7.82881 139.724C9.87446 140.481 13.6475 138.776 13.6475 138.776C13.6475 138.776 13.6475 120.467 11.2872 112.102L11.2907 112.099Z" fill="#49722F"/>
<path d="M97.5717 112.099C97.9564 110.73 105.908 113.836 106.852 116.52C107.796 119.204 103.076 138.966 101.034 139.724C98.9879 140.481 95.2148 138.776 95.2148 138.776C95.2148 138.776 95.2148 120.467 97.5752 112.102L97.5717 112.099Z" fill="#49722F"/>
<path d="M107.107 75.9686C106.729 77.2388 106.03 78.323 105.121 79.1546C105.117 73.6844 104.446 68.2633 101.704 63.6177C98.9661 58.9861 94.3957 55.6492 89.4302 53.5965C84.4717 51.5404 79.1041 50.6737 73.7714 50.0983C56.7558 48.2667 39.2891 49.3018 22.9939 54.5509C16.6052 56.6071 10.1361 59.5124 6.04126 64.8563C2.78921 69.0984 1.31352 75.6423 3.82774 80.6002C3.85222 80.6529 3.88023 80.7055 3.90821 80.7511C2.60039 79.9476 1.56881 78.6739 1.09674 77.0669C-0.364939 72.0774 -0.980395 64.7124 3.26826 56.2597C3.26826 56.2597 48.5732 18.2559 103.942 56.2597C103.942 56.2597 110.285 65.2563 107.11 75.9686H107.107Z" fill="#8AB76C"/>
<path d="M32.4047 89.1231C32.5166 88.6143 32.653 88.0915 32.9747 87.6775C33.2964 87.2669 33.8489 86.9933 34.3455 87.1477C33.8524 88.7617 33.3804 90.4038 33.3279 92.0915C33.2265 95.3407 34.6777 98.4109 36.0939 101.337C37.108 103.428 38.1535 105.569 39.8355 107.169C38.8424 107.309 37.8528 107.499 36.8772 107.737C34.4643 108.33 39.0487 110.716 38.0451 108.225C37.8353 107.706 36.5974 107.337 36.1743 106.997C35.3106 106.302 34.835 105.379 34.3455 104.393C32.0166 99.7162 31.2893 94.2354 32.4082 89.1196L32.4047 89.1231Z" fill="#D24A43"/>
<path d="M90.7946 179.878H76.2547C76.2547 179.878 66.579 152.65 53.368 154.071C40.1535 155.492 31.1876 179.878 31.1876 179.878H17.3331C15.1336 167.587 16.4554 155.482 17.8227 148.074C17.8751 147.78 17.9311 147.495 17.9836 147.218C18.7249 143.425 19.4382 141.053 19.5886 140.811L87.8188 138.86C88.6441 141.702 89.3294 144.404 89.8889 146.962C89.9868 147.418 90.0882 147.867 90.1757 148.313C94.4453 168.882 90.7946 179.878 90.7946 179.878Z" fill="#FCCFA9"/>
<path d="M25.1648 179.881C25.1648 179.881 19.4824 176.804 15.4821 179.881C15.4821 179.881 13.0762 181.52 14.1952 181.895C14.9016 182.13 30.9486 181.895 30.9486 181.895L30.2492 179.881H25.1683H25.1648Z" fill="#AFAFAF"/>
<path d="M82.1646 179.881C82.1646 179.881 87.847 176.804 91.8473 179.881C91.8473 179.881 94.2531 181.52 93.1342 181.895C92.4278 182.13 76.3809 181.895 76.3809 181.895L77.0802 179.881H82.1611H82.1646Z" fill="#AFAFAF"/>
<path d="M90.1752 148.313C55.5146 152.713 27.7358 149.555 17.8223 148.078C17.8747 147.783 17.9307 147.499 17.9831 147.222C18.7245 143.429 19.4378 141.057 19.5882 140.815L87.8184 138.864C88.6436 141.706 89.329 144.408 89.8885 146.966C89.9864 147.422 90.0878 147.871 90.1752 148.316V148.313Z" fill="#DD9E6F"/>
<path d="M15.6465 116.909C15.6465 116.909 20.8603 111.667 30.1199 113.344L18.3495 121.481C18.3495 121.481 15.7479 137.751 15.6465 143.435C15.6465 143.435 66.8646 152.432 90.699 143.435C90.699 143.435 90.108 128.277 86.9224 120.291L77.8132 114.656L77.1313 112.025C77.1313 112.025 90.8144 113.958 93.0559 115.853C93.0559 115.853 93.3147 98.3334 75.841 86.1403C58.3708 73.9472 15.038 80.3262 15.643 116.912L15.6465 116.909Z" fill="#B55334"/>
<path d="M22.8009 126.285C22.8009 126.285 20.7168 128.941 17.0906 129.93C17.0906 129.93 15.7968 131.706 16.615 133.446C16.615 133.446 25.1403 131.081 26.4761 128.793C27.8119 126.506 22.7974 126.285 22.7974 126.285H22.8009Z" fill="#3C5F42"/>
<path d="M30.1204 113.344C30.1029 113.085 30.0784 112.811 29.921 112.607C29.7672 112.411 29.5189 112.316 29.2811 112.239C25.4801 111.007 15.6435 115.376 15.8428 116.393C16.6436 120.45 20.6125 124.804 23.9869 127.183C25.2318 128.06 26.9732 128.8 28.1831 127.878C28.9699 127.278 29.1902 126.207 29.3546 125.232C29.7252 123.021 30.1833 120.807 30.4736 118.586C30.6974 116.881 30.2393 115.074 30.1204 113.344Z" fill="#F1F5F9"/>
<path d="M84.0832 127.127C84.0832 127.127 85.9785 129.92 89.5313 131.155C89.5313 131.155 90.6992 133.014 89.7656 134.695C89.7656 134.695 81.4221 131.748 80.2437 129.372C79.0653 126.997 84.0832 127.123 84.0832 127.123V127.127Z" fill="#3C5F42"/>
<path d="M84.0831 92.4916C76.1104 108.274 77.065 114.513 77.065 114.513L75.4844 114.386C75.4844 114.386 73.9633 101.611 80.7227 89.0635C80.7227 89.0635 84.4853 91.6951 84.0831 92.4916Z" fill="#3C5F42"/>
<path d="M75.8446 85.3511C75.8446 85.3511 79.6281 86.7721 81.4569 89.7265L72.8058 108.274L68.9453 107.011L75.8446 85.3511Z" fill="#201600"/>
<path d="M77.1358 112.021C90.0916 113.404 92.7702 115.643 92.7702 115.643C92.5114 117.737 91.0498 120.622 90.0112 122.457C89.0496 124.155 87.9271 125.762 86.6647 127.25C85.4863 128.636 83.9547 130.018 82.1398 129.923C80.1886 129.822 78.6954 127.927 78.4192 125.987C78.2723 124.941 78.3947 123.878 78.2968 122.829C78.1989 121.808 77.8877 120.811 77.3911 119.916C77.0064 119.222 75.8595 118.362 75.842 117.576C75.8245 116.878 76.8106 115.797 77.0065 115.06C77.0764 114.8 77.2233 111.983 77.1323 112.025L77.1358 112.021Z" fill="#F1F5F9"/>
<path d="M15.2653 22.5433C14.3386 18.6029 13.6008 14.466 14.5624 10.5362C15.5241 6.60283 18.6117 2.92912 22.6261 2.51509C23.4688 2.42737 24.3326 2.48701 25.1403 2.73964C28.0987 3.66948 29.6303 6.86248 30.8227 9.73619C32.3928 13.5117 33.9628 17.2906 35.5294 21.0661C38.2115 27.5153 40.8936 33.975 44.0897 40.1855C40.6103 42.2487 37.8548 45.3189 34.7391 47.9049C33.0292 49.326 30.3017 51.947 28.0252 52.2698C25.9516 52.5646 25.1158 50.0523 24.42 48.5435C21.9512 43.2101 19.7273 37.7925 17.9369 32.189C16.9193 29.01 16.0276 25.7924 15.2653 22.5433Z" fill="white"/>
<path d="M21.6887 25.5716C21.1467 23.6067 20.6501 21.6067 20.6116 19.5716C20.5731 17.533 21.0277 15.4312 22.2341 13.7926C23.0209 12.7259 24.5386 11.8593 25.6156 12.6312C26.0037 12.9084 26.2415 13.347 26.4548 13.7751C27.5354 15.954 28.2837 18.2839 29.1824 20.5435C31.9798 27.5646 36.2984 34.0208 37.9944 41.3858C35.9697 42.5051 32.5043 50.1017 30.1824 47.6806C28.6403 46.0736 27.8571 43.0665 27.0108 41.0419C26.0142 38.6524 25.0911 36.2314 24.2378 33.7857C23.2937 31.0769 22.444 28.3366 21.6817 25.5716H21.6887Z" fill="#FAA7A7"/>
<path d="M94.7072 20.0662C95.6338 16.1259 96.3717 11.989 95.41 8.05914C94.4484 4.12578 91.3607 0.452074 87.3464 0.0380355C86.5036 -0.0496845 85.6399 0.00995949 84.8321 0.262593C81.8738 1.19242 80.3422 4.38543 79.1498 7.25914C77.5797 11.0346 76.0096 14.8136 74.4431 18.589C71.761 25.0382 69.0789 31.4979 65.8828 37.7085C69.3622 39.7717 72.1177 42.8419 75.2333 45.4278C76.9433 46.8489 79.6708 49.47 81.9472 49.7928C84.0209 50.0875 84.8566 47.5752 85.5525 46.0664C88.0213 40.7331 90.2452 35.3155 92.0356 29.7119C93.0532 26.533 93.9449 23.3154 94.7072 20.0662Z" fill="white"/>
<path d="M88.2823 23.0941C88.8243 21.1292 89.3209 19.1292 89.3594 17.0941C89.3978 15.0554 88.9432 12.9537 87.7368 11.3151C86.95 10.2484 85.4324 9.38172 84.3554 10.1537C83.9672 10.4309 83.7294 10.8695 83.5161 11.2975C82.4356 13.4765 81.6873 15.8063 80.7886 18.066C77.9911 25.0871 73.6725 31.5433 71.9766 38.9083C74.0012 40.0276 77.4666 47.6241 79.7885 45.203C81.3306 43.596 82.1139 40.589 82.9601 38.5644C83.9567 36.1749 84.8799 33.7538 85.7331 31.3082C86.6773 28.5994 87.527 25.859 88.2893 23.0941H88.2823Z" fill="#FAA7A7"/>
<path d="M25.1715 91.73C25.1715 91.73 31.0777 100.442 29.9168 112.604L30.1161 113.341L31.5078 113.19C31.5078 113.19 34.641 101.523 28.7558 88.5405C28.7558 88.5405 24.703 90.9651 25.168 91.73H25.1715Z" fill="#3C5F42"/>
<path d="M27.0293 89.3335C27.0293 89.3335 30.5681 84.9124 33.3201 85.3861L39.8312 107.169L35.6035 108.706L27.0293 89.33V89.3335Z" fill="#201600"/>
<path d="M88.5725 63.4069C88.5725 80.5369 73.2529 94.4212 54.3595 94.4212C35.4661 94.4212 20.1465 80.5334 20.1465 63.4069C20.1465 46.2805 35.8682 31.0874 54.7616 31.0874C73.655 31.0874 88.5725 46.277 88.5725 63.4069Z" fill="white"/>
<path d="M36.3817 66.0506C38.9724 64.9739 40.2027 61.9936 39.1295 59.394C38.0564 56.7944 35.0863 55.56 32.4956 56.6367C29.9049 57.7135 28.6746 60.6938 29.7477 63.2934C30.8208 65.893 33.791 67.1274 36.3817 66.0506Z" fill="#FAA7A7"/>
<path d="M75.7962 65.7193C78.6003 65.7193 80.8736 63.4383 80.8736 60.6246C80.8736 57.8108 78.6003 55.5298 75.7962 55.5298C72.992 55.5298 70.7188 57.8108 70.7188 60.6246C70.7188 63.4383 72.992 65.7193 75.7962 65.7193Z" fill="#FAA7A7"/>
<path d="M69.5367 106.102H39.6457C36.519 106.102 33.9844 108.645 33.9844 111.783V129.464C33.9844 132.601 36.519 135.144 39.6457 135.144H69.5367C72.6633 135.144 75.198 132.601 75.198 129.464V111.783C75.198 108.645 72.6633 106.102 69.5367 106.102Z" fill="#201600"/>
<path d="M69.5367 106.102H39.6457C36.519 106.102 33.9844 108.645 33.9844 111.783V124.197C33.9844 127.334 36.519 129.878 39.6457 129.878H69.5367C72.6633 129.878 75.198 127.334 75.198 124.197V111.783C75.198 108.645 72.6633 106.102 69.5367 106.102Z" fill="#312A20"/>
<path d="M50.2052 131.102C55.9719 131.102 60.6468 126.411 60.6468 120.625C60.6468 114.838 55.9719 110.147 50.2052 110.147C44.4385 110.147 39.7637 114.838 39.7637 120.625C39.7637 126.411 44.4385 131.102 50.2052 131.102Z" fill="#201600"/>
<path d="M58.949 120.625C58.949 128.179 49.9831 132.253 44.3148 127.102C42.5069 125.456 41.4648 123.105 41.4648 120.625C41.4648 112.425 51.833 108.681 57.0048 115.112C58.2182 116.614 58.949 118.551 58.949 120.625Z" fill="#C9C8C8"/>
<path d="M46.5422 123.292C45.7449 124.527 44.9581 125.783 44.3147 127.102C43.7482 126.587 43.2482 125.99 42.832 125.341C45.3952 122.457 47.9794 119.583 50.7559 116.906C49.3257 119.018 47.9199 121.148 46.5422 123.288V123.292Z" fill="#EFEFEF"/>
<path d="M52.0141 112.021C48.4858 116.93 43.0552 123.053 42.3419 124.449C41.8698 123.488 41.5761 122.421 41.4922 121.302C44.6813 117.319 46.5276 115.112 49.6433 111.874C50.3042 111.821 51.1959 111.842 52.0141 112.021Z" fill="#EFEFEF"/>
<path d="M55.1515 121.867C53.6233 124.25 51.8854 126.499 49.9622 128.573C49.9866 127.92 50.1545 127.271 50.4587 126.688C49.6999 127.513 48.9341 128.337 48.1753 129.155C47.0528 128.888 46.0107 128.401 45.1016 127.737C45.154 127.671 45.21 127.601 45.2624 127.534C48.7768 123.039 52.8471 119.015 57.0083 115.113C57.4139 115.615 57.7636 116.158 58.0468 116.741C55.7774 119.73 53.452 122.674 51.0672 125.583C52.5114 124.436 53.8786 123.197 55.155 121.867H55.1515Z" fill="#EFEFEF"/>
<path d="M69.2388 109.358H63.5599C62.5711 109.358 61.7695 110.163 61.7695 111.155V112.415C61.7695 113.407 62.5711 114.211 63.5599 114.211H69.2388C70.2276 114.211 71.0291 113.407 71.0291 112.415V111.155C71.0291 110.163 70.2276 109.358 69.2388 109.358Z" fill="#EFEFEF"/>
<path d="M38.3488 109.625C38.3488 110.13 37.9397 110.541 37.4361 110.541C36.9326 110.541 36.5234 110.13 36.5234 109.625C36.5234 109.12 36.9326 108.709 37.4361 108.709C37.9397 108.709 38.3488 109.12 38.3488 109.625Z" fill="#D24A43"/>
<path d="M25.1414 128.583C25.1414 128.583 19.029 120.891 24.7987 115.446C24.7987 115.446 33.4849 110.428 36.8628 115.358C36.8628 115.358 37.4118 117.656 35.2577 118.54C35.2577 118.54 38.0692 118.418 38.5553 120.667C39.0413 122.916 36.3977 123.639 36.3977 123.639C36.3977 123.639 39.0518 123.874 38.8525 125.814C38.6532 127.755 30.9706 134.169 25.1449 128.583H25.1414Z" fill="white"/>
<path d="M82.6612 129.776C82.6612 129.776 88.7737 122.085 83.0039 116.639C83.0039 116.639 74.3178 111.621 70.9398 116.551C70.9398 116.551 70.3908 118.85 72.5449 119.734C72.5449 119.734 69.7334 119.611 69.2474 121.86C68.7613 124.109 71.4049 124.832 71.4049 124.832C71.4049 124.832 68.7508 125.067 68.9501 127.008C69.1495 128.948 76.832 135.362 82.6577 129.776H82.6612Z" fill="white"/>
<path d="M37.5308 55.0034C38.8132 55.0034 39.8527 53.9603 39.8527 52.6736C39.8527 51.3868 38.8132 50.3438 37.5308 50.3438C36.2485 50.3438 35.209 51.3868 35.209 52.6736C35.209 53.9603 36.2485 55.0034 37.5308 55.0034Z" fill="#201600"/>
<path d="M70.7223 55.0034C72.0046 55.0034 73.0442 53.9603 73.0442 52.6736C73.0442 51.3868 72.0046 50.3438 70.7223 50.3438C69.4399 50.3438 68.4004 51.3868 68.4004 52.6736C68.4004 53.9603 69.4399 55.0034 70.7223 55.0034Z" fill="#201600"/>
<path d="M51.2691 60.1121C51.0768 59.7366 50.9159 59.3226 50.9579 58.9016C51.0348 58.1577 51.7727 57.6033 52.514 57.5612C53.2553 57.5191 53.9721 57.884 54.5351 58.3752C55.273 57.7401 56.2521 57.3892 57.2242 57.4138C57.483 57.4208 57.7523 57.4559 57.9761 57.5892C58.4097 57.8454 58.5705 58.3998 58.574 58.9016C58.5845 60.4945 56.9165 62.7928 55.308 63.1788C53.647 63.5788 52.0104 61.5788 51.2691 60.1156V60.1121Z" fill="#201600"/>
<path d="M49.2096 66.0453C48.5767 68.2874 51.4861 69.4173 53.2135 68.6383C55.7697 67.4839 55.2277 63.8944 55.1787 61.6312C55.1717 61.2523 54.5808 61.2488 54.5878 61.6312C54.6192 63.0102 54.7241 64.4944 54.4968 65.8558C54.336 66.8278 53.9059 67.6488 52.9757 68.0734C51.8253 68.6032 49.2446 68.0944 49.7761 66.2032C49.881 65.8348 49.311 65.6804 49.2061 66.0453H49.2096Z" fill="#201600"/>
<path d="M54.7458 62.7544C54.6094 64.8632 54.0219 67.8492 56.5571 68.7439C57.5362 69.0878 58.9245 69.0387 59.8477 68.5369C60.6904 68.0773 60.8163 67.1334 60.8757 66.2527C60.9002 65.8737 60.3092 65.8737 60.2848 66.2527C60.2148 67.3544 59.8477 67.9861 58.7252 68.2668C57.5607 68.558 56.2284 68.2668 55.5815 67.2141C54.8262 65.979 55.2458 64.1404 55.3332 62.7544C55.3577 62.3755 54.7668 62.3755 54.7423 62.7544H54.7458Z" fill="#201600"/>
</svg>
