<svg width="151" height="143" viewBox="0 0 151 143" fill="none" xmlns="http://www.w3.org/2000/svg">
<path d="M47.0923 114.457C45.4923 115.445 43.4473 114.667 41.6298 114.177C37.7823 113.152 33.5473 113.63 30.0273 115.502C29.7698 115.64 29.5198 115.782 29.2723 115.93C28.2123 116.562 27.2148 117.287 26.2223 118.025C25.3523 118.662 24.4873 119.302 23.5898 119.882C22.8723 120.342 22.1348 120.765 21.3573 121.117C19.4273 121.992 17.3248 122.385 15.2098 122.562C14.7098 122.605 14.2123 122.632 13.7123 122.657C12.8623 122.695 12.0023 122.705 11.1473 122.667C9.33729 122.597 7.53728 122.31 5.87478 121.612C3.42728 120.587 1.28477 118.515 0.762274 115.912C0.234774 113.31 1.71728 110.282 4.28228 109.59C4.90978 109.422 5.53228 109.395 6.15978 109.457C7.37228 109.577 8.57227 110.037 9.77477 110.507C10.4398 110.77 11.0998 111.03 11.7598 111.24C14.2823 112.027 17.0423 112.005 19.5648 111.22C20.4873 110.935 21.3748 110.55 22.2073 110.06C22.6773 109.79 23.1248 109.49 23.5573 109.167C23.7848 109 24.0098 108.83 24.2323 108.655C25.3098 107.8 26.3273 106.855 27.3873 105.965C28.0323 105.422 28.6973 104.905 29.4073 104.445C29.4398 104.425 29.4698 104.402 29.5023 104.382C35.7448 100.382 46.1198 101.137 48.4098 109.332C48.9173 111.157 48.7048 113.465 47.0948 114.457H47.0923Z" fill="#F57C00"/>
<path d="M50.0141 113.118C50.0141 113.118 41.6716 115.46 35.4816 115.945C33.1916 116.12 31.1916 116.045 30.0266 115.503C25.7166 113.493 21.5691 105.615 19.5641 97.6255C17.5591 89.6305 17.6016 70.418 17.6016 70.418H48.6491L48.7916 74.888L50.0116 113.118H50.0141Z" fill="#FF5A63"/>
<path d="M50.0148 113.117C50.0148 113.117 41.6723 115.46 35.4823 115.945C34.0948 113.265 32.9873 110.425 31.9523 107.587C30.8598 104.605 29.8299 101.592 28.9074 98.5523C27.3099 93.2798 26.0324 87.8948 25.3449 82.4223C25.0224 79.8323 24.5474 76.9448 24.7849 74.3323C24.9499 72.4748 26.5374 71.1623 28.1949 70.4173C28.3049 70.3698 28.4099 70.3223 28.5174 70.2798C30.2099 69.5898 32.0674 69.4248 33.8949 69.4298C35.8949 69.4298 37.8949 69.6248 39.8624 70.0048C40.4599 70.1198 41.0549 70.2523 41.6449 70.4173C42.4849 70.6448 43.3074 70.9298 44.0999 71.2998C45.9149 72.1498 47.4673 73.3948 48.7948 74.8873L50.0148 113.117Z" fill="#7B3F40"/>
<path d="M97.2055 103.765C97.2605 104.418 97.3131 105.093 97.1006 105.713C96.8881 106.333 96.3305 106.883 95.6755 106.873C95.518 106.873 95.3555 106.838 95.2055 106.883C94.9855 106.95 94.853 107.16 94.7205 107.348C94.3355 107.893 93.7805 108.358 93.1205 108.455C92.4605 108.55 91.713 108.175 91.548 107.528C91.008 108.108 90.203 108.635 89.4705 108.335C88.603 107.978 88.528 106.8 88.5955 105.865C88.043 106.015 87.4606 105.675 87.3556 105.113C87.1531 104.025 87.318 102.863 87.7455 101.835C88.308 100.48 89.2881 99.3326 90.3881 98.3601C91.2681 97.5826 92.2655 96.8901 93.408 96.6251C94.7955 96.3026 96.4256 96.6301 96.7231 98.1001C97.0931 99.9151 97.048 101.923 97.2055 103.77V103.765Z" fill="#F57C00"/>
<path d="M42.5543 46.4149C42.4743 46.4774 42.3868 46.5374 42.3068 46.5999C40.8493 47.7349 39.9643 49.5799 39.9943 51.4274C40.0143 52.5574 40.3268 53.7924 39.7193 54.7474C39.3443 55.3374 38.6843 55.6774 38.1668 56.1524C36.8268 57.3774 36.5268 59.3299 35.8193 61.0024C35.3168 62.1799 34.5793 63.2499 33.9193 64.3474C31.7968 67.8774 30.3618 71.8449 29.7568 75.9149C29.7368 76.0524 29.7193 76.1949 29.6993 76.3274C27.2943 76.0749 23.8993 75.4349 20.7868 73.8374C19.1818 73.0199 17.6468 71.9424 16.3643 70.5349C16.3643 70.5349 12.7493 45.6224 42.5568 46.4099L42.5543 46.4149Z" fill="#7B3F40"/>
<path d="M59.3017 82.6072L38.0742 77.6897C40.3792 75.2622 42.1317 72.2347 44.2217 69.5747C47.7717 65.0572 52.4367 61.4797 55.7342 56.7747C56.0617 56.3097 56.3842 55.7772 56.3142 55.2122C56.2667 54.8047 56.0092 54.4472 55.7542 54.1197C53.5742 51.3022 50.9092 48.8497 47.9142 46.9072C73.0617 51.2547 59.3017 82.6047 59.3017 82.6047V82.6072Z" fill="#9C4C4F"/>
<path d="M47.093 114.457C45.493 115.445 43.448 114.667 41.6305 114.177C37.783 113.152 33.548 113.63 30.028 115.502C29.7705 115.64 29.5205 115.782 29.273 115.93C27.183 114.015 25.5005 111.655 24.393 109.05C24.3355 108.912 24.278 108.78 24.2305 108.65C25.9705 107.272 27.543 105.657 29.4055 104.44C35.638 100.367 46.1105 101.09 48.408 109.327C48.9155 111.152 48.703 113.46 47.093 114.452V114.457Z" fill="#C45D00"/>
<path d="M99.7093 125.94L91.0668 126.377L89.8893 126.44C87.4418 121.727 84.6543 119 84.6543 119C80.6118 115.97 75.4143 118.117 70.4768 122.017C62.0968 128.64 54.4618 140.317 54.4618 140.317H46.6318C42.9268 131.89 41.7818 121.632 41.4818 114.325C41.2543 108.737 41.5243 104.875 41.5243 104.875C70.2768 112.805 89.8893 103.635 89.8893 103.635C90.3593 103.805 90.8068 103.987 91.2393 104.177C105.197 110.315 99.7093 125.942 99.7093 125.942V125.94Z" fill="#6DCBDA"/>
<path d="M51.7589 140.28C51.7589 140.28 57.4814 137.193 61.5089 140.28C61.5089 140.28 63.9314 141.923 62.8064 142.3C62.0939 142.538 45.9414 142.3 45.9414 142.3L46.6439 140.28H51.7614H51.7589Z" fill="#F57C00"/>
<path d="M96.8072 100.12C96.7597 100.325 96.7047 100.545 96.5447 100.685C96.4072 100.805 96.2197 100.84 96.0397 100.87C94.3497 101.137 92.6072 101.07 90.9422 100.675C90.5772 100.587 90.1847 100.465 89.9722 100.155C89.8147 99.9247 89.7872 99.6322 89.7647 99.3547C89.3947 94.6672 89.2947 89.9597 89.4597 85.2597C89.4722 84.9022 89.4897 84.5347 89.6447 84.2147C90.0322 83.4147 91.0722 83.2347 91.9597 83.1697C93.3147 83.0722 95.9322 82.4497 97.1722 83.2122C98.4722 84.0147 98.3972 86.4422 98.4672 87.7747C98.6872 91.9447 97.7422 96.0847 96.8072 100.12Z" fill="#F57C00"/>
<path d="M44.043 46.4779C43.7905 47.3229 42.808 47.8279 41.928 48.1304C39.2205 49.0604 36.3555 49.5704 33.7605 50.7854C28.9805 53.0279 25.5455 57.5179 23.493 62.3829C22.528 64.6729 21.8305 67.0679 21.278 69.4904C21.073 70.3829 21.003 72.2279 20.783 73.8429C19.178 73.0254 17.643 71.9479 16.3605 70.5404C16.3605 70.5404 12.6605 45.0429 43.603 46.4529C43.7505 46.4579 43.898 46.4679 44.0405 46.4754L44.043 46.4779Z" fill="#FF5A63"/>
<path d="M91.2368 104.177C70.9943 115.237 48.7268 114.687 41.4818 114.325C41.2543 108.737 41.5243 104.875 41.5243 104.875C70.2768 112.805 89.8893 103.635 89.8893 103.635C90.3593 103.805 90.8068 103.987 91.2393 104.177H91.2368Z" fill="#44A8B2"/>
<path d="M55.7348 56.7774C52.4373 61.4799 47.7723 65.0574 44.2223 69.5774C42.1323 72.2374 40.3798 75.2649 38.0748 77.6924L32.9098 76.4949C32.9098 76.4949 31.6223 76.5374 29.6973 76.3324C29.7173 76.1999 29.7348 76.0574 29.7548 75.9199C30.3573 71.8474 31.7923 67.8824 33.9173 64.3524C34.5773 63.2549 35.3148 62.1849 35.8173 61.0074C36.5248 59.3349 36.8248 57.3824 38.1648 56.1574C38.6823 55.6824 39.3423 55.3399 39.7173 54.7524C40.3248 53.7974 40.0123 52.5624 39.9923 51.4324C39.9648 49.5849 40.8473 47.7399 42.3048 46.6049C42.3848 46.5424 42.4723 46.4824 42.5523 46.4199C42.8998 46.4299 43.2448 46.4449 43.6023 46.4574C43.7498 46.4624 43.8973 46.4724 44.0398 46.4799C45.4223 46.5549 46.7148 46.7024 47.9123 46.9124C50.9048 48.8549 53.5698 51.3074 55.7523 54.1249C56.0098 54.4524 56.2648 54.8099 56.3123 55.2174C56.3848 55.7824 56.0598 56.3149 55.7323 56.7799L55.7348 56.7774Z" fill="#60302F"/>
<path d="M100.812 84.7922C98.1044 85.5372 95.9719 85.8647 94.5169 86.0072C93.0644 86.1447 92.2894 86.0972 92.2894 86.0972V86.1072C93.7444 97.1147 92.3369 103.632 92.3369 103.632C64.2169 117.937 44.0619 106.745 43.6819 106.34C43.6769 106.34 43.6769 106.335 43.6769 106.335C42.2469 104.05 42.2744 98.0497 42.5269 93.5972V93.5772C42.6969 90.6072 42.9644 88.3321 42.9644 88.3321C39.4244 88.3071 33.7194 87.3022 31.7469 86.9347C31.3044 86.8547 31.0494 86.8021 31.0494 86.8021C31.0494 86.8021 29.3769 78.0997 35.5719 64.9622C36.4594 63.0797 37.7519 61.4897 39.3619 60.1647C48.8119 52.3772 69.2794 53.5797 84.1769 56.8397C84.4569 56.9022 84.7319 56.9622 85.0094 57.0247C102.474 60.9872 100.812 84.7897 100.812 84.7897V84.7922Z" fill="#00563E"/>
<path d="M94.517 86.0105C93.0645 86.148 92.2896 86.1005 92.2896 86.1005C91.5396 82.6555 90.8645 79.1305 90.2695 75.6955C91.072 75.383 92.8345 80.1055 93.177 80.9305C93.847 82.5405 94.437 84.293 94.517 86.008V86.0105Z" fill="#003021"/>
<path d="M46.0888 107.365C45.6513 107.913 45.0388 108.41 44.3413 108.368C43.9613 108.345 43.6138 108.168 43.2813 107.993C42.4538 107.565 41.6088 107.123 40.9913 106.42C39.9613 105.253 39.7563 103.588 39.6188 102.035C39.2238 97.5029 39.0338 92.9554 39.0588 88.4054C39.0588 88.6154 43.9913 88.3579 44.5663 88.2729C45.2688 85.5079 45.8013 82.7054 46.1588 79.8779C46.3238 80.3954 46.4963 80.9229 46.6538 81.4554C47.3288 83.7454 47.7988 86.1254 47.1613 88.3929C46.4963 90.7354 44.6763 92.8404 44.9238 95.2629C45.0813 96.7604 46.0063 98.0479 46.6338 99.4154C46.6538 99.4579 46.6713 99.5004 46.6913 99.5479C47.7988 102.065 47.8113 105.22 46.0938 107.368L46.0888 107.365Z" fill="#003021"/>
<path d="M150.587 82.8926V142.403H74.127C74.127 142.403 77.3619 141.648 80.2894 140.043C81.8519 139.183 83.3244 138.085 84.1794 136.728C86.2119 133.493 86.4895 131.408 86.822 130.258V130.253C86.8895 130.02 86.9595 129.82 87.0445 129.663C87.182 129.42 88.407 128.973 90.157 128.45H90.167C95.142 126.945 104.302 124.778 104.302 124.778H110.064L110.439 124.425L115.194 119.95L115.267 119.883L115.624 115.145L115.644 114.903C115.644 114.903 117.522 113.543 119.659 112.4C120.914 111.73 122.257 111.133 123.364 110.928H123.369C123.459 110.913 123.549 110.9 123.634 110.89C123.634 110.89 123.079 99.6676 128.094 94.1251C130.617 91.3401 132.997 90.3426 134.907 89.6401C136.802 88.9476 138.232 88.5376 138.879 86.9426C139.032 86.5726 139.307 86.2301 139.672 85.9176C142.462 83.5601 150.589 82.8951 150.589 82.8951L150.587 82.8926Z" fill="#AFAFAF"/>
<path d="M100.342 134.857C100.084 135.502 99.8341 136.15 99.5816 136.8C94.4366 138.267 88.7691 137.11 83.7241 138.885C82.5891 139.285 81.4591 139.835 80.2891 140.04C81.8516 139.18 83.3241 138.082 84.1791 136.725C86.2116 133.49 86.4891 131.405 86.8216 130.255C87.6541 131.135 88.8741 132.422 89.1066 132.425C92.9591 132.482 96.8066 133.312 100.342 134.857Z" fill="#7F7E7C"/>
<path d="M111.714 125.353C110.417 126.16 109.509 127.57 109.319 129.088C106.829 129.905 104.142 129.11 101.547 128.76C99.099 128.428 96.6191 128.495 94.1541 128.533C93.4091 128.548 91.4741 128.723 90.1641 128.453C95.1391 126.948 104.299 124.78 104.299 124.78H110.062L110.437 124.428C110.812 124.823 111.212 125.173 111.714 125.355V125.353Z" fill="#7F7E7C"/>
<path d="M135.569 115.143C133.674 116.435 131.779 117.728 129.876 119.02C129.329 119.39 128.779 119.765 128.146 119.96C127.671 120.103 127.171 120.14 126.679 120.17C122.854 120.403 119.006 120.333 115.191 119.953L115.264 119.885L115.621 115.148C115.874 115.433 116.124 115.685 116.349 115.798C117.314 116.283 118.464 116.415 119.521 116.52C120.966 116.658 122.409 116.8 123.854 116.938C124.979 117.048 126.124 117.155 127.226 116.9C128.144 116.685 128.984 116.235 129.874 115.918C131.684 115.268 133.646 115.2 135.571 115.143H135.569Z" fill="#7F7E7C"/>
<path d="M123.36 110.928C122.253 111.133 120.908 111.73 119.655 112.4C119.535 112.375 119.423 112.358 119.303 112.333C119.568 112.333 121.355 110.708 122.09 110.66C122.555 110.633 122.97 110.745 123.358 110.925L123.36 110.928Z" fill="#C9C8C8"/>
<path d="M135.052 112.668C134.882 112.953 134.504 113.015 134.177 113.053C131.569 113.338 128.959 113.628 126.357 113.913C125.892 113.965 125.422 114.013 124.954 113.95C124.432 113.883 123.942 113.675 123.454 113.49C122.224 113.015 120.952 112.65 119.654 112.403C120.909 111.733 122.252 111.135 123.359 110.93H123.364C124.002 111.235 124.572 111.733 125.189 112.143C127.109 111.768 129.072 111.625 131.024 111.725C129.284 109.82 127.804 107.678 126.644 105.368C126.554 105.193 126.464 105.003 126.507 104.813C126.544 104.623 126.702 104.48 126.844 104.353C130.014 101.568 132.532 98.0427 134.142 94.1377C134.204 95.9577 133.877 97.7902 133.192 99.4727C132.584 100.97 131.677 102.423 131.687 104.038C131.697 105.33 132.299 106.538 132.889 107.69C133.564 109.01 134.234 110.333 134.909 111.653C135.074 111.97 135.237 112.36 135.057 112.67L135.052 112.668Z" fill="#7F7E7C"/>
<path d="M145.137 94.2475C142.922 93.53 141.442 91.425 139.35 90.4175C137.972 89.7575 136.447 89.61 134.902 89.6375C136.797 88.945 138.227 88.535 138.875 86.94C139.027 86.57 139.302 86.2275 139.667 85.915C140.027 86.9075 140.94 87.705 141.885 88.2425C143.087 88.9225 144.412 89.63 145.452 90.5325C144.862 91.6625 144.745 93.0325 145.135 94.2475H145.137Z" fill="#7F7E7C"/>
<path d="M147.822 111.897C147.522 113.817 147.224 115.735 146.924 117.655C146.844 118.192 146.749 118.757 146.407 119.175C146.079 119.58 145.579 119.792 145.097 119.972C142.432 120.99 139.599 121.682 137.234 123.265C135.647 124.33 134.327 125.755 132.674 126.71C130.404 128.025 127.694 128.34 125.249 129.29C125.007 129.385 124.749 129.495 124.594 129.702C124.379 129.992 124.399 130.387 124.432 130.742C124.574 132.435 124.744 134.215 125.709 135.617C125.909 135.907 126.147 136.192 126.222 136.535C126.439 137.49 125.409 138.222 124.512 138.61C124.222 138.737 123.894 138.9 123.799 139.205C123.732 139.427 123.814 139.67 123.894 139.89C124.204 140.725 124.512 141.567 124.822 142.402H110.109C110.284 141.187 110.462 140.055 110.699 139.705C111.769 138.147 114.434 138.375 115.169 136.46C115.349 135.995 115.339 135.482 115.464 134.997C115.872 133.387 117.579 132.47 118.367 131.017C118.842 130.142 118.979 129.08 119.639 128.332C120.314 127.567 121.374 127.31 122.362 127.065C128.952 125.402 135.147 122.49 141.294 119.597C142.287 119.127 143.274 118.662 144.264 118.195C144.934 117.882 145.637 117.54 146.069 116.935C147.139 115.447 146.274 112.862 147.827 111.9L147.822 111.897Z" fill="#C9C8C8"/>
<path d="M87.9369 57.943C87.9369 57.943 94.2969 88.9479 92.9444 95.3929C92.9444 95.3929 86.5719 59.018 82.2969 56.1055C82.2969 56.1055 86.0144 56.1855 87.9369 57.943Z" fill="#FF5A63"/>
<path d="M80.517 8.29758C80.517 9.19508 80.3595 10.0601 80.0695 10.8576C79.0195 13.7901 76.217 15.8876 72.9245 15.8876C71.4045 15.8876 69.9895 15.4401 68.7995 14.6726C66.7145 13.3176 65.332 10.9676 65.332 8.29758C65.332 4.10258 68.7295 0.705078 72.9245 0.705078C77.1195 0.705078 80.517 4.10258 80.517 8.29758Z" fill="#F57C00"/>
<path d="M44.0717 108.025C42.6667 108.23 41.2442 108.325 39.8242 108.305C39.1867 108.3 38.5417 108.268 37.9517 108.04C36.6542 107.54 35.8842 106.23 35.2867 104.975C32.8342 99.8504 31.6242 94.1379 31.7467 88.4554C31.7567 87.9479 31.7467 87.4329 31.7467 86.9404C33.7192 87.3054 39.4242 88.3129 42.9642 88.3379C42.7267 90.0779 42.5842 91.8304 42.5267 93.5829V93.6029C42.4567 95.7779 42.5217 97.9604 42.7267 100.125C42.8467 101.435 43.0167 102.743 43.2392 104.04C43.3667 104.81 43.5142 105.58 43.6817 106.345C43.7992 106.91 43.9342 107.47 44.0717 108.028V108.025Z" fill="#F57C00"/>
<path d="M84.1777 56.8426C83.9127 57.1751 83.6277 57.4926 83.3227 57.7876C81.8402 59.2501 80.0102 60.3201 78.1727 61.2976C73.4777 63.7976 68.5002 65.8576 63.2652 66.7701C58.4727 67.6051 53.4452 67.4351 48.8652 65.8301C48.4377 65.6776 48.0102 65.5176 47.5927 65.3401C44.5852 64.0751 41.9002 62.2002 39.3652 60.1677C40.8952 58.9077 42.7102 57.8826 44.7477 57.0651C55.2902 52.8226 71.6902 54.1101 84.1802 56.8426H84.1777Z" fill="#003021"/>
<path d="M80.0692 10.8576C79.0192 13.7901 76.2166 15.8876 72.9241 15.8876C71.4041 15.8876 69.9891 15.4401 68.7991 14.6726C68.4041 13.6176 68.1816 12.4301 68.1816 11.1751C68.1816 6.82761 70.8467 3.30762 74.1292 3.30762C77.4117 3.30762 79.9441 6.65764 80.0667 10.8576H80.0692Z" fill="#E9A854"/>
<path d="M95.3106 35.4699C95.3106 51.0774 82.2731 63.7274 66.1881 63.7274C56.4731 63.7274 47.8681 59.1148 42.5806 52.0223C41.3606 50.3873 40.3155 48.6199 39.478 46.7499C38.618 44.8499 37.9731 42.8399 37.5681 40.7499V40.7448C37.2356 39.0348 37.0605 37.2774 37.0605 35.4724C37.0605 35.1299 37.0656 34.7874 37.0806 34.4499C37.1481 32.6674 37.3806 30.9349 37.7706 29.2524C38.1606 27.5649 38.7055 25.9399 39.3905 24.3874C42.118 18.1924 47.058 13.1323 53.248 10.1548C54.8355 9.38485 56.5031 8.75735 58.2406 8.28235C58.5931 8.18235 58.948 8.09235 59.3055 8.00735C61.5155 7.48985 63.8181 7.21484 66.1906 7.21484C67.2631 7.21484 68.3281 7.27236 69.3731 7.38486C83.9631 8.91986 95.3131 20.9099 95.3131 35.4724L95.3106 35.4699Z" fill="#F57C00"/>
<path d="M69.7188 31.6877C70.8482 31.6877 71.7638 30.7721 71.7638 29.6426C71.7638 28.5132 70.8482 27.5977 69.7188 27.5977C68.5894 27.5977 67.6738 28.5132 67.6738 29.6426C67.6738 30.7721 68.5894 31.6877 69.7188 31.6877Z" fill="#201600"/>
<path d="M73.2966 39.3574C72.0141 41.6199 71.1616 44.3874 72.1141 46.8074C73.2366 49.6649 76.7366 51.1299 79.7416 50.4949C82.3991 49.9349 84.7091 48.0424 87.4216 47.8974C89.0841 47.8099 90.9441 48.3524 92.2966 47.3824C93.4491 46.5574 93.7116 44.9774 93.8391 43.5649C94.0291 41.4399 94.1241 39.2699 93.6016 37.2024C93.0816 35.1349 91.8641 33.1549 89.9816 32.1524C83.7616 28.8324 76.3066 34.0549 73.2966 39.3574Z" fill="#EDF9F6"/>
<path d="M89.89 27.6003C90.9684 27.6003 91.8425 26.7261 91.8425 25.6478C91.8425 24.5695 90.9684 23.6953 89.89 23.6953C88.8117 23.6953 87.9375 24.5695 87.9375 25.6478C87.9375 26.7261 88.8117 27.6003 89.89 27.6003Z" fill="#201600"/>
<path d="M82.9964 35.4247C82.9814 34.8322 83.5289 34.3823 84.0689 34.1398C85.1914 33.6348 86.4664 33.5972 87.6939 33.6722C90.5114 33.8447 88.7589 37.0572 87.2714 37.9947C85.6914 38.9897 83.0439 37.2447 82.9964 35.4247Z" fill="#201600"/>
<path d="M79.479 38.2727C79.479 38.5902 79.2215 38.8452 78.9065 38.8452C78.5915 38.8452 78.334 38.5877 78.334 38.2727C78.334 37.9577 78.5915 37.7002 78.9065 37.7002C79.2215 37.7002 79.479 37.9577 79.479 38.2727Z" fill="#201600"/>
<path d="M80.5178 43.06C80.8685 43.06 81.1528 42.7757 81.1528 42.425C81.1528 42.0743 80.8685 41.79 80.5178 41.79C80.1671 41.79 79.8828 42.0743 79.8828 42.425C79.8828 42.7757 80.1671 43.06 80.5178 43.06Z" fill="#201600"/>
<path d="M76.9699 43.0748C76.9699 43.4348 76.6774 43.7248 76.3199 43.7248C75.9624 43.7248 75.6699 43.4323 75.6699 43.0748C75.6699 42.7173 75.9624 42.4248 76.3199 42.4248C76.6774 42.4248 76.9699 42.7173 76.9699 43.0748Z" fill="#201600"/>
<path d="M79.479 46.4524C79.479 46.7699 79.2215 47.0249 78.9065 47.0249C78.5915 47.0249 78.334 46.7674 78.334 46.4524C78.334 46.1374 78.5915 45.8799 78.9065 45.8799C79.2215 45.8799 79.479 46.1374 79.479 46.4524Z" fill="#201600"/>
<path d="M92.5223 37.0475C92.5223 37.4075 92.4398 37.6975 92.3373 37.6975C92.2348 37.6975 92.1523 37.405 92.1523 37.0475C92.1523 36.69 92.2348 36.3975 92.3373 36.3975C92.4398 36.3975 92.5223 36.69 92.5223 37.0475Z" fill="#201600"/>
<path d="M93.6376 39.8055C93.6376 40.113 93.5276 40.363 93.3901 40.363C93.2526 40.363 93.1426 40.113 93.1426 39.8055C93.1426 39.498 93.2526 39.248 93.3901 39.248C93.5276 39.248 93.6376 39.498 93.6376 39.8055Z" fill="#201600"/>
<path d="M92.894 42.425C92.894 42.775 92.769 43.06 92.614 43.06C92.459 43.06 92.334 42.775 92.334 42.425C92.334 42.075 92.459 41.79 92.614 41.79C92.769 41.79 92.894 42.075 92.894 42.425Z" fill="#201600"/>
<path d="M66.2025 17.5623C66.535 18.0798 66.8625 18.6448 66.7675 19.2773C66.72 19.6198 66.52 19.9423 66.2075 20.0848C65.7075 20.3123 65.2675 20.0048 64.8975 19.7098C64.1225 19.0923 63.4 18.4174 62.7275 17.6949C60.11 14.8774 56.8275 12.0373 53.25 10.1498C54.8375 9.37984 56.505 8.75234 58.2425 8.27734C61.15 11.1573 64 14.1198 66.205 17.5598L66.2025 17.5623Z" fill="#201600"/>
<path d="M87.5051 45.2497C87.5051 45.2497 87.4801 45.2497 87.4676 45.2472C87.3376 45.2272 87.2501 45.1047 87.2701 44.9772C87.8701 41.0797 86.2626 38.4247 86.2451 38.3997C86.1751 38.2872 86.2101 38.1422 86.3226 38.0722C86.4351 38.0022 86.5801 38.0372 86.6501 38.1497C86.7201 38.2647 88.3651 40.9822 87.7401 45.0497C87.7226 45.1672 87.6201 45.2522 87.5051 45.2522V45.2497Z" fill="#201600"/>
<path d="M54.9091 12.82C54.9091 13.7175 54.7516 14.5825 54.4616 15.38C53.4116 18.3125 50.6091 20.41 47.3166 20.41C45.7966 20.41 44.3816 19.9625 43.1941 19.195C41.1091 17.84 39.7266 15.49 39.7266 12.82C39.7266 8.62504 43.1241 5.22754 47.3191 5.22754C51.5141 5.22754 54.9116 8.62504 54.9116 12.82H54.9091Z" fill="#F57C00"/>
<path d="M54.4631 15.3801C53.4131 18.3126 50.6106 20.4101 47.3181 20.4101C45.7981 20.4101 44.3831 19.9626 43.1956 19.1951C42.8006 18.1401 42.5781 16.9526 42.5781 15.6976C42.5781 11.3501 45.2431 7.83008 48.5256 7.83008C51.8081 7.83008 54.3406 11.1801 54.4631 15.3801Z" fill="#E9A854"/>
<path d="M72.8722 12.3704C70.7022 11.2304 68.5972 9.95288 66.5872 8.55038C66.1972 8.27538 65.7172 8.75539 65.9972 9.14539C66.7047 10.1279 67.6697 10.9754 68.5347 11.8529C69.4522 12.7829 70.3297 13.9254 70.6447 15.1554C70.8297 15.8679 69.9997 16.4154 69.4097 15.9729C68.4447 15.2504 67.6372 14.2804 66.7972 13.3979C64.6647 11.1554 62.1072 9.3179 59.3047 8.0054C61.5147 7.4879 63.8172 7.21289 66.1897 7.21289C67.2622 7.21289 68.3272 7.2704 69.3722 7.3829C70.9597 8.5279 72.4122 9.86789 73.6722 11.3729C73.6772 11.3779 73.6822 11.3829 73.6872 11.3879C74.1397 11.9304 73.5022 12.7004 72.8747 12.3704H72.8722Z" fill="#201600"/>
<path d="M56.0876 37.3173C55.8226 37.4848 55.4901 37.5072 55.1751 37.4922C54.2151 37.4497 53.2976 37.1173 52.4001 36.7848C47.2401 34.8698 42.1101 32.5948 37.7676 29.2498C38.1576 27.5623 38.7026 25.9373 39.3876 24.3848C40.9876 26.2323 42.9451 27.6673 45.0851 28.8423C47.7976 30.3298 50.7101 31.4273 53.4801 32.8198C54.7726 33.4698 56.1551 34.3298 56.5251 35.7323C56.6776 36.2973 56.5876 37.0048 56.0876 37.3198V37.3173Z" fill="#201600"/>
<path d="M55.6781 46.5847C55.2881 46.9597 54.7431 47.1122 54.2106 47.2072C49.7056 48.0097 45.3255 45.5597 41.403 43.2072C40.1005 42.4272 38.7906 41.6398 37.5681 40.7473V40.7422C37.2356 39.0322 37.0605 37.2748 37.0605 35.4698C37.0605 35.1273 37.0656 34.7848 37.0806 34.4473C38.9631 35.7348 41.058 36.7123 43.1705 37.5648C46.7805 39.0223 50.548 40.1822 53.8755 42.2072C54.6605 42.6822 55.443 43.2373 55.8905 44.0423C56.338 44.8398 56.3455 45.9573 55.6805 46.5898L55.6781 46.5847Z" fill="#201600"/>
<path d="M47.1591 88.3901C46.4941 90.7326 44.6741 92.8376 44.9216 95.2601C45.0791 96.7576 46.0041 98.0451 46.6316 99.4126C46.6516 99.4551 46.6691 99.4976 46.6891 99.5451C45.1641 101.75 43.8191 103.365 43.2391 104.04C43.0166 102.743 42.8441 101.438 42.7266 100.125C45.5966 92.7101 46.6566 86.5426 46.6516 81.4551C47.3266 83.7451 47.7966 86.1251 47.1591 88.3926V88.3901Z" fill="#9C4C4F"/>
<path d="M49.3816 52.468C48.9691 52.6855 48.4841 52.7006 48.0191 52.6956C46.1891 52.6806 44.3566 52.453 42.5791 52.0205C41.3591 50.3855 40.3141 48.618 39.4766 46.748C40.4466 47.0805 41.3066 47.4081 41.7891 47.5331C44.4391 48.2181 47.1666 48.9256 49.3866 50.6031C49.6441 50.7981 49.8991 51.0206 49.9841 51.3256C50.1066 51.7781 49.7941 52.2531 49.3816 52.4706V52.468Z" fill="#201600"/>
<path d="M37.8871 110.895C38.1396 111.5 38.4046 112.123 38.8821 112.573C39.3571 113.023 40.1071 113.253 40.6821 112.94C40.8196 112.865 40.9471 112.76 41.1021 112.733C41.3271 112.69 41.5446 112.815 41.7471 112.92C42.3396 113.225 43.0471 113.383 43.6771 113.163C44.3071 112.943 44.7971 112.263 44.6421 111.615C45.3896 111.88 46.3471 111.975 46.8571 111.37C47.4596 110.653 46.9821 109.573 46.4921 108.775C47.0496 108.653 47.4096 108.083 47.2421 107.535C46.9196 106.478 46.2346 105.525 45.3796 104.81C44.2546 103.868 42.8546 103.303 41.4296 102.953C40.2896 102.67 39.0846 102.518 37.9496 102.81C36.5696 103.165 35.2771 104.21 35.6921 105.65C36.2046 107.43 37.1721 109.19 37.8871 110.9V110.895Z" fill="#F57C00"/>
<path d="M91.0666 126.378L89.8891 126.44C87.4416 121.728 84.6541 119 84.6541 119C80.6116 115.97 75.4141 118.118 70.4766 122.018C71.8066 120.715 73.1991 119.485 74.6516 118.325C76.2141 117.08 77.8816 115.903 79.7866 115.295C81.6916 114.693 83.8916 114.735 85.5691 115.823C87.4116 117.02 88.3116 119.21 89.0991 121.263C89.7541 122.968 90.4091 124.673 91.0666 126.38V126.378Z" fill="#44A8B2"/>
<path d="M95.2042 126.151C95.2042 126.151 100.927 123.063 104.954 126.151C104.954 126.151 107.377 127.793 106.252 128.171C105.539 128.408 89.3867 128.171 89.3867 128.171L90.0892 126.151H95.2067H95.2042Z" fill="#F57C00"/>
<path d="M9.77469 110.506C9.39469 111.303 8.96219 112.073 8.48219 112.816C7.9047 113.708 7.7597 115.336 7.3772 116.383C7.1647 116.966 6.3147 116.888 6.2097 116.278C6.0747 115.491 5.8797 114.461 5.8597 113.833C5.8172 112.608 5.8872 111.381 6.0697 110.176C6.1022 109.948 6.1272 109.701 6.1597 109.458C7.3722 109.578 8.57219 110.038 9.77469 110.508V110.506Z" fill="#201600"/>
<path d="M15.2094 122.562C14.7094 122.605 14.2119 122.632 13.7119 122.657C12.8619 122.695 12.0019 122.705 11.1469 122.667C11.1094 121.595 11.1744 120.515 11.3519 119.45C11.3869 119.237 11.5469 118.79 11.7244 118.285C11.9744 117.577 12.9644 117.535 13.2719 118.222C13.9194 119.67 14.5669 121.117 15.2094 122.562Z" fill="#201600"/>
<path d="M26.2214 118.025C25.3514 118.663 24.4864 119.303 23.5889 119.883C22.7964 118.738 22.1014 117.523 21.5089 116.263C20.9339 115.033 20.0314 113.103 19.5664 111.218C20.4889 110.933 21.3764 110.548 22.2089 110.058C22.6789 109.788 23.1264 109.488 23.5589 109.165C24.2139 112.183 25.1089 115.148 26.2239 118.025H26.2214Z" fill="#201600"/>
<path d="M28.6694 107.71C28.3244 107.3 27.9744 106.87 27.6869 106.447C27.5044 106.18 27.5619 105.815 27.8119 105.612C28.3244 105.197 28.8519 104.802 29.4044 104.442C29.4369 104.422 29.4669 104.4 29.4994 104.38C29.6219 105.337 29.7144 106.297 29.7794 107.262C29.8194 107.867 29.0594 108.172 28.6694 107.71Z" fill="#201600"/>
<path d="M46.6895 99.545C46.6695 99.4975 46.652 99.455 46.632 99.4125C46.0045 98.045 45.0795 96.7575 44.922 95.26C44.6745 92.8375 46.4945 90.7325 47.1595 88.39C47.797 86.125 47.327 83.7425 46.652 81.4525C46.632 66.1975 37.042 60.625 37.9045 59.945C42.157 56.6 44.747 57.065 44.747 57.065C42.7095 57.8825 40.8945 58.9075 39.3645 60.1675C41.902 62.2 44.5845 64.0775 47.592 65.34C48.0095 65.515 48.437 65.6775 48.8645 65.83C50.922 70.8 53.027 77.0325 53.2445 82.1625C53.5095 88.3575 49.742 95.1225 46.6895 99.5425V99.545Z" fill="#FF5A63"/>
<path d="M48.8646 65.8326C48.4371 65.6801 48.0096 65.5201 47.5921 65.3426C44.5846 64.0776 40.8846 61.6401 38.3496 59.6051C42.3446 56.7076 43.6071 56.9226 44.5921 56.8301C44.5921 56.8301 46.7846 60.8001 48.8671 65.8301L48.8646 65.8326Z" fill="#9C4C4F"/>
<path d="M25.4543 71.4006C23.4243 70.7906 21.2793 71.9431 20.6668 73.9731L19.4718 77.9431C18.8618 79.9731 20.0143 82.1206 22.0443 82.7306C24.0743 83.3406 26.2218 82.1881 26.8318 80.1581L28.0268 76.1881C28.6368 74.1606 27.4843 72.0106 25.4543 71.4006ZM26.6619 75.7756L25.4668 79.7456C25.0818 81.0231 23.7318 81.7481 22.4543 81.3631C21.1768 80.9781 20.4518 79.6281 20.8368 78.3506L22.0318 74.3806C22.3693 73.2581 23.4543 72.563 24.5793 72.673C24.5743 72.6855 24.5643 72.6931 24.5618 72.7081L23.9693 74.6331C23.8918 74.8831 24.0318 75.1506 24.2843 75.2281C24.5343 75.3056 24.8018 75.1656 24.8793 74.9131L25.4718 72.9881C25.4768 72.9731 25.4718 72.9581 25.4768 72.9431C26.4793 73.4706 27.0043 74.6506 26.6643 75.7756H26.6619Z" fill="#60302F"/>
<path d="M47.9147 46.9099C46.7172 46.6999 45.4247 46.5524 44.0422 46.4774C43.8997 46.4674 43.7522 46.4574 43.6047 46.4549C43.2472 46.4399 42.9022 46.4274 42.5547 46.4174C43.1397 46.0124 43.8097 45.7274 44.5122 45.6799C45.7097 45.5999 46.8347 46.2124 47.8422 46.8624C47.8647 46.8774 47.8897 46.8949 47.9147 46.9099Z" fill="#7B3F40"/>
<path d="M25.1125 71.0275C23.0826 70.4175 20.9375 71.57 20.325 73.6L19.1301 77.57C18.5201 79.6 19.6725 81.7475 21.7025 82.3575C23.7325 82.9675 25.8801 81.815 26.4901 79.785L27.685 75.815C28.295 73.7875 27.1425 71.6375 25.1125 71.0275ZM26.3201 75.4025L25.125 79.3725C24.74 80.65 23.39 81.375 22.1126 80.99C20.835 80.605 20.11 79.255 20.495 77.9775L21.69 74.0075C22.0275 72.885 23.1125 72.19 24.2375 72.3C24.2325 72.3125 24.2225 72.32 24.22 72.335L23.6275 74.26C23.55 74.51 23.6901 74.7775 23.9426 74.855C24.1926 74.9325 24.4601 74.7925 24.5376 74.54L25.1301 72.615C25.1351 72.6 25.13 72.585 25.135 72.57C26.1375 73.0975 26.6625 74.2775 26.3225 75.4025H26.3201Z" fill="#9DC7E5"/>
</svg>
