<svg width="60" height="60" viewBox="0 0 60 60" fill="none" xmlns="http://www.w3.org/2000/svg">
<g clip-path="url(#clip0_472_1500)">
<rect x="3.38379" y="3.4082" width="52.7281" height="52.7281" rx="26.3641" fill="#0B5FFF"/>
<ellipse cx="26.3641" cy="25.1657" rx="26.3641" ry="25.1657" transform="matrix(1 0 0 -1 3.38379 51.3433)" fill="white" fill-opacity="0.2"/>
<ellipse cx="12.9781" cy="18.8162" rx="4.35162" ry="2.66987" transform="rotate(-44.69 12.9781 18.8162)" fill="white" fill-opacity="0.5"/>
<ellipse cx="18.0882" cy="13.3135" rx="2.34344" ry="1.50158" transform="rotate(-44.69 18.0882 13.3135)" fill="white" fill-opacity="0.5"/>
<g filter="url(#filter0_d_472_1500)">
<path d="M38.8098 20.4718L30.0278 25.6482V22.124C30.0278 20.6558 28.472 19.7393 27.2261 20.4734L14.534 27.955C13.2881 28.6891 13.2881 30.5236 14.534 31.2578L27.2261 38.7393C28.472 39.4735 30.0278 38.5554 30.0278 37.0887V33.5646L38.8098 38.7409C40.0557 39.475 41.6114 38.557 41.6114 37.0903V22.1287C41.6114 20.6604 40.0557 19.7439 38.8098 20.4781V20.4718Z" fill="white"/>
</g>
</g>
<rect x="1.73603" y="1.76045" width="56.0237" height="56.0237" rx="28.0118" stroke="white" stroke-width="3.29551"/>
<defs>
<filter id="filter0_d_472_1500" x="13.5996" y="20.2148" width="28.0117" height="20.1024" filterUnits="userSpaceOnUse" color-interpolation-filters="sRGB">
<feFlood flood-opacity="0" result="BackgroundImageFix"/>
<feColorMatrix in="SourceAlpha" type="matrix" values="0 0 0 0 0 0 0 0 0 0 0 0 0 0 0 0 0 0 127 0" result="hardAlpha"/>
<feOffset dy="1.3182"/>
<feComposite in2="hardAlpha" operator="out"/>
<feColorMatrix type="matrix" values="0 0 0 0 0 0 0 0 0 0 0 0 0 0 0 0 0 0 0.25 0"/>
<feBlend mode="normal" in2="BackgroundImageFix" result="effect1_dropShadow_472_1500"/>
<feBlend mode="normal" in="SourceGraphic" in2="effect1_dropShadow_472_1500" result="shape"/>
</filter>
<clipPath id="clip0_472_1500">
<rect x="3.38379" y="3.4082" width="52.7281" height="52.7281" rx="26.3641" fill="white"/>
</clipPath>
</defs>
</svg>
