<svg fill="none" xmlns="http://www.w3.org/2000/svg">
  <g clip-path="url(#clip0_395_1510)">
    <rect width="1280" height="800" fill="white" />
    <rect x="-151.973" y="397.643" width="1453.15" height="250.609" transform="rotate(1.48963 -151.973 397.643)"
      fill="#F1F5F9" />
    <path
      d="M1289.03 317.514C1276.95 309.688 1265.32 397.289 1265.32 397.289C1265.32 397.289 1269.19 356.649 1253.68 346.865C1238.16 337.082 1232.35 409.225 1232.35 409.225C1232.35 409.225 1230.93 348.822 1218.07 344.908C1205.2 340.995 1205.2 423.411 1205.2 423.411C1205.2 423.411 1175.68 375.511 1164.26 369.015C1152.83 362.519 1164.26 423.411 1164.26 423.411C1164.26 423.411 1145.08 394.883 1131.5 397.289C1117.92 399.696 1117.92 426.19 1117.92 426.19C1117.92 426.19 1114.8 416.759 1109.06 408.462C1112.92 376.587 1116.74 329.9 1105.14 335.105C1093.1 340.506 1084.2 381.499 1079.84 406.388C1081.99 389.854 1083.48 368.624 1076.85 368.995C1066.01 369.622 1031.45 423.392 1031.45 423.392C1031.45 423.392 1043.08 366.413 1031.45 368.995C1019.81 371.578 998.479 423.392 998.479 423.392C998.479 423.392 1019.81 335.105 998.479 339.019C977.146 342.932 969.214 425.446 969.214 425.446C969.214 425.446 955.813 348.802 936.419 358.586C917.025 368.369 924.783 425.446 924.783 425.446C924.783 425.446 918.965 391.85 905.389 397.27C891.814 402.69 884.056 426.17 884.056 426.17C884.056 426.17 884.056 399.677 870.481 397.27C856.905 394.863 837.725 423.392 837.725 423.392C837.725 423.392 849.148 362.499 837.725 368.995C826.302 375.492 796.785 423.392 796.785 423.392C796.785 423.392 796.785 340.975 783.907 344.889C771.03 348.802 769.634 409.206 769.634 409.206C769.634 409.206 763.816 337.062 748.301 346.845C732.786 356.629 736.665 397.27 736.665 397.27C736.665 397.27 725.028 309.668 712.946 317.495C709.96 319.432 707.167 327.709 704.646 339.077C703.424 335.497 701.562 333.892 698.866 335.105C686.823 340.506 677.921 381.499 673.558 406.388C675.71 389.854 677.204 368.624 670.571 368.995C659.73 369.622 625.17 423.392 625.17 423.392C625.17 423.392 636.807 366.413 625.17 368.995C613.534 371.578 592.201 423.392 592.201 423.392C592.201 423.392 613.534 335.105 592.201 339.019C570.868 342.932 562.936 425.446 562.936 425.446C562.936 425.446 549.535 348.802 530.142 358.586C510.748 368.369 518.505 425.446 518.505 425.446C518.505 425.446 512.687 391.85 499.112 397.27C485.536 402.69 477.779 426.17 477.779 426.17C477.779 426.17 477.779 399.677 464.203 397.27C450.628 394.863 431.447 423.392 431.447 423.392C431.447 423.392 442.87 362.499 431.447 368.995C420.025 375.492 390.507 423.392 390.507 423.392C390.507 423.392 390.507 340.975 377.63 344.889C364.753 348.802 363.356 409.206 363.356 409.206C363.356 409.206 357.538 337.062 342.023 346.845C326.508 356.629 330.387 397.27 330.387 397.27C330.387 397.27 318.751 309.668 306.669 317.495C301.394 320.9 296.739 344.047 293.151 369.054C294.121 348.43 292.841 331.896 285.685 335.105C273.641 340.506 264.74 381.499 260.376 406.388C262.529 389.854 264.022 368.624 257.389 368.995C246.548 369.622 211.989 423.392 211.989 423.392C211.989 423.392 223.625 366.413 211.989 368.995C200.353 371.578 179.02 423.392 179.02 423.392C179.02 423.392 200.353 335.105 179.02 339.019C157.687 342.932 149.755 425.446 149.755 425.446C149.755 425.446 136.354 348.802 116.96 358.586C97.5664 368.369 105.324 425.446 105.324 425.446C105.324 425.446 99.5058 391.85 85.9302 397.27C72.3547 402.69 64.5972 426.17 64.5972 426.17C64.5972 426.17 64.5972 399.677 51.0217 397.27C37.4461 394.863 18.2658 423.392 18.2658 423.392C18.2658 423.392 29.6886 362.499 18.2658 368.995C6.84293 375.492 -22.6742 423.392 -22.6742 423.392C-22.6742 423.392 -22.6742 340.975 -35.5516 344.889C-48.429 348.802 -49.8253 409.206 -49.8253 409.206C-49.8253 409.206 -55.6434 337.062 -71.1583 346.845C-86.6732 356.629 -82.7945 397.27 -82.7945 397.27C-82.7945 397.27 -94.4307 309.668 -106.513 317.495C-118.595 325.322 -106.513 436.854 -106.513 436.854H1289.03C1289.03 436.854 1301.12 325.322 1289.03 317.495V317.514Z"
      fill="#F1F5F9" />
    <rect x="-232.516" y="542.451" width="1701.06" height="333.539" transform="rotate(-2.5599 -232.516 542.451)"
      fill="#E2E8F0" />
    <rect x="-57" y="732" width="138" height="89" fill="#CBD5E1" />
    <path
      d="M122.085 698.59C114.147 693.465 87.2531 753.665 87.2531 753.665C87.2531 753.665 98.8917 688.811 89.9177 681.306C81.4425 674.214 76.3157 712.205 76.3157 712.205C76.3157 712.205 66.6175 664.658 60.5813 661.415C54.5451 658.173 40.5461 713.046 40.5461 713.046C40.5461 713.046 36.7362 652.583 31.1388 651.329C30.5509 651.213 29.1224 652.663 27.1555 655.376C27.8697 651.797 27.8532 649.434 26.8032 648.74C18.8866 643.563 -11.1125 708.556 -11.1125 708.556C-11.1125 708.556 3.51107 639.133 -5.3638 631.456C-13.7503 624.218 -20.5522 664.798 -20.5522 664.798C-20.5522 664.798 -28.4866 614.517 -34.5227 611.274C-40.5589 608.031 -57.1724 666.928 -57.1724 666.928C-57.1724 666.928 -58.5348 602.707 -64.2105 601.572C-70.1151 600.406 -168.792 768.817 -16.4559 757.002C-16.4559 757.002 -8.72059 741.445 0.280885 722.138C-6.26934 761.641 6.2931 802.366 83.8876 799.071C83.8876 799.071 130.178 703.777 122.069 698.554L122.085 698.59Z"
      fill="#CBD5E1" />
    <path
      d="M1310.97 567.417C1297.51 571.548 1340.33 659.973 1340.33 659.973C1340.33 659.973 1277.56 584.474 1260.4 587.503C1244.18 590.358 1282.57 632.658 1282.57 632.658C1282.57 632.658 1219.06 598.09 1209.57 601.859C1200.08 605.629 1249.2 674.242 1249.2 674.242C1249.2 674.242 1176.62 620.567 1169.82 625.745C1169.12 626.304 1169.41 629.323 1170.61 634.169C1167.22 629.92 1164.51 627.672 1162.71 628.203C1149.21 632.261 1194.52 728.824 1194.52 728.824C1194.52 728.824 1129.41 645.537 1112.14 648.289C1095.84 650.903 1135.57 697.597 1135.57 697.597C1135.57 697.597 1070.64 658.394 1061.15 662.164C1051.66 665.933 1102.86 741.388 1102.86 741.388C1102.86 741.388 1028.34 681.316 1021.6 686.698C1014.61 692.31 1111.91 966.402 1244.62 781.402C1244.62 781.402 1234.3 757.656 1220.93 728.869C1259.68 774.242 1318.16 798.998 1388.86 707.379C1388.86 707.379 1324.65 563.168 1310.91 567.4L1310.97 567.417Z"
      fill="#CBD5E1" />
    <path
      d="M216.027 632.052C219.159 634.129 258.615 606.595 250.817 600.698C247.556 598.221 216.682 625.66 216.682 625.66C216.682 625.66 218.584 598.269 211.377 600.874C203.402 603.75 210.258 628.232 216.011 632.052H216.027Z"
      fill="#CBD5E1" />
    <path
      d="M216.952 632.147C213.276 632.914 182.706 599.658 191.623 595.647C195.362 593.969 215.242 625.707 215.242 625.707C215.242 625.707 227.467 575.608 234.483 583.934C237.311 587.29 219.029 631.715 216.952 632.147Z"
      fill="#CBD5E1" />
    <path
      d="M608.258 704.296C610.576 705.833 639.772 685.458 634.001 681.095C631.589 679.262 608.743 699.566 608.743 699.566C608.743 699.566 610.15 679.298 604.817 681.225C598.917 683.354 603.99 701.469 608.247 704.296H608.258Z"
      fill="#CBD5E1" />
    <path
      d="M608.943 704.367C606.224 704.934 583.602 680.327 590.201 677.359C592.968 676.117 607.678 699.601 607.678 699.601C607.678 699.601 616.724 662.53 621.915 668.691C624.008 671.174 610.481 704.047 608.943 704.367Z"
      fill="#CBD5E1" />
    <path
      d="M25.6314 541.866C27.9491 543.403 57.1449 523.029 51.3743 518.665C48.962 516.833 26.1163 537.136 26.1163 537.136C26.1163 537.136 27.5234 516.868 22.1904 518.795C16.2897 520.924 21.3626 539.04 25.6196 541.866H25.6314Z"
      fill="#CBD5E1" />
    <path
      d="M26.3163 541.937C23.5966 542.505 0.975499 517.897 7.57382 514.929C10.3409 513.687 25.0511 537.172 25.0511 537.172C25.0511 537.172 34.0971 500.1 39.2883 506.261C41.3813 508.744 27.8536 541.618 26.3163 541.937Z"
      fill="#CBD5E1" />
    <path
      d="M872.6 629.759C874.918 631.296 904.114 610.922 898.343 606.558C895.931 604.726 873.085 625.029 873.085 625.029C873.085 625.029 874.492 604.761 869.159 606.689C863.258 608.817 868.331 626.933 872.588 629.759H872.6Z"
      fill="#CBD5E1" />
    <path
      d="M873.285 629.83C870.565 630.398 847.944 605.79 854.543 602.822C857.31 601.58 872.02 625.065 872.02 625.065C872.02 625.065 881.066 587.993 886.257 594.154C888.35 596.637 874.822 629.511 873.285 629.83Z"
      fill="#CBD5E1" />
    <path
      d="M1009.39 497.141C1011.1 498.273 1032.6 483.269 1028.35 480.055C1026.57 478.706 1009.75 493.658 1009.75 493.658C1009.75 493.658 1010.78 478.732 1006.85 480.151C1002.51 481.719 1006.25 495.06 1009.38 497.141H1009.39Z"
      fill="#CBD5E1" />
    <path
      d="M1009.89 497.194C1007.89 497.612 991.23 479.49 996.089 477.304C998.127 476.39 1008.96 493.685 1008.96 493.685C1008.96 493.685 1015.62 466.384 1019.44 470.921C1020.99 472.75 1011.02 496.959 1009.89 497.194Z"
      fill="#CBD5E1" />
    <path
      d="M1136 545.083C1137.7 546.215 1159.2 531.211 1154.95 527.997C1153.18 526.648 1136.35 541.6 1136.35 541.6C1136.35 541.6 1137.39 526.674 1133.46 528.093C1129.12 529.661 1132.85 543.002 1135.99 545.083H1136Z"
      fill="#CBD5E1" />
    <path
      d="M1136.5 545.136C1134.5 545.554 1117.84 527.432 1122.7 525.246C1124.73 524.332 1135.57 541.627 1135.57 541.627C1135.57 541.627 1142.23 514.326 1146.05 518.863C1147.59 520.692 1137.63 544.901 1136.5 545.136Z"
      fill="#CBD5E1" />
    <rect x="1217" y="711" width="63" height="89" fill="#CBD5E1" />
  </g>
  <defs>
    <clipPath id="clip0_395_1510">
      <rect width="1280" height="800" fill="white" />
    </clipPath>
  </defs>
</svg>