<svg width="227" viewBox="0 0 227 120" fill="none" xmlns="http://www.w3.org/2000/svg">
  <path
    d="M-82 120H307.151C307.387 112.214 307.664 23.6374 308 15.8516L307.981 15.7544C304.446 15.4153 301.973 17.8829 300.472 20.1523C299.643 21.408 299.106 22.6028 298.852 23.2278H298.497C297.571 20.8288 292.925 9.78454 285.382 9.33485C276.925 8.84704 277.519 20.7106 277.519 20.7106C277.519 20.7106 271.396 17.5894 267.364 17.5494C267.005 16.7986 266.519 16.0612 265.851 15.4057C265.199 14.7674 264.377 14.2072 263.336 13.7842C257.289 11.307 243.403 24.1843 243.403 24.1843C243.403 24.1843 247.018 3.89087 234.336 0.438124C221.63 -3.03558 210.765 15.2876 210.765 15.2876C210.765 15.2876 209.561 5.3943 202.906 5.3943C196.246 5.3943 187.793 21.7262 187.793 21.7262C187.793 21.7262 178.131 9.41297 167.86 12.1054C157.585 14.7998 162.428 27.1702 162.428 27.1702C162.428 27.1702 150.949 20.2419 141.288 27.1702H117.721C117.721 27.1702 121.949 22.2712 118.315 20.2419C112.566 17.0235 105.632 27.1702 105.632 27.1702C105.632 27.1702 106.246 16.7701 99.5864 15.7945C93.8567 14.9351 90.8163 21.4328 90.1025 23.2468H89.7475C88.8215 20.8478 84.1568 9.8036 76.6329 9.35581C68.1754 8.868 68.7696 20.7297 68.7696 20.7297C68.7696 20.7297 60.1577 16.3204 56.6582 17.921C55.9868 16.3204 54.7444 14.7407 52.4526 13.8032C46.4065 11.3261 32.5009 24.2034 32.5009 24.2034C32.5009 24.2034 36.1355 3.91183 23.4299 0.457179C10.7475 -3.01653 -0.137001 15.3066 -0.137001 15.3066C-0.137001 15.3066 -1.34081 5.41335 -7.9965 5.41335C-14.656 5.41335 -23.1097 21.7453 -23.1097 21.7453C-23.1097 21.7453 -32.7711 9.43393 -43.0613 12.1264C-53.3362 14.8188 -48.4939 27.1893 -48.4939 27.1893C-48.4939 27.1893 -59.9726 20.2628 -69.6532 27.1893H-82V120Z"
    fill="#000" />
</svg>