<svg width="320" height="72" viewBox="0 0 320 72" fill="none" xmlns="http://www.w3.org/2000/svg">
<path d="M45.0849 1.48501C40.3374 -1.25549 34.2624 0.369009 31.5219 5.11651L1.6284 56.898C-1.1121 61.6455 0.512402 67.7205 5.2644 70.461C10.0119 73.2015 16.0869 71.577 18.8274 66.825L52.7034 8.14501C50.6109 5.42701 48.0099 3.17251 45.0849 1.48501Z" fill="#0B5FFF"/>
<path d="M60.3883 27.9313C55.6408 25.1908 49.5658 26.8153 46.8253 31.5628L32.1733 56.9383C29.4328 61.6858 31.0573 67.7608 35.8093 70.5013C40.5568 73.2418 46.6318 71.6173 49.3723 66.8653L68.0068 34.5868C65.9143 31.8688 63.3133 29.6143 60.3883 27.9268V27.9313Z" fill="#06AFBC"/>
<path d="M76.3008 53.3242C71.5533 50.5837 65.4783 52.2082 62.7378 56.9602C59.9973 61.7077 61.6218 67.7827 66.3738 70.5232C71.1213 73.2637 77.1963 71.6392 79.9368 66.8872C82.6773 62.1397 81.0528 56.0647 76.3008 53.3242Z" fill="#0B5FFF"/>
<path d="M101.043 17.9237H113.004V12.4382H101.043V6.13366H115.06V0.472656H94.7832V30.4877H115.362V24.8267H101.043V17.9237Z" fill="black"/>
<path d="M144.922 4.65316C143.621 3.32566 142.078 2.29516 140.291 1.56616C138.505 0.837156 136.511 0.472656 134.311 0.472656H122.008V30.4877H134.311C136.511 30.4877 138.514 30.1232 140.314 29.3942C142.114 28.6652 143.657 27.6347 144.944 26.3072C146.231 24.9797 147.217 23.3912 147.901 21.5462C148.585 19.7012 148.931 17.6807 148.931 15.4802C148.931 13.2797 148.589 11.2232 147.901 9.39166C147.217 7.56466 146.222 5.98516 144.922 4.65316ZM141.857 19.2962C141.484 20.4392 140.935 21.4067 140.206 22.1897C139.477 22.9772 138.599 23.5892 137.569 24.0347C136.538 24.4802 135.382 24.7007 134.095 24.7007H128.434V6.26416H134.095C135.382 6.26416 136.538 6.48466 137.569 6.93016C138.599 7.37566 139.477 7.99666 140.206 8.79316C140.935 9.59416 141.484 10.5572 141.857 11.6867C142.226 12.8162 142.415 14.0807 142.415 15.4802C142.415 16.8797 142.231 18.1532 141.857 19.2962Z" fill="black"/>
<path d="M159.734 30.4877H166.165V6.26416H175.169V0.472656H150.986V6.26416H159.734V30.4877Z" fill="black"/>
<path d="M201.069 24.8267H186.746V17.9237H198.707V12.4382H186.746V6.13366H200.768V0.472656H180.486V30.4877H201.069V24.8267Z" fill="black"/>
<path d="M210.005 26.5635C211.364 27.9495 212.961 29.0205 214.806 29.781C216.651 30.537 218.672 30.915 220.872 30.915C222.33 30.915 223.775 30.735 225.201 30.3795C226.632 30.024 227.924 29.529 229.08 28.899C230.237 28.269 231.159 27.5715 231.848 26.7975L228.72 21.78C228.149 22.3785 227.496 22.9095 226.767 23.364C226.038 23.823 225.246 24.1785 224.387 24.435C223.527 24.6915 222.645 24.822 221.727 24.822C220.328 24.822 219.05 24.6015 217.889 24.156C216.732 23.715 215.738 23.085 214.91 22.2705C214.082 21.456 213.438 20.4705 212.979 19.314C212.52 18.1575 212.291 16.8615 212.291 15.435C212.291 14.0085 212.529 12.7575 212.997 11.5965C213.47 10.44 214.104 9.4545 214.905 8.64C215.706 7.8255 216.642 7.191 217.713 6.732C218.784 6.2775 219.936 6.048 221.165 6.048C222.078 6.048 222.942 6.183 223.757 6.4575C224.571 6.7275 225.341 7.1145 226.07 7.614C226.799 8.1135 227.505 8.7075 228.194 9.3915L232.226 4.932C231.398 3.9015 230.403 3.0195 229.247 2.2725C228.09 1.53 226.817 0.963 225.431 0.5805C224.045 0.1935 222.636 0 221.21 0C219.009 0 216.966 0.387 215.081 1.1565C213.195 1.926 211.553 3.006 210.149 4.392C208.749 5.778 207.66 7.407 206.891 9.279C206.117 11.151 205.734 13.1895 205.734 15.39C205.734 17.5905 206.108 19.728 206.85 21.627C207.593 23.526 208.646 25.173 210 26.559L210.005 26.5635Z" fill="black"/>
<path d="M262.591 30.4877V0.472656H256.161V12.6092H243.682V0.472656H237.252V30.4877H243.682V18.4367H256.161V30.4877H262.591Z" fill="black"/>
<path d="M96.9709 41.5625H95.2969V71.573H98.6404V58.199H112.145V54.896H98.6404V44.8205H114.161V41.5625H98.6404H96.9709Z" fill="black"/>
<path d="M143.293 45.6127C141.965 44.2267 140.404 43.1557 138.622 42.3952C136.835 41.6392 134.869 41.2612 132.727 41.2612C130.585 41.2612 128.659 41.6392 126.877 42.3952C125.09 43.1512 123.533 44.2267 122.206 45.6127C120.878 46.9987 119.848 48.6277 119.119 50.4997C118.39 52.3717 118.025 54.4237 118.025 56.6512C118.025 58.8787 118.39 60.9307 119.119 62.8027C119.848 64.6747 120.878 66.2992 122.206 67.6672C123.533 69.0397 125.095 70.1062 126.877 70.8622C128.663 71.6182 130.612 71.9962 132.727 71.9962C134.842 71.9962 136.835 71.6182 138.622 70.8622C140.408 70.1062 141.965 69.0352 143.293 67.6447C144.62 66.2587 145.651 64.6297 146.38 62.7577C147.109 60.8857 147.473 58.8517 147.473 56.6467C147.473 54.4417 147.109 52.3672 146.38 50.4952C145.651 48.6232 144.62 46.9942 143.293 45.6082V45.6127ZM143.167 61.4752C142.609 62.9467 141.83 64.2247 140.831 65.3137C139.832 66.3982 138.635 67.2352 137.249 67.8202C135.863 68.4052 134.356 68.6977 132.727 68.6977C131.098 68.6977 129.59 68.4052 128.204 67.8202C126.818 67.2352 125.626 66.3982 124.622 65.3137C123.623 64.2292 122.849 62.9512 122.309 61.4752C121.765 60.0037 121.495 58.3972 121.495 56.6512C121.495 54.9052 121.765 53.2582 122.309 51.7867C122.854 50.3152 123.623 49.0372 124.622 47.9482C125.621 46.8637 126.814 46.0177 128.204 45.4192C129.59 44.8207 131.098 44.5192 132.727 44.5192C134.356 44.5192 135.863 44.8207 137.249 45.4192C138.635 46.0177 139.828 46.8637 140.831 47.9482C141.83 49.0372 142.609 50.3152 143.167 51.7867C143.725 53.2582 144.004 54.8827 144.004 56.6512C144.004 58.4197 143.725 60.0037 143.167 61.4752Z" fill="black"/>
<path d="M170.625 58.5635C171.997 57.776 173.082 56.714 173.883 55.3685C174.684 54.023 175.084 52.5245 175.084 50.8685C175.084 49.0955 174.67 47.5115 173.842 46.1075C173.014 44.708 171.894 43.601 170.476 42.7865C169.063 41.972 167.484 41.5625 165.738 41.5625H153.988V71.573H157.332V59.738H165.535L172.299 71.573H176.286L169.122 59.2385C169.644 59.0585 170.148 58.8335 170.625 58.559V58.5635ZM157.332 44.8205H165.306C166.534 44.8205 167.628 45.077 168.586 45.5945C169.545 46.1075 170.296 46.823 170.836 47.7365C171.381 48.65 171.651 49.694 171.651 50.864C171.651 51.953 171.421 52.916 170.962 53.7575C170.503 54.599 169.873 55.265 169.077 55.751C168.276 56.237 167.349 56.48 166.291 56.48H157.332V44.816V44.8205Z" fill="black"/>
<path d="M220.834 57.5782C220.807 57.2767 220.776 57.0157 220.749 56.7862H207.541V60.0892H217.401V60.7327C217.401 61.8487 217.158 62.8927 216.672 63.8602C216.186 64.8322 215.497 65.6827 214.615 66.4117C213.729 67.1407 212.694 67.7032 211.506 68.1037C210.318 68.5042 209.053 68.7022 207.712 68.7022C205.998 68.7022 204.396 68.4007 202.911 67.8022C201.426 67.2037 200.116 66.3532 198.987 65.2507C197.857 64.1527 196.984 62.8657 196.372 61.3942C195.756 59.9227 195.45 58.3432 195.45 56.6557C195.45 54.9682 195.751 53.3032 196.35 51.8317C196.948 50.3602 197.794 49.0867 198.879 48.0157C199.963 46.9447 201.228 46.1077 202.672 45.5092C204.117 44.9107 205.678 44.6092 207.366 44.6092C208.45 44.6092 209.544 44.7802 210.646 45.1222C211.744 45.4642 212.797 45.9367 213.796 46.5352C214.795 47.1337 215.695 47.8492 216.496 48.6772L218.724 46.4047C217.981 45.4327 217.009 44.5597 215.808 43.7902C214.606 43.0207 213.27 42.4177 211.798 41.9902C210.327 41.5627 208.833 41.3467 207.316 41.3467C205.174 41.3467 203.163 41.7247 201.291 42.4807C199.419 43.2367 197.79 44.3032 196.404 45.6757C195.018 47.0482 193.933 48.6682 193.146 50.5402C192.358 52.4122 191.967 54.4507 191.967 56.6512C191.967 58.8517 192.358 60.8902 193.146 62.7622C193.933 64.6342 195.04 66.2542 196.467 67.6267C197.898 68.9992 199.554 70.0702 201.439 70.8442C203.325 71.6137 205.368 72.0007 207.568 72.0007C209.454 72.0007 211.2 71.6947 212.797 71.0782C214.399 70.4617 215.803 69.5932 217.023 68.4637C218.238 67.3342 219.187 65.9932 219.871 64.4317C220.56 62.8747 220.902 61.1647 220.902 59.3062C220.902 59.0497 220.893 58.7707 220.879 58.4692C220.866 58.1677 220.843 57.8707 220.816 57.5692L220.834 57.5782Z" fill="black"/>
<path d="M250.007 45.6127C248.679 44.2267 247.118 43.1557 245.331 42.3952C243.545 41.6392 241.578 41.2612 239.436 41.2612C237.294 41.2612 235.368 41.6392 233.586 42.3952C231.8 43.1512 230.243 44.2267 228.911 45.6127C227.583 46.9987 226.553 48.6277 225.824 50.4997C225.095 52.3717 224.73 54.4237 224.73 56.6512C224.73 58.8787 225.095 60.9307 225.824 62.8027C226.553 64.6747 227.583 66.2992 228.911 67.6672C230.238 69.0397 231.795 70.1062 233.586 70.8622C235.373 71.6182 237.321 71.9962 239.436 71.9962C241.551 71.9962 243.545 71.6182 245.331 70.8622C247.118 70.1062 248.675 69.0352 250.007 67.6447C251.334 66.2587 252.365 64.6297 253.094 62.7577C253.823 60.8857 254.187 58.8517 254.187 56.6467C254.187 54.4417 253.823 52.3672 253.094 50.4952C252.365 48.6232 251.334 46.9942 250.007 45.6082V45.6127ZM249.876 61.4752C249.318 62.9467 248.54 64.2247 247.541 65.3137C246.537 66.3982 245.345 67.2352 243.959 67.8202C242.573 68.4052 241.065 68.6977 239.436 68.6977C237.807 68.6977 236.3 68.4052 234.914 67.8202C233.528 67.2352 232.335 66.3982 231.332 65.3137C230.333 64.2292 229.559 62.9512 229.019 61.4752C228.474 60.0037 228.204 58.3972 228.204 56.6512C228.204 54.9052 228.474 53.2582 229.019 51.7867C229.563 50.3152 230.333 49.0372 231.332 47.9482C232.331 46.8637 233.528 46.0177 234.914 45.4192C236.3 44.8207 237.807 44.5192 239.436 44.5192C241.065 44.5192 242.573 44.8207 243.959 45.4192C245.345 46.0177 246.537 46.8637 247.541 47.9482C248.54 49.0372 249.318 50.3152 249.876 51.7867C250.434 53.2582 250.713 54.8827 250.713 56.6512C250.713 58.4197 250.434 60.0037 249.876 61.4752Z" fill="black"/>
<path d="M283.661 45.6127C282.334 44.2267 280.772 43.1557 278.986 42.3952C277.199 41.6392 275.233 41.2612 273.091 41.2612C270.949 41.2612 269.023 41.6392 267.241 42.3952C265.454 43.1512 263.897 44.2267 262.565 45.6127C261.238 46.9987 260.207 48.6277 259.478 50.4997C258.749 52.3717 258.385 54.4237 258.385 56.6512C258.385 58.8787 258.749 60.9307 259.478 62.8027C260.207 64.6747 261.238 66.2992 262.565 67.6672C263.893 69.0397 265.45 70.1062 267.241 70.8622C269.027 71.6182 270.976 71.9962 273.091 71.9962C275.206 71.9962 277.199 71.6182 278.986 70.8622C280.772 70.1062 282.329 69.0352 283.661 67.6447C284.989 66.2587 286.019 64.6297 286.748 62.7577C287.477 60.8857 287.842 58.8517 287.842 56.6467C287.842 54.4417 287.477 52.3672 286.748 50.4952C286.019 48.6232 284.989 46.9942 283.661 45.6082V45.6127ZM283.531 61.4752C282.973 62.9467 282.194 64.2247 281.195 65.3137C280.192 66.3982 278.999 67.2352 277.613 67.8202C276.227 68.4052 274.72 68.6977 273.091 68.6977C271.462 68.6977 269.954 68.4052 268.568 67.8202C267.182 67.2352 265.99 66.3982 264.986 65.3137C263.987 64.2292 263.213 62.9512 262.673 61.4752C262.129 60.0037 261.859 58.3972 261.859 56.6512C261.859 54.9052 262.129 53.2582 262.673 51.7867C263.218 50.3152 263.987 49.0372 264.986 47.9482C265.985 46.8637 267.182 46.0177 268.568 45.4192C269.954 44.8207 271.462 44.5192 273.091 44.5192C274.72 44.5192 276.227 44.8207 277.613 45.4192C278.999 46.0177 280.192 46.8637 281.195 47.9482C282.194 49.0372 282.973 50.3152 283.531 51.7867C284.089 53.2582 284.368 54.8827 284.368 56.6512C284.368 58.4197 284.089 60.0037 283.531 61.4752Z" fill="black"/>
<path d="M318.67 50.5211C317.982 48.6941 317.014 47.1056 315.754 45.7601C314.494 44.4146 313.018 43.3796 311.317 42.6506C309.616 41.9216 307.735 41.5571 305.679 41.5571H294.361V71.5676H305.679C307.735 71.5676 309.625 71.2031 311.34 70.4741C313.054 69.7451 314.535 68.7146 315.777 67.3871C317.019 66.0596 317.986 64.4711 318.67 62.6306C319.354 60.7856 319.701 58.7651 319.701 56.5646C319.701 54.3641 319.359 52.3481 318.67 50.5211ZM315.475 61.3661C314.944 62.7971 314.202 64.0301 313.248 65.0741C312.289 66.1181 311.146 66.9191 309.819 67.4771C308.491 68.0351 307.038 68.3141 305.467 68.3141H297.705V44.8196H305.467C307.038 44.8196 308.482 45.0986 309.796 45.6566C311.11 46.2146 312.253 47.0156 313.225 48.0596C314.197 49.1036 314.949 50.3411 315.475 51.7676C316.002 53.1986 316.267 54.7961 316.267 56.5691C316.267 58.3421 316.002 59.9396 315.475 61.3706V61.3661Z" fill="black"/>
</svg>
