<svg width="60" height="60" viewBox="0 0 60 60" fill="none" xmlns="http://www.w3.org/2000/svg">
<g clip-path="url(#clip0_472_1514)">
<rect x="3.88672" y="3.4082" width="52.7281" height="52.7281" rx="26.3641" fill="#0B5FFF"/>
<ellipse cx="26.3641" cy="25.1657" rx="26.3641" ry="25.1657" transform="matrix(1 0 0 -1 3.88672 51.3433)" fill="white" fill-opacity="0.2"/>
<ellipse cx="13.4811" cy="18.8157" rx="4.35162" ry="2.66987" transform="rotate(-44.69 13.4811 18.8157)" fill="white" fill-opacity="0.5"/>
<ellipse cx="18.5912" cy="13.3135" rx="2.34344" ry="1.50158" transform="rotate(-44.69 18.5912 13.3135)" fill="white" fill-opacity="0.5"/>
<g filter="url(#filter0_d_472_1514)">
<path d="M19.9039 20.7964L28.7893 25.8819V22.4196C28.7893 20.9771 30.3634 20.0767 31.6239 20.798L44.4653 28.1483C45.7258 28.8695 45.7258 30.6719 44.4653 31.3931L31.6239 38.7435C30.3634 39.4647 28.7893 38.5627 28.7893 37.1218V33.6595L19.9039 38.745C18.6434 39.4662 17.0693 38.5643 17.0693 37.1233V22.4242C17.0693 20.9817 18.6434 20.0813 19.9039 20.8026V20.7964Z" fill="white"/>
</g>
</g>
<rect x="2.23896" y="1.76045" width="56.0237" height="56.0237" rx="28.0118" stroke="white" stroke-width="3.29551"/>
<defs>
<filter id="filter0_d_472_1514" x="17.0693" y="20.5439" width="28.3418" height="19.7733" filterUnits="userSpaceOnUse" color-interpolation-filters="sRGB">
<feFlood flood-opacity="0" result="BackgroundImageFix"/>
<feColorMatrix in="SourceAlpha" type="matrix" values="0 0 0 0 0 0 0 0 0 0 0 0 0 0 0 0 0 0 127 0" result="hardAlpha"/>
<feOffset dy="1.3182"/>
<feComposite in2="hardAlpha" operator="out"/>
<feColorMatrix type="matrix" values="0 0 0 0 0 0 0 0 0 0 0 0 0 0 0 0 0 0 0.25 0"/>
<feBlend mode="normal" in2="BackgroundImageFix" result="effect1_dropShadow_472_1514"/>
<feBlend mode="normal" in="SourceGraphic" in2="effect1_dropShadow_472_1514" result="shape"/>
</filter>
<clipPath id="clip0_472_1514">
<rect x="3.88672" y="3.4082" width="52.7281" height="52.7281" rx="26.3641" fill="white"/>
</clipPath>
</defs>
</svg>
