<svg width="132" height="132" viewBox="0 0 132 132" fill="none" xmlns="http://www.w3.org/2000/svg">
<path d="M57.0937 4.82487C61.9121 -0.330619 70.0879 -0.330622 74.9063 4.82487L82.6424 13.1022C85.0456 15.6735 88.4429 17.0807 91.9605 16.9618L103.284 16.5792C110.336 16.3408 116.117 22.1219 115.879 29.1746L115.496 40.4978C115.378 44.0153 116.785 47.4126 119.356 49.8158L127.633 57.5519C132.789 62.3704 132.789 70.5461 127.633 75.3646L119.356 83.1007C116.785 85.5039 115.378 88.9012 115.496 92.4187L115.879 103.742C116.117 110.795 110.336 116.576 103.284 116.337L91.9605 115.955C88.4429 115.836 85.0456 117.243 82.6424 119.814L74.9063 128.092C70.0879 133.247 61.9121 133.247 57.0937 128.092L49.3576 119.814C46.9544 117.243 43.5571 115.836 40.0395 115.955L28.7163 116.337C21.6637 116.576 15.8826 110.795 16.1209 103.742L16.5036 92.4187C16.6225 88.9012 15.2153 85.5039 12.6439 83.1007L4.36662 75.3646C-0.788871 70.5461 -0.788874 62.3704 4.36662 57.552L12.6439 49.8158C15.2153 47.4126 16.6225 44.0153 16.5036 40.4978L16.1209 29.1746C15.8826 22.122 21.6637 16.3408 28.7163 16.5792L40.0395 16.9618C43.5571 17.0807 46.9544 15.6735 49.3576 13.1022L57.0937 4.82487Z" fill="#06B0BD"/>
</svg>
