<svg width="37" height="37" viewBox="0 0 37 37" fill="none" xmlns="http://www.w3.org/2000/svg">
<rect x="0.845703" y="0.771973" width="36" height="36" rx="18" fill="#06B0BD"/>
<path d="M22.6576 12.5859L25.7723 10.2741C26.408 9.80247 27.2928 9.95329 27.748 10.6119L28.1054 11.1293C28.5608 11.7879 28.4152 12.7043 27.7793 13.1757L24.6646 15.4876C24.0289 15.9591 23.1441 15.8083 22.6889 15.1498L22.3315 14.6323C21.8761 13.9738 22.0217 13.0575 22.6576 12.5859Z" fill="white"/>
<path d="M14.7659 13.9815L18.1993 10.8946C19.0951 10.087 20.4939 10.7132 20.542 11.9427L21.1003 26.4723C21.1481 27.7018 19.7992 28.4406 18.8444 27.7094L14.9041 24.6911C14.6203 24.4754 14.272 24.382 13.92 24.4124C12.595 24.5308 9.1651 24.3895 8.52743 19.9014C7.86205 15.211 12.4494 14.4569 13.9403 14.3366C14.1 14.3238 14.2544 14.2842 14.3987 14.2199C14.531 14.161 14.6548 14.081 14.7659 13.9815Z" fill="white"/>
<path d="M28.0464 16.9616H24.2148C23.4335 16.9616 22.7994 17.6184 22.7994 18.4276V19.0634C22.7994 19.8728 23.4335 20.5296 24.2148 20.5296H28.0464C28.8278 20.5296 29.4619 19.8728 29.4619 19.0634V18.4276C29.4619 17.6184 28.8278 16.9616 28.0464 16.9616Z" fill="white"/>
<path d="M28.2861 23.1104L24.6203 21.9536C23.8739 21.7168 23.0815 22.154 22.8547 22.9292L22.676 23.5381C22.4474 24.3112 22.8694 25.1302 23.6178 25.3669L27.2834 26.5239C28.0298 26.7605 28.8205 26.3233 29.049 25.5483L29.2278 24.9393C29.4563 24.1661 29.0343 23.3472 28.2861 23.1104Z" fill="white"/>
</svg>
