<svg id="Layer_1" data-name="Layer 1" xmlns="http://www.w3.org/2000/svg" viewBox="0 0 512 512"><defs><style>.cls-1{fill:#bd8a49;}.cls-2{fill:#847c76;}.cls-3{fill:#a87742;}.cls-4{fill:#4a2f11;}.cls-5{fill:#d6d6d6;}.cls-6{fill:#63472b;}.cls-7{fill:#ddaf8a;}.cls-8{fill:#783220;}.cls-9{fill:#683c07;}.cls-10{fill:#e1e5e1;}.cls-11{fill:#5e2c10;}.cls-12{fill:#895c2c;}.cls-13{fill:#c6c1ba;}.cls-14{fill:#726a65;}.cls-15{fill:#684c31;}</style></defs><rect class="cls-1" x="391.73" y="274.06" width="1.97" height="43.84"/><rect class="cls-1" x="401" y="282.22" width="1.97" height="43.84"/><rect class="cls-1" x="410.27" y="290.38" width="1.97" height="43.84"/><rect class="cls-1" x="419.54" y="298.54" width="1.97" height="43.84"/><rect class="cls-1" x="428.81" y="306.7" width="1.97" height="43.84"/><rect class="cls-1" x="438.08" y="314.86" width="1.97" height="43.84"/><rect class="cls-1" x="447.34" y="323.01" width="1.97" height="43.84"/><rect class="cls-1" x="456.61" y="331.17" width="1.97" height="43.84"/><rect class="cls-1" x="465.88" y="339.33" width="1.97" height="43.84"/><rect class="cls-1" x="475.15" y="347.49" width="1.97" height="43.84"/><rect class="cls-1" x="484.42" y="355.65" width="1.97" height="43.84"/><rect class="cls-1" x="493.69" y="363.81" width="1.97" height="43.84"/><rect class="cls-2" x="439.24" y="289.54" width="5.18" height="142.81" transform="translate(-121.15 453.44) rotate(-48.58)"/><rect class="cls-1" x="442.22" y="248.93" width="2.22" height="139.34" transform="translate(-88.65 441.26) rotate(-48.69)"/><rect class="cls-1" x="59.76" y="161.64" width="331.98" height="160.44"/><rect class="cls-3" x="64.19" y="178.9" width="2.34" height="139"/><rect class="cls-3" x="93.38" y="178.9" width="2.35" height="139"/><rect class="cls-3" x="122.56" y="178.9" width="2.36" height="139"/><rect class="cls-3" x="151.74" y="178.9" width="2.36" height="139"/><rect class="cls-3" x="180.92" y="178.9" width="2.37" height="139"/><rect class="cls-3" x="210.11" y="178.9" width="2.38" height="139"/><rect class="cls-3" x="239.29" y="178.9" width="2.39" height="139"/><rect class="cls-3" x="268.47" y="178.9" width="2.39" height="139"/><rect class="cls-3" x="297.66" y="178.9" width="2.4" height="139"/><rect class="cls-3" x="326.84" y="178.9" width="2.41" height="139"/><rect class="cls-3" x="356.02" y="178.9" width="2.42" height="139"/><rect class="cls-3" x="385.2" y="178.9" width="2.42" height="139"/><rect class="cls-4" x="120.88" y="227.69" width="48.63" height="41.9"/><path class="cls-4" d="M376.45,312.23H240.9V220.55a11.83,11.83,0,0,1,11.83-11.83H364.62a11.82,11.82,0,0,1,11.83,11.83Z"/><path class="cls-5" d="M294.14,209.89c0,6.26-6.51,11.33-14.54,11.33s-14.54-5.07-14.54-11.33Z"/><path class="cls-5" d="M323.22,209.89c0,6.26-6.51,11.33-14.54,11.33s-14.54-5.07-14.54-11.33Z"/><path class="cls-5" d="M352.3,209.89c0,6.26-6.51,11.33-14.54,11.33s-14.54-5.07-14.54-11.33Z"/><rect class="cls-1" x="245.91" y="282.65" width="1.97" height="28.4"/><rect class="cls-1" x="257.16" y="282.65" width="1.97" height="28.4"/><rect class="cls-1" x="268.41" y="282.65" width="1.97" height="28.4"/><rect class="cls-1" x="279.66" y="282.65" width="1.97" height="28.4"/><rect class="cls-1" x="290.9" y="282.65" width="1.97" height="28.4"/><rect class="cls-1" x="302.15" y="282.65" width="1.97" height="28.4"/><rect class="cls-1" x="313.4" y="282.65" width="1.97" height="28.4"/><rect class="cls-1" x="324.65" y="282.65" width="1.97" height="28.4"/><rect class="cls-1" x="335.89" y="282.65" width="1.97" height="28.4"/><rect class="cls-1" x="347.14" y="282.65" width="1.97" height="28.4"/><rect class="cls-1" x="358.39" y="282.65" width="1.97" height="28.4"/><rect class="cls-1" x="369.64" y="282.65" width="1.97" height="28.4"/><rect class="cls-1" x="307.69" y="214.88" width="1.97" height="135.55" transform="translate(26.03 591.33) rotate(-90)"/><rect class="cls-1" x="307.69" y="225.48" width="1.97" height="135.55" transform="translate(15.43 601.93) rotate(-90)"/><path class="cls-6" d="M120.88,269.59l-14.52,9a2,2,0,0,1-3-1.66V223a2,2,0,0,1,2.74-1.79l14.76,6.44Z"/><path class="cls-6" d="M169.51,269.59l14.52,9a2,2,0,0,0,3-1.66V223a2,2,0,0,0-2.73-1.79l-14.77,6.44Z"/><rect class="cls-5" x="120.88" y="227.69" width="48.63" height="1.23"/><rect class="cls-7" x="111.39" y="241.87" width="1.48" height="17.57" transform="translate(-147.5 340.07) rotate(-84.9)"/><rect class="cls-7" x="169.48" y="249.92" width="17.57" height="1.48" transform="translate(-21.57 16.83) rotate(-5.1)"/><path class="cls-8" d="M428.31,169c-4.49,6.56-11.11,5.26-12,4.81l-.09,0h0L398,162.37A80,80,0,0,1,373.19,138l-18.3-28.33v-6.09l-1.56-1.66-1.56,1.66V109H91.57v-5.5L90,101.87l-1.56,1.66v6.09L70.14,138a80,80,0,0,1-24.77,24.42L27.1,173.8h0l-.08,0c-.88.45-7.51,1.75-12-4.81,0,0-1.16,8.71,4.09,9.75l-.16.11H424.38l-.17-.11C429.47,177.75,428.31,169,428.31,169Z"/><rect class="cls-9" x="59.76" y="317.9" width="333.95" height="4.19"/><path class="cls-5" d="M242.05,241.86s19.88-5.83,23-32h-12a11,11,0,0,0-11,11Z"/><path class="cls-5" d="M375.3,241.86s-19.88-5.83-23-32h12.35a10.64,10.64,0,0,1,10.65,10.65Z"/><polygon class="cls-10" points="116.82 353.09 59.76 410.13 393.71 410.13 339.14 353.09 116.82 353.09"/><polygon class="cls-11" points="26.49 178.9 26.49 182.04 59.76 189 59.76 178.9 26.49 178.9"/><polygon class="cls-11" points="425.01 178.9 425.01 182.04 391.73 189 391.73 178.9 425.01 178.9"/><rect class="cls-12" x="66.17" y="322.09" width="9.37" height="80.1"/><rect class="cls-12" x="86.95" y="322.09" width="7.07" height="57.75"/><rect class="cls-12" x="106.15" y="322.09" width="4.89" height="40.05"/><rect class="cls-13" x="64.32" y="399.78" width="12.82" height="2.58"/><rect class="cls-14" x="62.28" y="402.07" width="16.88" height="2.58"/><rect class="cls-13" x="85.94" y="379.24" width="8.79" height="2.15"/><rect class="cls-14" x="84.55" y="381.14" width="11.58" height="2.15"/><rect class="cls-13" x="105.09" y="361.54" width="7.17" height="1.71"/><rect class="cls-12" x="227.31" y="322.09" width="3.37" height="40.67"/><rect class="cls-13" x="226.49" y="362.49" width="4.7" height="1.21"/><rect class="cls-14" x="225.75" y="363.56" width="6.19" height="1.21"/><rect class="cls-14" x="103.96" y="363.05" width="9.45" height="1.71"/><rect class="cls-12" x="378.49" y="322.09" width="9.37" height="80.1"/><rect class="cls-12" x="360" y="322.09" width="7.07" height="57.75"/><rect class="cls-12" x="342.98" y="322.09" width="4.89" height="40.05"/><rect class="cls-12" x="232.03" y="322.09" width="4.76" height="57.75"/><rect class="cls-13" x="376.89" y="399.78" width="12.82" height="2.58"/><rect class="cls-14" x="374.85" y="402.07" width="16.88" height="2.58"/><rect class="cls-13" x="359.28" y="379.24" width="8.79" height="2.15"/><rect class="cls-13" x="230.64" y="379.24" width="7.73" height="2.15"/><rect class="cls-14" x="229.41" y="381.14" width="10.19" height="2.15"/><rect class="cls-14" x="357.89" y="381.14" width="11.58" height="2.15"/><rect class="cls-13" x="341.75" y="361.54" width="7.17" height="1.71"/><rect class="cls-14" x="340.62" y="363.05" width="9.45" height="1.71"/><rect class="cls-12" x="238.06" y="322.09" width="9.37" height="80.1"/><rect class="cls-13" x="236.46" y="399.78" width="12.82" height="2.58"/><rect class="cls-14" x="234.42" y="402.07" width="16.88" height="2.58"/><rect class="cls-15" x="70.73" y="322.09" width="4.81" height="77.7"/><rect class="cls-15" x="90.34" y="322.09" width="3.68" height="57.16"/><rect class="cls-15" x="108.6" y="322.09" width="2.42" height="39.43"/><rect class="cls-15" x="238.06" y="322.09" width="4.81" height="77.7"/><rect class="cls-15" x="232.01" y="322.09" width="2.4" height="57.16"/><rect class="cls-15" x="227.31" y="322.09" width="1.53" height="40.05"/><rect class="cls-15" x="378.49" y="322.09" width="4.68" height="77.7"/><rect class="cls-15" x="360" y="322.09" width="3.53" height="57.16"/><rect class="cls-15" x="342.98" y="322.09" width="2.36" height="39.45"/></svg>