<svg id="Layer_1" data-name="Layer 1" xmlns="http://www.w3.org/2000/svg" viewBox="0 0 512 512"><defs><style>.cls-1{fill:#eadbce;}.cls-2{fill:#bd8a49;}.cls-3{fill:#8c603c;}.cls-4{fill:#726a65;}.cls-5{fill:#5f3712;}.cls-6{fill:#383432;}.cls-7{fill:#783220;}.cls-8{fill:#442a0f;}.cls-9{fill:#204c77;}.cls-10{fill:#966a3b;}.cls-11{fill:#744f2c;}.cls-12{fill:#4f3721;}.cls-13{fill:#704826;}.cls-14{fill:#5c380d;}.cls-15{fill:#8b5f39;}.cls-16{fill:#a67846;}.cls-17{fill:#4c301b;}.cls-18{fill:#c2915d;}.cls-19{fill:#7c5831;}.cls-20{fill:#6b5c4a;}.cls-21{fill:#c4894e;}</style></defs><polygon class="cls-1" points="114.06 323.31 398.54 322.9 413.8 366.95 98.8 366.95 114.06 323.31"/><rect class="cls-2" x="85.53" y="107.88" width="341.62" height="174.22"/><rect class="cls-3" x="92.58" y="282.1" width="13.36" height="82.31"/><rect class="cls-3" x="111.55" y="282.1" width="5.02" height="41.16"/><polygon class="cls-4" points="110.01 366.95 87.59 366.95 90.66 346.26 107.65 346.26 110.01 366.95"/><polygon class="cls-4" points="119.04 326.49 109.09 326.49 110.84 316.87 117.29 316.87 119.04 326.49"/><rect class="cls-5" x="98.8" y="282.1" width="7.14" height="64.16"/><polygon class="cls-6" points="98.8 366.95 110.01 366.95 107.65 346.26 98.8 346.26 98.8 366.95"/><rect class="cls-5" x="114.06" y="282.1" width="2.51" height="34.76"/><polygon class="cls-6" points="114.06 316.87 114.06 326.49 119.04 326.49 117.29 316.87 114.06 316.87"/><rect class="cls-3" x="406.65" y="282.1" width="13.36" height="82.31"/><rect class="cls-3" x="396.02" y="282.1" width="5.02" height="41.16"/><polygon class="cls-4" points="402.59 366.95 425.01 366.95 421.94 346.26 404.95 346.26 402.59 366.95"/><polygon class="cls-4" points="393.56 326.49 403.51 326.49 401.76 316.87 395.31 316.87 393.56 326.49"/><rect class="cls-5" x="406.65" y="282.1" width="7.14" height="64.16"/><polygon class="cls-6" points="413.8 366.95 402.59 366.95 404.95 346.26 413.8 346.26 413.8 366.95"/><rect class="cls-5" x="396.02" y="282.1" width="2.51" height="34.76"/><polygon class="cls-6" points="398.54 316.87 398.54 326.49 393.56 326.49 395.31 316.87 398.54 316.87"/><rect class="cls-3" x="249.76" y="282.1" width="5.02" height="41.16"/><polygon class="cls-4" points="247.3 326.49 257.25 326.49 255.5 316.87 249.05 316.87 247.3 326.49"/><rect class="cls-5" x="249.76" y="282.1" width="2.51" height="34.76"/><polygon class="cls-6" points="252.27 316.87 252.27 326.49 247.3 326.49 249.05 316.87 252.27 316.87"/><rect class="cls-3" x="256.34" y="282.1" width="13.36" height="82.31"/><polygon class="cls-4" points="252.27 366.95 274.7 366.95 271.63 346.26 254.64 346.26 252.27 366.95"/><rect class="cls-5" x="256.34" y="282.1" width="7.14" height="64.16"/><polygon class="cls-6" points="263.49 366.95 252.27 366.95 254.64 346.26 263.49 346.26 263.49 366.95"/><polygon class="cls-7" points="402.37 75.67 256.34 75.67 110.3 75.67 44.54 146.31 256.34 146.31 468.14 146.31 402.37 75.67"/><polygon class="cls-8" points="44.54 146.31 44.54 149.2 69.67 159.12 85.53 159.12 85.53 146.31 44.54 146.31"/><polygon class="cls-8" points="468.14 146.31 468.14 149.2 443.01 159.12 427.15 159.12 427.15 146.31 468.14 146.31"/><polygon class="cls-7" points="111.67 80.03 110.38 80.03 110.75 61.02 111.03 59.33 111.3 61.02 111.67 80.03"/><ellipse class="cls-7" cx="111.02" cy="69.65" rx="4.1" ry="2.72"/><ellipse class="cls-7" cx="111.02" cy="65.71" rx="2.1" ry="1.39"/><ellipse class="cls-7" cx="111.02" cy="63.37" rx="1.42" ry="0.94"/><ellipse class="cls-7" cx="111.02" cy="73.73" rx="3.08" ry="1.98"/><ellipse class="cls-7" cx="253.47" cy="75.09" rx="5.01" ry="3.33"/><polygon class="cls-7" points="250.59 73.44 253.47 67.86 256.36 73.44 250.59 73.44"/><path class="cls-7" d="M53,146.31H44.5c-1.09,0-5.06-2.61-3.81-6.35a6,6,0,0,0-3.24-7.35s11.39.19,11.42,7.21,9,2.88,9,2.88Z"/><polygon class="cls-7" points="400.33 80.03 401.62 80.03 401.25 61.02 400.98 59.33 400.7 61.02 400.33 80.03"/><ellipse class="cls-7" cx="400.98" cy="69.65" rx="4.1" ry="2.72"/><ellipse class="cls-7" cx="400.98" cy="65.71" rx="2.1" ry="1.39"/><ellipse class="cls-7" cx="400.98" cy="63.37" rx="1.42" ry="0.94"/><ellipse class="cls-7" cx="400.98" cy="73.73" rx="3.08" ry="1.98"/><path class="cls-7" d="M459,146.31h8.48c1.09,0,5.06-2.61,3.81-6.35a6,6,0,0,1,3.24-7.35s-11.39.19-11.42,7.21-9,2.88-9,2.88Z"/><rect class="cls-9" x="44.5" y="146.31" width="423.64" height="2.89"/><rect class="cls-10" x="96.02" y="149.2" width="1.49" height="128.03"/><rect class="cls-10" x="141.19" y="149.2" width="1.49" height="128.03"/><rect class="cls-10" x="186.35" y="149.2" width="1.49" height="128.03"/><rect class="cls-10" x="231.51" y="149.2" width="1.49" height="128.03"/><rect class="cls-10" x="276.68" y="149.2" width="1.49" height="128.03"/><rect class="cls-10" x="321.84" y="149.2" width="1.49" height="128.03"/><rect class="cls-10" x="367" y="149.2" width="1.49" height="128.03"/><rect class="cls-10" x="412.17" y="149.2" width="1.49" height="128.03"/><rect class="cls-11" x="121.11" y="188.92" width="42.83" height="50.57"/><rect class="cls-12" x="124.46" y="192.89" width="36.12" height="42.64"/><rect class="cls-11" x="121.11" y="219.02" width="42.83" height="3.5"/><rect class="cls-11" x="140.93" y="190.74" width="3.19" height="46.93"/><rect class="cls-11" x="338.52" y="188.92" width="42.83" height="50.57"/><rect class="cls-12" x="341.87" y="192.89" width="36.12" height="42.64"/><rect class="cls-11" x="338.52" y="219.02" width="42.83" height="3.5"/><rect class="cls-11" x="358.34" y="190.74" width="3.19" height="46.93"/><rect class="cls-13" x="202.13" y="170.07" width="107.15" height="107.15"/><rect class="cls-14" x="202.13" y="167.38" width="107.15" height="2.69"/><rect class="cls-15" x="252.27" y="178.92" width="9.14" height="98.3"/><polygon class="cls-16" points="253.33 277.22 251.22 277.22 251.22 179.97 212.54 179.97 212.54 277.22 210.44 277.22 210.44 177.87 253.33 177.87 253.33 277.22"/><path class="cls-16" d="M245.89,194.84a1.49,1.49,0,0,1-1.44-1.25,5.52,5.52,0,0,0-10.91,0,1.5,1.5,0,0,1-1.44,1.25h-.89a1.49,1.49,0,0,1-1.44-1.25,5.52,5.52,0,0,0-10.91,0,1.5,1.5,0,0,1-1.44,1.25H217V274h29.36V194.84Z"/><rect class="cls-17" x="210.24" y="196.52" width="2.5" height="8.27"/><rect class="cls-17" x="210.24" y="256.29" width="2.5" height="8.27"/><path class="cls-18" d="M250.15,231.66H245.6v1.61h4.55a2.17,2.17,0,1,0,0-1.61Z"/><rect class="cls-13" x="220.06" y="198.16" width="23.18" height="41.33"/><rect class="cls-13" x="220.06" y="250.99" width="23.18" height="19.76"/><rect class="cls-16" x="230.19" y="195.97" width="2.93" height="75.52"/><rect class="cls-13" x="214.44" y="242.24" width="35.52" height="5.64"/><polygon class="cls-16" points="303.66 277.22 301.56 277.22 301.56 179.97 262.88 179.97 262.88 277.22 260.77 277.22 260.77 177.87 303.66 177.87 303.66 277.22"/><path class="cls-16" d="M268.21,194.84a1.49,1.49,0,0,0,1.44-1.25,5.52,5.52,0,0,1,10.91,0,1.5,1.5,0,0,0,1.44,1.25h.89a1.49,1.49,0,0,0,1.44-1.25,5.52,5.52,0,0,1,10.91,0,1.5,1.5,0,0,0,1.44,1.25h.45V274H267.77V194.84Z"/><rect class="cls-17" x="301.36" y="196.52" width="2.5" height="8.27" transform="translate(605.22 401.32) rotate(-180)"/><rect class="cls-17" x="301.36" y="256.29" width="2.5" height="8.27" transform="translate(605.22 520.85) rotate(-180)"/><path class="cls-18" d="M264,231.66h4.55v1.61H264a2.17,2.17,0,1,1,0-1.61Z"/><rect class="cls-13" x="270.86" y="198.16" width="23.18" height="41.33" transform="translate(564.89 437.65) rotate(-180)"/><rect class="cls-13" x="270.86" y="250.99" width="23.18" height="19.76" transform="translate(564.89 521.75) rotate(-180)"/><rect class="cls-16" x="280.98" y="195.97" width="2.93" height="75.52" transform="translate(564.89 467.46) rotate(-180)"/><rect class="cls-13" x="264.13" y="242.24" width="35.52" height="5.64"/><polygon class="cls-2" points="225.14 280.26 202.53 452.67 193.31 452.67 216.07 279.07 225.14 280.26"/><polygon class="cls-19" points="197.29 452.67 202.53 452.67 225.14 282.1 219.9 282.1 197.29 452.67"/><polygon class="cls-2" points="293.36 280.26 315.97 452.67 325.2 452.67 302.43 279.07 293.36 280.26"/><polygon class="cls-19" points="321.21 452.67 315.97 452.67 293.36 282.1 298.6 282.1 321.21 452.67"/><rect class="cls-20" x="85.53" y="277.22" width="341.62" height="4.88"/><rect class="cls-19" x="200.7" y="434.51" width="116.8" height="3.9"/><polygon class="cls-21" points="200.7 434.51 205.38 432.86 312.6 432.86 317.5 434.51 200.7 434.51"/><rect class="cls-19" x="204.4" y="407.02" width="109.41" height="3.9"/><polygon class="cls-21" points="204.4 407.02 208.78 405.37 309.21 405.37 313.81 407.02 204.4 407.02"/><rect class="cls-19" x="208.09" y="379.53" width="102.03" height="3.9"/><polygon class="cls-21" points="208.09 379.53 212.17 377.88 305.83 377.88 310.12 379.53 208.09 379.53"/><rect class="cls-19" x="211.78" y="352.03" width="94.64" height="3.9"/><polygon class="cls-21" points="211.78 352.03 215.57 350.39 302.45 350.39 306.43 352.03 211.78 352.03"/><rect class="cls-19" x="215.47" y="324.54" width="87.26" height="3.9"/><polygon class="cls-21" points="215.47 324.54 218.97 322.9 299.07 322.9 302.73 324.54 215.47 324.54"/><rect class="cls-19" x="219.17" y="297.05" width="79.87" height="3.9"/><polygon class="cls-21" points="219.17 297.05 222.37 295.4 295.68 295.4 299.04 297.05 219.17 297.05"/></svg>