<svg id="Layer_1" data-name="Layer 1" xmlns="http://www.w3.org/2000/svg" viewBox="0 0 512 512"><defs><style>.cls-1{fill:#d8deea;}.cls-2{fill:#bd8a49;}.cls-3{fill:#2f1e0a;}.cls-4{fill:#8c603c;}.cls-5{fill:#726a65;}.cls-6{fill:#5f3712;}.cls-7{fill:#383432;}.cls-8{fill:#783220;}.cls-9{fill:#204c77;}.cls-10{fill:#966a3b;}.cls-11{fill:#744f2c;}.cls-12{fill:#4f3721;}.cls-13{fill:#704826;}.cls-14{fill:#5c380d;}.cls-15{fill:#8b5f39;}.cls-16{fill:#a67846;}.cls-17{fill:#4c301b;}.cls-18{fill:#c2915d;}.cls-19{fill:#7c5831;}.cls-20{fill:#6b5c4a;}.cls-21{fill:#c4894e;}.cls-22{fill:#9b3d2a;}</style></defs><polygon class="cls-1" points="391.74 404.51 121.72 404.51 134.81 371.36 378.66 370 391.74 404.51"/><rect class="cls-2" x="108.52" y="203.56" width="292.84" height="132.14"/><polygon class="cls-3" points="73.38 219.3 73.38 221.77 94.92 230.28 108.52 230.28 108.52 219.3 73.38 219.3"/><polygon class="cls-3" points="436.5 219.3 436.5 221.77 414.95 230.28 401.36 230.28 401.36 219.3 436.5 219.3"/><rect class="cls-4" x="116.4" y="336.08" width="11.45" height="70.56"/><rect class="cls-4" x="132.66" y="336.08" width="4.31" height="35.28"/><polygon class="cls-5" points="131.34 408.81 112.11 408.81 114.74 391.07 129.31 391.07 131.34 408.81"/><polygon class="cls-5" points="139.07 374.13 130.54 374.13 132.04 365.88 137.57 365.88 139.07 374.13"/><rect class="cls-6" x="121.72" y="336.08" width="6.12" height="55"/><polygon class="cls-7" points="121.72 408.81 131.34 408.81 129.31 391.07 121.72 391.07 121.72 408.81"/><rect class="cls-6" x="134.81" y="336.08" width="2.15" height="29.8"/><polygon class="cls-7" points="134.81 365.88 134.81 374.13 139.07 374.13 137.57 365.88 134.81 365.88"/><rect class="cls-4" x="385.62" y="336.08" width="11.45" height="70.56"/><rect class="cls-4" x="376.51" y="336.08" width="4.31" height="35.28"/><polygon class="cls-5" points="382.13 408.81 401.36 408.81 398.73 391.07 384.16 391.07 382.13 408.81"/><polygon class="cls-5" points="374.39 374.13 382.93 374.13 381.42 365.88 375.9 365.88 374.39 374.13"/><rect class="cls-6" x="385.62" y="336.08" width="6.12" height="55"/><polygon class="cls-7" points="391.74 408.81 382.13 408.81 384.16 391.07 391.74 391.07 391.74 408.81"/><rect class="cls-6" x="376.51" y="336.08" width="2.15" height="29.8"/><polygon class="cls-7" points="378.66 365.88 378.66 374.13 374.39 374.13 375.9 365.88 378.66 365.88"/><rect class="cls-4" x="251.13" y="336.08" width="4.31" height="35.28"/><polygon class="cls-5" points="249.02 374.13 257.55 374.13 256.05 365.88 250.52 365.88 249.02 374.13"/><rect class="cls-6" x="251.13" y="336.08" width="2.15" height="29.8"/><polygon class="cls-7" points="253.28 365.88 253.28 374.13 249.02 374.13 250.52 365.88 253.28 365.88"/><rect class="cls-4" x="256.77" y="336.08" width="11.45" height="70.56"/><polygon class="cls-5" points="253.28 408.81 272.5 408.81 269.88 391.07 255.31 391.07 253.28 408.81"/><rect class="cls-6" x="256.77" y="336.08" width="6.12" height="55"/><polygon class="cls-7" points="262.89 408.81 253.28 408.81 255.31 391.07 262.89 391.07 262.89 408.81"/><polygon class="cls-8" points="256.24 47.84 255.14 47.84 255.46 31.54 255.69 30.09 255.93 31.54 256.24 47.84"/><ellipse class="cls-8" cx="255.69" cy="38.93" rx="3.51" ry="2.33"/><ellipse class="cls-8" cx="255.69" cy="35.55" rx="1.8" ry="1.19"/><ellipse class="cls-8" cx="255.69" cy="33.56" rx="1.21" ry="0.81"/><ellipse class="cls-8" cx="255.69" cy="42.43" rx="2.64" ry="1.69"/><path class="cls-8" d="M80.61,219.3H73.35c-.94,0-4.35-2.25-3.27-5.45a5.11,5.11,0,0,0-2.78-6.3s9.76.17,9.79,6.18,7.72,2.47,7.72,2.47Z"/><path class="cls-8" d="M194,151.62h-7.26c-.94,0-4.35-2.24-3.27-5.45a5.11,5.11,0,0,0-2.78-6.3s9.76.17,9.79,6.19,7.72,2.46,7.72,2.46Z"/><path class="cls-8" d="M431.39,219.3h7.26c.94,0,4.35-2.25,3.27-5.45a5.11,5.11,0,0,1,2.78-6.3s-9.76.17-9.79,6.18-7.72,2.47-7.72,2.47Z"/><path class="cls-8" d="M318,151.62h7.26c.94,0,4.35-2.24,3.27-5.45a5.11,5.11,0,0,1,2.78-6.3s-9.76.17-9.79,6.19-7.72,2.46-7.72,2.46Z"/><rect class="cls-9" x="73.35" y="219.3" width="363.15" height="2.47"/><rect class="cls-10" x="117.51" y="221.77" width="1.27" height="109.75"/><rect class="cls-10" x="156.23" y="221.77" width="1.27" height="109.75"/><rect class="cls-10" x="194.94" y="221.77" width="1.27" height="109.75"/><rect class="cls-10" x="233.65" y="221.77" width="1.27" height="109.75"/><rect class="cls-10" x="272.37" y="221.77" width="1.27" height="109.75"/><rect class="cls-10" x="311.08" y="221.77" width="1.27" height="109.75"/><rect class="cls-10" x="349.8" y="221.77" width="1.27" height="109.75"/><rect class="cls-10" x="388.51" y="221.77" width="1.27" height="109.75"/><rect class="cls-11" x="139.01" y="255.83" width="36.71" height="43.35"/><rect class="cls-12" x="141.89" y="259.22" width="30.96" height="36.55"/><rect class="cls-11" x="139.01" y="281.62" width="36.71" height="3"/><rect class="cls-11" x="156" y="257.38" width="2.73" height="40.23"/><rect class="cls-11" x="325.38" y="255.83" width="36.71" height="43.35"/><rect class="cls-12" x="328.26" y="259.22" width="30.96" height="36.55"/><rect class="cls-11" x="325.38" y="281.62" width="36.71" height="3"/><rect class="cls-11" x="342.37" y="257.38" width="2.73" height="40.23"/><rect class="cls-13" x="208.47" y="239.66" width="91.85" height="91.85"/><rect class="cls-14" x="208.47" y="237.36" width="91.85" height="2.31"/><rect class="cls-15" x="251.45" y="247.25" width="7.83" height="84.27"/><polygon class="cls-16" points="252.35 331.52 250.55 331.52 250.55 248.15 217.39 248.15 217.39 331.52 215.59 331.52 215.59 246.35 252.35 246.35 252.35 331.52"/><path class="cls-16" d="M246,260.9a1.3,1.3,0,0,1-1.24-1.07,4.73,4.73,0,0,0-9.35,0,1.28,1.28,0,0,1-1.23,1.07h-.77a1.28,1.28,0,0,1-1.23-1.07,4.73,4.73,0,0,0-9.35,0,1.3,1.3,0,0,1-1.24,1.07h-.38v67.81h25.17V260.9Z"/><rect class="cls-17" x="215.42" y="262.34" width="2.14" height="7.09"/><rect class="cls-17" x="215.42" y="313.57" width="2.14" height="7.09"/><path class="cls-18" d="M249.63,292.46h-3.9v1.38h3.9a1.86,1.86,0,1,0,0-1.38Z"/><rect class="cls-13" x="223.84" y="263.75" width="19.87" height="35.43"/><rect class="cls-13" x="223.84" y="309.03" width="19.87" height="16.94"/><rect class="cls-16" x="232.52" y="261.86" width="2.51" height="64.74"/><rect class="cls-13" x="219.02" y="301.53" width="30.45" height="4.84"/><polygon class="cls-16" points="295.5 331.52 293.7 331.52 293.7 248.15 260.54 248.15 260.54 331.52 258.74 331.52 258.74 246.35 295.5 246.35 295.5 331.52"/><path class="cls-16" d="M265.11,260.9a1.3,1.3,0,0,0,1.24-1.07,4.73,4.73,0,0,1,9.35,0,1.28,1.28,0,0,0,1.23,1.07h.77a1.28,1.28,0,0,0,1.23-1.07,4.73,4.73,0,0,1,9.35,0,1.3,1.3,0,0,0,1.24,1.07h.38v67.81H264.73V260.9Z"/><rect class="cls-17" x="293.53" y="262.34" width="2.14" height="7.09" transform="translate(589.2 531.77) rotate(-180)"/><rect class="cls-17" x="293.53" y="313.57" width="2.14" height="7.09" transform="translate(589.2 634.23) rotate(-180)"/><path class="cls-18" d="M261.46,292.46h3.9v1.38h-3.9a1.86,1.86,0,1,1,0-1.38Z"/><rect class="cls-13" x="267.38" y="263.75" width="19.87" height="35.43" transform="translate(554.63 562.92) rotate(-180)"/><rect class="cls-13" x="267.38" y="309.03" width="19.87" height="16.94" transform="translate(554.63 635) rotate(-180)"/><rect class="cls-16" x="276.06" y="261.86" width="2.51" height="64.74" transform="translate(554.63 588.46) rotate(-180)"/><rect class="cls-13" x="261.62" y="301.53" width="30.45" height="4.84"/><polygon class="cls-2" points="228.19 334.12 208.81 481.91 200.9 481.91 220.41 333.1 228.19 334.12"/><polygon class="cls-19" points="204.32 481.91 208.81 481.91 228.19 335.7 223.7 335.7 204.32 481.91"/><polygon class="cls-2" points="286.67 334.12 306.05 481.91 313.96 481.91 294.45 333.1 286.67 334.12"/><polygon class="cls-19" points="310.55 481.91 306.05 481.91 286.67 335.7 291.16 335.7 310.55 481.91"/><rect class="cls-20" x="108.52" y="331.52" width="292.84" height="4.18"/><rect class="cls-19" x="207.24" y="466.34" width="100.12" height="3.35"/><polygon class="cls-21" points="207.25 466.34 211.25 464.93 303.16 464.93 307.37 466.34 207.25 466.34"/><rect class="cls-19" x="210.41" y="442.78" width="93.79" height="3.35"/><polygon class="cls-21" points="210.41 442.78 214.16 441.37 300.26 441.37 304.2 442.78 210.41 442.78"/><rect class="cls-19" x="213.58" y="419.21" width="87.46" height="3.35"/><polygon class="cls-21" points="213.58 419.21 217.08 417.8 297.36 417.8 301.04 419.21 213.58 419.21"/><rect class="cls-19" x="216.74" y="395.65" width="81.13" height="3.35"/><polygon class="cls-21" points="216.74 395.65 219.99 394.23 294.46 394.23 297.87 395.65 216.74 395.65"/><rect class="cls-19" x="219.91" y="372.08" width="74.8" height="3.35"/><polygon class="cls-21" points="219.91 372.08 222.9 370.67 291.56 370.67 294.71 372.08 219.91 372.08"/><rect class="cls-19" x="223.07" y="348.51" width="68.47" height="3.35"/><polygon class="cls-21" points="223.07 348.51 225.81 347.1 288.66 347.1 291.54 348.51 223.07 348.51"/><polygon class="cls-8" points="255.56 44.39 186.41 151.62 73.79 219.3 254.96 219.3 255.33 219.3 436.5 219.3 323.88 151.62 255.93 44.39 255.56 44.39"/><polygon class="cls-22" points="202.15 148.49 255.69 58.79 309.24 148.49 202.15 148.49"/><rect class="cls-20" x="108.52" y="221.77" width="4.89" height="109.75"/><rect class="cls-20" x="397.66" y="221.77" width="4.89" height="109.75"/></svg>