<svg id="Layer_1" data-name="Layer 1" xmlns="http://www.w3.org/2000/svg" viewBox="0 0 512 512"><defs><style>.cls-1{fill:#efe9da;}.cls-2{fill:#bd8a49;}.cls-3{fill:#a0723f;}.cls-4{fill:#442729;}.cls-5{fill:#422815;}.cls-6{fill:#665444;}.cls-7{fill:#c6c6c6;}.cls-8{fill:#a88667;}.cls-9{fill:#683c07;}.cls-10{fill:#440505;}.cls-11{fill:#6d1111;}.cls-12{fill:#6b2020;}.cls-13{fill:#420303;}.cls-14{fill:#2b0202;}.cls-15{fill:#7c5831;}.cls-16{fill:#c4894e;}.cls-17{fill:#847c76;}.cls-18{fill:#44403d;}.cls-19{fill:#7f5933;}.cls-20{fill:#996a3f;}.cls-21{fill:#895c2c;}.cls-22{fill:#c6c1ba;}.cls-23{fill:#726a65;}.cls-24{fill:#684c31;}</style></defs><polygon class="cls-1" points="89.37 359.01 53.1 397.85 351.15 397.85 314.97 359.01 89.37 359.01"/><rect class="cls-2" x="43.54" y="175.6" width="316.46" height="143.55"/><rect class="cls-3" x="43.54" y="305.6" width="316.46" height="1.25"/><rect class="cls-3" x="43.54" y="286.95" width="316.46" height="1.25"/><rect class="cls-3" x="43.54" y="268.3" width="316.46" height="1.25"/><rect class="cls-3" x="43.54" y="249.64" width="316.46" height="1.25"/><rect class="cls-3" x="43.54" y="230.99" width="316.46" height="1.25"/><rect class="cls-3" x="43.54" y="212.34" width="316.46" height="1.25"/><rect class="cls-3" x="43.54" y="193.69" width="316.46" height="1.25"/><rect class="cls-4" x="101.8" y="229.16" width="46.36" height="39.94"/><polygon class="cls-4" points="345.44 309.75 216.22 309.75 216.22 229.16 224.79 229.16 224.79 211.07 337.33 211.07 337.33 229.16 345.44 229.16 345.44 309.75"/><path class="cls-5" d="M346.49,310.81H215.16v-82.7h8.58V210H338.39v18.09h8.1Zm-129.21-2.12h127.1V230.22h-8.11V212.13H225.85v18.09h-8.57Z"/><rect class="cls-2" x="221" y="281.56" width="1.88" height="27.08"/><rect class="cls-2" x="231.72" y="281.56" width="1.88" height="27.08"/><rect class="cls-2" x="242.44" y="281.56" width="1.88" height="27.08"/><rect class="cls-2" x="253.16" y="281.56" width="1.88" height="27.08"/><rect class="cls-2" x="263.88" y="281.56" width="1.88" height="27.08"/><rect class="cls-2" x="274.61" y="281.56" width="1.88" height="27.08"/><rect class="cls-2" x="285.33" y="281.56" width="1.88" height="27.08"/><rect class="cls-2" x="296.05" y="281.56" width="1.88" height="27.08"/><rect class="cls-2" x="306.77" y="281.56" width="1.88" height="27.08"/><rect class="cls-2" x="317.49" y="281.56" width="1.88" height="27.08"/><rect class="cls-2" x="328.22" y="281.56" width="1.88" height="27.08"/><rect class="cls-2" x="338.94" y="281.56" width="1.88" height="27.08"/><rect class="cls-2" x="279.89" y="216.95" width="1.88" height="129.22" transform="translate(-0.73 562.39) rotate(-90)"/><rect class="cls-2" x="279.89" y="227.05" width="1.88" height="129.22" transform="translate(-10.83 572.49) rotate(-90)"/><path class="cls-6" d="M101.8,269.1,88,277.68a1.87,1.87,0,0,1-2.85-1.58V224.73A1.86,1.86,0,0,1,87.73,223l14.07,6.14Z"/><path class="cls-6" d="M148.17,269.1,162,277.68a1.87,1.87,0,0,0,2.85-1.58V224.73a1.86,1.86,0,0,0-2.61-1.71l-14.07,6.14Z"/><rect class="cls-7" x="101.8" y="229.16" width="46.36" height="1.88"/><rect class="cls-8" x="92.76" y="242.68" width="1.41" height="16.75" transform="translate(-164.9 321.84) rotate(-84.9)"/><rect class="cls-8" x="148.13" y="250.35" width="16.75" height="1.41" transform="translate(-21.69 14.9) rotate(-5.1)"/><rect class="cls-9" x="43.54" y="315.15" width="318.34" height="3.99"/><polygon class="cls-10" points="120.04 163.12 203.49 72.46 286.93 170.41 206.42 183.35 154.5 176.49 120.04 163.12"/><polygon class="cls-11" points="27.33 187.58 204.87 187.58 204.87 181 35.08 181 27.33 187.58"/><polygon class="cls-11" points="379.31 187.58 201.77 187.58 201.77 181 371.56 181 379.31 187.58"/><polygon class="cls-11" points="38.14 181 119.65 100.89 202.17 181 38.14 181"/><polygon class="cls-11" points="203.49 181 285 100.89 367.52 181 203.49 181"/><polygon class="cls-12" points="156.51 136.67 203.49 85.38 248.59 136.67 202.17 182.79 156.51 136.67"/><polygon class="cls-13" points="119.65 118.04 53.1 181 185.44 181 119.65 118.04"/><polygon class="cls-13" points="285 118.04 220.35 181 350.65 181 285 118.04"/><polygon class="cls-14" points="27.33 187.58 27.33 190.08 43.54 194.31 43.54 187.58 27.33 187.58"/><polygon class="cls-14" points="379.31 187.58 379.31 190.08 360 194.32 360 187.58 379.31 187.58"/><polygon class="cls-2" points="429.48 349.12 415.46 439.54 410.16 439.54 424.28 348.5 429.48 349.12"/><polygon class="cls-15" points="412.45 439.54 415.46 439.54 429.27 350.48 426.48 350.08 412.45 439.54"/><polygon class="cls-2" points="466.64 351.6 479.38 439.54 484.67 439.54 471.86 351.63 466.64 351.6"/><polygon class="cls-15" points="482.39 439.54 479.38 439.54 466.64 351.6 469.46 351.63 482.39 439.54"/><rect class="cls-15" x="414.41" y="430.11" width="67" height="2.03"/><polygon class="cls-16" points="414.41 430.11 417.09 429.25 478.59 429.25 481.4 430.11 414.41 430.11"/><rect class="cls-15" x="416.52" y="415.82" width="62.76" height="2.03"/><polygon class="cls-16" points="416.52 415.82 419.04 414.97 476.65 414.97 479.28 415.82 416.52 415.82"/><rect class="cls-15" x="418.64" y="401.54" width="58.52" height="2.03"/><polygon class="cls-16" points="418.64 401.54 420.99 400.68 474.71 400.68 477.17 401.54 418.64 401.54"/><rect class="cls-15" x="420.76" y="387.26" width="54.29" height="2.03"/><polygon class="cls-16" points="420.76 387.25 422.93 386.4 472.77 386.4 475.05 387.25 420.76 387.25"/><rect class="cls-15" x="422.88" y="372.97" width="50.05" height="2.03"/><polygon class="cls-16" points="422.88 372.97 424.88 372.12 470.83 372.12 472.93 372.97 422.88 372.97"/><rect class="cls-15" x="425" y="358.69" width="45.81" height="2.03"/><polygon class="cls-16" points="425 358.69 426.83 357.83 468.89 357.83 470.81 358.69 425 358.69"/><polygon class="cls-17" points="424.34 351.6 471.91 351.63 460.87 342.24 426.01 342.24 424.34 351.6"/><polygon class="cls-18" points="428.75 353.84 466.96 353.84 466.64 351.6 429.1 351.63 428.75 353.84"/><rect class="cls-2" x="469.84" y="334.72" width="1.97" height="16.92"/><rect class="cls-2" x="360" y="272.81" width="1.28" height="25.12"/><polygon class="cls-2" points="367.23 302.55 365.94 302.61 365.94 277.49 367.23 277.49 367.23 302.55"/><polygon class="cls-2" points="373.17 307.16 371.89 307.28 371.89 282.16 373.17 282.16 373.17 307.16"/><polygon class="cls-2" points="379.11 311.78 377.83 311.96 377.83 286.84 379.11 286.84 379.11 311.78"/><polygon class="cls-2" points="385.06 316.39 383.77 316.63 383.77 291.51 385.06 291.51 385.06 316.39"/><polygon class="cls-2" points="391 321.01 389.71 321.31 389.71 296.19 391 296.19 391 321.01"/><polygon class="cls-2" points="396.94 325.62 395.65 325.99 395.65 300.87 396.94 300.87 396.94 325.62"/><polygon class="cls-2" points="402.88 330.24 401.6 330.66 401.6 305.54 402.88 305.54 402.88 330.24"/><polygon class="cls-2" points="408.82 334.85 407.54 335.34 407.54 310.22 408.82 310.22 408.82 334.85"/><polygon class="cls-2" points="414.76 339.47 413.48 340.01 413.48 314.89 414.76 314.89 414.76 339.47"/><polygon class="cls-2" points="420.71 344.08 419.42 344.69 419.42 319.57 420.71 319.57 420.71 344.08"/><polygon class="cls-2" points="426.65 348.7 425.36 349.36 425.36 324.24 426.65 324.24 426.65 348.7"/><polygon class="cls-2" points="426.65 326.03 360 274.43 360 271.82 426.65 323.66 426.65 326.03"/><polygon class="cls-17" points="424.34 351.6 360.04 302.06 360 295.1 428.19 347.45 424.34 351.6"/><rect class="cls-3" x="426.65" y="327.12" width="34.2" height="0.82"/><rect class="cls-2" x="459.85" y="327.12" width="1" height="15.11"/><polygon class="cls-19" points="459.85 327.94 469.84 336.03 469.84 334.72 459.85 327.12 459.85 327.94"/><polygon class="cls-20" points="471.81 334.72 469.84 334.72 459.85 327.12 460.85 327.12 471.81 334.72"/><polygon class="cls-19" points="469.84 351.63 468.9 350.61 468.9 335.27 469.84 336.03 469.84 351.63"/><rect class="cls-21" x="48.84" y="319.15" width="8.93" height="76.36"/><rect class="cls-21" x="68.66" y="319.15" width="6.73" height="55.05"/><rect class="cls-21" x="86.96" y="319.15" width="4.66" height="38.18"/><rect class="cls-22" x="47.08" y="393.21" width="12.22" height="2.46"/><rect class="cls-23" x="45.14" y="395.39" width="16.09" height="2.46"/><rect class="cls-22" x="67.7" y="373.63" width="8.38" height="2.05"/><rect class="cls-23" x="66.37" y="375.44" width="11.04" height="2.05"/><rect class="cls-22" x="85.95" y="356.76" width="6.84" height="1.63"/><rect class="cls-21" x="202.46" y="319.15" width="3.21" height="38.77"/><rect class="cls-22" x="201.68" y="357.66" width="4.48" height="1.15"/><rect class="cls-23" x="200.97" y="358.68" width="5.9" height="1.15"/><rect class="cls-23" x="84.87" y="358.2" width="9.01" height="1.63"/><rect class="cls-21" x="346.57" y="319.15" width="8.93" height="76.36"/><rect class="cls-21" x="328.95" y="319.15" width="6.73" height="55.05"/><rect class="cls-21" x="312.72" y="319.15" width="4.66" height="38.18"/><rect class="cls-21" x="206.96" y="319.15" width="4.54" height="55.05"/><rect class="cls-22" x="345.04" y="393.21" width="12.22" height="2.46"/><rect class="cls-23" x="343.11" y="395.39" width="16.09" height="2.46"/><rect class="cls-22" x="328.26" y="373.63" width="8.38" height="2.05"/><rect class="cls-22" x="205.63" y="373.63" width="7.37" height="2.05"/><rect class="cls-23" x="204.46" y="375.44" width="9.71" height="2.05"/><rect class="cls-23" x="326.93" y="375.44" width="11.04" height="2.05"/><rect class="cls-22" x="311.55" y="356.76" width="6.84" height="1.63"/><rect class="cls-23" x="310.47" y="358.2" width="9.01" height="1.63"/><rect class="cls-21" x="212.7" y="319.15" width="8.93" height="76.36"/><rect class="cls-22" x="211.18" y="393.21" width="12.22" height="2.46"/><rect class="cls-23" x="209.24" y="395.39" width="16.09" height="2.46"/><rect class="cls-24" x="53.19" y="319.15" width="4.58" height="74.06"/><rect class="cls-24" x="71.89" y="319.15" width="3.5" height="54.49"/><rect class="cls-24" x="89.29" y="319.15" width="2.31" height="37.59"/><rect class="cls-24" x="212.7" y="319.15" width="4.58" height="74.06"/><rect class="cls-24" x="206.94" y="319.15" width="2.29" height="54.49"/><rect class="cls-24" x="202.46" y="319.15" width="1.46" height="38.18"/><rect class="cls-24" x="346.57" y="319.15" width="4.46" height="74.06"/><rect class="cls-24" x="328.95" y="319.15" width="3.37" height="54.49"/><rect class="cls-24" x="312.72" y="319.15" width="2.25" height="37.61"/></svg>