<svg id="Layer_1" data-name="Layer 1" xmlns="http://www.w3.org/2000/svg" viewBox="0 0 512 512"><defs><style>.cls-1{fill:#afdcdd;}.cls-2{fill:#be8949;}.cls-3{fill:#a57541;}.cls-4{fill:#d89955;}.cls-5{fill:#4a2f11;}.cls-6{fill:#bd8a49;}.cls-7{fill:#683c07;}.cls-8{fill:#440505;}.cls-9{fill:#540e0e;}.cls-10{fill:#6d1111;}.cls-11{fill:#6b2020;}.cls-12{fill:#420303;}.cls-13{fill:#2b0202;}.cls-14{fill:#895c2c;}.cls-15{fill:#c6c1ba;}.cls-16{fill:#726a65;}.cls-17{fill:#684c31;}.cls-18{fill:#7c5831;}.cls-19{fill:#c4894e;}.cls-20{fill:#744f2c;}.cls-21{fill:#4f3721;}.cls-22{fill:#fff;}</style></defs><polygon class="cls-1" points="77.69 435.95 433.56 435.95 389.19 389.72 120.62 389.72 77.69 435.95"/><rect class="cls-2" x="66.06" y="171.37" width="376.73" height="170.89"/><rect class="cls-3" x="81.11" y="185.64" width="6.84" height="151.87"/><rect class="cls-3" x="123.73" y="185.64" width="6.84" height="151.87"/><rect class="cls-3" x="166.34" y="185.64" width="6.84" height="151.87"/><rect class="cls-3" x="208.96" y="185.64" width="6.84" height="151.87"/><rect class="cls-3" x="251.57" y="185.64" width="6.84" height="151.87"/><rect class="cls-3" x="294.19" y="185.64" width="6.84" height="151.87"/><rect class="cls-3" x="336.8" y="185.64" width="6.84" height="151.87"/><rect class="cls-3" x="379.42" y="185.64" width="6.84" height="151.87"/><rect class="cls-3" x="422.03" y="185.64" width="6.84" height="151.87"/><rect class="cls-4" x="175.91" y="185.64" width="182.34" height="151.87"/><polygon class="cls-5" points="344.35 331.07 190.53 331.07 190.53 223.55 200.74 223.55 200.74 199.42 334.7 199.42 334.7 223.55 344.35 223.55 344.35 331.07"/><rect class="cls-6" x="214.5" y="272.42" width="3.25" height="51.18" transform="translate(-81.89 514.14) rotate(-90)"/><rect class="cls-6" x="214.94" y="293" width="2.36" height="51.18" transform="translate(-102.47 534.71) rotate(-90)"/><rect class="cls-6" x="240.29" y="296.39" width="3.66" height="35.22" transform="translate(484.24 628) rotate(180)"/><rect class="cls-7" x="66.06" y="337.5" width="378.97" height="4.75"/><polygon class="cls-8" points="157.13 156.51 256.47 48.59 355.8 165.19 259.96 180.6 198.15 172.43 157.13 156.51"/><polygon class="cls-9" points="46.76 185.64 258.12 185.64 258.12 177.81 55.99 177.81 46.76 185.64"/><polygon class="cls-9" points="465.78 185.64 254.43 185.64 254.43 177.81 456.55 177.81 465.78 185.64"/><polygon class="cls-10" points="256.47 177.81 353.5 82.43 451.74 177.81 256.47 177.81"/><polygon class="cls-11" points="184.52 142.52 256.47 63.98 310.16 125.03 264.55 174.71 184.52 142.52"/><polygon class="cls-12" points="353.5 102.85 276.55 177.81 431.66 177.81 353.5 102.85"/><polygon class="cls-13" points="46.76 185.64 46.76 188.61 66.06 193.65 66.06 185.64 46.76 185.64"/><polygon class="cls-13" points="465.78 185.64 465.78 188.61 442.79 193.65 442.79 185.64 465.78 185.64"/><rect class="cls-14" x="72.38" y="342.26" width="10.63" height="90.9"/><rect class="cls-14" x="95.96" y="342.26" width="8.02" height="65.54"/><rect class="cls-14" x="117.75" y="342.26" width="5.55" height="45.45"/><rect class="cls-15" x="70.28" y="430.43" width="14.54" height="2.93"/><rect class="cls-16" x="67.97" y="433.02" width="19.16" height="2.93"/><rect class="cls-15" x="94.82" y="407.12" width="9.98" height="2.44"/><rect class="cls-16" x="93.24" y="409.28" width="13.15" height="2.44"/><rect class="cls-15" x="116.55" y="387.03" width="8.14" height="1.94"/><rect class="cls-14" x="255.25" y="342.26" width="3.82" height="46.15"/><rect class="cls-15" x="254.32" y="388.1" width="5.33" height="1.37"/><rect class="cls-16" x="253.47" y="389.32" width="7.03" height="1.37"/><rect class="cls-16" x="115.26" y="388.75" width="10.72" height="1.94"/><rect class="cls-14" x="426.8" y="342.26" width="10.63" height="90.9"/><rect class="cls-14" x="405.83" y="342.26" width="8.02" height="65.54"/><rect class="cls-14" x="386.5" y="342.26" width="5.55" height="45.45"/><rect class="cls-14" x="260.6" y="342.26" width="5.41" height="65.54"/><rect class="cls-15" x="424.98" y="430.43" width="14.54" height="2.93"/><rect class="cls-16" x="422.68" y="433.02" width="19.16" height="2.93"/><rect class="cls-15" x="405.01" y="407.12" width="9.98" height="2.44"/><rect class="cls-15" x="259.02" y="407.12" width="8.78" height="2.44"/><rect class="cls-16" x="257.63" y="409.28" width="11.56" height="2.44"/><rect class="cls-16" x="403.43" y="409.28" width="13.15" height="2.44"/><rect class="cls-15" x="385.12" y="387.03" width="8.14" height="1.94"/><rect class="cls-16" x="383.82" y="388.75" width="10.72" height="1.94"/><rect class="cls-14" x="267.44" y="342.26" width="10.63" height="90.9"/><rect class="cls-15" x="265.62" y="430.43" width="14.54" height="2.93"/><rect class="cls-16" x="263.32" y="433.02" width="19.16" height="2.93"/><rect class="cls-17" x="77.55" y="342.26" width="5.45" height="88.17"/><rect class="cls-17" x="99.81" y="342.26" width="4.17" height="64.86"/><rect class="cls-17" x="120.53" y="342.26" width="2.75" height="44.75"/><rect class="cls-17" x="267.44" y="342.26" width="5.45" height="88.17"/><rect class="cls-17" x="260.58" y="342.26" width="2.73" height="64.86"/><rect class="cls-17" x="255.25" y="342.26" width="1.73" height="45.45"/><rect class="cls-17" x="426.8" y="342.26" width="5.31" height="88.17"/><rect class="cls-17" x="405.83" y="342.26" width="4.01" height="64.86"/><rect class="cls-17" x="386.5" y="342.26" width="2.68" height="44.77"/><polygon class="cls-6" points="236.41 342.26 213.11 490.17 204.32 490.17 227.77 342.26 236.41 342.26"/><polygon class="cls-18" points="208.12 490.17 213.11 490.17 236.39 342.26 231.09 342.26 208.12 490.17"/><polygon class="cls-6" points="297.68 342.23 319.28 490.17 328.07 490.17 306.37 342.28 297.68 342.23"/><polygon class="cls-18" points="324.28 490.17 319.28 490.17 297.68 342.23 302.37 342.28 324.28 490.17"/><rect class="cls-18" x="211.37" y="474.5" width="111.27" height="3.37"/><polygon class="cls-19" points="211.37 474.5 215.82 473.08 317.97 473.08 322.64 474.5 211.37 474.5"/><rect class="cls-18" x="214.89" y="450.78" width="104.24" height="3.37"/><polygon class="cls-19" points="214.89 450.78 219.06 449.36 314.75 449.36 319.13 450.78 214.89 450.78"/><rect class="cls-18" x="218.41" y="427.06" width="97.2" height="3.37"/><polygon class="cls-19" points="218.41 427.06 222.3 425.63 311.52 425.63 315.61 427.06 218.41 427.06"/><rect class="cls-18" x="221.92" y="403.33" width="90.17" height="3.37"/><polygon class="cls-19" points="221.92 403.33 225.53 401.91 308.3 401.91 312.09 403.33 221.92 403.33"/><rect class="cls-18" x="225.44" y="379.61" width="83.13" height="3.37"/><polygon class="cls-19" points="225.44 379.61 228.77 378.19 305.08 378.19 308.57 379.61 225.44 379.61"/><rect class="cls-18" x="228.96" y="355.88" width="76.09" height="3.37"/><polygon class="cls-19" points="228.96 355.88 232.01 354.46 301.86 354.46 305.05 355.88 228.96 355.88"/><rect class="cls-20" x="375.59" y="237.58" width="51.21" height="42.67"/><rect class="cls-21" x="379.61" y="240.92" width="43.18" height="35.98"/><rect class="cls-20" x="375.59" y="262.97" width="51.21" height="2.95"/><rect class="cls-20" x="399.29" y="239.11" width="3.81" height="39.6"/><rect class="cls-20" x="94.92" y="237.58" width="51.21" height="42.67"/><rect class="cls-21" x="98.94" y="240.92" width="43.18" height="35.98"/><rect class="cls-20" x="94.92" y="262.97" width="51.21" height="2.95"/><rect class="cls-20" x="118.62" y="239.11" width="3.81" height="39.6"/><rect class="cls-7" x="175.91" y="185.64" width="6.42" height="151.87"/><rect class="cls-7" x="352.59" y="185.64" width="6.42" height="151.87"/><rect class="cls-6" x="215.76" y="306.29" width="30.84" height="3.36" transform="translate(-145.2 226.56) rotate(-40.9)"/><rect class="cls-6" x="207.34" y="293.39" width="3.36" height="29.15" transform="translate(-157.87 245.31) rotate(-46.14)"/><rect class="cls-6" x="236.22" y="319.47" width="1.43" height="11.57"/><rect class="cls-6" x="232.47" y="319.47" width="1.43" height="11.57"/><rect class="cls-6" x="228.72" y="319.47" width="1.43" height="11.57"/><rect class="cls-6" x="224.97" y="319.47" width="1.43" height="11.57"/><rect class="cls-6" x="221.22" y="319.47" width="1.43" height="11.57"/><rect class="cls-6" x="217.47" y="319.47" width="1.43" height="11.57"/><rect class="cls-6" x="213.72" y="319.47" width="1.43" height="11.57"/><rect class="cls-6" x="209.97" y="319.47" width="1.43" height="11.57"/><rect class="cls-6" x="206.22" y="319.47" width="1.43" height="11.57"/><rect class="cls-6" x="202.47" y="319.47" width="1.43" height="11.57"/><rect class="cls-6" x="198.72" y="319.47" width="1.43" height="11.57"/><rect class="cls-6" x="194.97" y="319.47" width="1.43" height="11.57"/><rect class="cls-6" x="317.14" y="272.42" width="3.25" height="51.18" transform="translate(20.75 616.78) rotate(-90)"/><rect class="cls-6" x="317.58" y="293" width="2.36" height="51.18" transform="translate(0.17 637.35) rotate(-90)"/><rect class="cls-6" x="290.93" y="296.39" width="3.66" height="35.22"/><rect class="cls-6" x="302.03" y="292.55" width="3.36" height="30.84" transform="translate(-127.93 335.77) rotate(-49.08)"/><rect class="cls-6" x="311.29" y="306.29" width="29.15" height="3.36" transform="translate(-122.49 311.65) rotate(-43.85)"/><rect class="cls-6" x="297.23" y="319.47" width="1.43" height="11.57"/><rect class="cls-6" x="300.98" y="319.47" width="1.43" height="11.57"/><rect class="cls-6" x="304.73" y="319.47" width="1.43" height="11.57"/><rect class="cls-6" x="308.48" y="319.47" width="1.43" height="11.57"/><rect class="cls-6" x="312.23" y="319.47" width="1.43" height="11.57"/><rect class="cls-6" x="315.99" y="319.47" width="1.43" height="11.57"/><rect class="cls-6" x="319.74" y="319.47" width="1.43" height="11.57"/><rect class="cls-6" x="323.49" y="319.47" width="1.43" height="11.57"/><rect class="cls-6" x="327.24" y="319.47" width="1.43" height="11.57"/><rect class="cls-6" x="330.99" y="319.47" width="1.43" height="11.57"/><rect class="cls-6" x="334.74" y="319.47" width="1.43" height="11.57"/><rect class="cls-6" x="338.49" y="319.47" width="1.43" height="11.57"/><polygon class="cls-10" points="81.11 136.84 299.58 136.84 257.04 177.81 55.99 177.81 81.11 136.84"/><polygon class="cls-22" points="451.16 178.41 353.51 83.61 257.63 178.4 256.45 177.21 353.5 81.26 452.32 177.2 451.16 178.41"/><polygon class="cls-22" points="47.31 186.28 46.22 185 55.35 177.25 80.4 136.41 81.83 137.28 56.64 178.36 56.53 178.44 47.31 186.28"/><path class="cls-22" d="M174.46,137.15c-.27-.67-.35-.9,12.65-15.16,6.72-7.38,16.13-17.57,27.95-30.29C235.2,70,255.65,48.24,255.85,48l.65-.69L316.65,118l-1.28,1.09L256.44,49.85c-22.48,24-78.9,84.37-80.43,87.27a.73.73,0,0,0,0-.58Z"/></svg>