<svg id="Layer_1" data-name="Layer 1" xmlns="http://www.w3.org/2000/svg" viewBox="0 0 512 512"><defs><style>.cls-1{fill:#efe4e6;}.cls-2{fill:#bd8a49;}.cls-3{fill:#847c76;}.cls-4{fill:#966e40;}.cls-5{fill:#753;}.cls-6{fill:#4a2f11;}.cls-7{fill:#683c07;}.cls-8{fill:#f4f4f4;}.cls-9{fill:#895c2c;}.cls-10{fill:#c6c1ba;}.cls-11{fill:#726a65;}.cls-12{fill:#684c31;}.cls-13{fill:#5e2c10;}.cls-14{fill:#38190a;}.cls-15{fill:#895446;}.cls-16{fill:#204c77;}.cls-17{fill:#744f2c;}.cls-18{fill:#4f3721;}</style></defs><polygon class="cls-1" points="122.72 399.05 88.26 436.78 373.79 436.78 337.59 399.05 122.72 399.05"/><rect class="cls-2" x="379.72" y="318.22" width="1.79" height="39.8"/><rect class="cls-2" x="388.13" y="325.62" width="1.79" height="39.8"/><rect class="cls-2" x="396.55" y="333.03" width="1.79" height="39.8"/><rect class="cls-2" x="404.96" y="340.44" width="1.79" height="39.8"/><rect class="cls-2" x="413.38" y="347.85" width="1.79" height="39.8"/><rect class="cls-2" x="421.79" y="355.26" width="1.79" height="39.8"/><rect class="cls-2" x="430.21" y="362.67" width="1.79" height="39.8"/><rect class="cls-2" x="438.62" y="370.07" width="1.79" height="39.8"/><rect class="cls-2" x="447.04" y="377.48" width="1.79" height="39.8"/><rect class="cls-2" x="455.45" y="384.89" width="1.79" height="39.8"/><rect class="cls-2" x="463.87" y="392.3" width="1.79" height="39.8"/><rect class="cls-2" x="472.28" y="399.71" width="1.79" height="39.8"/><rect class="cls-3" x="422.85" y="332.28" width="4.7" height="129.66" transform="translate(-153.89 453.21) rotate(-48.58)"/><rect class="cls-2" x="425.55" y="295.41" width="2.01" height="126.51" transform="translate(-124.44 442.28) rotate(-48.69)"/><rect class="cls-4" x="78.31" y="216.15" width="301.41" height="145.67"/><rect class="cls-5" x="82.33" y="231.82" width="2.13" height="126.2"/><rect class="cls-5" x="108.83" y="231.82" width="2.13" height="126.2"/><rect class="cls-5" x="135.33" y="231.82" width="2.14" height="126.2"/><rect class="cls-5" x="161.82" y="231.82" width="2.15" height="126.2"/><rect class="cls-5" x="188.32" y="231.82" width="2.15" height="126.2"/><rect class="cls-5" x="214.81" y="231.82" width="2.16" height="126.2"/><rect class="cls-5" x="241.31" y="231.82" width="2.17" height="126.2"/><rect class="cls-5" x="267.8" y="231.82" width="2.17" height="126.2"/><rect class="cls-5" x="294.3" y="231.82" width="2.18" height="126.2"/><rect class="cls-5" x="320.8" y="231.82" width="2.19" height="126.2"/><rect class="cls-5" x="347.29" y="231.82" width="2.19" height="126.2"/><rect class="cls-5" x="373.79" y="231.82" width="2.2" height="126.2"/><path class="cls-6" d="M365.84,352.87H242.77V269.63a10.74,10.74,0,0,1,10.74-10.74H355.1a10.74,10.74,0,0,1,10.74,10.74Z"/><rect class="cls-2" x="247.32" y="326.02" width="1.79" height="25.79"/><rect class="cls-2" x="257.53" y="326.02" width="1.79" height="25.79"/><rect class="cls-2" x="267.75" y="326.02" width="1.79" height="25.79"/><rect class="cls-2" x="277.96" y="326.02" width="1.79" height="25.79"/><rect class="cls-2" x="288.17" y="326.02" width="1.79" height="25.79"/><rect class="cls-2" x="298.38" y="326.02" width="1.79" height="25.79"/><rect class="cls-2" x="308.59" y="326.02" width="1.79" height="25.79"/><rect class="cls-2" x="318.81" y="326.02" width="1.79" height="25.79"/><rect class="cls-2" x="329.02" y="326.02" width="1.79" height="25.79"/><rect class="cls-2" x="339.23" y="326.02" width="1.79" height="25.79"/><rect class="cls-2" x="349.44" y="326.02" width="1.79" height="25.79"/><rect class="cls-2" x="359.65" y="326.02" width="1.79" height="25.79"/><rect class="cls-2" x="303.41" y="264.49" width="1.79" height="123.07" transform="translate(-21.71 630.33) rotate(-90)"/><rect class="cls-2" x="303.41" y="274.11" width="1.79" height="123.07" transform="translate(-31.33 639.95) rotate(-90)"/><rect class="cls-7" x="78.31" y="358.02" width="303.2" height="3.8"/><path class="cls-8" d="M243.82,289s18.05-5.3,20.88-29H253.84a10,10,0,0,0-10,10Z"/><path class="cls-8" d="M364.8,289s-18.05-5.3-20.89-29h11.22a9.67,9.67,0,0,1,9.67,9.67Z"/><rect class="cls-9" x="84.12" y="361.82" width="8.5" height="72.72"/><rect class="cls-9" x="103" y="361.82" width="6.41" height="52.44"/><rect class="cls-9" x="120.43" y="361.82" width="4.44" height="36.36"/><rect class="cls-10" x="82.45" y="432.36" width="11.64" height="2.34"/><rect class="cls-11" x="80.6" y="434.44" width="15.33" height="2.34"/><rect class="cls-10" x="102.08" y="413.72" width="7.98" height="1.95"/><rect class="cls-11" x="100.81" y="415.44" width="10.52" height="1.95"/><rect class="cls-10" x="119.47" y="397.64" width="6.51" height="1.55"/><rect class="cls-9" x="230.43" y="361.82" width="3.06" height="36.92"/><rect class="cls-10" x="229.69" y="398.5" width="4.27" height="1.1"/><rect class="cls-11" x="229.01" y="399.47" width="5.62" height="1.1"/><rect class="cls-11" x="118.44" y="399.02" width="8.58" height="1.55"/><rect class="cls-9" x="367.69" y="361.82" width="8.5" height="72.72"/><rect class="cls-9" x="350.91" y="361.82" width="6.41" height="52.44"/><rect class="cls-9" x="335.45" y="361.82" width="4.44" height="36.36"/><rect class="cls-9" x="234.72" y="361.82" width="4.33" height="52.44"/><rect class="cls-10" x="366.23" y="432.36" width="11.64" height="2.34"/><rect class="cls-11" x="364.39" y="434.44" width="15.33" height="2.34"/><rect class="cls-10" x="350.25" y="413.72" width="7.98" height="1.95"/><rect class="cls-10" x="233.45" y="413.72" width="7.02" height="1.95"/><rect class="cls-11" x="232.34" y="415.44" width="9.25" height="1.95"/><rect class="cls-11" x="348.99" y="415.44" width="10.52" height="1.95"/><rect class="cls-10" x="334.34" y="397.64" width="6.51" height="1.55"/><rect class="cls-11" x="333.3" y="399.02" width="8.58" height="1.55"/><rect class="cls-9" x="240.19" y="361.82" width="8.5" height="72.72"/><rect class="cls-10" x="238.74" y="432.36" width="11.64" height="2.34"/><rect class="cls-11" x="236.89" y="434.44" width="15.33" height="2.34"/><rect class="cls-12" x="88.26" y="361.82" width="4.36" height="70.54"/><rect class="cls-12" x="106.07" y="361.82" width="3.34" height="51.89"/><rect class="cls-12" x="122.65" y="361.82" width="2.2" height="35.8"/><rect class="cls-12" x="240.19" y="361.82" width="4.36" height="70.54"/><rect class="cls-12" x="234.7" y="361.82" width="2.18" height="51.89"/><rect class="cls-12" x="230.43" y="361.82" width="1.39" height="36.36"/><rect class="cls-12" x="367.69" y="361.82" width="4.25" height="70.54"/><rect class="cls-12" x="350.91" y="361.82" width="3.21" height="51.89"/><rect class="cls-12" x="335.45" y="361.82" width="2.14" height="35.82"/><polygon class="cls-13" points="229.01 91.96 42.05 231.82 229.01 231.82 415.97 231.82 229.01 91.96"/><path class="cls-14" d="M42.05,231.82v4.38s36.26,8.34,36.26,7.9V231.82Z"/><path class="cls-14" d="M416,231.82v4.38s-36.25,8.34-36.25,7.9V231.82Z"/><polygon class="cls-13" points="230 97.92 228.28 97.92 228.78 72.5 229.14 70.24 229.51 72.5 230 97.92"/><ellipse class="cls-13" cx="229.14" cy="84.03" rx="5.48" ry="3.64"/><ellipse class="cls-13" cx="229.14" cy="78.76" rx="2.8" ry="1.86"/><ellipse class="cls-13" cx="229.14" cy="75.64" rx="1.89" ry="1.26"/><ellipse class="cls-13" cx="229.14" cy="89.5" rx="4.12" ry="2.64"/><path class="cls-13" d="M51.49,231.53H43.38c-1,0-4.84-2.5-3.64-6.08a5.7,5.7,0,0,0-3.1-7s10.89.19,10.92,6.9,8.62,2.76,8.62,2.76Z"/><path class="cls-13" d="M408,231.53h8.1c1,0,4.85-2.5,3.65-6.08a5.69,5.69,0,0,1,3.1-7s-10.89.19-10.93,6.9-8.61,2.76-8.61,2.76Z"/><polygon class="cls-15" points="229.14 108.74 121.89 191.68 229.14 191.68 336.4 191.68 229.14 108.74"/><rect class="cls-16" x="42.05" y="231.53" width="373.91" height="2.37"/><rect class="cls-8" x="259.07" y="259.95" width="88.39" height="7.95"/><rect class="cls-17" x="127.02" y="270.42" width="67.14" height="49"/><rect class="cls-18" x="132.29" y="274.26" width="56.61" height="41.32"/><rect class="cls-17" x="127.02" y="299.58" width="67.14" height="3.39"/><rect class="cls-17" x="158.09" y="272.18" width="5" height="45.48"/></svg>